<?xml version="1.0" encoding="utf-8"?>
<!-- Generator: Adobe Illustrator 23.1.0, SVG Export Plug-In . SVG Version: 6.00 Build 0)  -->
<svg version="1.1" id="Layer_1" xmlns="http://www.w3.org/2000/svg" xmlns:xlink="http://www.w3.org/1999/xlink" x="0px" y="0px"
	 viewBox="0 0 177.4 37.5" style="enable-background:new 0 0 177.4 37.5;" xml:space="preserve">
<style type="text/css">
	.st0{fill:#FFFFFF;}
</style>
<g>
	<path class="st0" d="M14.1,28c-1.4,0-2.4-0.3-3.2-0.9c-0.8-0.6-1.3-1.4-1.6-2.3c-0.3-1-0.4-2.1-0.4-3.3v-6.9c0-1.3,0.1-2.5,0.4-3.4
		c0.3-1,0.8-1.7,1.6-2.3c0.8-0.5,1.8-0.8,3.2-0.8c1.2,0,2.2,0.2,2.9,0.7c0.7,0.4,1.2,1.1,1.5,1.9c0.3,0.8,0.5,1.8,0.5,3v1.5h-2.6
		v-1.4c0-0.7,0-1.4-0.1-1.9c-0.1-0.6-0.3-1-0.6-1.3c-0.3-0.3-0.9-0.5-1.6-0.5c-0.8,0-1.3,0.2-1.7,0.5c-0.4,0.3-0.6,0.8-0.7,1.4
		c-0.1,0.6-0.2,1.3-0.2,2.1v7.7c0,1,0.1,1.7,0.2,2.3c0.2,0.6,0.4,1,0.8,1.2c0.4,0.2,0.9,0.4,1.5,0.4c0.7,0,1.3-0.2,1.6-0.5
		c0.3-0.3,0.5-0.8,0.6-1.4s0.1-1.2,0.1-2v-1.4H19V22c0,1.2-0.1,2.2-0.4,3.1s-0.8,1.6-1.5,2.1S15.3,28,14.1,28z"/>
	<path class="st0" d="M20.5,27.7l4.1-19.4h2.6l4.2,19.4h-2.6l-0.9-4.9h-4L23,27.7H20.5z M24.3,20.9h3.2l-1.6-8.8L24.3,20.9z"/>
	<path class="st0" d="M33.4,27.7V8.3h1.8l5.5,12.9V8.3H43v19.4h-1.7l-5.6-13.3v13.3H33.4z"/>
	<path class="st0" d="M54.5,27.7v-6.9L50.3,8.3h2.5l3,9.4l2.9-9.4h2.5l-4.2,12.6v6.9H54.5z"/>
	<path class="st0" d="M68,28c-1.3,0-2.4-0.3-3.1-0.8c-0.8-0.5-1.3-1.2-1.7-2.2c-0.3-1-0.5-2.1-0.5-3.3v-7.4c0-1.3,0.2-2.4,0.5-3.3
		c0.3-0.9,0.9-1.6,1.7-2.1c0.8-0.5,1.8-0.7,3.1-0.7s2.4,0.2,3.1,0.7s1.3,1.2,1.7,2.1c0.3,0.9,0.5,2,0.5,3.3v7.4
		c0,1.3-0.2,2.4-0.5,3.3c-0.3,0.9-0.9,1.7-1.7,2.2S69.3,28,68,28z M68,25.8c0.7,0,1.3-0.1,1.6-0.4s0.6-0.7,0.7-1.2
		c0.1-0.5,0.2-1.2,0.2-1.9v-8.5c0-0.7-0.1-1.3-0.2-1.9c-0.1-0.5-0.4-0.9-0.7-1.2c-0.4-0.3-0.9-0.4-1.6-0.4s-1.3,0.1-1.6,0.4
		c-0.4,0.3-0.6,0.7-0.8,1.2c-0.1,0.5-0.2,1.1-0.2,1.9v8.5c0,0.7,0.1,1.3,0.2,1.9c0.1,0.5,0.4,1,0.8,1.2S67.3,25.8,68,25.8z"/>
	<path class="st0" d="M81,28c-1.4,0-2.5-0.3-3.2-0.8c-0.8-0.6-1.3-1.3-1.5-2.4s-0.4-2.2-0.4-3.6V8.3h2.6v13c0,0.8,0.1,1.6,0.2,2.3
		c0.1,0.7,0.4,1.2,0.7,1.6s0.9,0.6,1.7,0.6c0.8,0,1.3-0.2,1.7-0.6s0.6-0.9,0.7-1.6c0.1-0.7,0.2-1.4,0.2-2.3v-13h2.6v12.9
		c0,1.4-0.1,2.5-0.4,3.6s-0.8,1.8-1.5,2.4C83.5,27.7,82.4,28,81,28z"/>
	<path class="st0" d="M94.5,27.7V8.3h7.5v2h-4.8v6.4h3.9v1.9h-3.9v7.1h4.9v1.9H94.5z"/>
	<path class="st0" d="M108.9,28c-1.1,0-2.1-0.2-2.8-0.7c-0.7-0.5-1.3-1.1-1.7-2c-0.4-0.8-0.6-1.8-0.7-3l2.4-0.6c0,0.7,0.2,1.4,0.3,2
		c0.2,0.6,0.4,1.2,0.8,1.6c0.4,0.4,0.9,0.6,1.6,0.6c0.7,0,1.2-0.2,1.6-0.6c0.4-0.4,0.5-1,0.5-1.7c0-0.9-0.2-1.6-0.6-2.1
		c-0.4-0.5-0.9-1.1-1.5-1.6l-3.3-2.9c-0.6-0.6-1.1-1.2-1.4-1.8c-0.3-0.7-0.5-1.5-0.5-2.5c0-1.4,0.4-2.5,1.2-3.3
		c0.8-0.8,1.9-1.2,3.3-1.2c0.8,0,1.4,0.1,2,0.3c0.6,0.2,1.1,0.5,1.5,0.9c0.4,0.4,0.7,0.9,0.9,1.6c0.2,0.6,0.4,1.4,0.5,2.2l-2.3,0.6
		c0-0.6-0.1-1.2-0.3-1.8s-0.4-1-0.8-1.3c-0.4-0.3-0.9-0.5-1.5-0.5s-1.2,0.2-1.6,0.5c-0.4,0.4-0.6,0.9-0.6,1.6c0,0.6,0.1,1.1,0.3,1.5
		c0.2,0.4,0.5,0.8,1,1.2l3.3,2.9c0.7,0.6,1.4,1.4,1.9,2.3c0.6,0.9,0.8,1.9,0.8,3.2c0,1-0.2,1.8-0.6,2.5c-0.4,0.7-0.9,1.2-1.6,1.6
		C110.6,27.8,109.8,28,108.9,28z"/>
	<path class="st0" d="M120.5,28c-1.4,0-2.4-0.3-3.2-0.9s-1.3-1.4-1.6-2.3c-0.3-1-0.4-2.1-0.4-3.3v-6.9c0-1.3,0.1-2.5,0.4-3.4
		c0.3-1,0.8-1.7,1.6-2.3c0.8-0.5,1.8-0.8,3.2-0.8c1.2,0,2.2,0.2,2.9,0.7c0.7,0.4,1.2,1.1,1.5,1.9c0.3,0.8,0.5,1.8,0.5,3v1.5h-2.6
		v-1.4c0-0.7,0-1.4-0.1-1.9c-0.1-0.6-0.3-1-0.6-1.3c-0.3-0.3-0.9-0.5-1.6-0.5c-0.8,0-1.3,0.2-1.7,0.5c-0.4,0.3-0.6,0.8-0.7,1.4
		c-0.1,0.6-0.2,1.3-0.2,2.1v7.7c0,1,0.1,1.7,0.2,2.3c0.2,0.6,0.4,1,0.8,1.2c0.4,0.2,0.9,0.4,1.5,0.4c0.7,0,1.3-0.2,1.6-0.5
		c0.3-0.3,0.5-0.8,0.6-1.4s0.1-1.2,0.1-2v-1.4h2.6V22c0,1.2-0.1,2.2-0.4,3.1s-0.8,1.6-1.5,2.1C122.8,27.7,121.8,28,120.5,28z"/>
	<path class="st0" d="M127,27.7l4.1-19.4h2.6l4.2,19.4h-2.6l-0.9-4.9h-4l-0.9,4.9H127z M130.8,20.9h3.2l-1.6-8.8L130.8,20.9z"/>
	<path class="st0" d="M139.8,27.7V8.3h4.8c1.2,0,2.1,0.2,2.8,0.6c0.7,0.4,1.2,1,1.5,1.8c0.3,0.8,0.5,1.8,0.5,2.9
		c0,1-0.2,1.9-0.5,2.7c-0.4,0.8-0.9,1.3-1.6,1.7c-0.7,0.4-1.6,0.6-2.6,0.6h-2.1v9H139.8z M142.5,16.8h1.2c0.8,0,1.4-0.1,1.8-0.3
		c0.4-0.2,0.8-0.5,1-0.9c0.2-0.4,0.3-1.1,0.3-1.9c0-0.9-0.1-1.6-0.2-2.1c-0.1-0.5-0.4-0.8-0.9-1c-0.4-0.2-1.1-0.3-2-0.3h-1.3V16.8z"
		/>
	<path class="st0" d="M151.3,27.7V8.3h7.5v2H154v6.4h3.9v1.9H154v7.1h4.9v1.9H151.3z"/>
	<path class="st0" d="M163.5,22.9v-3c0.8-0.7,1.5-1.4,2.2-2.1c0.6-0.7,1.2-1.4,1.5-2.2c0.4-0.8,0.6-1.6,0.6-2.6
		c0-0.8-0.2-1.4-0.6-1.9c-0.4-0.5-1-0.7-1.7-0.7c-0.6,0-1.1,0.2-1.5,0.6c-0.4,0.4-0.6,0.8-0.6,1.4c0,0.2,0,0.4,0,0.6
		s0.1,0.4,0.1,0.6l-2.4,0.5c-0.1-0.2-0.1-0.5-0.2-0.8c0-0.3-0.1-0.5-0.1-0.8c0-1.3,0.4-2.3,1.2-3.1c0.8-0.8,1.9-1.2,3.4-1.2
		c1.5,0,2.7,0.4,3.6,1.3c0.8,0.9,1.3,2.1,1.3,3.6c0,1.1-0.2,2-0.6,2.9c-0.4,0.9-0.9,1.7-1.6,2.4c-0.7,0.7-1.5,1.5-2.3,2.2v2.3H163.5
		z M163.4,27.7v-2.6h2.6v2.6H163.4z"/>
</g>
</svg>
