<?xml version="1.0" encoding="utf-8"?>
<!-- Generator: Adobe Illustrator 16.0.0, SVG Export Plug-In . SVG Version: 6.00 Build 0)  -->
<!DOCTYPE svg PUBLIC "-//W3C//DTD SVG 1.1//EN" "http://www.w3.org/Graphics/SVG/1.1/DTD/svg11.dtd">
<svg version="1.1" id="Layer_2" xmlns="http://www.w3.org/2000/svg" xmlns:xlink="http://www.w3.org/1999/xlink" x="0px" y="0px"
	 width="1000px" height="1000px" viewBox="0 0 1000 1000" enable-background="new 0 0 1000 1000" xml:space="preserve">
<circle fill="#DDDDDD" stroke="#000000" stroke-width="10" stroke-miterlimit="10" cx="500" cy="455.711" r="302.542"/>
<g id="Layer_1">
	<path fill="#FFFFFF" stroke="#000000" stroke-width="4" stroke-miterlimit="10" d="M444.525,594.475c0,6.627-5.373,12-12,12
		H331.102c-6.627,0-12-5.373-12-12V348.983c0-6.627,5.373-12,12-12h101.424c6.627,0,12,5.373,12,12L444.525,594.475L444.525,594.475
		z"/>
	<path fill="#FFFFFF" stroke="#000000" stroke-width="4" stroke-miterlimit="10" d="M695.373,594.475c0,6.627-5.373,12-12,12
		H581.949c-6.627,0-12-5.373-12-12V348.983c0-6.627,5.373-12,12-12h101.424c6.627,0,12,5.373,12,12V594.475z"/>
	<path display="none" fill="#FFFFFF" stroke="#000000" stroke-width="4" stroke-miterlimit="10" d="M569.949,515.729
		c0,6.627-5.373,12-12,12H456.525c-6.627,0-12-5.373-12-12V270.237c0-6.627,5.373-12,12-12h101.424c6.627,0,12,5.373,12,12V515.729z
		"/>
	<path fill="#FFFFFF" stroke="#000000" stroke-width="5" stroke-miterlimit="10" d="M617.543,569.135c0,6.629-5.372,12-12,12
		H405.813c-6.627,0-12-5.371-12-12V467.711c0-6.627,5.373-12,12-12h199.729c6.628,0,12,5.373,12,12V569.135z"/>
	<path fill="#FFFFFF" stroke="#000000" stroke-width="3" stroke-miterlimit="10" d="M598.763,550.406c0,6.629-5.372,12-12,12
		H422.628c-6.628,0-12-5.371-12-12v-66.677c0-6.627,5.372-12,12-12h164.136c6.628,0,12,5.373,12,12V550.406z"/>
	<path display="none" fill="none" stroke="#000000" stroke-width="9" stroke-miterlimit="10" d="M348.052,427.712
		c0,31.853,20.468,57.628,45.763,57.628"/>
	<path fill="none" stroke="#000000" stroke-width="4" stroke-miterlimit="10" d="M547.916,583.135
		c0,22.483,19.711,40.678,44.067,40.678"/>
	<path fill="none" stroke="#000000" stroke-width="4" stroke-miterlimit="10" d="M461.982,581.135
		c0,22.483-19.71,40.678-44.067,40.678"/>
</g>
<text transform="matrix(1 0 0 1 461.9832 703.8977)" display="none" enable-background="new    " font-family="'MyriadPro-Regular'" font-size="72">3X</text>
</svg>
