<?xml version="1.0" encoding="utf-8"?>
<!-- Generator: Adobe Illustrator 16.0.0, SVG Export Plug-In . SVG Version: 6.00 Build 0)  -->
<!DOCTYPE svg PUBLIC "-//W3C//DTD SVG 1.1//EN" "http://www.w3.org/Graphics/SVG/1.1/DTD/svg11.dtd">
<svg version="1.1" id="Layer_1" xmlns="http://www.w3.org/2000/svg" xmlns:xlink="http://www.w3.org/1999/xlink" x="0px" y="0px"
	 width="600px" height="600px" viewBox="0 0 600 600" style="enable-background:new 0 0 600 600;" xml:space="preserve">
<style type="text/css">
<![CDATA[
	.st0{display:none;fill:#999999;}
	.st1{fill:#FFFFFF;stroke:#000000;stroke-width:2;stroke-miterlimit:10;}
	.st2{display:none;fill:none;stroke:#FF8080;stroke-width:4;stroke-miterlimit:10;}
	.st3{display:none;fill:none;stroke:#FF8080;stroke-miterlimit:10;}
	.st4{display:none;fill:#FFFFFF;stroke:#000000;stroke-width:3;stroke-miterlimit:10;}
	.st5{display:inline;fill:none;stroke:#000000;stroke-width:3;stroke-miterlimit:10;}
	.st6{fill:#999999;}
	.st7{fill:none;stroke:#000000;stroke-width:3;stroke-miterlimit:10;}
	.st8{fill:none;}
	.st9{display:inline;}
	.st10{fill:#DDDDDD;stroke:#000000;stroke-miterlimit:10;}
	.st11{display:none;fill:none;stroke:#000000;stroke-width:2;stroke-miterlimit:10;}
	.st12{display:none;fill:none;stroke:#8383FC;stroke-miterlimit:10;}
	.st13{display:none;}
	.st14{fill:#FFFFFF;stroke:#000000;stroke-width:3;stroke-miterlimit:10;}
]]>
</style>
<g id="Layer_2_1_">
</g>
<g id="Layer_1_2_">
	<g id="Layer_1_1_" class="st13">
		<g class="st9">
			<g id="Layer_3">
				<path class="st10" d="M300,91.902c100.257,0,181.526,81.271,181.526,181.525c0,17.439-2.461,34.309-7.053,50.273
					c-2.487,8.646-5.601,17.032-9.287,25.096C436.561,411.431,373.363,454.951,300,454.951
					c-77.451,0-143.572-48.509-169.645-116.796c-1.804-4.727-3.414-9.548-4.828-14.454c-4.59-15.965-7.053-32.835-7.053-50.274
					C118.474,173.172,199.747,91.902,300,91.902z"/>
			</g>
			<g class="st13">
				<line class="st5" x1="462.301" y1="347.1" x2="134.052" y2="347.1"/>
			</g>
			<g class="st13">
				<line class="st5" x1="481.507" y1="275.716" x2="118.494" y2="275.716"/>
			</g>
			<g>
				<path d="M273.565,250.661l-8.597,22.724h-2.895l-7.169-18.62l-7.171,18.62h-2.895l-8.554-22.724h2.938l7.13,19.311l7.301-19.311
					h2.636l7.258,19.311l7.215-19.311H273.565z"/>
			</g>
			<g>
				<path d="M234.729,250.703l-8.597,22.724h-2.895l-7.171-18.62l-7.171,18.62h-2.893l-8.556-22.724h2.938l7.128,19.311
					l7.301-19.311h2.636l7.26,19.311l7.213-19.311H234.729z"/>
			</g>
			<g>
				<path d="M195.729,250.703l-8.597,22.724h-2.895l-7.171-18.62l-7.171,18.62h-2.895l-8.554-22.724h2.938l7.128,19.311
					l7.301-19.311h2.636l7.26,19.311l7.213-19.311H195.729z"/>
			</g>
			<g>
				<path d="M273.859,272.951c-0.447-0.463-0.67-1.021-0.67-1.688c0-0.662,0.223-1.214,0.67-1.662c0.446-0.446,0.986-0.67,1.62-0.67
					c0.633,0,1.181,0.224,1.64,0.67c0.462,0.445,0.69,1.001,0.69,1.662c0,0.663-0.23,1.225-0.69,1.688
					c-0.462,0.461-1.009,0.688-1.64,0.688C274.845,273.643,274.306,273.412,273.859,272.951z"/>
			</g>
			<g>
				<path d="M312.235,261.243c0.388-0.89,0.871-1.655,1.447-2.288c0.575-0.635,1.324-1.353,2.246-2.162
					c1.237-1.091,2.153-2.052,2.741-2.873c0.59-0.818,0.887-1.818,0.887-3c0-1.585-0.619-2.859-1.859-3.823
					c-1.237-0.964-2.938-1.446-5.096-1.446c-3.571,0-6.322,1.163-8.252,3.499l-2.289-1.729c2.448-2.994,6.034-4.492,10.757-4.492
					c3.024,0,5.438,0.677,7.238,2.03s2.7,3.183,2.7,5.487c0,1.182-0.194,2.223-0.586,3.132c-0.388,0.907-0.863,1.679-1.426,2.312
					c-0.562,0.634-1.303,1.368-2.225,2.203c-1.238,1.123-2.16,2.125-2.763,3.002c-0.604,0.879-0.909,1.966-0.909,3.264h-3.194
					C311.655,263.172,311.846,262.138,312.235,261.243z M311.655,272.971c-0.435-0.444-0.648-0.97-0.648-1.577
					c0-0.634,0.214-1.159,0.648-1.577c0.433-0.414,0.962-0.626,1.598-0.626c0.662,0,1.21,0.212,1.64,0.626
					c0.433,0.419,0.648,0.944,0.648,1.577c0,0.607-0.225,1.133-0.67,1.577c-0.447,0.446-0.988,0.669-1.618,0.669
					C312.617,273.643,312.084,273.419,311.655,272.971z"/>
			</g>
			<g>
				<path d="M337.135,261.243c0.388-0.89,0.87-1.655,1.447-2.288c0.575-0.635,1.324-1.353,2.246-2.162
					c1.237-1.091,2.152-2.052,2.74-2.873c0.59-0.818,0.888-1.818,0.888-3c0-1.585-0.619-2.859-1.859-3.823
					c-1.238-0.964-2.938-1.446-5.096-1.446c-3.571,0-6.322,1.163-8.252,3.499l-2.289-1.729c2.448-2.994,6.033-4.492,10.757-4.492
					c3.024,0,5.438,0.677,7.237,2.03c1.801,1.354,2.7,3.183,2.7,5.487c0,1.182-0.194,2.223-0.585,3.132
					c-0.388,0.907-0.863,1.679-1.426,2.312c-0.562,0.634-1.304,1.368-2.225,2.203c-1.238,1.123-2.161,2.125-2.763,3.002
					c-0.604,0.879-0.91,1.966-0.91,3.264h-3.194C336.554,263.172,336.747,262.138,337.135,261.243z M336.554,272.971
					c-0.435-0.444-0.647-0.97-0.647-1.577c0-0.634,0.213-1.159,0.647-1.577c0.433-0.414,0.963-0.626,1.598-0.626
					c0.663,0,1.211,0.212,1.641,0.626c0.432,0.419,0.647,0.944,0.647,1.577c0,0.607-0.224,1.133-0.67,1.577
					c-0.446,0.446-0.987,0.669-1.618,0.669C337.516,273.643,336.984,273.419,336.554,272.971z"/>
			</g>
			<g>
				<path d="M289.435,261.243c0.389-0.89,0.87-1.655,1.447-2.288c0.575-0.635,1.324-1.353,2.246-2.162
					c1.238-1.091,2.153-2.052,2.741-2.873c0.59-0.818,0.887-1.818,0.887-3c0-1.585-0.619-2.859-1.857-3.823
					s-2.938-1.446-5.098-1.446c-3.571,0-6.322,1.163-8.252,3.499l-2.288-1.729c2.447-2.994,6.032-4.492,10.757-4.492
					c3.023,0,5.438,0.677,7.237,2.03s2.7,3.183,2.7,5.487c0,1.182-0.194,2.223-0.586,3.132c-0.388,0.907-0.862,1.679-1.425,2.312
					c-0.563,0.634-1.304,1.368-2.226,2.203c-1.237,1.123-2.16,2.125-2.763,3.002c-0.605,0.879-0.909,1.966-0.909,3.264h-3.195
					C288.854,263.172,289.047,262.138,289.435,261.243z M288.854,272.971c-0.435-0.444-0.647-0.97-0.647-1.577
					c0-0.634,0.213-1.159,0.647-1.577c0.433-0.414,0.963-0.626,1.596-0.626c0.663,0,1.213,0.212,1.642,0.626
					c0.433,0.419,0.648,0.944,0.648,1.577c0,0.607-0.224,1.133-0.67,1.577c-0.446,0.446-0.986,0.669-1.62,0.669
					C289.817,273.642,289.284,273.419,288.854,272.971z"/>
			</g>
			<g>
				<path d="M355.459,272.951c-0.446-0.463-0.669-1.021-0.669-1.688c0-0.662,0.223-1.214,0.669-1.662
					c0.446-0.446,0.987-0.67,1.62-0.67s1.181,0.224,1.64,0.67c0.462,0.445,0.69,1.001,0.69,1.662c0,0.663-0.231,1.225-0.69,1.688
					c-0.462,0.461-1.009,0.688-1.64,0.688C356.446,273.643,355.906,273.412,355.459,272.951z"/>
			</g>
			<g>
				<path d="M367.968,272.171c-1.771-0.979-3.161-2.354-4.168-4.125c-1.009-1.77-1.512-3.763-1.512-5.983
					c0-2.218,0.503-4.205,1.512-5.962c1.011-1.759,2.397-3.125,4.168-4.104c1.771-0.979,3.78-1.469,6.027-1.469
					c1.961,0,3.71,0.382,5.249,1.145s2.757,1.879,3.65,3.346l-2.288,1.558c-0.749-1.123-1.699-1.966-2.852-2.53
					c-1.154-0.562-2.407-0.84-3.761-0.84c-1.639,0-3.118,0.365-4.429,1.102c-1.311,0.734-2.332,1.778-3.066,3.132
					c-0.735,1.354-1.102,2.895-1.102,4.623c0,1.757,0.366,3.305,1.102,4.644c0.737,1.338,1.759,2.376,3.066,3.11
					c1.312,0.737,2.788,1.102,4.429,1.102c1.354,0,2.606-0.273,3.761-0.82c1.152-0.544,2.103-1.383,2.852-2.506l2.288,1.556
					c-0.894,1.469-2.115,2.588-3.673,3.348c-1.556,0.764-3.298,1.145-5.227,1.145C371.748,273.643,369.739,273.154,367.968,272.171z
					"/>
			</g>
			<g>
				<path d="M393.767,272.171c-1.771-0.979-3.16-2.354-4.168-4.125c-1.009-1.77-1.512-3.763-1.512-5.983
					c0-2.218,0.503-4.205,1.512-5.962c1.011-1.759,2.397-3.125,4.168-4.104c1.772-0.979,3.781-1.469,6.027-1.469
					c1.961,0,3.71,0.382,5.249,1.145s2.757,1.879,3.65,3.346l-2.288,1.558c-0.749-1.123-1.699-1.966-2.852-2.53
					c-1.154-0.562-2.407-0.84-3.761-0.84c-1.639,0-3.118,0.365-4.429,1.102c-1.31,0.734-2.332,1.778-3.066,3.132
					c-0.734,1.354-1.102,2.895-1.102,4.623c0,1.757,0.367,3.305,1.102,4.644c0.737,1.338,1.76,2.376,3.066,3.11
					c1.313,0.737,2.788,1.102,4.429,1.102c1.354,0,2.606-0.273,3.761-0.82c1.152-0.544,2.103-1.383,2.852-2.506l2.288,1.556
					c-0.894,1.469-2.114,2.588-3.672,3.348c-1.556,0.764-3.299,1.145-5.228,1.145C397.549,273.643,395.54,273.154,393.767,272.171z"
					/>
			</g>
			<g>
				<path d="M418.968,272.171c-1.771-0.979-3.161-2.354-4.168-4.125c-1.009-1.77-1.512-3.763-1.512-5.983
					c0-2.218,0.503-4.205,1.512-5.962c1.011-1.759,2.397-3.125,4.168-4.104c1.772-0.979,3.78-1.469,6.027-1.469
					c1.961,0,3.71,0.382,5.249,1.145s2.757,1.879,3.65,3.346l-2.288,1.558c-0.749-1.123-1.699-1.966-2.852-2.53
					c-1.154-0.562-2.407-0.84-3.761-0.84c-1.639,0-3.118,0.365-4.429,1.102c-1.311,0.734-2.332,1.778-3.066,3.132
					c-0.735,1.354-1.102,2.895-1.102,4.623c0,1.757,0.366,3.305,1.102,4.644c0.737,1.338,1.759,2.376,3.066,3.11
					c1.312,0.737,2.788,1.102,4.429,1.102c1.354,0,2.606-0.273,3.761-0.82c1.152-0.544,2.103-1.383,2.852-2.506l2.288,1.556
					c-0.894,1.469-2.115,2.588-3.673,3.348c-1.556,0.764-3.298,1.145-5.227,1.145C422.748,273.643,420.74,273.154,418.968,272.171z"
					/>
			</g>
		</g>
		<g class="st9">
			<path d="M150.3,238.068h2.852v40.437H150.3V238.068z"/>
		</g>
		<div  class="typewriter">
			
				<text  transform="matrix(1 0 0 1 264.0769 578.5002)" font-family="&apos;Montserrat-Regular&apos;" font-size="72" startOffset="0">
				www.???.com</text>
		</div>
	</g>
	<g id="Layer_2">
		<line class="st2" x1="221.688" y1="325.111" x2="335.712" y2="325.915"/>
		<line class="st2" x1="242.1" y1="271.5" x2="242.1" y2="308.7"/>
		<line class="st2" x1="320.7" y1="308.412" x2="320.7" y2="272.1"/>
		<path class="st2" d="M254.508,297.099c0-7.737,8.319-13.998,18.601-13.998"/>
		<path class="st2" d="M291.708,297.099c0-7.737-8.318-13.998-18.6-13.998"/>
		<line class="st2" x1="254.508" y1="297.099" x2="254.508" y2="317.901"/>
		<line class="st2" x1="291.708" y1="297.099" x2="291.708" y2="317.901"/>
		<line class="st2" x1="152.7" y1="258" x2="221.7" y2="258"/>
		<line class="st2" x1="83.7" y1="258" x2="152.7" y2="258"/>
		<path class="st2" d="M277.258,266.161c0,0-3.094-19.849-18.33-19.245"/>
		<line class="st2" x1="242.886" y1="268.107" x2="242.886" y2="284.1"/>
		<line class="st2" x1="277.258" y1="266.161" x2="277.258" y2="284.1"/>
		<line class="st2" x1="281.7" y1="270.467" x2="281.7" y2="297"/>
		
			<image style="display:none;overflow:visible;enable-background:new    ;" width="114" height="16" xlink:href="43B902AC.jpg"  transform="matrix(0.5999 0 0 0.5624 118.5037 322.1995)">
		</image>
		<path class="st3" d="M139.95,319.498c-10.5,7.05-20.846,2.401-20.846,2.401v-3.449"/>
		<path class="st3" d="M179.706,303.45v3.449c0,0,10.344,4.647,20.844-2.401"/>
		<path class="st3" d="M119.104,318.75c0,0,11.096,3.524,20.846-2.101"/>
		<line class="st12" x1="139.485" y1="311.544" x2="139.658" y2="315.283"/>
		<line class="st12" x1="139.45" y1="310.783" x2="139.485" y2="311.544"/>
	</g>
	<g id="paw4">
	</g>
	<g id="paw3">
	</g>
	<g id="paw2">
	</g>
	<circle class="st14" cx="312.9" cy="294.3" r="114"/>
	<line class="st7" x1="242.1" y1="261.3" x2="312.9" y2="213.3"/>
	<line class="st7" x1="242.1" y1="261.3" x2="370.5" y2="347.7"/>
	<line class="st7" x1="312.9" y1="213.3" x2="426.386" y2="284.034"/>
	<line class="st7" x1="370.5" y1="347.7" x2="426.9" y2="294.3"/>
	<polygon class="st6" points="258,270.9 277.5,284.034 343.9,233.806 325.389,222.204 	"/>
	<polyline class="st7" points="276.369,285.16 277.428,284.377 345.484,234.06 	"/>
	<line class="st11" x1="252.32" y1="261.406" x2="260.013" y2="255.562"/>
	<line class="st11" x1="254.153" y1="263.172" x2="261.846" y2="257.328"/>
	<line class="st11" x1="255.987" y1="264.939" x2="263.679" y2="259.094"/>
	<polyline class="st7" points="255.383,271.149 256.46,270.391 325.67,221.671 	"/>
	<polygon class="st0" points="258.578,271.573 277.117,283.411 344.427,233.246 324.389,221.166 	"/>
	<ellipse class="st14" cx="318.6" cy="260.7" rx="17.7" ry="14.4"/>
	<ellipse class="st1" cx="315.738" cy="256.875" rx="5.337" ry="4.575"/>
	<path class="st4" d="M312.663,255.075c0,0-2.563,13.524,4.138,12.725l7.8-12.2C324.6,255.6,316.226,253.65,312.663,255.075z"/>
	<line class="st8" x1="312.663" y1="255.075" x2="331.9" y2="264.9"/>
	<polyline class="st7" points="319.059,269.199 319.232,269.072 330.393,260.82 	"/>
	<line class="st7" x1="242.1" y1="261.3" x2="242.1" y2="306.9"/>
	<line class="st7" x1="242.127" y1="306.831" x2="368.073" y2="392.169"/>
	<line class="st7" x1="204.3" y1="377.1" x2="115.5" y2="465.9"/>
	<line class="st7" x1="255.383" y1="414.3" x2="236.7" y2="449.1"/>
	<line class="st7" x1="229.5" y1="465.9" x2="218.7" y2="486.3"/>
	<line class="st7" x1="305.1" y1="431.699" x2="306.301" y2="449.1"/>
	<line class="st7" x1="406.293" y1="404.439" x2="391.107" y2="464.962"/>
	<line class="st7" x1="86.7" y1="163.5" x2="159.9" y2="213.3"/>
	<line class="st7" x1="159.9" y1="97.5" x2="177.9" y2="144.3"/>
	<line class="st7" x1="185.052" y1="158.817" x2="192.347" y2="177.783"/>
	<line class="st7" x1="251.838" y1="125.585" x2="257.518" y2="145.097"/>
	<line class="st7" x1="347.63" y1="125.585" x2="340.172" y2="144.489"/>
</g>
<line class="st7" x1="308.432" y1="53.351" x2="308.385" y2="103.493"/>
<line class="st7" x1="309.834" y1="119.611" x2="309.815" y2="139.932"/>
<line class="st7" x1="384.5" y1="156.5" x2="409.293" y2="105.493"/>
<line class="st7" x1="465.171" y1="108.117" x2="438.371" y2="150.497"/>
<line class="st7" x1="430.994" y1="164.901" x2="420.134" y2="182.076"/>
<line class="st7" x1="478.384" y1="148.781" x2="465.171" y2="164.219"/>
<line class="st7" x1="448.78" y1="230.548" x2="482.555" y2="193.489"/>
<line class="st7" x1="492.332" y1="180.592" x2="506.018" y2="165.572"/>
</svg>
