<?xml version="1.0" encoding="utf-8"?>
<!-- Generator: Adobe Illustrator 16.0.0, SVG Export Plug-In . SVG Version: 6.00 Build 0)  -->
<!DOCTYPE svg PUBLIC "-//W3C//DTD SVG 1.1//EN" "http://www.w3.org/Graphics/SVG/1.1/DTD/svg11.dtd">
<svg version="1.1" id="Layer_1" xmlns="http://www.w3.org/2000/svg" xmlns:xlink="http://www.w3.org/1999/xlink" x="0px" y="0px"
	 width="441px" height="477px" viewBox="0 0 441 477" enable-background="new 0 0 441 477" xml:space="preserve">
<g id="Layer_1_1_" display="none">
	<line display="inline" fill="none" stroke="#000000" stroke-miterlimit="10" x1="224" y1="-252" x2="224" y2="748"/>
	<path display="inline" fill="none" stroke="#000000" stroke-miterlimit="10" d="M202.059,71.778"/>
	<path display="inline" fill="none" stroke="#000000" stroke-miterlimit="10" d="M224,34.948"/>
	
		<line display="inline" fill="none" stroke="#000000" stroke-width="6" stroke-miterlimit="10" x1="202.059" y1="71.778" x2="245.79" y2="71.524"/>
	
		<line display="inline" fill="none" stroke="#000000" stroke-width="9" stroke-miterlimit="10" x1="212" y1="71.524" x2="260.667" y2="8.333"/>
	
		<line display="inline" fill="none" stroke="#000000" stroke-width="9" stroke-miterlimit="10" x1="239.333" y1="71.651" x2="190" y2="8.333"/>
	<polyline display="inline" stroke="#000000" stroke-width="6" stroke-miterlimit="10" points="245.79,71.524 440.084,397.661 
		294.586,397.661 225,252 223.924,248 152.094,397.661 7.915,397.661 202.059,71.778 	"/>
	
		<line display="inline" fill="none" stroke="#FFFFFF" stroke-width="9" stroke-miterlimit="10" x1="180" y1="108" x2="270" y2="108"/>
	
		<line display="inline" fill="none" stroke="#FFFFFF" stroke-width="9" stroke-miterlimit="10" x1="144" y1="162" x2="306" y2="162"/>
	
		<line display="inline" fill="none" stroke="#FFFFFF" stroke-width="9" stroke-miterlimit="10" x1="72" y1="279" x2="225" y2="279"/>
	
		<line display="inline" fill="none" stroke="#FFFFFF" stroke-width="9" stroke-miterlimit="10" x1="225" y1="279" x2="378" y2="279"/>
	
		<line display="inline" fill="none" stroke="#000000" stroke-width="9" stroke-miterlimit="10" x1="81" y1="468" x2="369" y2="468"/>
</g>
<g id="Layer_2">
	<path stroke="#000000" stroke-width="2" stroke-miterlimit="10" d="M221.471,174.073c29.119,0,52.73,4.009,52.73,8.954
		c0,4.941-23.611,8.954-52.73,8.954c-29.127,0-52.736-4.013-52.736-8.954C168.734,178.083,192.344,174.073,221.471,174.073z"/>
	<path stroke="#000000" stroke-width="2" stroke-miterlimit="10" d="M168.734,186.712v118.896c0,0-135.317,160.687-1.989,163.675
		h109.4c133.33-2.988-1.981-163.675-1.981-163.675V186.712H168.734z"/>
	<path fill="#FFFFFF" stroke="#000000" stroke-width="4" stroke-miterlimit="10" d="M256.645,6
		c14.088,0,25.515,11.422,25.515,25.511c0,14.084-11.427,25.506-25.515,25.506c-14.08,0-25.507-11.422-25.507-25.506
		C231.138,17.422,242.565,6,256.645,6z"/>
	<path fill="#FFFFFF" stroke="#000000" stroke-width="4" stroke-miterlimit="10" d="M178.684,57.556
		c14.086,0,25.506,11.421,25.506,25.51c0,14.084-11.42,25.506-25.506,25.506c-14.089,0-25.508-11.421-25.508-25.506
		C153.176,68.978,164.595,57.556,178.684,57.556z"/>
	<path fill="#FFFFFF" stroke="#000000" stroke-width="4" stroke-miterlimit="10" d="M258.364,105.584
		c14.089,0,25.507,11.421,25.507,25.511c0,14.084-11.418,25.506-25.507,25.506c-14.088,0-25.506-11.421-25.506-25.506
		C232.858,117.006,244.276,105.584,258.364,105.584z"/>
	<line fill="none" stroke="#FFFEFE" stroke-width="2" stroke-miterlimit="10" x1="127.294" y1="366.624" x2="315.08" y2="365.667"/>
	<path fill="#FFFFFF" stroke="#FFFFFF" stroke-width="2" stroke-miterlimit="10" d="M151.155,368.785c0,0,15.257-26.531,38.472,0"/>
	<circle fill="#FFFFFF" stroke="#FFFFFF" stroke-width="2" stroke-miterlimit="10" cx="253.701" cy="366.621" r="16.822"/>
	<path fill="#FFFFFF" stroke="#FFFFFF" stroke-width="2" stroke-miterlimit="10" d="M207.039,276.833
		c9.292,0,16.822,7.53,16.822,16.818c0,9.294-7.53,16.829-16.822,16.829c-9.289,0-16.82-7.535-16.82-16.829
		C190.219,284.364,197.75,276.833,207.039,276.833z"/>
	<line fill="none" stroke="#000000" stroke-width="4" stroke-miterlimit="10" x1="160.441" y1="131.095" x2="170.394" y2="137.96"/>
	
		<line fill="none" stroke="#000000" stroke-width="4" stroke-miterlimit="10" x1="187.305" y1="151.986" x2="197.257" y2="158.855"/>
	
		<line fill="none" stroke="#000000" stroke-width="4" stroke-miterlimit="10" x1="187.305" y1="139.947" x2="197.257" y2="133.083"/>
	
		<line fill="none" stroke="#000000" stroke-width="4" stroke-miterlimit="10" x1="162.431" y1="158.855" x2="172.383" y2="151.986"/>
	<line fill="none" stroke="#000000" stroke-width="4" stroke-miterlimit="10" x1="287.796" y1="51.498" x2="297.745" y2="58.362"/>
	<line fill="none" stroke="#000000" stroke-width="4" stroke-miterlimit="10" x1="314.662" y1="72.388" x2="324.611" y2="79.257"/>
	<line fill="none" stroke="#000000" stroke-width="4" stroke-miterlimit="10" x1="314.662" y1="60.349" x2="324.611" y2="53.484"/>
	<line fill="none" stroke="#000000" stroke-width="4" stroke-miterlimit="10" x1="289.789" y1="79.257" x2="299.737" y2="72.388"/>
	<line fill="none" stroke="#000000" stroke-width="9" stroke-miterlimit="10" x1="81" y1="537" x2="369" y2="537"/>
</g>
</svg>
