<?xml version="1.0" encoding="utf-8"?>
<!-- Generator: Adobe Illustrator 16.0.0, SVG Export Plug-In . SVG Version: 6.00 Build 0)  -->
<!DOCTYPE svg PUBLIC "-//W3C//DTD SVG 1.1//EN" "http://www.w3.org/Graphics/SVG/1.1/DTD/svg11.dtd">
<svg version="1.1" id="Layer_2" xmlns="http://www.w3.org/2000/svg" xmlns:xlink="http://www.w3.org/1999/xlink" x="0px" y="0px"
	 viewBox="0 0 1000 208.5" enable-background="new 0 0 1000 208.5" xml:space="preserve">
<circle display="none" opacity="0.3" stroke="#000000" stroke-miterlimit="10" enable-background="new    " cx="500" cy="456.711" r="302.542"/>
<g id="Layer_x5F_1" display="none">
	<path display="inline" fill="#FFFFFF" stroke="#000000" stroke-width="4" stroke-miterlimit="10" d="M444.525,594.475
		c0,6.627-5.373,12-12,12H331.102c-6.627,0-12-5.373-12-12V348.983c0-6.627,5.373-12,12-12h101.424c6.627,0,12,5.373,12,12
		L444.525,594.475L444.525,594.475z"/>
	<path display="inline" fill="#FFFFFF" stroke="#000000" stroke-width="4" stroke-miterlimit="10" d="M656.459,594.475
		c0,6.627-5.366,12-12,12H543.034c-6.627,0-12-5.373-12-12V348.983c0-6.627,5.373-12,12-12h101.425c6.634,0,12,5.373,12,12V594.475z
		"/>
	<path display="inline" fill="#FFFFFF" stroke="#000000" stroke-width="4" stroke-miterlimit="10" d="M569.949,515.729
		c0,6.627-5.373,12-12,12H456.525c-6.627,0-12-5.373-12-12V270.237c0-6.627,5.373-12,12-12h101.424c6.627,0,12,5.373,12,12V515.729z
		"/>
	<path display="inline" fill="#FFFFFF" stroke="#000000" stroke-width="5" stroke-miterlimit="10" d="M723.729,521.115
		c0,13.266-10.744,24-24,24H300.271c-13.255,0-24-10.734-24-24V318.272c0-13.254,10.745-24,24-24h399.457c13.256,0,24,10.746,24,24
		L723.729,521.115L723.729,521.115z"/>
	<path display="inline" fill="#FFFFFF" stroke="#000000" stroke-width="3" stroke-miterlimit="10" d="M686.177,483.656
		c0,13.266-10.744,24-24,24H333.898c-13.255,0-24-10.734-24-24v-133.35c0-13.254,10.745-24,24-24h328.272c13.256,0,24,10.746,24,24
		L686.177,483.656L686.177,483.656z"/>
	<path id="vecmap" display="inline" fill="none" stroke="#000000" stroke-width="9" stroke-miterlimit="10" d="M348.052,427.712
		c0,31.853,20.468,57.628,45.763,57.628"/>
	<path id="vecmap_1_" display="inline" fill="none" stroke="#000000" stroke-width="4" stroke-miterlimit="10" d="M584.477,549.115
		c0,44.977,39.42,81.355,88.135,81.355"/>
	<path id="vecmap_2_" display="inline" fill="none" stroke="#000000" stroke-width="4" stroke-miterlimit="10" d="M412.609,545.115
		c0,44.977-39.42,81.355-88.135,81.355"/>
	<g display="inline">
		
			<line id="vecmap_3_" fill="none" stroke="#000000" stroke-width="3" stroke-miterlimit="10" x1="317.407" y1="356.645" x2="678.427" y2="356.645"/>
	</g>
	<g display="inline">
		
			<line id="vecmap_4_" fill="none" stroke="#000000" stroke-width="3" stroke-miterlimit="10" x1="368.543" y1="365.119" x2="368.543" y2="497.322"/>
	</g>
	<g display="inline">
		
			<line id="vecmap_5_" fill="none" stroke="#000000" stroke-width="3" stroke-miterlimit="10" x1="637.719" y1="365.119" x2="637.719" y2="497.322"/>
	</g>
	<g display="inline">
		
			<rect id="vecmaprec" x="317.407" y="385.323" fill="#FFFFFF" stroke="#000000" stroke-width="3" stroke-miterlimit="10" width="355.205" height="80"/>
	</g>
	<g display="inline">
		
			<line fill="none" stroke="#000000" stroke-width="3" stroke-miterlimit="10" x1="317.407" y1="465.323" x2="672.611" y2="465.323"/>
	</g>
</g>
<text transform="matrix(1 0 0 1 461.9832 703.8977)" display="none" enable-background="new    " font-family="'MyriadPro-Regular'" font-size="72">3X</text>
<g id="Layer_3" display="none">
	<g display="inline">
		<path fill="#FFFFFF" stroke="#010101" stroke-width="4" stroke-miterlimit="10" d="M594.51,354.808l-70.813,140.331
			c0,0-8.479,10.795-23.045,4.729l4.022,1.705L371.528,491.49l3.285,0.247c0,0-15.817-2.825-7.983-15.921l-2.44,4.104l78.67-131.575
			l1.994-3.342l-0.604,3.342c1.711-12.887,15.1-9.173,15.1-9.173l-5.976-0.429l133.179,9.602l-1.896,0.175
			c12.826,2.08,8.729,15.354,8.729,15.354"/>
	</g>
	<polyline display="inline" fill="none" stroke="#010101" stroke-width="4" stroke-miterlimit="10" points="450.617,354.737 
		448.619,358.078 369.949,489.648 	"/>
	<path display="inline" fill="none" stroke="#010101" stroke-width="4" stroke-miterlimit="10" d="M600.07,364.546l-70.813,140.333
		c0,0-8.479,10.795-23.044,4.729"/>
	
		<line display="inline" fill="none" stroke="#010101" stroke-width="4" stroke-miterlimit="10" x1="377.094" y1="501.222" x2="510.226" y2="511.307"/>
	
		<line display="inline" fill="none" stroke="#010101" stroke-width="4" stroke-miterlimit="10" x1="592.306" y1="358.078" x2="459.135" y2="348.479"/>
	<path display="inline" fill="none" stroke="#010101" stroke-width="4" stroke-miterlimit="10" d="M465.109,348.906
		c0,0-13.385-3.709-15.096,9.176"/>
	<path display="inline" fill="none" stroke="#010101" stroke-width="4" stroke-miterlimit="10" d="M599.148,373.611
		c0,0,4.097-13.271-8.734-15.354"/>
	<path display="inline" fill="none" stroke="#010101" stroke-width="4" stroke-miterlimit="10" d="M380.382,501.478
		c0,0-15.813-2.819-7.985-15.926"/>
	<path display="inline" fill="#FFFFFF" stroke="#010101" stroke-width="4" stroke-miterlimit="10" d="M452.996,463.918
		c7.46,0,13.511,4.821,13.511,10.771c0,5.955-6.05,10.78-13.511,10.78c-7.46,0-13.506-4.826-13.506-10.78
		C439.49,468.74,445.536,463.918,452.996,463.918z"/>
</g>
<path display="none" fill="#E4E4EF" stroke="#000000" stroke-width="2" stroke-miterlimit="10" d="M383.594,609.324
	c0,0,41.716-44.212,15.288,15.771"/>
<path display="none" fill="#7F9E3D" stroke="#000000" stroke-width="3" stroke-miterlimit="10" d="M464.223,276.828
	c0,0-78.911-29.718-127.529,42.813"/>
<g id="Leaf_3_1_" display="none">
	<path display="inline" fill="#7F9E3D" stroke="#000000" stroke-width="3" stroke-miterlimit="10" d="M470.5,276.5c0,0-98,22-99,126
		"/>
	<path display="inline" fill="#7F9E3D" stroke="#000000" stroke-width="3" stroke-miterlimit="10" d="M371.473,402.48
		c100.821-25.536,99.053-125.959,99.053-125.959"/>
	<path display="inline" fill="none" stroke="#000000" stroke-width="3" stroke-miterlimit="10" d="M470.5,276.5
		c0,0-103.907,121.786-97.992,125.829"/>
	<polyline display="inline" fill="#CACAEF" stroke="#000000" stroke-miterlimit="10" points="391.166,395.17 400.166,380.504 
		400.166,391.837 	"/>
	<polyline display="inline" fill="#CACAEF" stroke="#000000" stroke-miterlimit="10" points="414.49,383.839 414.49,369.17 
		417.834,374.837 421.385,365.837 426.523,374.682 	"/>
	<polyline display="inline" fill="#CACAEF" stroke="#000000" stroke-miterlimit="10" points="433.984,369.807 434.638,346.091 
		439.851,363.159 	"/>
	<polyline display="inline" fill="#CACAEF" stroke="#000000" stroke-miterlimit="10" points="447.577,352.719 445.5,344.75 
		451.209,347.93 	"/>
	<polyline display="inline" fill="#CACAEF" stroke="#000000" stroke-miterlimit="10" points="455.527,340.22 449.293,317.328 
		459.22,332.156 	"/>
	<polyline display="inline" fill="#CACAEF" stroke="#000000" stroke-miterlimit="10" points="411.372,307.083 408.569,330.642 
		404.927,313.172 	"/>
	<polyline display="inline" fill="#CACAEF" stroke="#000000" stroke-miterlimit="10" points="387.261,336.962 390.177,360.507 
		382.459,344.416 	"/>
	<polyline display="inline" fill="#CACAEF" stroke="#000000" stroke-miterlimit="10" points="439.556,287.176 438.177,295.293 
		434.279,290.05 	"/>
</g>
<path fill="none" stroke="#FFFFFF" stroke-width="9" stroke-miterlimit="10" d="M9.5,186.103c0,0,67.497-89.996,151.492-12"/>
<path fill="none" stroke="#FFFFFF" stroke-width="9" stroke-miterlimit="10" d="M85.246,133.606c0,0,75.747-89.996,158.242-22.499"
	/>
<path fill="none" stroke="#FFFFFF" stroke-width="9" stroke-miterlimit="10" d="M216.489,86.005c0,0,134.994-176.595,265.487,0"/>
</svg>
