<?xml version="1.0" encoding="utf-8"?>
<!-- Generator: Adobe Illustrator 16.0.0, SVG Export Plug-In . SVG Version: 6.00 Build 0)  -->
<!DOCTYPE svg PUBLIC "-//W3C//DTD SVG 1.1//EN" "http://www.w3.org/Graphics/SVG/1.1/DTD/svg11.dtd">
<svg version="1.1" id="Layer_2" xmlns="http://www.w3.org/2000/svg" xmlns:xlink="http://www.w3.org/1999/xlink" x="0px" y="0px"
	viewBox="0 0 1000 1000" style="enable-background:new 0 0 1000 1000;" xml:space="preserve">
<style type="text/css">
<![CDATA[
	.st0{display:inline;fill:none;stroke:#000000;stroke-width:9;stroke-miterlimit:10;}
	.st1{display:inline;fill:#7F9E3D;stroke:#000000;stroke-width:3;stroke-miterlimit:10;}
	.st2{display:inline;fill:none;stroke:#000000;stroke-width:4;stroke-miterlimit:10;}
	.st3{display:inline;fill:#FFFFFF;stroke:#000000;stroke-width:5;stroke-miterlimit:10;}
	.st4{display:inline;fill:#CACAEF;stroke:#000000;stroke-miterlimit:10;}
	.st5{display:inline;fill:none;stroke:#010101;stroke-width:4;stroke-miterlimit:10;}
	.st6{font-family:'MyriadPro-Regular';}
	.st7{display:inline;fill:none;stroke:#000000;stroke-width:3;stroke-miterlimit:10;}
	.st8{display:none;enable-background:new    ;}
	.st9{display:inline;fill:#FFFFFF;stroke:#000000;stroke-width:4;stroke-miterlimit:10;}
	.st10{fill:none;stroke:#000000;stroke-width:3;stroke-miterlimit:10;}
	.st11{display:inline;fill:#FFFFFF;stroke:#010101;stroke-width:4;stroke-miterlimit:10;}
	.st12{fill:none;stroke:#FFFFFF;stroke-width:9;stroke-miterlimit:10;}
	.st13{display:inline;}
	.st14{display:none;opacity:0.3;stroke:#000000;stroke-miterlimit:10;enable-background:new    ;}
	.st15{display:none;fill:#7F9E3D;stroke:#000000;stroke-width:3;stroke-miterlimit:10;}
	.st16{display:inline;fill:#FFFFFF;stroke:#000000;stroke-width:3;stroke-miterlimit:10;}
	.st17{display:none;fill:#E4E4EF;stroke:#000000;stroke-width:2;stroke-miterlimit:10;}
	.st18{fill:#FFFFFF;stroke:#010101;stroke-width:4;stroke-miterlimit:10;}
	.st19{font-size:72;}
	.st20{display:none;}
	.st21{fill:#FFFFFF;stroke:#000000;stroke-width:3;stroke-miterlimit:10;}
]]>
</style>
<circle class="st14" cx="500" cy="456.711" r="302.542"/>
<g id="Layer_x5F_1" class="st20">
	<path class="st9" d="M444.525,594.475c0,6.627-5.373,12-12,12H331.102c-6.627,0-12-5.373-12-12V348.983c0-6.627,5.373-12,12-12
		h101.424c6.627,0,12,5.373,12,12L444.525,594.475L444.525,594.475z"/>
	<path class="st9" d="M656.459,594.475c0,6.627-5.368,12-12,12H543.034c-6.627,0-12-5.373-12-12V348.983c0-6.627,5.373-12,12-12
		h101.425c6.632,0,12,5.373,12,12V594.475z"/>
	<path class="st9" d="M569.949,515.729c0,6.627-5.373,12-12,12H456.525c-6.627,0-12-5.373-12-12V270.237c0-6.627,5.373-12,12-12
		h101.424c6.627,0,12,5.373,12,12V515.729z"/>
	<path class="st3" d="M723.729,521.115c0,13.264-10.744,24-24,24H300.271c-13.255,0-24-10.736-24-24V318.272
		c0-13.254,10.745-24,24-24h399.457c13.256,0,24,10.746,24,24L723.729,521.115L723.729,521.115z"/>
	<path class="st16" d="M686.176,483.656c0,13.264-10.744,24-24,24H333.898c-13.255,0-24-10.736-24-24v-133.35
		c0-13.254,10.745-24,24-24h328.272c13.256,0,24,10.746,24,24L686.176,483.656L686.176,483.656z"/>
	<path id="vecmap" class="st0" d="M348.052,427.712c0,31.853,20.468,57.628,45.763,57.628"/>
	<path id="vecmap_1_" class="st2" d="M584.477,549.115c0,44.975,39.42,81.355,88.135,81.355"/>
	<path id="vecmap_2_" class="st2" d="M412.609,545.115c0,44.975-39.42,81.355-88.135,81.355"/>
	<g class="st13">
		<line id="vecmap_3_" class="st10" x1="317.407" y1="356.645" x2="678.427" y2="356.645"/>
	</g>
	<g class="st13">
		<line id="vecmap_4_" class="st10" x1="368.543" y1="365.119" x2="368.543" y2="497.322"/>
	</g>
	<g class="st13">
		<line id="vecmap_5_" class="st10" x1="637.718" y1="365.119" x2="637.718" y2="497.322"/>
	</g>
	<g class="st13">
		<rect id="vecmaprec" x="317.407" y="385.323" class="st21" width="355.205" height="80"/>
	</g>
	<g class="st13">
		<line class="st10" x1="317.407" y1="465.323" x2="672.611" y2="465.323"/>
	</g>
</g>
<text transform="matrix(1 0 0 1 461.9832 703.8977)" class="st8 st6 st19">3X</text>
<g id="Layer_3" class="st20">
	<g class="st13">
		<path class="st18" d="M594.509,354.808l-70.813,140.331c0,0-8.479,10.795-23.045,4.729l4.022,1.705L371.528,491.49l3.285,0.247
			c0,0-15.817-2.825-7.983-15.921l-2.442,4.104l78.67-131.575l1.994-3.342l-0.604,3.342c1.711-12.887,15.098-9.173,15.098-9.173
			l-5.974-0.429l133.177,9.602l-1.894,0.175c12.826,2.08,8.729,15.354,8.729,15.354"/>
	</g>
	<polyline class="st5" points="450.617,354.737 448.619,358.078 369.949,489.648 	"/>
	<path class="st5" d="M600.07,364.546l-70.813,140.333c0,0-8.479,10.795-23.044,4.729"/>
	<line class="st5" x1="377.094" y1="501.222" x2="510.226" y2="511.307"/>
	<line class="st5" x1="592.306" y1="358.078" x2="459.135" y2="348.479"/>
	<path class="st5" d="M465.109,348.906c0,0-13.385-3.709-15.096,9.174"/>
	<path class="st5" d="M599.148,373.611c0,0,4.097-13.271-8.734-15.354"/>
	<path class="st5" d="M380.38,501.478c0,0-15.813-2.819-7.985-15.926"/>
	<path class="st11" d="M452.996,463.918c7.46,0,13.509,4.823,13.509,10.772c0,5.955-6.048,10.78-13.509,10.78
		c-7.46,0-13.506-4.826-13.506-10.78C439.49,468.74,445.536,463.918,452.996,463.918z"/>
</g>
<path class="st17" d="M383.594,609.326c0,0,41.716-44.212,15.288,15.771"/>
<path class="st15" d="M464.223,276.828c0,0-78.911-29.716-127.529,42.813"/>
<g id="Leaf_3_1_" class="st20">
	<path class="st1" d="M470.5,276.5c0,0-98,22-99,126"/>
	<path class="st1" d="M371.473,402.48c100.821-25.536,99.053-125.959,99.053-125.959"/>
	<path class="st7" d="M470.5,276.5c0,0-103.909,121.786-97.994,125.829"/>
	<polyline class="st4" points="391.166,395.17 400.166,380.504 400.166,391.837 	"/>
	<polyline class="st4" points="414.49,383.839 414.49,369.17 417.834,374.837 421.383,365.837 426.523,374.682 	"/>
	<polyline class="st4" points="433.984,369.807 434.638,346.091 439.851,363.159 	"/>
	<polyline class="st4" points="447.577,352.719 445.5,344.75 451.209,347.93 	"/>
	<polyline class="st4" points="455.527,340.22 449.293,317.328 459.22,332.156 	"/>
	<polyline class="st4" points="411.372,307.083 408.569,330.642 404.927,313.172 	"/>
	<polyline class="st4" points="387.261,336.962 390.177,360.507 382.459,344.416 	"/>
	<polyline class="st4" points="439.556,287.176 438.177,295.293 434.279,290.05 	"/>
</g>
<path class="st12" d="M936.088,7.518c0,0-67.497,89.996-151.492,12"/>
<path class="st12" d="M860.342,60.016c0,0-75.747,89.996-158.242,22.499"/>
<path class="st12" d="M729.097,107.617c0,0-134.993,176.595-265.486,0"/>
<path class="st12" d="M132.607,11.337c0,0,22.895,67.978,107.482,29.305"/>
</svg>
