<?xml version="1.0" encoding="utf-8"?>
<!-- Generator: Adobe Illustrator 16.0.0, SVG Export Plug-In . SVG Version: 6.00 Build 0)  -->
<!DOCTYPE svg PUBLIC "-//W3C//DTD SVG 1.1//EN" "http://www.w3.org/Graphics/SVG/1.1/DTD/svg11.dtd">
<svg version="1.1" id="Layer_1" xmlns="http://www.w3.org/2000/svg" xmlns:xlink="http://www.w3.org/1999/xlink" x="0px" y="0px"
	 width="650px" height="450px" viewBox="0 0 1000 791.075" enable-background="new 0 0 1000 791.075" xml:space="preserve">
<g>
	<line fill="none" stroke="#010101" stroke-width="4" stroke-miterlimit="10" x1="360" y1="441" x2="360" y2="336"/>
	<line fill="none" stroke="#010101" stroke-width="4" stroke-miterlimit="10" x1="360" y1="314" x2="360" y2="276"/>
</g>
<polygon fill="none" stroke="#010101" stroke-width="4" stroke-miterlimit="10" points="288.5,243 216.5,270 288.5,297 360.5,270 
	"/>
<line fill="none" stroke="#010101" stroke-width="4" stroke-miterlimit="10" x1="216" y1="513" x2="216" y2="279"/>
<line fill="none" stroke="#010101" stroke-width="4" stroke-miterlimit="10" x1="288" y1="270" x2="288" y2="198"/>
<path fill="#010101" stroke="#010101" stroke-width="4" stroke-miterlimit="10" d="M288.5,306"/>
<line fill="none" stroke="#010101" stroke-width="4" stroke-miterlimit="10" x1="288" y1="306" x2="288" y2="441"/>
<line opacity="0.2" fill="none" stroke="#010101" stroke-width="4" stroke-miterlimit="10" x1="306" y1="315" x2="306" y2="423"/>
<polyline fill="none" stroke="#010101" stroke-width="4" stroke-miterlimit="10" points="655.277,649.529 837,504 792,486 522,378 
	324,504 657,648 657,774 "/>
<line opacity="0.2" fill="none" stroke="#010101" stroke-width="4" stroke-miterlimit="10" x1="666" y1="657" x2="666" y2="765"/>
<g>
	<line fill="none" stroke="#010101" stroke-width="4" stroke-miterlimit="10" x1="738" y1="297" x2="738" y2="192"/>
	<line fill="none" stroke="#010101" stroke-width="4" stroke-miterlimit="10" x1="738" y1="170" x2="738" y2="132"/>
</g>
<polygon fill="none" stroke="#010101" stroke-width="4" stroke-miterlimit="10" points="666.5,99 594.5,126 666.5,153 738.5,126 "/>
<line fill="none" stroke="#010101" stroke-width="4" stroke-miterlimit="10" x1="594" y1="369" x2="594" y2="135"/>
<line fill="none" stroke="#010101" stroke-width="4" stroke-miterlimit="10" x1="666" y1="126" x2="666" y2="54"/>
<path fill="#010101" stroke="#010101" stroke-width="4" stroke-miterlimit="10" d="M666.5,162"/>
<line fill="none" stroke="#010101" stroke-width="4" stroke-miterlimit="10" x1="666" y1="162" x2="666" y2="297"/>
<line opacity="0.2" fill="none" stroke="#010101" stroke-width="4" stroke-miterlimit="10" x1="684" y1="171" x2="684" y2="279"/>
<polyline fill="none" stroke="#010101" stroke-width="4" stroke-miterlimit="10" points="738,234 828,306 828,468 "/>
<polyline fill="none" stroke="#010101" stroke-width="4" stroke-miterlimit="10" points="594,270 522,324 522,360 "/>
<path display="none" fill="none" stroke="#010101" stroke-width="6" stroke-miterlimit="10" d="M738,765
	c4.971,44.735-27.266,85.029-72,90c-35.788,3.977-68.023-21.812-72-57.6c-3.182-28.631,17.449-54.419,46.08-57.601
	c22.904-2.545,43.535,13.96,46.08,36.864c2.036,18.323-11.168,34.828-29.491,36.864c-14.659,1.628-27.862-8.935-29.491-23.594
	c-1.303-11.727,7.147-22.29,18.874-23.593c9.382-1.042,17.832,5.718,18.875,15.1c0.833,7.505-4.575,14.266-12.08,15.1
	c-6.004,0.667-11.412-3.659-12.079-9.664"/>
<line fill="none" stroke="#010101" stroke-width="4" stroke-miterlimit="10" x1="396" y1="531" x2="459" y2="486"/>
<line fill="none" stroke="#010101" stroke-width="4" stroke-miterlimit="10" x1="522" y1="441" x2="580.5" y2="401.4"/>
<path fill="none" stroke="#010101" stroke-width="4" stroke-miterlimit="10" d="M525,459.788c0,15.582-17.967,27.783-38.557,27.29
	C467.408,486.622,453,475.32,453,461.805c0-13.515,14.408-25.624,33.443-27.146C507.033,433.013,525,444.207,525,459.788z"/>
<line fill="none" stroke="#010101" stroke-width="4" stroke-miterlimit="10" x1="503.683" y1="405.859" x2="521.847" y2="392.46"/>
<line fill="none" stroke="#010101" stroke-width="4" stroke-miterlimit="10" x1="515.82" y1="416.707" x2="533.985" y2="403.309"/>
<line fill="none" stroke="#010101" stroke-width="4" stroke-miterlimit="10" x1="509.745" y1="410.782" x2="527.909" y2="397.384"/>
<path display="none" fill="none" stroke="#010101" stroke-width="4" stroke-miterlimit="10" d="M224.104,287.101
	c0,0,245.589-362.982,580.272,0"/>
<line opacity="0.2" fill="none" stroke="#010101" stroke-width="4" stroke-miterlimit="10" x1="792.576" y1="319.5" x2="792.576" y2="427.5"/>
<path fill="none" stroke="#010101" stroke-width="4" stroke-miterlimit="10" d="M338.851,261.97
	C346.378,187.844,408.98,130,485.092,130c43.183,0,82.018,18.62,108.912,48.27"/>
<g>
	
		<line fill="none" stroke="#010101" stroke-width="4" stroke-miterlimit="10" x1="346.834" y1="187.834" x2="271.954" y2="114.227"/>
	<line fill="none" stroke="#010101" stroke-width="4" stroke-miterlimit="10" x1="256.265" y1="98.805" x2="229.166" y2="72.166"/>
</g>
<line fill="none" stroke="#010101" stroke-width="4" stroke-miterlimit="10" x1="449.719" y1="559.338" x2="637" y2="425.2"/>
<line fill="none" stroke="#010101" stroke-width="4" stroke-miterlimit="10" x1="386.626" y1="145.692" x2="368.474" y2="112.308"/>
<line fill="none" stroke="#010101" stroke-width="4" stroke-miterlimit="10" x1="423" y1="126" x2="405" y2="54"/>
<g>
	<line fill="none" stroke="#010101" stroke-width="4" stroke-miterlimit="10" x1="524.195" y1="115.972" x2="533.671" y2="11.399"/>
	
		<line fill="none" stroke="#010101" stroke-width="4" stroke-miterlimit="10" x1="535.658" y1="-10.511" x2="539.088" y2="-48.355"/>
</g>
<line fill="none" stroke="#010101" stroke-width="4" stroke-miterlimit="10" x1="479.816" y1="108.996" x2="479.039" y2="71.003"/>
<line fill="none" stroke="#010101" stroke-width="4" stroke-miterlimit="10" x1="321" y1="504" x2="321" y2="635"/>
<g display="none">
	
		<line display="inline" fill="none" stroke="#010101" stroke-width="4" stroke-miterlimit="10" x1="351.859" y1="553.1" x2="361.859" y2="558.1"/>
	
		<line display="inline" fill="none" stroke="#010101" stroke-width="4" stroke-miterlimit="10" x1="351.859" y1="565.1" x2="361.859" y2="570.1"/>
	
		<line display="inline" fill="none" stroke="#010101" stroke-width="4" stroke-miterlimit="10" x1="351.859" y1="576.1" x2="361.859" y2="581.1"/>
	<g display="inline">
		<line fill="none" stroke="#010101" stroke-width="4" stroke-miterlimit="10" x1="351.859" y1="553.1" x2="361.859" y2="558.1"/>
		<line fill="none" stroke="#010101" stroke-width="4" stroke-miterlimit="10" x1="351.859" y1="565.1" x2="361.859" y2="570.1"/>
		<line fill="none" stroke="#010101" stroke-width="4" stroke-miterlimit="10" x1="351.859" y1="576.1" x2="361.859" y2="581.1"/>
	</g>
	
		<line display="inline" fill="none" stroke="#010101" stroke-width="4" stroke-miterlimit="10" x1="370.859" y1="562.1" x2="380.859" y2="567.1"/>
	
		<line display="inline" fill="none" stroke="#010101" stroke-width="4" stroke-miterlimit="10" x1="370.859" y1="574.1" x2="380.859" y2="579.1"/>
	
		<line display="inline" fill="none" stroke="#010101" stroke-width="4" stroke-miterlimit="10" x1="370.859" y1="585.1" x2="380.859" y2="590.1"/>
	
		<line display="inline" fill="none" stroke="#010101" stroke-width="4" stroke-miterlimit="10" x1="388.859" y1="570.1" x2="398.859" y2="575.1"/>
	
		<line display="inline" fill="none" stroke="#010101" stroke-width="4" stroke-miterlimit="10" x1="388.859" y1="582.1" x2="398.859" y2="587.1"/>
	
		<line display="inline" fill="none" stroke="#010101" stroke-width="4" stroke-miterlimit="10" x1="388.859" y1="593.1" x2="398.859" y2="598.1"/>
</g>
<g display="none">
	
		<line display="inline" fill="none" stroke="#010101" stroke-width="4" stroke-miterlimit="10" x1="562.578" y1="641" x2="572.578" y2="646"/>
	
		<line display="inline" fill="none" stroke="#010101" stroke-width="4" stroke-miterlimit="10" x1="562.578" y1="653" x2="572.578" y2="658"/>
	
		<line display="inline" fill="none" stroke="#010101" stroke-width="4" stroke-miterlimit="10" x1="562.578" y1="664" x2="572.578" y2="669"/>
	<g display="inline">
		<line fill="none" stroke="#010101" stroke-width="4" stroke-miterlimit="10" x1="562.578" y1="641" x2="572.578" y2="646"/>
		<line fill="none" stroke="#010101" stroke-width="4" stroke-miterlimit="10" x1="562.578" y1="653" x2="572.578" y2="658"/>
		<line fill="none" stroke="#010101" stroke-width="4" stroke-miterlimit="10" x1="562.578" y1="664" x2="572.578" y2="669"/>
	</g>
	
		<line display="inline" fill="none" stroke="#010101" stroke-width="4" stroke-miterlimit="10" x1="581.578" y1="650" x2="591.578" y2="655"/>
	
		<line display="inline" fill="none" stroke="#010101" stroke-width="4" stroke-miterlimit="10" x1="581.578" y1="662" x2="591.578" y2="667"/>
	
		<line display="inline" fill="none" stroke="#010101" stroke-width="4" stroke-miterlimit="10" x1="581.578" y1="673" x2="591.578" y2="678"/>
	
		<line display="inline" fill="none" stroke="#010101" stroke-width="4" stroke-miterlimit="10" x1="599.578" y1="658" x2="609.578" y2="663"/>
	
		<line display="inline" fill="none" stroke="#010101" stroke-width="4" stroke-miterlimit="10" x1="599.578" y1="670" x2="609.578" y2="675"/>
	
		<line display="inline" fill="none" stroke="#010101" stroke-width="4" stroke-miterlimit="10" x1="599.578" y1="681" x2="609.578" y2="686"/>
</g>
<path fill="none" stroke="#010101" stroke-width="4" stroke-miterlimit="10" d="M398.234,666.5c0,0-110.234,28.65-65.234,124.575"/>
<path fill="none" stroke="#010101" stroke-width="4" stroke-miterlimit="10" d="M475.234,697.979c0,0-110.234,21.641-65.234,94.097"
	/>
<polyline fill="none" stroke="#010101" stroke-width="4" stroke-miterlimit="10" points="449.719,693 449.719,666.5 406,648 "/>
<g>
	<g>
		<path fill="#010101" d="M429.5,679.5c3.224,0,3.224-5,0-5S426.276,679.5,429.5,679.5L429.5,679.5z"/>
	</g>
</g>
<g>
	<g>
		<path fill="#010101" d="M415.5,673.5c3.224,0,3.224-5,0-5S412.276,673.5,415.5,673.5L415.5,673.5z"/>
	</g>
</g>
<path fill="none" stroke="#010101" stroke-miterlimit="10" d="M489,623"/>
<g id="Layer_2">
	<g>
		<line fill="none" x1="451.225" y1="217.833" x2="451.225" y2="217.129"/>
		<path fill="#020202" d="M473.567,219.364c-2.73-3.049-6.04-5.34-9.94-6.86c-3.977-1.548-9.191-3.121-15.643-4.711
			c-5.444-1.339-9.78-2.576-13.004-3.707c-3.225-1.131-5.905-2.765-8.041-4.901c-2.138-2.135-3.204-4.963-3.204-8.48
			c0-4.689,1.945-8.521,5.842-11.497c3.896-2.974,9.693-4.461,17.404-4.461c4.02,0,8.122,0.608,12.313,1.82
			c4.188,1.217,8.125,3.038,11.811,5.468l3.143-7.415c-3.519-2.429-7.688-4.333-12.503-5.718c-4.818-1.383-9.74-2.071-14.764-2.071
			c-7.207,0-13.237,1.089-18.097,3.265c-4.856,2.18-8.459,5.09-10.805,8.733c-2.345,3.643-3.517,7.687-3.517,12.125
			c0,5.444,1.4,9.76,4.209,12.94c2.806,3.186,6.177,5.551,10.112,7.1c3.938,1.551,9.216,3.164,15.832,4.837
			c5.53,1.342,9.844,2.577,12.943,3.708c0.754,0.273,1.47,0.588,2.155,0.933"/>
		<path fill="#020202" d="M472.973,219.423c0.115-0.016,0.231-0.029,0.349-0.04"/>
		<path fill="#020202" d="M471.249,219.338"/>
		<path fill="#020202" d="M470.266,219.435c0.121-0.018,0.243-0.034,0.367-0.047"/>
		<path fill="#020202" d="M469.054,219.327c0.109,0,0.215,0.004,0.321,0.01"/>
	</g>
	
		<text transform="matrix(1 0 0 1 426.1572 233.9761)" display="none" fill="#020202" enable-background="new    " font-family="'ArialMT'" font-size="12">D</text>
	<g>
		<path fill="#020202" d="M460.037,211.213h26.283c9.299,0,17.51,1.865,24.631,5.592c7.115,3.729,12.645,8.921,16.586,15.58
			c3.936,6.659,5.9,14.263,5.9,22.806c0,8.542-1.967,16.146-5.9,22.807c-3.939,6.658-9.471,11.854-16.586,15.58
			c-7.121,3.729-15.332,5.592-24.631,5.592h-35.809v-80.824 M485.82,291.126c7.706,0,14.448-1.526,20.229-4.586
			c5.779-3.06,10.26-7.289,13.441-12.689c3.186-5.4,4.775-11.623,4.775-18.659s-1.592-13.257-4.775-18.659
			c-3.184-5.402-7.662-9.632-13.441-12.688c-5.781-3.059-12.523-4.586-20.229-4.586h-26.009v71.872L485.82,291.126L485.82,291.126z"
			/>
		<line fill="none" x1="450.512" y1="218.343" x2="450.512" y2="217.322"/>
		<path fill="#020202" d="M460.037,211.213"/>
	</g>
	<path fill="#020202" d="M448.985,210.751"/>
</g>
</svg>
