<?xml version="1.0" encoding="utf-8"?>
<!-- Generator: Adobe Illustrator 16.0.0, SVG Export Plug-In . SVG Version: 6.00 Build 0)  -->
<!DOCTYPE svg PUBLIC "-//W3C//DTD SVG 1.1//EN" "http://www.w3.org/Graphics/SVG/1.1/DTD/svg11.dtd">
<svg version="1.1" id="Layer_1" xmlns="http://www.w3.org/2000/svg" xmlns:xlink="http://www.w3.org/1999/xlink" x="0px" y="0px"
	 viewBox="0 0 1000 1000" style="enable-background:new 0 0 1000 1000;" xml:space="preserve">
<style type="text/css">
<![CDATA[
	.st0{fill:#FFFFFF;stroke:#010101;stroke-width:3;stroke-miterlimit:10;}
	.st1{display:none;fill:#989898;}
	.st2{display:inline;fill:#FFFFFF;stroke:#010101;stroke-width:2;stroke-miterlimit:10;}
	.st3{fill:none;stroke:#010101;stroke-miterlimit:10;}
	.st4{display:none;fill:none;stroke:#000000;stroke-width:5;stroke-miterlimit:10;}
	.st5{fill:none;stroke:#010101;stroke-width:5;stroke-miterlimit:10;}
	.st6{fill:#FFFFFF;stroke:#010101;stroke-width:2;stroke-miterlimit:10;}
	.st7{display:none;fill:none;stroke:#010101;stroke-width:5;stroke-miterlimit:10;}
	.st8{fill:#010101;stroke:#010101;stroke-miterlimit:10;}
	.st9{display:none;fill:#FFFFFF;stroke:#010101;stroke-width:3;stroke-miterlimit:10;}
	.st10{display:none;fill:none;stroke:#000000;stroke-width:4;stroke-miterlimit:10;}
	.st11{fill:#989898;}
	.st12{display:inline;fill:none;stroke:#7D7FBD;stroke-miterlimit:10;}
	.st13{fill:none;}
	.st14{display:inline;fill:none;stroke:#010101;stroke-width:3;stroke-miterlimit:10;}
	.st15{display:inline;}
	.st16{fill:none;stroke:#010101;stroke-width:3;stroke-miterlimit:10;}
	.st17{display:inline;fill:none;stroke:#F37F81;stroke-width:4;stroke-miterlimit:10;}
	.st18{fill:#DEDEDD;stroke:#010101;stroke-miterlimit:10;}
	.st19{fill:none;stroke:#000000;stroke-width:7;stroke-miterlimit:10;}
	.st20{display:none;fill:none;stroke:#010101;stroke-width:3;stroke-miterlimit:10;}
	.st21{display:inline;fill:none;stroke:#010101;stroke-miterlimit:10;}
	.st22{fill:#010101;}
	.st23{fill:none;stroke:#000000;stroke-width:2;stroke-miterlimit:10;}
	.st24{display:none;fill:none;stroke:#000000;stroke-width:2;stroke-miterlimit:10;}
	.st25{display:inline;fill:none;stroke:#010101;stroke-width:2;stroke-miterlimit:10;}
	.st26{stroke:#010101;stroke-width:3;stroke-miterlimit:10;}
	.st27{display:inline;fill:none;stroke:#010101;stroke-width:0.5;stroke-miterlimit:10;}
	.st28{display:none;}
	.st29{fill:none;stroke:#010101;stroke-width:2;stroke-miterlimit:10;}
	.st30{display:none;fill:none;stroke:#010101;stroke-width:2;stroke-miterlimit:10;}
	.st31{display:inline;fill:none;stroke:#F37F81;stroke-miterlimit:10;}
	.st32{fill:none;stroke:#010101;stroke-width:6;stroke-miterlimit:10;}
]]>
</style>
<polygon class="st4" points="143.5,860.5 863.5,860.5 863.5,788 863.5,140.5 143.5,140.5 143.5,788 "/>
<g id="Layer_1_3_" class="st28">
	<g id="Layer_2_1_" class="st15">
	</g>
	<g id="Layer_1_2_" class="st15">
		<g id="Layer_1_1_" class="st28">
			<g class="st15">
				<g id="Layer_3">
					<path class="st18" d="M387.184,15.197c196.152,0,355.148,159.004,355.148,355.148c0,34.115-4.814,67.124-13.799,98.359
						c-4.865,16.914-10.961,33.317-18.168,49.099c-56.004,122.542-179.65,207.685-323.182,207.685
						c-151.531,0-280.891-94.906-331.904-228.507c-3.533-9.247-6.68-18.681-9.446-28.275c-8.98-31.239-13.799-64.245-13.799-98.36
						C32.035,174.2,191.042,15.197,387.184,15.197z"/>
				</g>
				<g class="st28">
					<line class="st14" x1="704.723" y1="514.483" x2="62.513" y2="514.483"/>
				</g>
				<g class="st28">
					<line class="st14" x1="742.299" y1="374.823" x2="32.073" y2="374.823"/>
				</g>
				<g>
					<path class="st22" d="M335.465,325.805l-16.82,44.459h-5.667l-14.026-36.431l-14.029,36.431h-5.667l-16.735-44.459h5.749
						l13.95,37.78l14.284-37.78h5.156l14.2,37.78l14.121-37.78H335.465z"/>
				</g>
				<g>
					<path class="st22" d="M259.483,325.887l-16.823,44.458h-5.663l-14.03-36.43l-14.029,36.43h-5.663l-16.739-44.458h5.747
						l13.949,37.78l14.283-37.78h5.157l14.203,37.78l14.112-37.78H259.483z"/>
				</g>
				<g>
					<path class="st22" d="M183.181,325.887l-16.823,44.458h-5.663l-14.03-36.43l-14.029,36.43h-5.663l-16.735-44.458h5.747
						l13.949,37.78l14.284-37.78h5.157l14.204,37.78l14.111-37.78H183.181z"/>
				</g>
				<g>
					<path class="st22" d="M336.041,369.414c-0.877-0.909-1.313-1.999-1.313-3.304c0-1.295,0.436-2.374,1.313-3.251
						c0.871-0.874,1.928-1.312,3.168-1.312c1.238,0,2.311,0.438,3.207,1.312c0.904,0.87,1.354,1.958,1.354,3.251
						c0,1.298-0.453,2.396-1.354,3.304c-0.902,0.901-1.973,1.345-3.207,1.345C337.969,370.767,336.914,370.315,336.041,369.414z"/>
				</g>
				<g>
					<path class="st22" d="M411.121,346.508c0.758-1.744,1.705-3.238,2.83-4.476c1.127-1.246,2.592-2.65,4.396-4.23
						c2.416-2.135,4.209-4.014,5.361-5.621c1.156-1.602,1.736-3.559,1.736-5.869c0-3.102-1.211-5.595-3.639-7.48
						c-2.418-1.887-5.746-2.83-9.969-2.83c-6.988,0-12.369,2.276-16.145,6.845l-4.479-3.381c4.789-5.858,11.807-8.79,21.045-8.79
						c5.918,0,10.639,1.324,14.162,3.972c3.52,2.646,5.281,6.227,5.281,10.731c0,2.316-0.379,4.353-1.145,6.132
						c-0.764,1.771-1.689,3.285-2.795,4.522c-1.098,1.239-2.549,2.677-4.352,4.31c-2.424,2.197-4.227,4.158-5.408,5.873
						c-1.18,1.72-1.775,3.848-1.775,6.386h-6.25C409.986,350.281,410.361,348.259,411.121,346.508z M409.986,369.453
						c-0.85-0.87-1.266-1.897-1.266-3.087c0-1.239,0.42-2.268,1.266-3.085c0.85-0.811,1.881-1.225,3.129-1.225
						c1.293,0,2.367,0.414,3.207,1.225c0.848,0.819,1.266,1.848,1.266,3.085c0,1.189-0.439,2.217-1.311,3.087
						c-0.871,0.873-1.93,1.309-3.162,1.309C411.867,370.767,410.826,370.329,409.986,369.453z"/>
				</g>
				<g>
					<path class="st22" d="M459.838,346.508c0.758-1.744,1.701-3.238,2.83-4.476c1.123-1.246,2.588-2.65,4.393-4.23
						c2.42-2.135,4.211-4.014,5.361-5.621c1.152-1.602,1.736-3.559,1.736-5.869c0-3.102-1.207-5.595-3.635-7.48
						c-2.422-1.887-5.748-2.83-9.969-2.83c-6.986,0-12.369,2.276-16.148,6.845l-4.475-3.381c4.785-5.858,11.799-8.79,21.045-8.79
						c5.914,0,10.639,1.324,14.154,3.972c3.527,2.648,5.285,6.227,5.285,10.731c0,2.316-0.377,4.353-1.146,6.132
						c-0.758,1.771-1.688,3.285-2.789,4.522c-1.102,1.239-2.551,2.677-4.355,4.31c-2.418,2.197-4.225,4.158-5.404,5.873
						c-1.182,1.72-1.783,3.848-1.783,6.386h-6.244C458.701,350.281,459.078,348.259,459.838,346.508z M458.701,369.453
						c-0.855-0.87-1.268-1.897-1.268-3.087c0-1.239,0.416-2.268,1.268-3.085c0.846-0.811,1.883-1.225,3.125-1.225
						c1.299,0,2.369,0.414,3.211,1.225c0.848,0.819,1.266,1.848,1.266,3.085c0,1.189-0.438,2.217-1.311,3.087
						c-0.873,0.873-1.932,1.309-3.166,1.309C460.584,370.767,459.541,370.329,458.701,369.453z"/>
				</g>
				<g>
					<path class="st22" d="M366.514,346.508c0.76-1.744,1.703-3.238,2.828-4.476c1.125-1.246,2.592-2.65,4.395-4.23
						c2.422-2.135,4.213-4.014,5.363-5.621c1.154-1.602,1.734-3.559,1.734-5.869c0-3.102-1.207-5.595-3.631-7.48
						c-2.422-1.887-5.748-2.83-9.977-2.83c-6.982,0-12.365,2.276-16.145,6.845l-4.473-3.381c4.785-5.858,11.797-8.79,21.045-8.79
						c5.912,0,10.639,1.324,14.156,3.972c3.523,2.646,5.283,6.227,5.283,10.731c0,2.316-0.377,4.353-1.146,6.132
						c-0.758,1.771-1.684,3.285-2.789,4.522c-1.102,1.239-2.549,2.677-4.357,4.31c-2.416,2.197-4.223,4.158-5.404,5.873
						c-1.182,1.72-1.779,3.848-1.779,6.386h-6.248C365.377,350.281,365.754,348.259,366.514,346.508z M365.377,369.453
						c-0.854-0.87-1.266-1.897-1.266-3.087c0-1.239,0.416-2.268,1.266-3.085c0.846-0.811,1.883-1.225,3.123-1.225
						c1.297,0,2.371,0.414,3.211,1.225c0.85,0.819,1.268,1.848,1.268,3.085c0,1.189-0.438,2.217-1.309,3.087
						c-0.875,0.873-1.932,1.309-3.17,1.309C367.26,370.766,366.219,370.329,365.377,369.453z"/>
				</g>
				<g>
					<path class="st22" d="M495.688,369.414c-0.869-0.909-1.309-1.999-1.309-3.304c0-1.295,0.439-2.374,1.309-3.251
						c0.871-0.874,1.93-1.312,3.17-1.312s2.313,0.438,3.211,1.312c0.904,0.87,1.348,1.958,1.348,3.251
						c0,1.298-0.451,2.396-1.348,3.304c-0.904,0.901-1.975,1.345-3.211,1.345C497.617,370.767,496.563,370.315,495.688,369.414z"/>
				</g>
				<g>
					<path class="st22" d="M520.164,367.888c-3.467-1.916-6.186-4.606-8.154-8.07c-1.979-3.466-2.963-7.366-2.963-11.706
						c0-4.339,0.984-8.227,2.963-11.664c1.977-3.441,4.686-6.114,8.154-8.028c3.463-1.917,7.391-2.878,11.789-2.878
						c3.836,0,7.258,0.75,10.27,2.242c3.01,1.493,5.395,3.677,7.141,6.547l-4.477,3.051c-1.467-2.197-3.324-3.851-5.578-4.95
						c-2.26-1.103-4.711-1.644-7.363-1.644c-3.205,0-6.098,0.711-8.664,2.155c-2.563,1.438-4.563,3.479-6,6.128
						c-1.434,2.649-2.154,5.666-2.154,9.045c0,3.437,0.717,6.469,2.154,9.088c1.443,2.618,3.445,4.648,6,6.082
						c2.57,1.442,5.455,2.159,8.664,2.159c2.652,0,5.1-0.535,7.363-1.604c2.25-1.065,4.111-2.706,5.578-4.903l4.477,3.044
						c-1.75,2.878-4.139,5.063-7.186,6.554c-3.047,1.493-6.453,2.238-10.229,2.238C527.555,370.767,523.625,369.811,520.164,367.888
						z"/>
				</g>
				<g>
					<path class="st22" d="M570.635,367.888c-3.465-1.916-6.182-4.606-8.154-8.07c-1.973-3.466-2.957-7.366-2.957-11.706
						c0-4.339,0.984-8.227,2.957-11.664c1.979-3.441,4.688-6.114,8.154-8.028c3.465-1.917,7.4-2.878,11.793-2.878
						c3.838,0,7.258,0.75,10.268,2.242c3.01,1.493,5.396,3.677,7.141,6.547l-4.477,3.051c-1.465-2.197-3.324-3.851-5.58-4.95
						c-2.258-1.103-4.709-1.644-7.359-1.644c-3.207,0-6.098,0.711-8.666,2.155c-2.563,1.438-4.563,3.479-5.996,6.128
						c-1.436,2.649-2.158,5.666-2.158,9.045c0,3.437,0.719,6.469,2.158,9.088c1.439,2.618,3.443,4.648,5.996,6.082
						c2.57,1.442,5.455,2.159,8.666,2.159c2.65,0,5.098-0.535,7.359-1.604c2.252-1.065,4.115-2.706,5.58-4.903l4.477,3.044
						c-1.748,2.878-4.137,5.063-7.184,6.554c-3.043,1.493-6.455,2.238-10.232,2.238
						C578.039,370.767,574.105,369.811,570.635,367.888z"/>
				</g>
				<g>
					<path class="st22" d="M619.943,367.888c-3.465-1.916-6.186-4.606-8.154-8.07c-1.977-3.466-2.963-7.366-2.963-11.706
						c0-4.339,0.986-8.227,2.963-11.664c1.977-3.441,4.686-6.114,8.154-8.028c3.463-1.917,7.393-2.878,11.787-2.878
						c3.838,0,7.26,0.75,10.27,2.242c3.012,1.493,5.396,3.677,7.143,6.547l-4.477,3.051c-1.465-2.197-3.324-3.851-5.58-4.95
						c-2.256-1.103-4.707-1.644-7.361-1.644c-3.205,0-6.098,0.711-8.664,2.155c-2.564,1.438-4.563,3.479-5.998,6.128
						c-1.436,2.649-2.156,5.666-2.156,9.045c0,3.437,0.717,6.469,2.156,9.088c1.441,2.618,3.445,4.648,5.998,6.082
						c2.57,1.442,5.455,2.159,8.664,2.159c2.65,0,5.102-0.535,7.361-1.604c2.252-1.065,4.115-2.706,5.58-4.903l4.477,3.044
						c-1.75,2.878-4.139,5.063-7.186,6.554c-3.047,1.493-6.453,2.238-10.229,2.238C627.336,370.767,623.406,369.811,619.943,367.888
						z"/>
				</g>
			</g>
			<g class="st15">
				<path class="st22" d="M94.299,301.165h5.583v79.117h-5.583V301.165z"/>
			</g>
			<div  class="typewriter">
				
					<text  transform="matrix(1 0 0 1 264.0769 578.5002)" startOffset="0" font-size="72" font-family="&apos;Montserrat-Regular&apos;">
					www.???.com</text>
			</div>
		</g>
		<g id="Layer_2" class="st28">
			<line class="st17" x1="233.969" y1="471.462" x2="457.057" y2="473.036"/>
			<line class="st17" x1="273.905" y1="366.575" x2="273.905" y2="439.356"/>
			<line class="st17" x1="427.682" y1="438.792" x2="427.682" y2="367.749"/>
			<path class="st17" d="M298.18,416.657c0-15.138,16.276-27.386,36.395-27.386"/>
			<path class="st17" d="M370.961,416.657c0-15.138-16.271-27.386-36.391-27.386"/>
			<line class="st17" x1="298.18" y1="416.657" x2="298.18" y2="457.355"/>
			<line class="st17" x1="370.961" y1="416.657" x2="370.961" y2="457.355"/>
			<line class="st17" x1="98.996" y1="340.163" x2="233.992" y2="340.163"/>
			<line class="st17" x1="-36" y1="340.163" x2="98.996" y2="340.163"/>
			<path class="st17" d="M342.689,356.13c0,0-6.053-38.837-35.858-37.653"/>
			<line class="st17" x1="275.443" y1="359.937" x2="275.443" y2="391.226"/>
			<line class="st17" x1="342.689" y1="356.13" x2="342.689" y2="391.226"/>
			<line class="st17" x1="351.381" y1="364.554" x2="351.381" y2="416.465"/>
			
				<image style="display:inline;overflow:visible;enable-background:new    ;" width="114" height="16" xlink:href="43B902AC.jpg"  transform="matrix(1.1737 0 0 1.1003 32.0938 465.7661)">
			</image>
			<path class="st31" d="M74.051,460.482c-20.542,13.791-40.784,4.694-40.784,4.694v-6.749"/>
			<path class="st31" d="M151.832,429.084v6.745c0,0,20.237,9.092,40.78-4.694"/>
			<path class="st31" d="M33.267,459.019c0,0,21.708,6.891,40.784-4.114"/>
			<line class="st12" x1="73.142" y1="444.92" x2="73.48" y2="452.231"/>
			<line class="st12" x1="73.073" y1="443.428" x2="73.142" y2="444.92"/>
		</g>
		<g id="paw4">
		</g>
		<g id="paw3">
		</g>
		<g id="paw2">
		</g>
		<circle class="st5" cx="412.666" cy="411.02" r="223.037"/>
		<g>
			<path class="st5" d="M635.705,411.021l-103.084,97.601c-3.994,3.781-10.995,4.362-15.559,1.292L282.445,352.04
				c-4.563-3.071-4.572-8.108-0.02-11.195l121.963-82.687c4.552-3.086,12.096-3.231,16.763-0.322l213.545,133.1"/>
		</g>
		<polygon class="st11" points="305.255,365.238 343.406,390.936 473.316,292.665 437.102,269.967 		"/>
		<polyline class="st16" points="341.193,393.139 343.268,391.606 476.416,293.162 		"/>
		<line class="st30" x1="293.899" y1="346.825" x2="308.952" y2="335.393"/>
		<line class="st30" x1="297.486" y1="350.281" x2="312.538" y2="338.849"/>
		<line class="st30" x1="301.073" y1="353.737" x2="316.124" y2="342.303"/>
		<polyline class="st16" points="300.135,365.725 302.243,364.243 437.654,268.924 		"/>
		<polygon class="st1" points="306.142,366.716 342.412,389.878 474.104,291.732 434.9,268.099 		"/>
		<ellipse class="st0" cx="423.818" cy="345.283" rx="34.631" ry="28.173"/>
		<ellipse class="st6" cx="418.219" cy="337.799" rx="10.441" ry="8.951"/>
		<path class="st9" d="M411.957,334.44c0,0-5.012,26.456,8.1,24.896l15.26-23.869C435.314,335.467,418.93,331.651,411.957,334.44z"
			/>
		<line class="st13" x1="412.203" y1="334.278" x2="449.84" y2="353.499"/>
		<polyline class="st16" points="424.717,361.908 425.055,361.661 446.891,345.517 		"/>
		<line class="st16" x1="274.149" y1="346.457" x2="274.149" y2="435.671"/>
		<line class="st16" x1="274.201" y1="435.537" x2="520.611" y2="602.497"/>
		<line class="st20" x1="199.949" y1="573.178" x2="26.215" y2="746.911"/>
		<line class="st20" x1="299.892" y1="645.959" x2="263.339" y2="714.043"/>
		<line class="st20" x1="249.252" y1="746.911" x2="228.123" y2="786.823"/>
		<line class="st20" x1="397.162" y1="679.996" x2="399.514" y2="714.043"/>
		<line class="st20" x1="595.141" y1="626.665" x2="565.432" y2="745.077"/>
		<g class="st28">
			<line class="st14" x1="-29.886" y1="155.114" x2="113.328" y2="252.546"/>
			<line class="st14" x1="113.328" y1="25.988" x2="148.544" y2="117.55"/>
			<line class="st14" x1="162.537" y1="145.951" x2="176.81" y2="183.059"/>
			<line class="st14" x1="293.2" y1="80.936" x2="304.314" y2="119.109"/>
			<line class="st14" x1="480.617" y1="80.936" x2="466.025" y2="117.918"/>
		</g>
	</g>
	<g>
		<line class="st14" x1="403.682" y1="-60.227" x2="403.588" y2="37.875"/>
		<line class="st14" x1="406.424" y1="69.408" x2="406.385" y2="109.166"/>
		<line class="st14" x1="552.506" y1="141.582" x2="601.01" y2="41.789"/>
		<line class="st14" x1="710.338" y1="46.923" x2="657.9" y2="129.837"/>
		<line class="st14" x1="643.469" y1="158.017" x2="622.225" y2="191.621"/>
		<line class="st14" x1="736.189" y1="126.478" x2="710.338" y2="156.683"/>
		<line class="st14" x1="678.268" y1="286.453" x2="744.348" y2="213.948"/>
		<line class="st14" x1="763.473" y1="188.716" x2="790.252" y2="159.329"/>
	</g>
	<line class="st14" x1="525.113" y1="515.658" x2="520.365" y2="602.66"/>
	<path class="st21" d="M381.639,269.086"/>
	<ellipse class="st8" cx="380.336" cy="253.162" rx="6.525" ry="2.361"/>
	<path class="st29" d="M374.055,253.161v16.667c0,0-3.617,7.996,17.131,10.522"/>
	<path class="st3" d="M386.861,252.997v11.232c0,0,0.418,9.153,5.893,5.188"/>
	<ellipse class="st2" cx="402.236" cy="221.843" rx="9.918" ry="3.762"/>
	<line class="st25" x1="392.318" y1="222.238" x2="392.318" y2="266.337"/>
	<line class="st25" x1="412.154" y1="222.419" x2="412.154" y2="255.831"/>
	<path class="st25" d="M389.041,213.971c0,0-9.768-1.712-7.402-10.027c0,0-10.246,0.734-12.99-7.336"/>
	<path class="st21" d="M396.346,206.558c0,0,3.707,5.149,8.936,0"/>
	<path class="st25" d="M417.02,212.259c0,0,10.516-2.445,4.156-11.25c0,0,11.25,2.69,11.984-7.092"/>
	<ellipse class="st2" cx="384.629" cy="243.865" rx="6.816" ry="2.586"/>
	<line class="st25" x1="377.811" y1="244.138" x2="377.811" y2="274.443"/>
	<line class="st14" x1="348.91" y1="485.326" x2="249.09" y2="563.042"/>
	<line class="st14" x1="432.061" y1="538.563" x2="338.107" y2="623.277"/>
	<g>
		<line class="st14" x1="185.472" y1="585.7" x2="42.259" y2="683.132"/>
		<line class="st14" x1="220.688" y1="720.696" x2="185.472" y2="812.26"/>
		<line class="st14" x1="248.954" y1="655.188" x2="234.682" y2="692.297"/>
		<line class="st14" x1="376.459" y1="719.136" x2="365.344" y2="757.312"/>
		<line class="st14" x1="495.129" y1="755.545" x2="509.719" y2="792.529"/>
	</g>
	<g>
		<line class="st14" x1="403.588" y1="837.897" x2="403.682" y2="936"/>
		<line class="st14" x1="406.385" y1="766.607" x2="406.424" y2="806.363"/>
		<line class="st14" x1="601.01" y1="833.985" x2="552.506" y2="734.192"/>
		<line class="st14" x1="657.9" y1="745.937" x2="710.338" y2="828.85"/>
		<line class="st14" x1="622.225" y1="684.153" x2="643.469" y2="717.755"/>
		<line class="st14" x1="710.338" y1="719.091" x2="736.189" y2="749.294"/>
		<line class="st14" x1="744.348" y1="661.824" x2="678.268" y2="589.32"/>
		<line class="st14" x1="790.252" y1="716.442" x2="763.473" y2="687.058"/>
	</g>
	<line class="st25" x1="433.813" y1="426.572" x2="452.516" y2="426.572"/>
	<line class="st25" x1="459.795" y1="421.355" x2="461.75" y2="404.396"/>
	<line class="st25" x1="469.029" y1="399.182" x2="485.777" y2="401.138"/>
	<path class="st25" d="M279.333,346.619"/>
	<path class="st21" d="M301.099,361.358"/>
	<line class="st21" x1="287.189" y1="348.619" x2="296.258" y2="342.391"/>
	<line class="st21" x1="289.146" y1="350.576" x2="298.216" y2="344.347"/>
	<line class="st21" x1="291.102" y1="352.532" x2="300.171" y2="346.304"/>
	<g>
		<polyline class="st25" points="510.93,383.694 552.994,348.619 592.939,373.456 551.934,410.92 		"/>
	</g>
	<line class="st29" x1="551.934" y1="408.964" x2="513.166" y2="384.511"/>
	<g>
		<path class="st25" d="M241.818,469.606c0,0,1.771,19.565-7.134,19.565"/>
		<path class="st25" d="M238.321,472.873c0,0-8.634,1.954-10.59-6.524c0,0-10.434-1.302-11.087-10.434c0,0-7.826-8.477,0-14.347
			c0,0-7.234-14.347,9.1-15.651c0,0,8.508-15.646,20.247-3.259"/>
		<path class="st25" d="M255.773,472.873c0,0,8.634,1.954,10.59-6.524c0,0,10.435-1.302,11.087-10.434"/>
		<path class="st21" d="M227.482,453.308c0,0-0.848,6.522,7.201,5.868"/>
		<path class="st25" d="M255.773,479.389c0,0,0.651,9.26,6.521,5.935"/>
		<ellipse class="st27" cx="248.925" cy="477.892" rx="2.935" ry="4.826"/>
	</g>
	<polyline class="st25" points="310.88,405.705 310.88,391.063 293.68,380.27 293.68,393.139 	"/>
	<g id="Layer_2_2_" class="st15">
		<path class="st29" d="M426.537,421.358c4.018,0,7.275,2.335,7.275,5.214s-3.258,5.214-7.275,5.214
			c-4.021,0-7.279-2.335-7.279-5.214S422.516,421.358,426.537,421.358z"/>
		<ellipse class="st29" cx="459.795" cy="426.572" rx="7.279" ry="5.214"/>
		<ellipse class="st29" cx="461.752" cy="399.182" rx="7.277" ry="5.214"/>
		<path class="st29" d="M493.057,395.924c4.018,0,7.275,2.335,7.275,5.214s-3.258,5.214-7.275,5.214
			c-4.021,0-7.279-2.335-7.279-5.214S489.035,395.924,493.057,395.924z"/>
		<line class="st29" x1="458.451" y1="470.472" x2="588.129" y2="361.908"/>
	</g>
</g>
<g>
	<line class="st23" x1="846" y1="790" x2="153" y2="790"/>
	<line class="st23" x1="846" y1="718" x2="153" y2="718"/>
	<line class="st23" x1="846" y1="646" x2="153" y2="646"/>
	<line class="st23" x1="846" y1="574" x2="153" y2="574"/>
	<line class="st23" x1="846" y1="502" x2="153" y2="502"/>
	<line class="st23" x1="846" y1="430" x2="153" y2="430"/>
	<line class="st23" x1="846" y1="358" x2="153" y2="358"/>
	<line class="st23" x1="846" y1="286" x2="153" y2="286"/>
	<line class="st23" x1="846" y1="214" x2="153" y2="214"/>
</g>
<g>
	<line class="st23" x1="214" y1="851" x2="214" y2="149"/>
	<line class="st23" x1="286" y1="851" x2="286" y2="149"/>
	<line class="st23" x1="358" y1="851" x2="358" y2="149"/>
	<line class="st23" x1="430" y1="851" x2="430" y2="149"/>
	<line class="st23" x1="502" y1="851" x2="502" y2="149"/>
	<line class="st23" x1="574" y1="851" x2="574" y2="149"/>
	<line class="st23" x1="646" y1="851" x2="646" y2="149"/>
	<line class="st23" x1="718" y1="851" x2="718" y2="149"/>
	<line class="st23" x1="790" y1="851" x2="790" y2="149"/>
</g>
<line class="st24" x1="234" y1="306" x2="414" y2="468"/>
<path class="st10" d="M207,288c0,9,9,18,9,18l162,153c0,0,9,9,18,9l153-63"/>
<path class="st10" d="M549.322,395.661c-0.471-8.988-9.93-17.505-9.93-17.505L378.124,224.386c0,0-9.458-8.517-18.446-8.046"/>
<path class="st10" d="M207,270c0,9,9,18,9,18l90.001,85.001L378,441c0,0,9,9,18,9"/>
<path class="st10" d="M396.422,449.659c5.036,1.734,11.685-1.215,11.685-1.215l63.686-30.453l50.948-24.36
	c0,0,6.647-2.949,8.26-7.631"/>
<g>
	<path class="st5" d="M594.5,566.5c0,5.522-4.478,10-10,10h-161c-5.523,0-10-4.478-10-10v-268c0-5.523,4.477-10,10-10h161
		c5.522,0,10,4.477,10,10V566.5z"/>
</g>
<path class="st5" d="M531,360c0,14.912-12.088,27-27,27c-14.912,0-27-12.088-27-27s12.088-27,27-27C518.912,333,531,345.088,531,360
	"/>
<rect x="413.5" y="306.5" class="st7" width="180" height="54"/>
<line class="st7" x1="477" y1="359.5" x2="414" y2="359.5"/>
<line class="st5" x1="594" y1="359.5" x2="531" y2="359.5"/>
<line class="st5" x1="477" y1="359.5" x2="414" y2="359.5"/>
<line class="st5" x1="594" y1="306.5" x2="414" y2="306.5"/>
<circle class="st5" cx="504" cy="351" r="9"/>
<path class="st5" d="M486,378.5c0,0,18-45,36,0H486z"/>
<circle class="st5" cx="504" cy="558" r="9"/>
<g>
	<circle class="st26" cx="432" cy="432" r="9"/>
	<circle class="st26" cx="459" cy="468" r="9"/>
	<circle class="st26" cx="495" cy="432" r="9"/>
	<circle class="st26" cx="522" cy="468" r="9"/>
	<circle class="st26" cx="567" cy="414" r="9"/>
	<path class="st26" d="M432,432"/>
	<polyline class="st16" points="432,432 459,468 495,432 522,468 567,414 	"/>
</g>
<path class="st16" d="M342,360"/>
<g>
	<line class="st32" x1="358" y1="288" x2="358" y2="576"/>
	<line class="st32" x1="646" y1="288" x2="646" y2="576"/>
	<path class="st19" d="M360.623,359.366c-39.791,0.694-72.551-30.942-73.246-70.733"/>
	<path class="st19" d="M207.556,224.295c-0.782,44.766,34.809,81.623,79.573,82.404"/>
	<path class="st19" d="M648.543,359.366c39.791,0.694,72.552-30.942,73.246-70.733"/>
	<path class="st19" d="M801.609,224.295c0.782,44.766-34.809,81.623-79.572,82.404"/>
	<path class="st32" d="M432,648c0,0-72-117-144,0c0,0-36,54-72,0c0,0-27-144-144-63"/>
	<path class="st32" d="M576,648c0,0,72-117,144,0c0,0,36,54,72,0c0,0,27-144,144-63"/>
	<path class="st32" d="M504,718c0,0,72-117,144,0c0,0,36,54,72,0c0,0,27-144,144-63"/>
	<path class="st32" d="M504,714c0,0-72-117-144,0c0,0-36,54-72,0c0,0-27-144-144-63"/>
</g>
</svg>
