<?xml version="1.0" encoding="utf-8"?>
<!-- Generator: Adobe Illustrator 16.0.0, SVG Export Plug-In . SVG Version: 6.00 Build 0)  -->
<!DOCTYPE svg PUBLIC "-//W3C//DTD SVG 1.1//EN" "http://www.w3.org/Graphics/SVG/1.1/DTD/svg11.dtd">
<svg version="1.1" xmlns="http://www.w3.org/2000/svg" xmlns:xlink="http://www.w3.org/1999/xlink" x="0px" y="0px" width="600px"
	 height="600px" viewBox="0 0 600 600" enable-background="new 0 0 600 600" xml:space="preserve">
<g id="Layer_1">
	<g id="Layer_2_1_">
	</g>
	<g id="Layer_1_2_">
		<g id="Layer_1_1_" display="none">
			<g display="inline">
				<g id="Layer_3">
					<path fill="#DDDDDD" stroke="#000000" stroke-miterlimit="10" d="M300,91.902c100.258,0,181.526,81.271,181.526,181.525
						c0,17.438-2.461,34.309-7.053,50.273c-2.487,8.646-5.602,17.031-9.287,25.096C436.561,411.431,373.363,454.95,300,454.95
						c-77.451,0-143.571-48.509-169.645-116.796c-1.805-4.727-3.414-9.548-4.828-14.453c-4.59-15.966-7.053-32.836-7.053-50.274
						C118.474,173.172,199.747,91.902,300,91.902z"/>
				</g>
				<g display="none">
					
						<line display="inline" fill="none" stroke="#000000" stroke-width="3" stroke-miterlimit="10" x1="462.302" y1="347.1" x2="134.052" y2="347.1"/>
				</g>
				<g display="none">
					
						<line display="inline" fill="none" stroke="#000000" stroke-width="3" stroke-miterlimit="10" x1="481.508" y1="275.716" x2="118.494" y2="275.716"/>
				</g>
				<g>
					<path d="M273.565,250.661l-8.597,22.724h-2.896l-7.169-18.62l-7.171,18.62h-2.896l-8.554-22.724h2.938l7.13,19.311
						l7.301-19.311h2.636l7.258,19.311l7.216-19.311H273.565z"/>
				</g>
				<g>
					<path d="M234.729,250.703l-8.598,22.724h-2.895l-7.171-18.62l-7.171,18.62h-2.894l-8.556-22.724h2.938l7.129,19.311
						l7.301-19.311h2.636l7.26,19.311l7.213-19.311H234.729z"/>
				</g>
				<g>
					<path d="M195.729,250.703l-8.598,22.724h-2.895l-7.171-18.62l-7.171,18.62H167l-8.554-22.724h2.938l7.129,19.311l7.301-19.311
						h2.636l7.26,19.311l7.213-19.311H195.729z"/>
				</g>
				<g>
					<path d="M273.859,272.951c-0.447-0.464-0.67-1.021-0.67-1.688c0-0.662,0.223-1.214,0.67-1.662
						c0.446-0.446,0.986-0.67,1.62-0.67c0.633,0,1.181,0.224,1.64,0.67c0.462,0.445,0.69,1.001,0.69,1.662
						c0,0.663-0.23,1.225-0.69,1.688c-0.462,0.461-1.009,0.688-1.64,0.688C274.845,273.643,274.306,273.412,273.859,272.951z"/>
				</g>
				<g>
					<path d="M312.235,261.243c0.388-0.891,0.871-1.655,1.447-2.288c0.575-0.636,1.324-1.354,2.246-2.162
						c1.236-1.091,2.152-2.052,2.741-2.873c0.59-0.818,0.887-1.818,0.887-3c0-1.585-0.619-2.859-1.859-3.823
						c-1.236-0.964-2.938-1.446-5.096-1.446c-3.571,0-6.322,1.163-8.252,3.499l-2.289-1.729c2.448-2.994,6.034-4.492,10.757-4.492
						c3.024,0,5.438,0.677,7.238,2.03c1.8,1.353,2.7,3.183,2.7,5.486c0,1.183-0.194,2.224-0.586,3.133
						c-0.389,0.906-0.863,1.679-1.427,2.312c-0.562,0.634-1.303,1.368-2.225,2.203c-1.238,1.123-2.16,2.125-2.763,3.002
						c-0.604,0.879-0.909,1.966-0.909,3.264h-3.194C311.655,263.172,311.846,262.138,312.235,261.243z M311.655,272.971
						c-0.435-0.444-0.647-0.97-0.647-1.577c0-0.634,0.214-1.159,0.647-1.577c0.434-0.414,0.962-0.626,1.599-0.626
						c0.661,0,1.21,0.212,1.64,0.626c0.433,0.419,0.647,0.944,0.647,1.577c0,0.607-0.225,1.133-0.67,1.577
						c-0.446,0.446-0.987,0.669-1.617,0.669C312.617,273.643,312.084,273.419,311.655,272.971z"/>
				</g>
				<g>
					<path d="M337.135,261.243c0.388-0.891,0.87-1.655,1.446-2.288c0.575-0.636,1.324-1.354,2.246-2.162
						c1.237-1.091,2.152-2.052,2.74-2.873c0.59-0.818,0.888-1.818,0.888-3c0-1.585-0.618-2.859-1.858-3.823
						c-1.238-0.964-2.938-1.446-5.096-1.446c-3.571,0-6.322,1.163-8.253,3.499l-2.288-1.729c2.447-2.994,6.032-4.492,10.757-4.492
						c3.023,0,5.438,0.677,7.236,2.03c1.802,1.354,2.7,3.183,2.7,5.486c0,1.183-0.193,2.224-0.585,3.133
						c-0.388,0.906-0.863,1.679-1.426,2.312c-0.563,0.634-1.304,1.368-2.226,2.203c-1.237,1.123-2.16,2.125-2.763,3.002
						c-0.604,0.879-0.91,1.966-0.91,3.264h-3.193C336.554,263.172,336.747,262.138,337.135,261.243z M336.554,272.971
						c-0.436-0.444-0.647-0.97-0.647-1.577c0-0.634,0.213-1.159,0.647-1.577c0.433-0.414,0.963-0.626,1.598-0.626
						c0.663,0,1.211,0.212,1.641,0.626c0.433,0.419,0.647,0.944,0.647,1.577c0,0.607-0.224,1.133-0.67,1.577
						c-0.446,0.446-0.987,0.669-1.618,0.669C337.516,273.643,336.984,273.419,336.554,272.971z"/>
				</g>
				<g>
					<path d="M289.435,261.243c0.389-0.891,0.87-1.655,1.446-2.288c0.575-0.636,1.324-1.354,2.246-2.162
						c1.238-1.091,2.153-2.052,2.741-2.873c0.59-0.818,0.887-1.818,0.887-3c0-1.585-0.618-2.859-1.856-3.823
						s-2.938-1.446-5.099-1.446c-3.57,0-6.321,1.163-8.252,3.499l-2.287-1.729c2.446-2.994,6.031-4.492,10.757-4.492
						c3.022,0,5.438,0.677,7.236,2.03c1.8,1.353,2.7,3.183,2.7,5.486c0,1.183-0.193,2.224-0.586,3.133
						c-0.388,0.906-0.861,1.679-1.425,2.312c-0.563,0.634-1.304,1.368-2.227,2.203c-1.236,1.123-2.159,2.125-2.763,3.002
						c-0.604,0.879-0.909,1.966-0.909,3.264h-3.194C288.854,263.172,289.047,262.138,289.435,261.243z M288.854,272.971
						c-0.436-0.444-0.647-0.97-0.647-1.577c0-0.634,0.213-1.159,0.647-1.577c0.433-0.414,0.963-0.626,1.596-0.626
						c0.663,0,1.213,0.212,1.642,0.626c0.434,0.419,0.648,0.944,0.648,1.577c0,0.607-0.224,1.133-0.67,1.577
						c-0.446,0.446-0.986,0.669-1.62,0.669C289.817,273.642,289.284,273.419,288.854,272.971z"/>
				</g>
				<g>
					<path d="M355.459,272.951c-0.445-0.464-0.668-1.021-0.668-1.688c0-0.662,0.223-1.214,0.668-1.662
						c0.446-0.446,0.987-0.67,1.62-0.67c0.634,0,1.182,0.224,1.641,0.67c0.462,0.445,0.689,1.001,0.689,1.662
						c0,0.663-0.23,1.225-0.689,1.688c-0.462,0.461-1.009,0.688-1.641,0.688C356.446,273.643,355.906,273.412,355.459,272.951z"/>
				</g>
				<g>
					<path d="M367.969,272.171c-1.771-0.979-3.161-2.354-4.168-4.125c-1.01-1.771-1.513-3.764-1.513-5.983
						c0-2.218,0.503-4.205,1.513-5.962c1.011-1.759,2.396-3.125,4.168-4.104c1.771-0.979,3.779-1.47,6.026-1.47
						c1.961,0,3.71,0.383,5.249,1.146s2.758,1.879,3.65,3.346l-2.288,1.559c-0.749-1.123-1.699-1.967-2.852-2.53
						c-1.154-0.563-2.407-0.84-3.762-0.84c-1.639,0-3.118,0.364-4.429,1.102c-1.311,0.734-2.332,1.778-3.066,3.132
						c-0.734,1.354-1.102,2.896-1.102,4.623c0,1.757,0.366,3.306,1.102,4.645c0.737,1.338,1.76,2.376,3.066,3.109
						c1.313,0.737,2.788,1.103,4.429,1.103c1.354,0,2.606-0.273,3.762-0.82c1.151-0.544,2.103-1.383,2.852-2.506l2.288,1.556
						c-0.895,1.47-2.115,2.588-3.673,3.349c-1.557,0.764-3.298,1.145-5.228,1.145C371.748,273.643,369.739,273.154,367.969,272.171z
						"/>
				</g>
				<g>
					<path d="M393.767,272.171c-1.771-0.979-3.16-2.354-4.168-4.125c-1.009-1.771-1.512-3.764-1.512-5.983
						c0-2.218,0.503-4.205,1.512-5.962c1.011-1.759,2.396-3.125,4.168-4.104c1.771-0.979,3.781-1.47,6.027-1.47
						c1.961,0,3.71,0.383,5.248,1.146c1.539,0.763,2.758,1.879,3.65,3.346l-2.288,1.559c-0.749-1.123-1.699-1.967-2.852-2.53
						c-1.154-0.563-2.407-0.84-3.761-0.84c-1.64,0-3.118,0.364-4.43,1.102c-1.31,0.734-2.332,1.778-3.065,3.132
						c-0.734,1.354-1.103,2.896-1.103,4.623c0,1.757,0.367,3.306,1.103,4.645c0.736,1.338,1.76,2.376,3.065,3.109
						c1.313,0.737,2.788,1.103,4.43,1.103c1.354,0,2.605-0.273,3.761-0.82c1.151-0.544,2.103-1.383,2.852-2.506l2.288,1.556
						c-0.894,1.47-2.114,2.588-3.672,3.349c-1.556,0.764-3.299,1.145-5.229,1.145C397.55,273.643,395.541,273.154,393.767,272.171z"
						/>
				</g>
				<g>
					<path d="M418.969,272.171c-1.771-0.979-3.161-2.354-4.168-4.125c-1.01-1.771-1.513-3.764-1.513-5.983
						c0-2.218,0.503-4.205,1.513-5.962c1.011-1.759,2.396-3.125,4.168-4.104c1.771-0.979,3.779-1.47,6.026-1.47
						c1.961,0,3.71,0.383,5.249,1.146s2.758,1.879,3.65,3.346l-2.288,1.559c-0.749-1.123-1.699-1.967-2.852-2.53
						c-1.154-0.563-2.407-0.84-3.762-0.84c-1.639,0-3.118,0.364-4.429,1.102c-1.311,0.734-2.332,1.778-3.066,3.132
						c-0.734,1.354-1.102,2.896-1.102,4.623c0,1.757,0.366,3.306,1.102,4.645c0.737,1.338,1.76,2.376,3.066,3.109
						c1.313,0.737,2.788,1.103,4.429,1.103c1.354,0,2.606-0.273,3.762-0.82c1.151-0.544,2.103-1.383,2.852-2.506l2.288,1.556
						c-0.895,1.47-2.115,2.588-3.673,3.349c-1.557,0.764-3.298,1.145-5.228,1.145C422.748,273.643,420.74,273.154,418.969,272.171z"
						/>
				</g>
			</g>
			<g display="inline">
				<path d="M150.3,238.068h2.853v40.438H150.3V238.068z"/>
			</g>
			<div  class="typewriter">
				
					<text  transform="matrix(1 0 0 1 264.0769 578.5002)" startOffset="0" font-size="72" font-family="&apos;Montserrat-Regular&apos;">
					www.???.com</text>
			</div>
		</g>
		<g id="Layer_2" display="none">
			
				<line fill="none" stroke="#FF8080" stroke-width="4" stroke-miterlimit="10" x1="221.688" y1="325.111" x2="335.713" y2="325.915"/>
			<line fill="none" stroke="#FF8080" stroke-width="4" stroke-miterlimit="10" x1="242.1" y1="271.5" x2="242.1" y2="308.7"/>
			<line fill="none" stroke="#FF8080" stroke-width="4" stroke-miterlimit="10" x1="320.7" y1="308.412" x2="320.7" y2="272.1"/>
			<path fill="none" stroke="#FF8080" stroke-width="4" stroke-miterlimit="10" d="M254.508,297.099
				c0-7.737,8.319-13.998,18.602-13.998"/>
			<path fill="none" stroke="#FF8080" stroke-width="4" stroke-miterlimit="10" d="M291.708,297.099
				c0-7.737-8.317-13.998-18.6-13.998"/>
			
				<line fill="none" stroke="#FF8080" stroke-width="4" stroke-miterlimit="10" x1="254.508" y1="297.099" x2="254.508" y2="317.901"/>
			
				<line fill="none" stroke="#FF8080" stroke-width="4" stroke-miterlimit="10" x1="291.708" y1="297.099" x2="291.708" y2="317.901"/>
			<line fill="none" stroke="#FF8080" stroke-width="4" stroke-miterlimit="10" x1="152.7" y1="258" x2="221.7" y2="258"/>
			<line fill="none" stroke="#FF8080" stroke-width="4" stroke-miterlimit="10" x1="83.7" y1="258" x2="152.7" y2="258"/>
			<path fill="none" stroke="#FF8080" stroke-width="4" stroke-miterlimit="10" d="M277.258,266.161c0,0-3.094-19.85-18.329-19.245"
				/>
			
				<line fill="none" stroke="#FF8080" stroke-width="4" stroke-miterlimit="10" x1="242.886" y1="268.107" x2="242.886" y2="284.1"/>
			
				<line fill="none" stroke="#FF8080" stroke-width="4" stroke-miterlimit="10" x1="277.258" y1="266.161" x2="277.258" y2="284.1"/>
			<line fill="none" stroke="#FF8080" stroke-width="4" stroke-miterlimit="10" x1="281.7" y1="270.467" x2="281.7" y2="297"/>
			
				<image overflow="visible" enable-background="new    " width="114" height="16" xlink:href="43B902AC.jpg"  transform="matrix(0.5999 0 0 0.5624 118.5046 322.1995)">
			</image>
			<path fill="none" stroke="#FF8080" stroke-miterlimit="10" d="M139.95,319.498c-10.5,7.05-20.846,2.4-20.846,2.4v-3.449"/>
			<path fill="none" stroke="#FF8080" stroke-miterlimit="10" d="M179.706,303.45v3.448c0,0,10.344,4.647,20.844-2.4"/>
			<path fill="none" stroke="#FF8080" stroke-miterlimit="10" d="M119.104,318.75c0,0,11.096,3.523,20.846-2.102"/>
			<line fill="none" stroke="#8383FC" stroke-miterlimit="10" x1="139.485" y1="311.544" x2="139.658" y2="315.282"/>
			<line fill="none" stroke="#8383FC" stroke-miterlimit="10" x1="139.45" y1="310.782" x2="139.485" y2="311.544"/>
		</g>
		<g id="paw4">
		</g>
		<g id="paw3">
		</g>
		<g id="paw2">
		</g>
		<circle fill="#FFFFFF" stroke="#000000" stroke-width="3" stroke-miterlimit="10" cx="313.025" cy="294.217" r="114"/>
		
			<line fill="none" stroke="#000000" stroke-width="3" stroke-miterlimit="10" x1="242.225" y1="261.217" x2="313.025" y2="213.217"/>
		
			<line fill="none" stroke="#000000" stroke-width="3" stroke-miterlimit="10" x1="242.225" y1="261.217" x2="370.625" y2="347.617"/>
		
			<line fill="none" stroke="#000000" stroke-width="3" stroke-miterlimit="10" x1="313.025" y1="213.217" x2="426.511" y2="283.951"/>
		
			<line fill="none" stroke="#000000" stroke-width="3" stroke-miterlimit="10" x1="370.625" y1="347.617" x2="427.025" y2="294.217"/>
		<polygon fill="#999999" points="258.125,270.817 277.625,283.951 344.025,233.723 325.514,222.121 		"/>
		<polyline fill="none" stroke="#000000" stroke-width="3" stroke-miterlimit="10" points="276.494,285.077 277.553,284.294 
			345.609,233.977 		"/>
		
			<line display="none" fill="none" stroke="#000000" stroke-width="2" stroke-miterlimit="10" x1="252.32" y1="261.406" x2="260.013" y2="255.562"/>
		
			<line display="none" fill="none" stroke="#000000" stroke-width="2" stroke-miterlimit="10" x1="254.153" y1="263.172" x2="261.846" y2="257.328"/>
		
			<line display="none" fill="none" stroke="#000000" stroke-width="2" stroke-miterlimit="10" x1="255.987" y1="264.939" x2="263.679" y2="259.094"/>
		<polyline fill="none" stroke="#000000" stroke-width="3" stroke-miterlimit="10" points="255.508,271.066 256.585,270.308 
			325.796,221.588 		"/>
		<polygon display="none" fill="#999999" points="258.578,271.573 277.117,283.411 344.427,233.246 324.389,221.166 		"/>
		
			<ellipse fill="#FFFFFF" stroke="#000000" stroke-width="3" stroke-miterlimit="10" cx="318.725" cy="260.617" rx="17.7" ry="14.4"/>
		
			<ellipse fill="#FFFFFF" stroke="#000000" stroke-width="2" stroke-miterlimit="10" cx="315.863" cy="256.792" rx="5.337" ry="4.575"/>
		<path display="none" fill="#FFFFFF" stroke="#000000" stroke-width="3" stroke-miterlimit="10" d="M312.663,255.075
			c0,0-2.563,13.523,4.139,12.725l7.8-12.2C324.6,255.6,316.226,253.65,312.663,255.075z"/>
		<line fill="none" x1="312.788" y1="254.992" x2="332.025" y2="264.817"/>
		<polyline fill="none" stroke="#000000" stroke-width="3" stroke-miterlimit="10" points="319.184,269.115 319.357,268.989 
			330.518,260.737 		"/>
		
			<line fill="none" stroke="#000000" stroke-width="3" stroke-miterlimit="10" x1="242.225" y1="261.217" x2="242.225" y2="306.817"/>
		
			<line fill="none" stroke="#000000" stroke-width="3" stroke-miterlimit="10" x1="242.252" y1="306.748" x2="368.198" y2="392.086"/>
		
			<line display="none" fill="none" stroke="#000000" stroke-width="3" stroke-miterlimit="10" x1="204.3" y1="377.1" x2="115.5" y2="465.9"/>
		
			<line display="none" fill="none" stroke="#000000" stroke-width="3" stroke-miterlimit="10" x1="255.383" y1="414.3" x2="236.7" y2="449.1"/>
		
			<line display="none" fill="none" stroke="#000000" stroke-width="3" stroke-miterlimit="10" x1="229.5" y1="465.9" x2="218.7" y2="486.3"/>
		
			<line display="none" fill="none" stroke="#000000" stroke-width="3" stroke-miterlimit="10" x1="305.1" y1="431.698" x2="306.302" y2="449.1"/>
		
			<line display="none" fill="none" stroke="#000000" stroke-width="3" stroke-miterlimit="10" x1="406.293" y1="404.439" x2="391.107" y2="464.962"/>
		<g>
			
				<line fill="none" stroke="#000000" stroke-width="3" stroke-miterlimit="10" x1="86.825" y1="163.417" x2="160.025" y2="213.217"/>
			
				<line fill="none" stroke="#000000" stroke-width="3" stroke-miterlimit="10" x1="160.025" y1="97.417" x2="178.025" y2="144.217"/>
			
				<line fill="none" stroke="#000000" stroke-width="3" stroke-miterlimit="10" x1="185.177" y1="158.734" x2="192.472" y2="177.7"/>
			
				<line fill="none" stroke="#000000" stroke-width="3" stroke-miterlimit="10" x1="251.963" y1="125.502" x2="257.643" y2="145.014"/>
			
				<line fill="none" stroke="#000000" stroke-width="3" stroke-miterlimit="10" x1="347.756" y1="125.502" x2="340.298" y2="144.406"/>
		</g>
	</g>
	<g>
		
			<line fill="none" stroke="#000000" stroke-width="3" stroke-miterlimit="10" x1="308.432" y1="53.351" x2="308.385" y2="103.493"/>
		
			<line fill="none" stroke="#000000" stroke-width="3" stroke-miterlimit="10" x1="309.834" y1="119.611" x2="309.815" y2="139.932"/>
		<line fill="none" stroke="#000000" stroke-width="3" stroke-miterlimit="10" x1="384.5" y1="156.5" x2="409.293" y2="105.493"/>
		
			<line fill="none" stroke="#000000" stroke-width="3" stroke-miterlimit="10" x1="465.172" y1="108.117" x2="438.371" y2="150.497"/>
		
			<line fill="none" stroke="#000000" stroke-width="3" stroke-miterlimit="10" x1="430.994" y1="164.901" x2="420.135" y2="182.076"/>
		
			<line fill="none" stroke="#000000" stroke-width="3" stroke-miterlimit="10" x1="478.385" y1="148.781" x2="465.172" y2="164.219"/>
		
			<line fill="none" stroke="#000000" stroke-width="3" stroke-miterlimit="10" x1="448.78" y1="230.548" x2="482.555" y2="193.489"/>
		
			<line fill="none" stroke="#000000" stroke-width="3" stroke-miterlimit="10" x1="492.332" y1="180.592" x2="506.018" y2="165.572"/>
	</g>
	<line fill="none" stroke="#000000" stroke-width="3" stroke-miterlimit="10" x1="370.5" y1="347.7" x2="368.073" y2="392.169"/>
	<path fill="none" stroke="#000000" stroke-miterlimit="10" d="M297.166,221.671"/>
	<ellipse display="none" stroke="#000000" stroke-miterlimit="10" cx="296.5" cy="213.532" rx="3.334" ry="1.207"/>
	<path display="none" fill="none" stroke="#000000" stroke-width="2" stroke-miterlimit="10" d="M293.29,213.532v8.518
		c0,0-1.85,4.087,8.755,5.378"/>
	<path display="none" fill="none" stroke="#000000" stroke-miterlimit="10" d="M299.835,213.448v5.741c0,0,0.214,4.678,3.012,2.651"
		/>
	
		<ellipse fill="#FFFFFF" stroke="#000000" stroke-width="2" stroke-miterlimit="10" cx="307.694" cy="197.524" rx="5.069" ry="1.923"/>
	
		<line fill="none" stroke="#000000" stroke-width="2" stroke-miterlimit="10" x1="302.625" y1="197.726" x2="302.625" y2="220.266"/>
	
		<line fill="none" stroke="#000000" stroke-width="2" stroke-miterlimit="10" x1="312.763" y1="197.819" x2="312.763" y2="214.896"/>
	<path fill="none" stroke="#000000" stroke-width="2" stroke-miterlimit="10" d="M300.95,193.5c0,0-4.992-0.875-3.784-5.125
		c0,0-5.238,0.375-6.64-3.75"/>
	<path fill="none" stroke="#000000" stroke-miterlimit="10" d="M304.683,189.711c0,0,1.895,2.632,4.566,0"/>
	<path fill="none" stroke="#000000" stroke-width="2" stroke-miterlimit="10" d="M315.25,192.625c0,0,5.375-1.25,2.125-5.75
		c0,0,5.75,1.375,6.125-3.625"/>
	
		<ellipse fill="#FFFFFF" stroke="#000000" stroke-width="2" stroke-miterlimit="10" cx="298.694" cy="208.78" rx="3.484" ry="1.322"/>
	<line fill="none" stroke="#000000" stroke-width="2" stroke-miterlimit="10" x1="295.21" y1="208.919" x2="295.21" y2="224.409"/>
	
		<line fill="none" stroke="#000000" stroke-width="3" stroke-miterlimit="10" x1="280.437" y1="332.197" x2="229.417" y2="371.919"/>
	
		<line fill="none" stroke="#000000" stroke-width="3" stroke-miterlimit="10" x1="322.938" y1="359.408" x2="274.916" y2="402.707"/>
	<g>
		<line fill="none" stroke="#000000" stroke-width="3" stroke-miterlimit="10" x1="196.9" y1="383.501" x2="123.7" y2="433.301"/>
		<line fill="none" stroke="#000000" stroke-width="3" stroke-miterlimit="10" x1="214.9" y1="452.501" x2="196.9" y2="499.301"/>
		
			<line fill="none" stroke="#000000" stroke-width="3" stroke-miterlimit="10" x1="229.347" y1="419.018" x2="222.052" y2="437.985"/>
		
			<line fill="none" stroke="#000000" stroke-width="3" stroke-miterlimit="10" x1="294.518" y1="451.704" x2="288.838" y2="471.216"/>
		
			<line fill="none" stroke="#000000" stroke-width="3" stroke-miterlimit="10" x1="355.173" y1="470.313" x2="362.631" y2="489.216"/>
	</g>
	<g>
		
			<line fill="none" stroke="#000000" stroke-width="3" stroke-miterlimit="10" x1="308.385" y1="512.406" x2="308.432" y2="562.548"/>
		
			<line fill="none" stroke="#000000" stroke-width="3" stroke-miterlimit="10" x1="309.815" y1="475.967" x2="309.834" y2="496.288"/>
		<line fill="none" stroke="#000000" stroke-width="3" stroke-miterlimit="10" x1="409.293" y1="510.406" x2="384.5" y2="459.399"/>
		
			<line fill="none" stroke="#000000" stroke-width="3" stroke-miterlimit="10" x1="438.371" y1="465.402" x2="465.172" y2="507.781"/>
		
			<line fill="none" stroke="#000000" stroke-width="3" stroke-miterlimit="10" x1="420.135" y1="433.823" x2="430.994" y2="450.998"/>
		
			<line fill="none" stroke="#000000" stroke-width="3" stroke-miterlimit="10" x1="465.172" y1="451.68" x2="478.385" y2="467.118"/>
		<line fill="none" stroke="#000000" stroke-width="3" stroke-miterlimit="10" x1="482.555" y1="422.41" x2="448.78" y2="385.351"/>
		
			<line fill="none" stroke="#000000" stroke-width="3" stroke-miterlimit="10" x1="506.018" y1="450.327" x2="492.332" y2="435.307"/>
	</g>
	
		<line fill="none" stroke="#000000" stroke-width="2" stroke-miterlimit="10" x1="323.834" y1="302.166" x2="333.393" y2="302.166"/>
	<line fill="none" stroke="#000000" stroke-width="2" stroke-miterlimit="10" x1="337.113" y1="299.5" x2="338.113" y2="290.831"/>
	
		<line fill="none" stroke="#000000" stroke-width="2" stroke-miterlimit="10" x1="341.834" y1="288.166" x2="350.393" y2="289.166"/>
	<path fill="none" stroke="#000000" stroke-width="2" stroke-miterlimit="10" d="M244.875,261.3"/>
	<path fill="none" stroke="#000000" stroke-miterlimit="10" d="M256,268.834"/>
	<line fill="none" stroke="#000000" stroke-miterlimit="10" x1="248.89" y1="262.323" x2="253.526" y2="259.139"/>
	<line fill="none" stroke="#000000" stroke-miterlimit="10" x1="249.89" y1="263.323" x2="254.526" y2="260.139"/>
	<line fill="none" stroke="#000000" stroke-miterlimit="10" x1="250.89" y1="264.323" x2="255.526" y2="261.139"/>
	<g display="none">
		<polyline display="inline" fill="none" stroke="#000000" stroke-width="2" stroke-miterlimit="10" points="363.25,280.25 
			384.75,262.323 405.167,275.017 384.209,294.166 		"/>
	</g>
	
		<line display="none" fill="none" stroke="#000000" stroke-width="2" stroke-miterlimit="10" x1="384.209" y1="293.166" x2="364.393" y2="280.667"/>
	<g display="none">
		<path display="inline" fill="none" stroke="#000000" stroke-width="2" stroke-miterlimit="10" d="M225.7,324.162
			c0,0,0.905,10-3.647,10"/>
		<path display="inline" fill="none" stroke="#000000" stroke-width="2" stroke-miterlimit="10" d="M223.913,325.831
			c0,0-4.413,0.999-5.413-3.334c0,0-5.333-0.666-5.667-5.333c0,0-4-4.333,0-7.333c0,0-3.698-7.333,4.651-8
			c0,0,4.349-7.997,10.349-1.666"/>
		<path display="inline" fill="none" stroke="#000000" stroke-width="2" stroke-miterlimit="10" d="M232.833,325.831
			c0,0,4.413,0.999,5.413-3.334c0,0,5.333-0.666,5.667-5.333"/>
		<path display="inline" fill="none" stroke="#000000" stroke-miterlimit="10" d="M218.373,315.831c0,0-0.434,3.334,3.68,3"/>
		<path display="inline" fill="none" stroke="#000000" stroke-width="2" stroke-miterlimit="10" d="M232.833,329.162
			c0,0,0.333,4.733,3.333,3.034"/>
		
			<ellipse display="inline" fill="none" stroke="#000000" stroke-width="0.5" stroke-miterlimit="10" cx="229.333" cy="328.397" rx="1.5" ry="2.467"/>
	</g>
	<polyline fill="none" stroke="#000000" stroke-width="2" stroke-miterlimit="10" points="261,291.5 261,284.017 252.208,278.499 
		252.208,285.077 	"/>
</g>
<g id="Layer_2_2_">
	<ellipse fill="none" stroke="#000000" stroke-width="2" stroke-miterlimit="10" cx="320.114" cy="302.166" rx="3.72" ry="2.665"/>
	<ellipse fill="none" stroke="#000000" stroke-width="2" stroke-miterlimit="10" cx="337.114" cy="302.166" rx="3.72" ry="2.665"/>
	<ellipse fill="none" stroke="#000000" stroke-width="2" stroke-miterlimit="10" cx="338.114" cy="288.166" rx="3.72" ry="2.665"/>
	<ellipse fill="none" stroke="#000000" stroke-width="2" stroke-miterlimit="10" cx="354.114" cy="289.166" rx="3.72" ry="2.665"/>
	
		<line fill="none" stroke="#000000" stroke-width="2" stroke-miterlimit="10" x1="336.426" y1="324.605" x2="402.709" y2="269.115"/>
</g>
</svg>
