<?xml version="1.0" encoding="utf-8"?>
<!-- Generator: Adobe Illustrator 16.0.0, SVG Export Plug-In . SVG Version: 6.00 Build 0)  -->
<!DOCTYPE svg PUBLIC "-//W3C//DTD SVG 1.1//EN" "http://www.w3.org/Graphics/SVG/1.1/DTD/svg11.dtd">
<svg version="1.1" id="loop" xmlns="http://www.w3.org/2000/svg" xmlns:xlink="http://www.w3.org/1999/xlink" x="0px" y="0px"
	 viewBox="0 0 1000 1000" enable-background="new 0 0 1000 1000" xml:space="preserve">
<g display="none">
	<g id="Desktop" display="inline">
		<g>
			<path fill="none" stroke="#000000" stroke-width="4" stroke-miterlimit="10" d="M369.5,591c0,5.5-4.5,10-10,10h-88
				c-5.5,0-10-4.5-10-10V251c0-5.5,4.5-10,10-10h88c5.5,0,10,4.5,10,10V591z"/>
		</g>
		<line fill="none" stroke="#000000" stroke-width="4" stroke-miterlimit="10" x1="380.5" y1="239" x2="380.5" y2="599"/>
		<g>
			<path fill="none" stroke="#000000" stroke-width="4" stroke-miterlimit="10" d="M380.5,599h350c5.5,0,10-4.5,10-10V249
				c0-5.5-4.5-10-10-10h-350"/>
		</g>
		<line fill="none" stroke="#000000" stroke-width="4" stroke-miterlimit="10" x1="389.5" y1="275" x2="722.5" y2="275"/>
		<polyline fill="none" stroke="#000000" stroke-width="4" stroke-miterlimit="10" points="398.5,266 389.5,257 398.5,248 		"/>
		<rect x="497.5" y="248" fill="none" stroke="#000000" stroke-width="4" stroke-miterlimit="10" width="18" height="18"/>
		<line fill="none" stroke="#000000" stroke-width="4" stroke-miterlimit="10" x1="524.5" y1="257" x2="605.5" y2="257"/>
		<polyline fill="none" stroke="#000000" stroke-width="4" stroke-miterlimit="10" points="407.5,311 407.5,383 515.5,383 		"/>
		<polyline fill="none" stroke="#000000" stroke-width="4" stroke-miterlimit="10" points="407.5,401 407.5,473 515.5,473 		"/>
		<polyline fill="none" stroke="#000000" stroke-width="4" stroke-miterlimit="10" points="407.5,491 407.5,563 515.5,563 		"/>
		<polyline fill="none" stroke="#000000" stroke-width="4" stroke-miterlimit="10" points="587.5,311 587.5,383 695.5,383 		"/>
		<polyline fill="none" stroke="#000000" stroke-width="4" stroke-miterlimit="10" points="587.5,401 587.5,473 695.5,473 		"/>
		<polyline fill="none" stroke="#000000" stroke-width="4" stroke-miterlimit="10" points="587.5,491 587.5,563 695.5,563 		"/>
		<line fill="none" stroke="#000000" stroke-width="4" stroke-miterlimit="10" x1="272.5" y1="275" x2="362.5" y2="275"/>
		<circle fill="none" stroke="#000000" stroke-width="4" stroke-miterlimit="10" cx="317.5" cy="257" r="9"/>
		<line fill="none" stroke="#000000" stroke-width="4" stroke-miterlimit="10" x1="272.5" y1="554" x2="362.5" y2="554"/>
		<line fill="none" stroke="#000000" stroke-width="4" stroke-miterlimit="10" x1="371.5" y1="248" x2="380.5" y2="248"/>
		<polygon fill="none" stroke="#000000" stroke-width="4" stroke-miterlimit="10" points="281.5,338.5 272.5,352 286,352 290.5,352 
					"/>
		<polygon fill="none" stroke="#000000" stroke-width="4" stroke-miterlimit="10" points="281.5,387.5 272.5,401 286,401 290.5,401 
					"/>
		<polygon fill="none" stroke="#000000" stroke-width="4" stroke-miterlimit="10" points="281.5,432.5 272.5,446 286,446 290.5,446 
					"/>
		<line fill="none" stroke="#000000" stroke-width="4" stroke-miterlimit="10" x1="299.5" y1="356" x2="335.5" y2="356"/>
		<line fill="none" stroke="#000000" stroke-width="4" stroke-miterlimit="10" x1="299.5" y1="401" x2="335.5" y2="401"/>
		<line fill="none" stroke="#000000" stroke-width="4" stroke-miterlimit="10" x1="299.5" y1="446" x2="335.5" y2="446"/>
		<line fill="none" stroke="#000000" stroke-width="4" stroke-miterlimit="10" x1="371.5" y1="590" x2="380.5" y2="590"/>
		<g>
			<path d="M436.783,292.559V302h-1.219v-9.441H436.783z"/>
			<path d="M438.911,302v-9.441h1.331l3.025,4.776c0.699,1.104,1.247,2.101,1.694,3.066l0.027-0.014
				c-0.111-1.261-0.14-2.409-0.14-3.88v-3.95h1.146V302h-1.23l-2.998-4.791c-0.659-1.051-1.289-2.129-1.766-3.152l-0.042,0.014
				c0.069,1.19,0.099,2.325,0.099,3.896V302H438.911z"/>
			<path d="M454.72,301.692c-0.448,0.226-1.346,0.448-2.493,0.448c-2.662,0-4.665-1.681-4.665-4.777
				c0-2.956,2.003-4.958,4.931-4.958c1.177,0,1.919,0.252,2.241,0.421l-0.294,0.993c-0.462-0.224-1.121-0.392-1.905-0.392
				c-2.213,0-3.684,1.415-3.684,3.894c0,2.313,1.331,3.798,3.628,3.798c0.742,0,1.499-0.154,1.989-0.395L454.72,301.692z"/>
			<path d="M464.017,297.182c0,3.25-1.977,4.973-4.385,4.973c-2.492,0-4.243-1.933-4.243-4.791c0-2.997,1.862-4.958,4.384-4.958
				C462.35,292.405,464.017,294.38,464.017,297.182z M456.691,297.335c0,2.017,1.092,3.824,3.011,3.824
				c1.935,0,3.026-1.779,3.026-3.924c0-1.877-0.98-3.838-3.013-3.838C457.699,293.399,456.691,295.262,456.691,297.335z"/>
			<path d="M473.552,297.854c-0.069-1.314-0.153-2.897-0.141-4.076h-0.042c-0.321,1.107-0.714,2.283-1.189,3.586l-1.667,4.581
				h-0.926l-1.526-4.496c-0.448-1.329-0.826-2.55-1.093-3.67h-0.027c-0.028,1.179-0.099,2.762-0.183,4.176L466.506,302h-1.163
				l0.657-9.441h1.557l1.609,4.566c0.394,1.163,0.715,2.197,0.952,3.18h0.042c0.238-0.953,0.575-1.989,0.995-3.18l1.681-4.566h1.557
				L474.98,302h-1.191L473.552,297.854z"/>
			<path d="M478.069,292.559V302h-1.219v-9.441H478.069z"/>
			<path d="M480.196,302v-9.441h1.331l3.025,4.776c0.699,1.104,1.246,2.101,1.693,3.066l0.028-0.014
				c-0.112-1.261-0.14-2.409-0.14-3.88v-3.95h1.146V302h-1.23l-2.998-4.791c-0.659-1.051-1.289-2.129-1.767-3.152l-0.042,0.014
				c0.07,1.19,0.1,2.325,0.1,3.896V302H480.196z"/>
			<path d="M496.594,301.58c-0.547,0.194-1.625,0.519-2.899,0.519c-1.429,0-2.604-0.364-3.529-1.247
				c-0.813-0.785-1.315-2.045-1.315-3.516c0.014-2.815,1.946-4.875,5.112-4.875c1.093,0,1.946,0.236,2.354,0.434l-0.294,0.995
				c-0.504-0.224-1.135-0.406-2.087-0.406c-2.297,0-3.796,1.431-3.796,3.796c0,2.396,1.441,3.812,3.642,3.812
				c0.798,0,1.346-0.112,1.625-0.252v-2.815h-1.919v-0.979h3.11v4.537h-0.003V301.58z"/>
		</g>
		<g>
			<path d="M623.635,297.182c0,3.25-1.977,4.973-4.385,4.973c-2.492,0-4.243-1.933-4.243-4.791c0-2.997,1.861-4.958,4.384-4.958
				C621.968,292.405,623.635,294.38,623.635,297.182z M616.307,297.335c0,2.017,1.092,3.824,3.011,3.824
				c1.935,0,3.026-1.779,3.026-3.924c0-1.877-0.98-3.838-3.014-3.838C617.315,293.399,616.307,295.262,616.307,297.335z"/>
			<path d="M626.429,292.559v5.589c0,2.115,0.938,3.014,2.199,3.014c1.399,0,2.297-0.927,2.297-3.014v-5.589h1.23v5.505
				c0,2.899-1.525,4.09-3.57,4.09c-1.935,0-3.392-1.105-3.392-4.032v-5.563H626.429z"/>
			<path d="M636.061,293.596h-2.872v-1.037h6.99v1.037h-2.885V302h-1.233V293.596L636.061,293.596z"/>
			<path d="M648.034,301.58c-0.546,0.194-1.625,0.519-2.897,0.519c-1.43,0-2.605-0.364-3.53-1.247
				c-0.813-0.785-1.316-2.045-1.316-3.516c0.016-2.815,1.947-4.875,5.113-4.875c1.092,0,1.947,0.236,2.354,0.434l-0.294,0.995
				c-0.506-0.224-1.137-0.406-2.087-0.406c-2.299,0-3.798,1.431-3.798,3.796c0,2.396,1.443,3.812,3.644,3.812
				c0.798,0,1.345-0.112,1.625-0.252v-2.815h-1.919v-0.979h3.108v4.537h-0.003V301.58z"/>
			<path d="M657.962,297.182c0,3.25-1.977,4.973-4.386,4.973c-2.492,0-4.244-1.933-4.244-4.791c0-2.997,1.863-4.958,4.386-4.958
				C656.294,292.405,657.962,294.38,657.962,297.182z M650.635,297.335c0,2.017,1.092,3.824,3.012,3.824
				c1.933,0,3.025-1.779,3.025-3.924c0-1.877-0.98-3.838-3.014-3.838C651.643,293.399,650.635,295.262,650.635,297.335z"/>
			<path d="M660.759,292.559V302h-1.221v-9.441H660.759z"/>
			<path d="M662.885,302v-9.441h1.331l3.023,4.776c0.7,1.104,1.247,2.101,1.695,3.066l0.028-0.014
				c-0.112-1.261-0.142-2.409-0.142-3.88v-3.95h1.148V302h-1.232l-2.998-4.791c-0.658-1.051-1.289-2.129-1.765-3.152l-0.042,0.014
				c0.07,1.19,0.098,2.325,0.098,3.896V302H662.885z"/>
			<path d="M679.282,301.58c-0.546,0.194-1.625,0.519-2.897,0.519c-1.431,0-2.605-0.364-3.53-1.247
				c-0.813-0.785-1.316-2.045-1.316-3.516c0.016-2.815,1.947-4.875,5.113-4.875c1.092,0,1.947,0.236,2.354,0.434l-0.295,0.995
				c-0.505-0.224-1.136-0.406-2.088-0.406c-2.297,0-3.796,1.431-3.796,3.796c0,2.396,1.443,3.812,3.644,3.812
				c0.798,0,1.345-0.112,1.625-0.252v-2.815h-1.919v-0.979h3.108v4.537h-0.003V301.58z"/>
		</g>
	</g>
	<g id="Mobile" display="inline">
		<path fill="none" stroke="#000000" stroke-width="4" stroke-miterlimit="10" d="M1127.5,588c0,6.627-5.373,12-12,12h-201
			c-6.627,0-12-5.373-12-12V252c0-6.627,5.373-12,12-12h201c6.627,0,12,5.373,12,12V588z"/>
		<line fill="none" stroke="#000000" stroke-width="4" stroke-miterlimit="10" x1="920.5" y1="293" x2="1100.5" y2="293"/>
		<circle fill="none" stroke="#000000" stroke-width="4" stroke-miterlimit="10" cx="1010.5" cy="266" r="18"/>
		<line fill="none" stroke="#000000" stroke-width="4" stroke-miterlimit="10" x1="921.5" y1="563" x2="1101.5" y2="563"/>
		<polyline fill="none" stroke="#000000" stroke-width="4" stroke-miterlimit="10" points="966.5,329 966.5,401 1074.5,401 		"/>
		<polyline fill="none" stroke="#000000" stroke-width="4" stroke-miterlimit="10" points="966.5,455 966.5,527 1074.5,527 		"/>
		<g>
			<path d="M984.719,302.154v9.441h-1.22v-9.441H984.719z"/>
			<path d="M986.846,311.595v-9.441h1.332l3.023,4.776c0.699,1.106,1.246,2.101,1.694,3.068l0.028-0.016
				c-0.112-1.261-0.143-2.408-0.143-3.88v-3.95h1.148v9.441h-1.23l-2.997-4.791c-0.658-1.051-1.289-2.129-1.765-3.152l-0.043,0.016
				c0.07,1.188,0.099,2.324,0.099,3.894v4.034L986.846,311.595L986.846,311.595z"/>
			<path d="M1002.655,311.287c-0.448,0.224-1.345,0.446-2.493,0.446c-2.66,0-4.664-1.681-4.664-4.775
				c0-2.956,2.004-4.958,4.932-4.958c1.177,0,1.92,0.252,2.242,0.42l-0.295,0.994c-0.463-0.226-1.121-0.394-1.904-0.394
				c-2.214,0-3.686,1.415-3.686,3.896c0,2.312,1.33,3.796,3.627,3.796c0.742,0,1.5-0.154,1.989-0.395L1002.655,311.287z"/>
			<path d="M1011.952,306.777c0,3.25-1.976,4.975-4.384,4.975c-2.494,0-4.244-1.935-4.244-4.791c0-2.998,1.862-4.958,4.385-4.958
				C1010.285,302,1011.952,303.975,1011.952,306.777z M1004.629,306.931c0,2.017,1.092,3.824,3.011,3.824
				c1.933,0,3.024-1.779,3.024-3.922c0-1.877-0.979-3.838-3.012-3.838C1005.635,302.995,1004.629,304.857,1004.629,306.931z"/>
			<path d="M1021.486,307.448c-0.07-1.314-0.154-2.897-0.141-4.074h-0.041c-0.322,1.105-0.715,2.281-1.191,3.586l-1.666,4.581
				h-0.926l-1.526-4.496c-0.446-1.331-0.825-2.55-1.093-3.67h-0.027c-0.026,1.177-0.099,2.76-0.183,4.174l-0.252,4.048h-1.163
				l0.658-9.441h1.556l1.61,4.566c0.393,1.163,0.715,2.199,0.953,3.18h0.041c0.238-0.953,0.575-1.987,0.995-3.18l1.681-4.566h1.555
				l0.59,9.441h-1.189L1021.486,307.448z"/>
			<path d="M1026.006,302.154v9.441h-1.221v-9.441H1026.006z"/>
			<path d="M1028.133,311.595v-9.441h1.331l3.024,4.776c0.699,1.106,1.246,2.101,1.694,3.068l0.028-0.016
				c-0.112-1.261-0.143-2.408-0.143-3.88v-3.95h1.148v9.441h-1.232l-2.997-4.791c-0.659-1.051-1.289-2.129-1.765-3.152l-0.043,0.016
				c0.068,1.188,0.099,2.324,0.099,3.894v4.034L1028.133,311.595L1028.133,311.595z"/>
			<path d="M1044.529,311.175c-0.547,0.196-1.625,0.519-2.897,0.519c-1.431,0-2.605-0.362-3.53-1.247
				c-0.813-0.783-1.316-2.045-1.316-3.516c0.016-2.815,1.947-4.875,5.113-4.875c1.092,0,1.946,0.238,2.354,0.434l-0.293,0.995
				c-0.506-0.224-1.137-0.404-2.09-0.404c-2.297,0-3.795,1.429-3.795,3.796c0,2.396,1.442,3.81,3.644,3.81
				c0.798,0,1.345-0.112,1.625-0.252v-2.813h-1.919v-0.98h3.107L1044.529,311.175L1044.529,311.175z"/>
		</g>
		<g>
			<path d="M991.852,450.027c0,3.25-1.976,4.975-4.385,4.975c-2.493,0-4.244-1.935-4.244-4.791c0-2.998,1.862-4.958,4.385-4.958
				C990.184,445.25,991.852,447.226,991.852,450.027z M984.525,450.181c0,2.017,1.092,3.824,3.012,3.824
				c1.935,0,3.025-1.779,3.025-3.924c0-1.877-0.979-3.838-3.012-3.838C985.533,446.243,984.525,448.108,984.525,450.181z"/>
			<path d="M994.647,445.405v5.589c0,2.115,0.938,3.014,2.199,3.014c1.399,0,2.298-0.927,2.298-3.014v-5.589h1.23v5.505
				c0,2.899-1.525,4.092-3.57,4.092c-1.936,0-3.392-1.107-3.392-4.034v-5.563H994.647z"/>
			<path d="M1004.279,446.441h-2.871v-1.037h6.989v1.037h-2.886v8.404h-1.232V446.441L1004.279,446.441z"/>
			<path d="M1016.254,454.425c-0.547,0.194-1.625,0.519-2.898,0.519c-1.43,0-2.604-0.364-3.531-1.247
				c-0.813-0.785-1.314-2.045-1.314-3.516c0.014-2.815,1.945-4.875,5.111-4.875c1.094,0,1.947,0.238,2.354,0.434l-0.295,0.995
				c-0.504-0.224-1.136-0.406-2.087-0.406c-2.297,0-3.796,1.431-3.796,3.797c0,2.396,1.441,3.811,3.643,3.811
				c0.798,0,1.344-0.112,1.625-0.252v-2.815h-1.92v-0.979h3.109L1016.254,454.425L1016.254,454.425z"/>
			<path d="M1026.179,450.027c0,3.25-1.978,4.975-4.385,4.975c-2.493,0-4.243-1.935-4.243-4.791c0-2.998,1.86-4.958,4.384-4.958
				C1024.512,445.25,1026.179,447.226,1026.179,450.027z M1018.854,450.181c0,2.017,1.092,3.824,3.012,3.824
				c1.934,0,3.025-1.779,3.025-3.924c0-1.877-0.98-3.838-3.013-3.838C1019.861,446.243,1018.854,448.108,1018.854,450.181z"/>
			<path d="M1028.975,445.405v9.441h-1.219v-9.441H1028.975z"/>
			<path d="M1031.103,454.846v-9.441h1.331l3.024,4.776c0.699,1.104,1.246,2.101,1.694,3.066l0.027-0.014
				c-0.111-1.261-0.142-2.409-0.142-3.88v-3.95h1.148v9.441h-1.232l-2.996-4.791c-0.658-1.051-1.288-2.129-1.767-3.152l-0.042,0.014
				c0.069,1.19,0.1,2.325,0.1,3.896v4.034L1031.103,454.846L1031.103,454.846z"/>
			<path d="M1047.5,454.425c-0.547,0.194-1.625,0.519-2.897,0.519c-1.429,0-2.604-0.364-3.53-1.247
				c-0.813-0.785-1.314-2.045-1.314-3.516c0.014-2.815,1.945-4.875,5.111-4.875c1.094,0,1.946,0.238,2.354,0.434l-0.294,0.995
				c-0.504-0.224-1.135-0.406-2.088-0.406c-2.297,0-3.795,1.431-3.795,3.797c0,2.396,1.44,3.811,3.642,3.811
				c0.798,0,1.345-0.112,1.624-0.252v-2.815h-1.918v-0.979h3.107v4.535H1047.5z"/>
		</g>
		<line fill="none" stroke="#000000" stroke-width="4" stroke-miterlimit="10" x1="1082.5" y1="258" x2="1109.5" y2="258"/>
		<line fill="none" stroke="#000000" stroke-width="4" stroke-miterlimit="10" x1="1082.5" y1="266" x2="1109.5" y2="266"/>
		<line fill="none" stroke="#000000" stroke-width="4" stroke-miterlimit="10" x1="1082.5" y1="275" x2="1109.5" y2="275"/>
	</g>
	<polyline display="inline" fill="none" stroke="#FFFFFF" stroke-width="4" stroke-miterlimit="10" points="416.5,320 416.5,374 
		497.5,374 	"/>
	<polyline display="inline" fill="none" stroke="#FFFFFF" stroke-width="4" stroke-miterlimit="10" points="416.5,410 416.5,464 
		497.5,464 	"/>
	<polyline display="inline" fill="none" stroke="#FFFFFF" stroke-width="4" stroke-miterlimit="10" points="416.5,500 416.5,554 
		497.5,554 	"/>
	<polyline display="inline" fill="none" stroke="#FFFFFF" stroke-width="4" stroke-miterlimit="10" points="596.5,320 596.5,374 
		677.5,374 	"/>
	<polyline display="inline" fill="none" stroke="#FFFFFF" stroke-width="4" stroke-miterlimit="10" points="596.5,410 596.5,464 
		677.5,464 	"/>
	<polyline display="inline" fill="none" stroke="#FFFFFF" stroke-width="4" stroke-miterlimit="10" points="596.5,500 596.5,554 
		677.5,554 	"/>
	<polyline display="inline" fill="none" stroke="#FFFFFF" stroke-width="4" stroke-miterlimit="10" points="596.5,320 596.5,374 
		677.5,374 	"/>
	<polyline display="inline" fill="none" stroke="#FFFFFF" stroke-width="4" stroke-miterlimit="10" points="974.5,338 974.5,392 
		1055.5,392 	"/>
	<polyline display="inline" fill="none" stroke="#FFFFFF" stroke-width="4" stroke-miterlimit="10" points="974.5,464 974.5,518 
		1055.5,518 	"/>
</g>
<rect x="234.5" y="298.5" display="none" fill="none" stroke="#000000" stroke-width="7" stroke-miterlimit="10" width="540" height="396"/>
<g>
	<polygon opacity="0.7" fill="#FFFFFF" stroke="#FFFFFF" stroke-width="7" stroke-miterlimit="10" points="225.5,775.5 225.5,118.5 
		432.5,64.5 864.5,64.5 864.5,702.5 801.5,775.5 	"/>
	<path fill="#FFFFFF" stroke="#000000" stroke-width="7" stroke-miterlimit="10" d="M792.5,538.5c0,6.627-5.372,12-12,12h-552
		c-6.627,0-12-5.373-12-12v-408c0-6.627,5.373-12,12-12h552c6.628,0,12,5.373,12,12V538.5z"/>
	<path fill="none" stroke="#000000" stroke-width="7" stroke-miterlimit="10" d="M216.5,550.5v216c0,0,0,18,18,18h540
		c18,0,18-18,18-18v-216"/>
	<polygon fill="none" stroke="#000000" stroke-width="7" stroke-miterlimit="10" points="558.5,622.5 558.5,640.5 666.5,640.5 
		684.5,658.5 738.5,658.5 738.5,622.5 	"/>
	<g>
		<path d="M319.969,702.817c0.058-1.338,0.048-2.65-0.038-3.922c-0.307-5.7-1.887-9.455-3.229-11.664v-11.49
			c0-0.612-0.498-1.109-1.109-1.109h-7.688c-0.571,0-1.049,0.435-1.104,1.004l-0.889,9.249c-1.676,1.771-3.149,4.403-4.842,7.426
			c-0.518,0.927-1.055,1.884-1.618,2.854c-0.003,0.006-0.006,0.011-0.009,0.017c-4.229,7.577-8.86,13.671-14.166,18.633
			c-5.283,4.986-11.653,9.23-19.473,12.977c-0.554,0.265-0.787,0.928-0.522,1.479c0.191,0.398,0.588,0.631,1.002,0.631
			c0.161,0,0.324-0.035,0.479-0.108c8.03-3.847,14.586-8.218,20.034-13.36c5.471-5.115,10.239-11.383,14.581-19.16
			c0.569-0.981,1.108-1.945,1.63-2.877c1.553-2.773,2.914-5.202,4.331-6.781l7.54,1.899c1.61,2.717,2.615,6.424,2.837,10.518
			c0.613,9.146-2.771,23.539-14.337,34.016c-0.011,0.01-0.02,0.019-0.029,0.027c-9.528,9.286-21.529,12.462-30.503,12.462
			c-1.551,0-3.012-0.097-4.353-0.271c-4.618-0.538-10.449-2.391-12.966-5.975c-0.632-0.899-0.896-1.755-0.744-2.404
			c0.003-0.015,0.007-0.029,0.009-0.045c0.429-2.239,3.612-3.97,7.119-5.691c0.55-0.27,0.778-0.936,0.507-1.484
			c-0.27-0.552-0.935-0.777-1.484-0.509c-4.178,2.051-7.686,4.011-8.317,7.246c-0.293,1.288,0.084,2.729,1.094,4.164
			c1.139,1.62,2.985,3.105,5.342,4.292c2.639,1.33,5.729,2.209,9.17,2.61c1.506,0.195,3.073,0.292,4.679,0.292
			c4.27,0,8.807-0.685,13.162-2.012c7.091-2.159,13.599-5.987,18.821-11.072c5.397-4.896,9.624-11.151,12.22-18.095
			c1.681-4.495,2.66-9.233,2.861-13.691C319.969,702.865,319.969,702.84,319.969,702.817z M308.915,676.85h5.568v9.271l-6.307-1.588
			L308.915,676.85z"/>
		<path d="M297.304,726.718c-5.996,5.505-13.498,9.591-22.298,12.144c-0.589,0.17-0.928,0.787-0.757,1.375
			c0.142,0.485,0.584,0.801,1.066,0.801c0.103,0,0.207-0.014,0.31-0.044c9.13-2.648,16.929-6.9,23.181-12.64
			c4.915-4.512,8.865-9.922,11.741-16.08c0.259-0.555,0.019-1.216-0.536-1.475c-0.557-0.261-1.216-0.021-1.477,0.536
			C305.783,717.229,302.005,722.405,297.304,726.718z"/>
		<path d="M311.01,708.372c0.124,0.044,0.25,0.065,0.375,0.065c0.455,0,0.882-0.282,1.045-0.735c0.787-2.188,1.432-4.428,1.916-6.65
			c0.13-0.6-0.25-1.19-0.85-1.321c-0.598-0.13-1.189,0.25-1.319,0.849c-0.464,2.131-1.082,4.274-1.836,6.373
			C310.134,707.531,310.433,708.164,311.01,708.372z"/>
		<path d="M302.74,698.683c0.539,0.839,1.879,0.52,2.021-0.452c0.144-0.981-1.031-1.65-1.803-1.021
			C302.523,697.565,302.426,698.218,302.74,698.683z"/>
		<path d="M307.266,697.677c0.172,0.408,0.579,0.686,1.024,0.686c0.494-0.001,0.938-0.338,1.069-0.813
			c0.119-0.434-0.038-0.91-0.398-1.182c-0.373-0.279-0.889-0.297-1.278-0.043C307.239,696.615,307.071,697.189,307.266,697.677z"/>
		<path d="M306.955,699.789c-0.642-0.642-1.771-0.249-1.886,0.647c-0.06,0.473,0.203,0.946,0.636,1.145
			c0.436,0.199,0.967,0.095,1.287-0.262C307.385,700.888,307.368,700.202,306.955,699.789z"/>
		<path d="M262.759,735.885c0.715,0.714,1.978,0.131,1.893-0.877c-0.04-0.469-0.38-0.867-0.834-0.983
			c-0.446-0.114-0.93,0.069-1.189,0.45C262.332,734.907,262.387,735.512,262.759,735.885z"/>
		<path d="M266.252,731.281c-0.502,0.104-0.881,0.544-0.892,1.061c-0.01,0.453,0.264,0.881,0.685,1.054
			c0.915,0.374,1.849-0.594,1.432-1.492C267.263,731.445,266.747,731.18,266.252,731.281z"/>
		<path d="M266.977,734.847c-0.912,0.365-0.883,1.712,0.024,2.06c0.447,0.171,0.976,0.031,1.271-0.348
			c0.28-0.36,0.314-0.863,0.082-1.256C268.079,734.838,267.478,734.636,266.977,734.847z"/>
	</g>
	<path fill="none" stroke="#000000" stroke-width="3" stroke-miterlimit="10" d="M324.5,736.5c0,6.627-5.372,12-12,12h-48
		c-6.627,0-12-5.373-12-12v-48c0-6.628,5.373-12,12-12h48c6.628,0,12,5.372,12,12V736.5z"/>
	<g>
		<path fill="none" stroke="#000000" stroke-width="7" stroke-miterlimit="10" d="M216.5,118.5l206.3-51.575
			c5.335-1.334,14.2-2.425,19.7-2.425h412c5.5,0,10,4.5,10,10v628c0,5.5-3.182,13.182-7.07,17.07L792.5,784.5"/>
	</g>
	<line fill="none" stroke="#000000" stroke-width="7" stroke-miterlimit="10" x1="792.5" y1="118.5" x2="864.5" y2="64.5"/>
	<path fill="none" stroke="#000000" stroke-width="7" stroke-miterlimit="10" d="M720.5,493.5c0,6.627-5.372,12-12,12h-426
		c-6.627,0-12-5.373-12-12v-318c0-6.627,5.373-12,12-12h426c6.628,0,12,5.373,12,12V493.5z"/>
	<rect x="270.5" y="334.5" fill="none" stroke="#000000" stroke-width="3" stroke-miterlimit="10" width="450" height="72"/>
	<g id="belt">
		<line fill="none" stroke="#000000" stroke-width="3" stroke-miterlimit="10" x1="351.5" y1="343.5" x2="315.5" y2="388.5"/>
		<line fill="none" stroke="#000000" stroke-width="3" stroke-miterlimit="10" x1="378.5" y1="343.5" x2="342.5" y2="388.5"/>
		<line fill="none" stroke="#000000" stroke-width="3" stroke-miterlimit="10" x1="405.5" y1="343.5" x2="369.5" y2="388.5"/>
		<line fill="none" stroke="#000000" stroke-width="3" stroke-miterlimit="10" x1="432.5" y1="343.5" x2="396.5" y2="388.5"/>
		<line fill="none" stroke="#000000" stroke-width="3" stroke-miterlimit="10" x1="459.5" y1="343.5" x2="423.5" y2="388.5"/>
		<line fill="none" stroke="#000000" stroke-width="3" stroke-miterlimit="10" x1="486.5" y1="343.5" x2="450.5" y2="388.5"/>
		<line fill="none" stroke="#000000" stroke-width="3" stroke-miterlimit="10" x1="513.5" y1="343.5" x2="477.5" y2="388.5"/>
		<line fill="none" stroke="#000000" stroke-width="3" stroke-miterlimit="10" x1="540.5" y1="343.5" x2="504.5" y2="388.5"/>
		<line fill="none" stroke="#000000" stroke-width="3" stroke-miterlimit="10" x1="567.5" y1="343.5" x2="531.5" y2="388.5"/>
		<line fill="none" stroke="#000000" stroke-width="3" stroke-miterlimit="10" x1="594.5" y1="343.5" x2="558.5" y2="388.5"/>
		<line fill="none" stroke="#000000" stroke-width="3" stroke-miterlimit="10" x1="621.5" y1="343.5" x2="585.5" y2="388.5"/>
		<line fill="none" stroke="#000000" stroke-width="3" stroke-miterlimit="10" x1="648.5" y1="343.5" x2="612.5" y2="388.5"/>
		<line fill="none" stroke="#000000" stroke-width="3" stroke-miterlimit="10" x1="675.5" y1="343.5" x2="639.5" y2="388.5"/>
		<line fill="none" stroke="#000000" stroke-width="3" stroke-miterlimit="10" x1="702.5" y1="343.5" x2="666.5" y2="388.5"/>
		<line fill="none" stroke="#000000" stroke-width="3" stroke-miterlimit="10" x1="324.5" y1="343.5" x2="288.5" y2="388.5"/>
		<line fill="none" stroke="#000000" stroke-width="3" stroke-miterlimit="10" x1="297.5" y1="343.5" x2="270.5" y2="379.5"/>
		<line fill="none" stroke="#000000" stroke-width="3" stroke-miterlimit="10" x1="720.5" y1="352.5" x2="693.5" y2="388.5"/>
	</g>
	<circle fill="#FFFFFF" stroke="#000000" stroke-width="3" stroke-miterlimit="10" cx="288.5" cy="415.5" r="9"/>
	<circle fill="#FFFFFF" stroke="#000000" stroke-width="3" stroke-miterlimit="10" cx="702.5" cy="415.5" r="9"/>
	<line fill="none" stroke="#000000" stroke-width="3" stroke-miterlimit="10" x1="270.5" y1="424.5" x2="720.5" y2="424.5"/>
	<path fill="#FFFFFF" stroke="#FFFFFF" stroke-width="7" stroke-miterlimit="10" d="M1251.5,235.5"/>
	<rect x="360.5" y="298.5" fill="#FFFFFF" stroke="#000000" stroke-width="3" stroke-miterlimit="10" width="72" height="72"/>
	<rect x="468.5" y="298.5" fill="#FFFFFF" stroke="#000000" stroke-width="3" stroke-miterlimit="10" width="72" height="72"/>
	<rect x="576.5" y="298.5" fill="#FFFFFF" stroke="#000000" stroke-width="3" stroke-miterlimit="10" width="72" height="72"/>
</g>
<line fill="none" stroke="#000000" stroke-width="5" stroke-miterlimit="10" x1="0.5" y1="883.5" x2="1000" y2="883.5"/>
<line fill="none" stroke="#000000" stroke-width="5" stroke-miterlimit="10" x1="0" y1="640.5" x2="216.5" y2="640.5"/>
<line fill="none" stroke="#000000" stroke-width="5" stroke-miterlimit="10" x1="864.5" y1="640.5" x2="1081" y2="640.5"/>
<path fill="none" stroke="#000000" stroke-width="5" stroke-miterlimit="10" d="M-575.5,460.5"/>
<g id="Cup">
	<g>
		<path fill="#231F20" stroke="#000000" stroke-width="5" stroke-miterlimit="10" d="M162.5,774.5c0,5.5-4.5,10-10,10h-70
			c-5.5,0-10-4.5-10-10v-70c0-5.5,4.5-10,10-10h70c5.5,0,10,4.5,10,10V774.5z"/>
	</g>
	<g>
		<path fill="none" stroke="#000000" stroke-width="5" stroke-miterlimit="10" d="M72.5,712.5h-17c-5.5,0-10,4.5-10,10v34
			c0,5.5,4.5,10,10,10h17"/>
	</g>
	<line fill="none" stroke="#FFFFFF" stroke-width="5" stroke-miterlimit="10" x1="144.5" y1="712.5" x2="144.5" y2="766.5"/>
	<g>
		<path fill="none" stroke="#000000" stroke-width="5" stroke-miterlimit="10" d="M81.5,676.5c0,0,4.05-4.051,9-9
			c4.95-4.95,2.561-12.221-5.311-16.155l-7.378-3.689c-7.871-3.936-9.221-12.246-2.998-18.469L99.5,604.5"/>
	</g>
	<g>
		<path fill="none" stroke="#000000" stroke-width="5" stroke-miterlimit="10" d="M108.5,676.5c0,0,4.05-4.051,9-9
			c4.95-4.95,2.561-12.221-5.311-16.155l-7.378-3.689c-7.871-3.936-9.221-12.246-2.998-18.469L126.5,604.5"/>
	</g>
	<g>
		<path fill="none" stroke="#000000" stroke-width="5" stroke-miterlimit="10" d="M135.5,676.5c0,0,4.05-4.051,9-9
			c4.95-4.95,2.561-12.221-5.311-16.155l-7.378-3.689c-7.871-3.936-9.221-12.246-2.998-18.469L153.5,604.5"/>
	</g>
</g>
</svg>
