<?xml version="1.0" encoding="utf-8"?>
<!-- Generator: Adobe Illustrator 16.0.0, SVG Export Plug-In . SVG Version: 6.00 Build 0)  -->
<!DOCTYPE svg PUBLIC "-//W3C//DTD SVG 1.1//EN" "http://www.w3.org/Graphics/SVG/1.1/DTD/svg11.dtd">
<svg version="1.1" xmlns="http://www.w3.org/2000/svg" xmlns:xlink="http://www.w3.org/1999/xlink" x="0px" y="0px" width="441px"
	 height="477px" viewBox="0 0 441 477" style="enable-background:new 0 0 441 477;" xml:space="preserve">
<style type="text/css">
<![CDATA[
	.st0{display:inline;fill:none;stroke:#000000;stroke-width:5;stroke-miterlimit:10;}
	.st1{fill:none;stroke:#000000;stroke-width:5;stroke-miterlimit:10;}
	.st2{display:none;stroke:#000000;stroke-width:9;stroke-miterlimit:10;}
	.st3{display:inline;fill:none;stroke:#000000;stroke-width:9;stroke-miterlimit:10;}
	.st4{display:inline;fill:none;stroke:#000000;stroke-miterlimit:10;}
	.st5{fill:none;stroke:#000000;stroke-width:9;stroke-miterlimit:10;}
	.st6{display:inline;fill:none;stroke:#000000;stroke-width:4;stroke-miterlimit:10;}
	.st7{stroke:#000000;stroke-width:5;stroke-miterlimit:10;}
	.st8{display:inline;fill:#FFFFFF;stroke:#000000;stroke-width:5;stroke-miterlimit:10;}
	.st9{display:inline;fill:#FFFFFF;stroke:#FFFFFF;stroke-width:2;stroke-miterlimit:10;}
	.st10{stroke:#000000;stroke-width:9;stroke-miterlimit:10;}
	.st11{display:inline;fill:#FFFFFF;stroke:#000000;stroke-width:9;stroke-miterlimit:10;}
	.st12{display:inline;stroke:#000000;stroke-width:2;stroke-miterlimit:10;}
	.st13{display:inline;fill:none;stroke:#FFFEFE;stroke-width:2;stroke-miterlimit:10;}
	.st14{display:inline;fill:none;stroke:#000000;stroke-width:3;stroke-miterlimit:10;}
	.st15{display:inline;fill:#FFFFFF;stroke:#000000;stroke-width:4;stroke-miterlimit:10;}
	.st16{fill:none;stroke:#000000;stroke-width:3;stroke-miterlimit:10;}
	.st17{display:inline;stroke:#000000;stroke-width:6;stroke-miterlimit:10;}
	.st18{display:inline;fill:none;stroke:#FFFFFF;stroke-width:9;stroke-miterlimit:10;}
	.st19{fill:none;stroke:#FFFFFF;stroke-width:9;stroke-miterlimit:10;}
	.st20{display:inline;}
	.st21{stroke:#000000;stroke-width:3;stroke-miterlimit:10;}
	.st22{display:inline;stroke:#000000;stroke-width:5;stroke-miterlimit:10;}
	.st23{display:inline;fill:none;stroke:#000000;stroke-width:6;stroke-miterlimit:10;}
	.st24{display:none;}
	.st25{display:inline;stroke:#000000;stroke-width:9;stroke-miterlimit:10;}
]]>
</style>
<g id="Layer_1" class="st24">
	<line class="st4" x1="224" y1="-252" x2="224" y2="748"/>
	<path class="st4" d="M202.059,71.778"/>
	<path class="st4" d="M224,34.949"/>
	<line class="st23" x1="202.059" y1="71.778" x2="245.79" y2="71.524"/>
	<line class="st3" x1="212" y1="71.524" x2="260.667" y2="8.333"/>
	<line class="st3" x1="239.333" y1="71.651" x2="190" y2="8.333"/>
	<polyline class="st17" points="245.79,71.524 440.084,397.661 294.586,397.661 225,252 223.924,248 152.094,397.661 7.915,397.661 
		202.059,71.778 	"/>
	<line class="st19" x1="180" y1="108" x2="270" y2="108"/>
	<line class="st18" x1="144" y1="162" x2="306" y2="162"/>
	<line class="st18" x1="72" y1="279" x2="225" y2="279"/>
	<line class="st18" x1="225" y1="279" x2="378" y2="279"/>
</g>
<g id="Layer_2" class="st24">
	<path class="st12" d="M221.471,105.074c29.12,0,52.731,4.008,52.731,8.954c0,4.941-23.611,8.954-52.731,8.954
		c-29.127,0-52.736-4.013-52.736-8.954C168.734,109.083,192.343,105.074,221.471,105.074z"/>
	<path class="st12" d="M168.734,117.712v118.897c0,0-135.317,160.686-1.989,163.674h109.4c133.33-2.988-1.981-163.674-1.981-163.674
		V117.712H168.734z"/>
	<path class="st15" d="M256.645-63c14.088,0,25.515,11.422,25.515,25.511c0,14.084-11.427,25.506-25.515,25.506
		c-14.08,0-25.507-11.422-25.507-25.506C231.138-51.578,242.565-63,256.645-63z"/>
	<path class="st15" d="M178.684-11.444c14.086,0,25.506,11.421,25.506,25.51c0,14.084-11.42,25.506-25.506,25.506
		c-14.089,0-25.508-11.421-25.508-25.506C153.176-0.022,164.595-11.444,178.684-11.444z"/>
	<path class="st15" d="M258.364,36.584c14.089,0,25.507,11.421,25.507,25.511c0,14.084-11.418,25.506-25.507,25.506
		c-14.088,0-25.506-11.421-25.506-25.506C232.858,48.006,244.276,36.584,258.364,36.584z"/>
	<line class="st13" x1="127.294" y1="297.624" x2="315.08" y2="296.667"/>
	<path class="st9" d="M151.155,299.785c0,0,15.257-26.531,38.472,0"/>
	<circle class="st9" cx="253.701" cy="297.621" r="16.822"/>
	<path class="st9" d="M207.039,207.833c9.292,0,16.822,7.531,16.822,16.819c0,9.294-7.53,16.829-16.822,16.829
		c-9.289,0-16.821-7.535-16.821-16.829C190.218,215.364,197.75,207.833,207.039,207.833z"/>
	<line class="st6" x1="160.441" y1="62.095" x2="170.394" y2="68.96"/>
	<line class="st6" x1="187.305" y1="82.986" x2="197.257" y2="89.855"/>
	<line class="st6" x1="187.305" y1="70.947" x2="197.257" y2="64.083"/>
	<line class="st6" x1="162.431" y1="89.855" x2="172.383" y2="82.986"/>
	<line class="st6" x1="287.796" y1="-17.502" x2="297.745" y2="-10.638"/>
	<line class="st6" x1="314.662" y1="3.388" x2="324.611" y2="10.257"/>
	<line class="st6" x1="314.662" y1="-8.651" x2="324.611" y2="-15.516"/>
	<line class="st6" x1="289.789" y1="10.257" x2="299.737" y2="3.388"/>
</g>
<g id="Layer_3" class="st24">
	<polygon class="st25" points="108,117 324,117 324,405 108,405 180,333 180,189 	"/>
	<line class="st25" x1="306" y1="117" x2="306" y2="45"/>
	<circle class="st11" cx="306" cy="27" r="18"/>
</g>
<g id="Layer_4" class="st24">
	<line class="st3" x1="81" y1="468" x2="369" y2="468"/>
	<rect x="9" y="180" class="st3" width="423" height="216"/>
	<circle class="st5" cx="99" cy="207" r="81"/>
	<g class="st20">
		<circle class="st5" cx="117" cy="287.998" r="81"/>
		<circle class="st5" cx="117" cy="287.999" r="99"/>
		
			<rect x="69.381" y="308.685" transform="matrix(-0.7906 -0.6124 0.6124 -0.7906 -56.9457 624.8921)" class="st1" width="18.001" height="26.998"/>
		<line class="st1" x1="33.804" y1="376.379" x2="68.577" y2="333.879"/>
		<circle class="st1" cx="117" cy="288" r="27"/>
		<circle class="st16" cx="117" cy="288" r="9"/>
		
			<rect x="26.998" y="368.999" transform="matrix(0.7819 0.6234 -0.6234 0.7819 243.4892 59.995)" class="st7" width="18" height="18"/>
	</g>
	<g>
		<circle class="st25" cx="324" cy="287.998" r="81"/>
		<circle class="st3" cx="324" cy="287.999" r="99"/>
		
			<rect x="353.616" y="308.685" transform="matrix(0.7906 -0.6124 0.6124 0.7906 -121.3529 289.5278)" class="st8" width="18.001" height="26.998"/>
		<line class="st0" x1="407.195" y1="376.379" x2="372.422" y2="333.879"/>
		<circle class="st8" cx="324" cy="288" r="27"/>
		<circle class="st14" cx="324" cy="288" r="9"/>
		
			<rect x="396.001" y="368.999" transform="matrix(-0.7819 0.6234 -0.6234 -0.7819 957.3162 421.0913)" class="st22" width="18" height="18"/>
	</g>
	<rect x="198" y="369" class="st0" width="54" height="18"/>
	<line class="st14" x1="216" y1="378" x2="216" y2="378"/>
	<line class="st23" x1="216" y1="369" x2="216" y2="387"/>
</g>
<g id="Layer_5" class="st24">
	<line class="st16" x1="207" y1="378" x2="243" y2="378"/>
</g>
<g id="Layer_6">
	<line class="st10" x1="81" y1="468" x2="369" y2="468"/>
	<polyline class="st2" points="144,180 90,180 90,36 378,36 378,216 234,216 234,360 162,360 162,189 162,162 288,162 288,99 
		144,99 144,180 	"/>
	<rect x="161.105" y="333.191" class="st21" width="83.745" height="62.809"/>
	<polyline class="st21" points="163.723,89.808 163.723,97.66 273.637,97.66 273.637,136.915 163.723,136.915 163.723,317.489 
		242.233,317.489 242.233,199.724 360,199.724 360,27 163.723,27 	"/>
	<polyline class="st21" points="163.723,27 69.51,27 69.51,160.468 140.169,160.468 140.169,97.66 163.723,97.66 	"/>
</g>
</svg>
