<?xml version="1.0" encoding="utf-8"?>
<!-- Generator: Adobe Illustrator 16.0.0, SVG Export Plug-In . SVG Version: 6.00 Build 0)  -->
<!DOCTYPE svg PUBLIC "-//W3C//DTD SVG 1.1//EN" "http://www.w3.org/Graphics/SVG/1.1/DTD/svg11.dtd">
<svg version="1.1" id="Layer_1" xmlns="http://www.w3.org/2000/svg" xmlns:xlink="http://www.w3.org/1999/xlink" x="0px" y="0px"
	 width="441px" height="477px" viewBox="0 0 441 477" style="enable-background:new 0 0 441 477;" xml:space="preserve">
<style type="text/css">
<![CDATA[
	.st0{stroke:#000000;stroke-width:6;stroke-miterlimit:10;}
	.st1{fill:none;stroke:#000000;stroke-width:9;stroke-miterlimit:10;}
	.st2{fill:none;stroke:#000000;stroke-miterlimit:10;}
	.st3{fill:none;stroke:#FFFFFF;stroke-width:9;stroke-miterlimit:10;}
	.st4{display:none;fill:none;stroke:#FFFFFF;stroke-width:9;stroke-miterlimit:10;}
	.st5{fill:none;stroke:#000000;stroke-width:6;stroke-miterlimit:10;}
]]>
</style>
<line class="st2" x1="224" y1="-252" x2="224" y2="748"/>
<path class="st2" d="M202.059,71.778"/>
<path class="st2" d="M224,34.949"/>
<line class="st5" x1="202.059" y1="71.778" x2="245.79" y2="71.524"/>
<line class="st1" x1="212" y1="71.524" x2="260.667" y2="8.333"/>
<line class="st1" x1="239.333" y1="71.651" x2="190" y2="8.333"/>
<polyline class="st0" points="245.79,71.524 440.084,397.661 294.586,397.661 225,252 223.924,248 152.094,397.661 7.915,397.661 
	202.059,71.778 "/>
<line class="st4" x1="180" y1="108" x2="270" y2="108"/>
<line class="st3" x1="144" y1="162" x2="306" y2="162"/>
<line class="st3" x1="72" y1="279" x2="225" y2="279"/>
<line class="st3" x1="225" y1="279" x2="378" y2="279"/>
<line class="st1" x1="81" y1="468" x2="369" y2="468"/>
</svg>
