<?xml version="1.0" encoding="utf-8"?>
<!-- Generator: Adobe Illustrator 16.0.0, SVG Export Plug-In . SVG Version: 6.00 Build 0)  -->
<!DOCTYPE svg PUBLIC "-//W3C//DTD SVG 1.1//EN" "http://www.w3.org/Graphics/SVG/1.1/DTD/svg11.dtd">
<svg version="1.1" xmlns="http://www.w3.org/2000/svg" xmlns:xlink="http://www.w3.org/1999/xlink" x="0px" y="0px" width="175px"
	 height="175px" viewBox="0 0 1000 1000" style="enable-background:new 0 0 1000 1000;" xml:space="preserve">
<style type="text/css">
<![CDATA[
	.st0{display:inline;fill:#FFFFFF;stroke:#8383FC;stroke-width:5;stroke-miterlimit:10;}
	.st1{fill:#FFFFFF;stroke:#231F20;stroke-width:5;stroke-miterlimit:10;}
	.st2{fill:#FCFCFC;stroke:#231F20;stroke-width:6;stroke-miterlimit:10;}
	.st3{fill:#FFFFFF;stroke:#8383FC;stroke-width:5;stroke-miterlimit:10;}
	.st4{opacity:0.3;fill:#FCFCFC;stroke:#231F20;stroke-width:9;stroke-miterlimit:10;enable-background:new    ;}
	.st5{display:none;stroke:#FCFCFC;stroke-miterlimit:10;}
	.st6{fill:#FFFFFF;stroke:#231F20;}
	.st7{fill:#FCFCFC;stroke:#231F20;stroke-width:9;stroke-miterlimit:10;}
	.st8{font-family:'MyriadPro-Regular';}
	.st9{font-family:'Georgia';}
	.st10{display:none;fill:#231F20;stroke:#FCFCFC;stroke-miterlimit:10;}
	.st11{fill:#FFFFFF;stroke:#231F20;stroke-width:3;stroke-miterlimit:10;}
	.st12{font-size:250;}
	.st13{display:none;stroke:#231F20;stroke-width:5;stroke-miterlimit:10;}
	.st14{display:inline;}
	.st15{fill:none;stroke:#231F20;stroke-width:5;stroke-miterlimit:10;}
	.st16{fill:#FFFFFF;stroke:#231F20;stroke-width:2;stroke-miterlimit:10;}
	.st17{display:none;fill:none;stroke:#231F20;stroke-width:5;stroke-miterlimit:10;}
	.st18{display:inline;fill:none;stroke:#8383FC;stroke-width:5;stroke-miterlimit:10;}
	.st19{font-size:72;}
	.st20{fill:none;stroke:#8383FC;stroke-width:5;stroke-miterlimit:10;}
	.st21{fill:#FCFCFC;stroke:#231F20;stroke-width:7;stroke-miterlimit:10;}
	.st22{display:none;}
	.st23{stroke:#231F20;stroke-width:5;stroke-miterlimit:10;}
	.st24{display:none;fill:#020002;stroke:#231F20;stroke-width:5;stroke-miterlimit:10;}
]]>
</style>
<g id="Layer_2">
	<circle class="st4" cx="500" cy="455.711" r="302.542"/>
	<g id="Layer_x5F_1" class="st22">
		<path class="st3" d="M444.525,594.475c0,6.627-5.373,12-12,12H331.102c-6.627,0-12-5.373-12-12V348.983c0-6.627,5.373-12,12-12
			h101.424c6.627,0,12,5.373,12,12L444.525,594.475L444.525,594.475z"/>
		<path class="st3" d="M656.459,594.475c0,6.627-5.372,12-12,12H543.034c-6.627,0-12-5.373-12-12V348.983c0-6.627,5.373-12,12-12
			h101.425c6.628,0,12,5.373,12,12V594.475z"/>
		<path class="st3" d="M569.949,515.729c0,6.627-5.373,12-12,12H456.525c-6.627,0-12-5.373-12-12V270.237c0-6.627,5.373-12,12-12
			h101.424c6.627,0,12,5.373,12,12V515.729z"/>
		<path class="st0" d="M723.729,521.117c0,13.26-10.744,24-24,24H300.271c-13.255,0-24-10.74-24-24V318.272
			c0-13.254,10.745-24,24-24h399.457c13.256,0,24,10.746,24,24L723.729,521.117L723.729,521.117z"/>
		<path class="st0" d="M686.172,483.66c0,13.26-10.744,24-24,24H333.898c-13.255,0-24-10.74-24-24V350.308c0-13.254,10.745-24,24-24
			h328.272c13.256,0,24,10.746,24,24L686.172,483.66L686.172,483.66z"/>
		<path id="vecmap" class="st20" d="M348.052,427.712c0,31.853,20.468,57.628,45.763,57.628"/>
		<path id="vecmap_1_" class="st18" d="M584.477,549.117c0,44.971,39.42,81.355,88.135,81.355"/>
		<path id="vecmap_2_" class="st18" d="M412.609,545.117c0,44.971-39.42,81.355-88.135,81.355"/>
		<g class="st14">
			<line id="vecmap_3_" class="st20" x1="317.407" y1="356.645" x2="678.426" y2="356.645"/>
		</g>
		<g class="st14">
			<line id="vecmap_4_" class="st20" x1="368.543" y1="365.119" x2="368.543" y2="497.322"/>
		</g>
		<g class="st14">
			<line id="vecmap_5_" class="st20" x1="637.714" y1="365.119" x2="637.714" y2="497.322"/>
		</g>
		<g class="st14">
			<rect id="vecmaprec" x="317.407" y="385.323" class="st3" width="355.205" height="80"/>
		</g>
		<g class="st14">
			<line class="st20" x1="317.407" y1="465.323" x2="672.611" y2="465.323"/>
		</g>
	</g>
	<text transform="matrix(1 0 0 1 461.9832 703.8977)" class="st22 st8 st19">3X</text>
	<circle class="st10" cx="500" cy="455.711" r="133.494"/>
	<text transform="matrix(1 0 0 1 466.592 532.5891)" class="st5 st9 st12">i</text>
	<ellipse class="st17" cx="486.091" cy="346.599" rx="58.497" ry="13.499"/>
	<line class="st17" x1="426.594" y1="356.098" x2="371.096" y2="560.088"/>
	<polyline class="st17" points="371.096,574.587 486.091,574.587 513,493.592 	"/>
	<path class="st17" d="M513,500l30.087,71.587c0,0,36.017,4,58.507-11.499l-55.498-203.99"/>
	<g>
		<polyline class="st11" points="537.328,271.074 566.015,253.608 568.528,258.448 539.84,275.914 		"/>
		<path class="st16" d="M565.912,253.479c-0.568,0.201-0.509,1.594,0.133,3.111c0.644,1.516,1.624,2.583,2.189,2.382
			c0.568-0.199,0.509-1.592-0.135-3.109C567.459,254.345,566.478,253.279,565.912,253.479z"/>
	</g>
	<g>
		<polyline class="st21" points="505.421,353.957 564.861,240.796 542.575,234.419 483.135,347.58 		"/>
		<path class="st2" d="M565.474,241.1c-0.552,2.159-6.596,2.715-13.498,1.241c-6.901-1.473-12.051-4.417-11.499-6.576
			c0.55-2.158,6.594-2.714,13.495-1.241C560.876,235.998,566.024,238.942,565.474,241.1z"/>
	</g>
	<g>
		<polyline class="st21" points="506.26,356.884 453.238,241.089 475.852,235.763 528.876,351.558 		"/>
		<path class="st2" d="M452.609,241.364c0.43,2.182,6.436,3.021,13.411,1.872c6.975-1.148,12.283-3.848,11.853-6.029
			c-0.429-2.181-6.433-3.019-13.408-1.871C457.487,236.484,452.181,239.182,452.609,241.364z"/>
	</g>
	<path class="st1" d="M458.737,314.139l-95.641,276.594c0,0,106.075,69.942,276.488,0l-79.991-270.235"/>
	<ellipse class="st15" cx="509.165" cy="312.02" rx="50.428" ry="6.358"/>
	<polyline class="st23" points="484.638,622.853 532.947,518.623 582.421,612.183 	"/>
	<path class="st15" d="M585.386,409.83c-56.297,32.531-162.437,4.224-162.437,4.224"/>
	<path class="st15" d="M403.189,476.239c0,0,132.877,32.299,201.805-9.677"/>
	<path class="st7" d="M422.95,480.261"/>
	<polyline class="st13" points="401.723,463.672 444.486,413.52 460.095,473.023 	"/>
	<polyline class="st24" points="463.622,472.818 495,417.946 526.838,470.489 	"/>
	<path class="st15" d="M562.827,477.333"/>
	<path class="st15" d="M560.509,479.453"/>
	<path class="st13" d="M552.885,405.167l-19.508,60.42c0,0,9.789,1.425,32.456-12.164L552.885,405.167z"/>
</g>
<g id="Layer_3" class="st22">
	<g class="st14">
		<text transform="matrix(1 0 0 1 469.5916 539.4983)" class="st6 st9 st12">i</text>
	</g>
</g>
</svg>
