<?xml version="1.0" encoding="utf-8"?>
<!-- Generator: Adobe Illustrator 16.0.0, SVG Export Plug-In . SVG Version: 6.00 Build 0)  -->
<!DOCTYPE svg PUBLIC "-//W3C//DTD SVG 1.1//EN" "http://www.w3.org/Graphics/SVG/1.1/DTD/svg11.dtd">
<svg version="1.1" id="Layer_1" xmlns="http://www.w3.org/2000/svg" xmlns:xlink="http://www.w3.org/1999/xlink" x="0px" y="0px"
	 width="800px" height="378px" viewBox="0 0 1000 378" enable-background="new 0 0 1000 378" xml:space="preserve">
<g>
	<path fill="none" stroke="#000000" stroke-width="3" stroke-miterlimit="10" d="M161.5,361.5c0,5.522-4.477,10-10,10h-88
		c-5.523,0-10-4.478-10-10v-340c0-5.523,4.477-10,10-10h88c5.523,0,10,4.477,10,10V361.5z"/>
</g>
<line fill="none" stroke="#000000" stroke-width="3" stroke-miterlimit="10" x1="172.5" y1="9" x2="172.5" y2="369"/>
<g>
	<path fill="none" stroke="#000000" stroke-width="3" stroke-miterlimit="10" d="M173,369.5h350c5.5,0,9.5-5,9.5-10.5V19
		c0-5.5-4-9.5-9.5-9.5H173"/>
</g>
<line fill="none" stroke="#000000" stroke-width="3" stroke-miterlimit="10" x1="182" y1="45.5" x2="515" y2="45.5"/>
<polyline fill="none" stroke="#000000" stroke-width="3" stroke-miterlimit="10" points="191,36 182,27 191,18 "/>
<rect x="289.5" y="18.5" fill="none" stroke="#000000" stroke-width="3" stroke-miterlimit="10" width="18" height="18"/>
<line fill="none" stroke="#000000" stroke-width="3" stroke-miterlimit="10" x1="317" y1="27.5" x2="398" y2="27.5"/>
<polyline fill="none" stroke="#000000" stroke-width="3" stroke-miterlimit="10" points="199.5,81 199.5,153.5 308,153.5 "/>
<polyline fill="none" stroke="#000000" stroke-width="3" stroke-miterlimit="10" points="199.5,171 199.5,243.5 308,243.5 "/>
<polyline fill="none" stroke="#000000" stroke-width="3" stroke-miterlimit="10" points="199.5,261 199.5,333.5 308,333.5 "/>
<polyline fill="none" stroke="#000000" stroke-width="3" stroke-miterlimit="10" points="379.5,81 379.5,153.5 488,153.5 "/>
<polyline fill="none" stroke="#000000" stroke-width="3" stroke-miterlimit="10" points="379.5,171 379.5,243.5 488,243.5 "/>
<polyline fill="none" stroke="#000000" stroke-width="3" stroke-miterlimit="10" points="379.5,261 379.5,333.5 488,333.5 "/>
<line fill="none" stroke="#000000" stroke-width="3" stroke-miterlimit="10" x1="65" y1="45.5" x2="155" y2="45.5"/>
<circle fill="none" stroke="#000000" stroke-width="3" stroke-miterlimit="10" cx="110" cy="27" r="9"/>
<line fill="none" stroke="#000000" stroke-width="3" stroke-miterlimit="10" x1="65" y1="324.5" x2="155" y2="324.5"/>
<line fill="none" stroke="#000000" stroke-width="4" stroke-miterlimit="10" x1="164" y1="18" x2="173" y2="18"/>
<polygon fill="none" stroke="#000000" stroke-width="3" stroke-miterlimit="10" points="74,109 65,122.5 78.5,122.5 83,122.5 "/>
<polygon fill="none" stroke="#000000" stroke-width="3" stroke-miterlimit="10" points="74,158 65,171.5 78.5,171.5 83,171.5 "/>
<polygon fill="none" stroke="#000000" stroke-width="3" stroke-miterlimit="10" points="74,203 65,216.5 78.5,216.5 83,216.5 "/>
<line fill="none" stroke="#000000" stroke-width="3" stroke-miterlimit="10" x1="92" y1="126.5" x2="128" y2="126.5"/>
<line fill="none" stroke="#000000" stroke-width="3" stroke-miterlimit="10" x1="92" y1="171.5" x2="128" y2="171.5"/>
<line fill="none" stroke="#000000" stroke-width="3" stroke-miterlimit="10" x1="92" y1="216.5" x2="128" y2="216.5"/>
<line fill="none" stroke="#000000" stroke-width="4" stroke-miterlimit="10" x1="164" y1="360" x2="173" y2="360"/>
<g>
	<path d="M229.283,62.559V72h-1.219v-9.441H229.283z"/>
	<path d="M231.411,72v-9.441h1.331l3.025,4.776c0.7,1.106,1.247,2.101,1.695,3.068l0.028-0.014c-0.112-1.261-0.14-2.409-0.14-3.88
		v-3.95h1.148V72h-1.232l-2.998-4.791c-0.659-1.051-1.289-2.129-1.765-3.152l-0.042,0.014c0.07,1.19,0.098,2.325,0.098,3.894V72
		H231.411z"/>
	<path d="M247.22,71.692c-0.448,0.224-1.345,0.448-2.493,0.448c-2.662,0-4.665-1.681-4.665-4.777c0-2.956,2.003-4.958,4.931-4.958
		c1.176,0,1.919,0.252,2.241,0.42l-0.294,0.994c-0.462-0.224-1.121-0.392-1.905-0.392c-2.213,0-3.684,1.415-3.684,3.894
		c0,2.312,1.331,3.796,3.628,3.796c0.742,0,1.499-0.154,1.989-0.393L247.22,71.692z"/>
	<path d="M256.517,67.182c0,3.25-1.975,4.973-4.384,4.973c-2.493,0-4.244-1.933-4.244-4.791c0-2.998,1.863-4.958,4.384-4.958
		C254.85,62.405,256.517,64.38,256.517,67.182z M249.191,67.335c0,2.017,1.092,3.824,3.011,3.824c1.933,0,3.026-1.779,3.026-3.922
		c0-1.877-0.98-3.838-3.012-3.838C250.199,63.399,249.191,65.262,249.191,67.335z"/>
	<path d="M266.051,67.854c-0.07-1.316-0.154-2.899-0.14-4.076h-0.042c-0.322,1.107-0.714,2.283-1.191,3.586l-1.667,4.581h-0.925
		l-1.527-4.496c-0.448-1.331-0.826-2.55-1.092-3.67h-0.028c-0.028,1.177-0.098,2.76-0.182,4.174L259.005,72h-1.163l0.658-9.441
		h1.555l1.611,4.566c0.392,1.163,0.714,2.199,0.952,3.18h0.042c0.238-0.953,0.575-1.989,0.995-3.18l1.681-4.566h1.555L267.479,72
		h-1.191L266.051,67.854z"/>
	<path d="M270.569,62.559V72h-1.219v-9.441H270.569z"/>
	<path d="M272.696,72v-9.441h1.331l3.025,4.776c0.7,1.106,1.247,2.101,1.695,3.068l0.028-0.014c-0.112-1.261-0.14-2.409-0.14-3.88
		v-3.95h1.148V72h-1.232l-2.998-4.791c-0.659-1.051-1.289-2.129-1.765-3.152l-0.042,0.014c0.07,1.19,0.098,2.325,0.098,3.894V72
		H272.696z"/>
	<path d="M289.094,71.58c-0.546,0.196-1.625,0.519-2.899,0.519c-1.429,0-2.605-0.364-3.53-1.247
		c-0.813-0.785-1.316-2.045-1.316-3.516c0.014-2.815,1.947-4.875,5.113-4.875c1.092,0,1.947,0.238,2.353,0.434l-0.294,0.995
		c-0.504-0.224-1.135-0.406-2.087-0.406c-2.297,0-3.796,1.429-3.796,3.796c0,2.396,1.443,3.81,3.642,3.81
		c0.798,0,1.345-0.112,1.625-0.252v-2.815h-1.919v-0.98h3.11V71.58z"/>
</g>
<g>
	<path d="M416.133,67.182c0,3.25-1.975,4.973-4.384,4.973c-2.493,0-4.244-1.933-4.244-4.791c0-2.998,1.863-4.958,4.384-4.958
		C414.466,62.405,416.133,64.38,416.133,67.182z M408.807,67.335c0,2.017,1.092,3.824,3.011,3.824c1.933,0,3.026-1.779,3.026-3.922
		c0-1.877-0.98-3.838-3.012-3.838C409.815,63.399,408.807,65.262,408.807,67.335z"/>
	<path d="M418.929,62.559v5.589c0,2.115,0.938,3.012,2.199,3.012c1.401,0,2.297-0.925,2.297-3.012v-5.589h1.232v5.505
		c0,2.899-1.527,4.09-3.572,4.09c-1.933,0-3.39-1.107-3.39-4.034v-5.561H418.929z"/>
	<path d="M428.561,63.596h-2.872v-1.037h6.99v1.037h-2.885V72h-1.233V63.596z"/>
	<path d="M440.534,71.58c-0.546,0.196-1.625,0.519-2.899,0.519c-1.429,0-2.605-0.364-3.53-1.247
		c-0.813-0.785-1.316-2.045-1.316-3.516c0.014-2.815,1.947-4.875,5.113-4.875c1.092,0,1.947,0.238,2.353,0.434l-0.294,0.995
		c-0.504-0.224-1.135-0.406-2.087-0.406c-2.297,0-3.796,1.429-3.796,3.796c0,2.396,1.443,3.81,3.642,3.81
		c0.798,0,1.345-0.112,1.625-0.252v-2.815h-1.919v-0.98h3.11V71.58z"/>
	<path d="M450.46,67.182c0,3.25-1.975,4.973-4.384,4.973c-2.493,0-4.244-1.933-4.244-4.791c0-2.998,1.863-4.958,4.384-4.958
		C448.793,62.405,450.46,64.38,450.46,67.182z M443.135,67.335c0,2.017,1.092,3.824,3.012,3.824c1.933,0,3.025-1.779,3.025-3.922
		c0-1.877-0.98-3.838-3.012-3.838C444.143,63.399,443.135,65.262,443.135,67.335z"/>
	<path d="M453.257,62.559V72h-1.219v-9.441H453.257z"/>
	<path d="M455.384,72v-9.441h1.331l3.025,4.776c0.7,1.106,1.247,2.101,1.695,3.068l0.028-0.014c-0.112-1.261-0.14-2.409-0.14-3.88
		v-3.95h1.148V72h-1.232l-2.998-4.791c-0.659-1.051-1.289-2.129-1.765-3.152l-0.042,0.014c0.07,1.19,0.098,2.325,0.098,3.894V72
		H455.384z"/>
	<path d="M471.782,71.58c-0.546,0.196-1.625,0.519-2.899,0.519c-1.429,0-2.605-0.364-3.53-1.247
		c-0.812-0.785-1.316-2.045-1.316-3.516c0.014-2.815,1.947-4.875,5.113-4.875c1.092,0,1.947,0.238,2.353,0.434l-0.294,0.995
		c-0.504-0.224-1.135-0.406-2.087-0.406c-2.297,0-3.796,1.429-3.796,3.796c0,2.396,1.443,3.81,3.642,3.81
		c0.798,0,1.345-0.112,1.625-0.252v-2.815h-1.919v-0.98h3.11V71.58z"/>
</g>
<path fill="none" stroke="#000000" stroke-width="3" stroke-miterlimit="10" d="M919.5,358.5c0,6.627-5.373,12-12,12h-201
	c-6.627,0-12-5.373-12-12v-336c0-6.627,5.373-12,12-12h201c6.627,0,12,5.373,12,12V358.5z"/>
<line fill="none" stroke="#000000" stroke-width="3" stroke-miterlimit="10" x1="713" y1="63.5" x2="893" y2="63.5"/>
<circle fill="none" stroke="#000000" stroke-width="3" stroke-miterlimit="10" cx="803" cy="36" r="18"/>
<line fill="none" stroke="#000000" stroke-width="3" stroke-miterlimit="10" x1="714" y1="333.5" x2="894" y2="333.5"/>
<polyline fill="none" stroke="#000000" stroke-width="3" stroke-miterlimit="10" points="758.5,99 758.5,171.5 867,171.5 "/>
<polyline fill="none" stroke="#000000" stroke-width="3" stroke-miterlimit="10" points="758.5,225 758.5,297.5 867,297.5 "/>
<g>
	<path d="M777.219,72.154v9.441H776v-9.441H777.219z"/>
	<path d="M779.346,81.595v-9.441h1.332l3.025,4.776c0.699,1.106,1.246,2.101,1.694,3.068l0.028-0.014
		c-0.112-1.261-0.141-2.409-0.141-3.88v-3.95h1.148v9.441h-1.232l-2.997-4.791c-0.659-1.051-1.289-2.129-1.765-3.152l-0.043,0.014
		c0.07,1.19,0.099,2.325,0.099,3.894v4.034H779.346z"/>
	<path d="M795.155,81.287c-0.448,0.224-1.345,0.448-2.493,0.448c-2.662,0-4.664-1.681-4.664-4.777c0-2.956,2.002-4.958,4.93-4.958
		c1.177,0,1.92,0.252,2.242,0.42l-0.295,0.994c-0.462-0.224-1.121-0.392-1.904-0.392c-2.214,0-3.685,1.415-3.685,3.894
		c0,2.312,1.331,3.796,3.628,3.796c0.742,0,1.499-0.154,1.989-0.393L795.155,81.287z"/>
	<path d="M804.452,76.777c0,3.25-1.976,4.973-4.384,4.973c-2.494,0-4.244-1.933-4.244-4.791c0-2.998,1.862-4.958,4.384-4.958
		C802.785,72,804.452,73.975,804.452,76.777z M797.127,76.931c0,2.017,1.092,3.824,3.011,3.824c1.933,0,3.026-1.779,3.026-3.922
		c0-1.877-0.98-3.838-3.012-3.838C798.135,72.995,797.127,74.857,797.127,76.931z"/>
	<path d="M813.986,77.449c-0.07-1.316-0.154-2.899-0.141-4.076h-0.041c-0.322,1.107-0.715,2.283-1.191,3.586l-1.666,4.581h-0.926
		l-1.526-4.496c-0.448-1.331-0.826-2.55-1.093-3.67h-0.027c-0.028,1.177-0.099,2.76-0.183,4.174l-0.252,4.048h-1.163l0.658-9.441
		h1.556l1.61,4.566c0.393,1.163,0.715,2.199,0.953,3.18h0.041c0.238-0.953,0.575-1.989,0.995-3.18l1.681-4.566h1.555l0.589,9.441
		h-1.19L813.986,77.449z"/>
	<path d="M818.504,72.154v9.441h-1.219v-9.441H818.504z"/>
	<path d="M820.631,81.595v-9.441h1.332l3.025,4.776c0.699,1.106,1.246,2.101,1.694,3.068l0.028-0.014
		c-0.112-1.261-0.141-2.409-0.141-3.88v-3.95h1.148v9.441h-1.232l-2.997-4.791c-0.659-1.051-1.289-2.129-1.765-3.152l-0.043,0.014
		c0.07,1.19,0.099,2.325,0.099,3.894v4.034H820.631z"/>
	<path d="M837.029,81.175c-0.547,0.196-1.625,0.519-2.899,0.519c-1.429,0-2.605-0.364-3.53-1.247
		c-0.813-0.785-1.316-2.045-1.316-3.516c0.014-2.815,1.947-4.875,5.113-4.875c1.092,0,1.946,0.238,2.353,0.434l-0.294,0.995
		c-0.504-0.224-1.135-0.406-2.088-0.406c-2.297,0-3.795,1.429-3.795,3.796c0,2.396,1.442,3.81,3.642,3.81
		c0.798,0,1.345-0.112,1.625-0.252v-2.815h-1.919v-0.98h3.109V81.175z"/>
</g>
<g>
	<path d="M784.352,220.027c0,3.25-1.976,4.973-4.385,4.973c-2.493,0-4.244-1.933-4.244-4.791c0-2.998,1.863-4.958,4.385-4.958
		C782.684,215.25,784.352,217.226,784.352,220.027z M777.025,220.181c0,2.017,1.092,3.824,3.012,3.824
		c1.933,0,3.025-1.779,3.025-3.922c0-1.877-0.98-3.838-3.012-3.838C778.033,216.245,777.025,218.108,777.025,220.181z"/>
	<path d="M787.147,215.405v5.589c0,2.115,0.938,3.012,2.199,3.012c1.401,0,2.298-0.925,2.298-3.012v-5.589h1.232v5.505
		c0,2.899-1.527,4.09-3.572,4.09c-1.934,0-3.39-1.107-3.39-4.034v-5.561H787.147z"/>
	<path d="M796.779,216.441h-2.871v-1.037h6.989v1.037h-2.886v8.404h-1.232V216.441z"/>
	<path d="M808.752,224.425c-0.546,0.196-1.625,0.519-2.898,0.519c-1.43,0-2.605-0.364-3.531-1.247
		c-0.813-0.785-1.316-2.045-1.316-3.516c0.014-2.815,1.947-4.875,5.113-4.875c1.092,0,1.947,0.238,2.354,0.434l-0.295,0.995
		c-0.504-0.224-1.135-0.406-2.087-0.406c-2.297,0-3.796,1.429-3.796,3.796c0,2.396,1.443,3.81,3.643,3.81
		c0.798,0,1.344-0.112,1.625-0.252v-2.815h-1.92v-0.98h3.109V224.425z"/>
	<path d="M818.679,220.027c0,3.25-1.976,4.973-4.384,4.973c-2.494,0-4.244-1.933-4.244-4.791c0-2.998,1.862-4.958,4.384-4.958
		C817.012,215.25,818.679,217.226,818.679,220.027z M811.354,220.181c0,2.017,1.092,3.824,3.012,3.824
		c1.932,0,3.025-1.779,3.025-3.922c0-1.877-0.98-3.838-3.012-3.838C812.361,216.245,811.354,218.108,811.354,220.181z"/>
	<path d="M821.475,215.405v9.441h-1.219v-9.441H821.475z"/>
	<path d="M823.603,224.846v-9.441h1.331l3.025,4.776c0.7,1.106,1.246,2.101,1.695,3.068l0.027-0.014
		c-0.111-1.261-0.14-2.409-0.14-3.88v-3.95h1.148v9.441h-1.232l-2.997-4.791c-0.659-1.051-1.289-2.129-1.766-3.152l-0.042,0.014
		c0.069,1.19,0.099,2.325,0.099,3.894v4.034H823.603z"/>
	<path d="M840,224.425c-0.547,0.196-1.625,0.519-2.899,0.519c-1.429,0-2.605-0.364-3.53-1.247c-0.813-0.785-1.316-2.045-1.316-3.516
		c0.014-2.815,1.947-4.875,5.113-4.875c1.092,0,1.946,0.238,2.353,0.434l-0.294,0.995c-0.504-0.224-1.135-0.406-2.088-0.406
		c-2.297,0-3.795,1.429-3.795,3.796c0,2.396,1.442,3.81,3.642,3.81c0.798,0,1.345-0.112,1.624-0.252v-2.815h-1.918v-0.98H840
		V224.425z"/>
</g>
<line stroke="#000000" stroke-width="3" stroke-miterlimit="10" x1="875" y1="28.5" x2="902" y2="28.5"/>
<line stroke="#000000" stroke-width="3" stroke-miterlimit="10" x1="875" y1="36.5" x2="902" y2="36.5"/>
<line stroke="#000000" stroke-width="3" stroke-miterlimit="10" x1="875" y1="45.5" x2="902" y2="45.5"/>
<polyline fill="none" stroke="#FFFFFF" stroke-width="3" stroke-miterlimit="10" points="208.5,90 208.5,144.5 290,144.5 "/>
<polyline fill="none" stroke="#FFFFFF" stroke-width="3" stroke-miterlimit="10" points="208.5,180 208.5,234.5 290,234.5 "/>
<polyline fill="none" stroke="#FFFFFF" stroke-width="3" stroke-miterlimit="10" points="208.5,270 208.5,324.5 290,324.5 "/>
<polyline fill="none" stroke="#FFFFFF" stroke-width="3" stroke-miterlimit="10" points="388.5,90 388.5,144.5 470,144.5 "/>
<polyline fill="none" stroke="#FFFFFF" stroke-width="3" stroke-miterlimit="10" points="388.5,180 388.5,234.5 470,234.5 "/>
<polyline fill="none" stroke="#FFFFFF" stroke-width="3" stroke-miterlimit="10" points="388.5,270 388.5,324.5 470,324.5 "/>
<polyline fill="none" stroke="#FFFFFF" stroke-width="3" stroke-miterlimit="10" points="388.5,90 388.5,144.5 470,144.5 "/>
<polyline fill="none" stroke="#FFFFFF" stroke-width="3" stroke-miterlimit="10" points="766.5,108 766.5,162.5 848,162.5 "/>
<polyline fill="none" stroke="#FFFFFF" stroke-width="3" stroke-miterlimit="10" points="766.5,234 766.5,288.5 848,288.5 "/>
</svg>
