<?xml version="1.0" encoding="utf-8"?>
<!-- Generator: Adobe Illustrator 16.0.0, SVG Export Plug-In . SVG Version: 6.00 Build 0)  -->
<!DOCTYPE svg PUBLIC "-//W3C//DTD SVG 1.1//EN" "http://www.w3.org/Graphics/SVG/1.1/DTD/svg11.dtd">
<svg version="1.1" id="Layer_1" xmlns="http://www.w3.org/2000/svg" xmlns:xlink="http://www.w3.org/1999/xlink" x="0px" y="0px"
	 width="100px" height="100px" viewBox="262.5 220.5 450 496" style="enable-background:new 262.5 220.5 450 496;"
	 xml:space="preserve">
<style type="text/css">
<![CDATA[
	.st0{display:none;fill:#FFFFFF;enable-background:new    ;}
	.st1{display:inline;fill:none;stroke:#000000;stroke-width:3;stroke-miterlimit:10;}
	.st2{display:inline;}
	.st3{font-family:'Montserrat-Regular';}
	.st4{fill:#FFFFFF;stroke:#DDDDDD;stroke-miterlimit:10;}
	.st5{font-size:72;}
	.st6{fill:#FF0000;stroke:#000000;stroke-miterlimit:10;}
	.st7{display:none;}
]]>
</style>
<g id="Layer_1_1_" class="st7">
	<g class="st2">
		<g id="Layer_3">
			<path id="vecmap" class="st6" d="M500,153.169c167.093,0,302.543,135.452,302.543,302.542c0,29.067-4.101,57.182-11.754,83.789
				c-4.146,14.411-9.335,28.387-15.479,41.828C727.601,685.718,622.271,758.252,500,758.253
				c-129.085,0-239.288-80.847-282.741-194.661c-3.007-7.877-5.692-15.912-8.047-24.089c-7.651-26.608-11.754-54.725-11.754-83.792
				C197.458,288.621,332.911,153.169,500,153.169z"/>
		</g>
		<g class="st7">
			<line class="st1" x1="770.5" y1="578.5" x2="223.421" y2="578.5"/>
		</g>
		<g class="st7">
			<line class="st1" x1="802.51" y1="459.527" x2="197.49" y2="459.527"/>
		</g>
		<g>
			<path d="M455.942,417.769l-14.328,37.872h-4.824l-11.949-31.032l-11.952,31.032h-4.824l-14.256-37.872h4.896l11.882,32.184
				l12.168-32.184h4.393l12.096,32.184l12.024-32.184H455.942z"/>
		</g>
		<g>
			<path d="M391.215,417.839l-14.328,37.872h-4.824l-11.952-31.032l-11.952,31.032h-4.822l-14.258-37.872h4.896l11.88,32.184
				l12.168-32.184h4.392l12.099,32.184l12.021-32.184H391.215z"/>
		</g>
		<g>
			<path d="M326.215,417.839l-14.328,37.872h-4.824l-11.952-31.032l-11.952,31.032h-4.824l-14.256-37.872h4.896l11.88,32.184
				l12.168-32.184h4.392l12.099,32.184l12.021-32.184H326.215z"/>
		</g>
		<g>
			<path d="M456.432,454.919c-0.745-0.77-1.116-1.703-1.116-2.811c0-1.104,0.371-2.024,1.116-2.771
				c0.744-0.744,1.644-1.116,2.7-1.116c1.055,0,1.968,0.372,2.733,1.116c0.77,0.744,1.152,1.668,1.152,2.771
				c0,1.105-0.385,2.041-1.152,2.811c-0.769,0.769-1.681,1.149-2.733,1.149C458.075,456.071,457.177,455.688,456.432,454.919z"/>
		</g>
		<g>
			<path d="M520.392,435.406c0.646-1.484,1.451-2.759,2.412-3.813c0.959-1.058,2.207-2.255,3.743-3.603
				c2.063-1.82,3.588-3.42,4.569-4.788c0.983-1.365,1.479-3.033,1.479-5.001c0-2.642-1.032-4.766-3.098-6.372
				c-2.063-1.608-4.896-2.412-8.494-2.412c-5.952,0-10.537,1.941-13.752,5.832l-3.816-2.88c4.08-4.991,10.056-7.488,17.928-7.488
				c5.041,0,9.063,1.128,12.063,3.384c3,2.257,4.5,5.305,4.5,9.146c0,1.969-0.324,3.705-0.975,5.22
				c-0.646,1.512-1.438,2.797-2.376,3.852c-0.936,1.056-2.172,2.28-3.708,3.672c-2.063,1.872-3.601,3.541-4.605,5.004
				c-1.008,1.465-1.515,3.276-1.515,5.438h-5.325C519.423,438.621,519.744,436.896,520.392,435.406z M519.423,454.952
				c-0.723-0.741-1.08-1.617-1.08-2.628c0-1.056,0.357-1.932,1.08-2.628c0.721-0.692,1.604-1.044,2.663-1.044
				c1.104,0,2.017,0.352,2.734,1.044c0.721,0.697,1.08,1.573,1.08,2.628c0,1.011-0.373,1.887-1.116,2.628
				c-0.745,0.745-1.646,1.116-2.698,1.116C521.027,456.071,520.14,455.698,519.423,454.952z"/>
		</g>
		<g>
			<path d="M561.892,435.406c0.646-1.484,1.451-2.759,2.412-3.813c0.959-1.058,2.207-2.255,3.743-3.603
				c2.063-1.82,3.588-3.42,4.569-4.788c0.983-1.365,1.479-3.033,1.479-5.001c0-2.642-1.032-4.766-3.098-6.372
				c-2.063-1.608-4.896-2.412-8.494-2.412c-5.952,0-10.537,1.941-13.752,5.832l-3.816-2.88c4.08-4.991,10.056-7.488,17.928-7.488
				c5.041,0,9.063,1.128,12.063,3.384c3,2.257,4.5,5.305,4.5,9.146c0,1.969-0.324,3.705-0.975,5.22
				c-0.646,1.512-1.438,2.797-2.376,3.852c-0.936,1.056-2.172,2.28-3.708,3.672c-2.063,1.872-3.601,3.541-4.605,5.004
				c-1.008,1.465-1.515,3.276-1.515,5.438h-5.325C560.923,438.621,561.244,436.896,561.892,435.406z M560.923,454.952
				c-0.723-0.741-1.08-1.617-1.08-2.628c0-1.056,0.357-1.932,1.08-2.628c0.721-0.692,1.604-1.044,2.663-1.044
				c1.104,0,2.017,0.352,2.734,1.044c0.721,0.697,1.08,1.573,1.08,2.628c0,1.011-0.373,1.887-1.116,2.628
				c-0.745,0.745-1.646,1.116-2.698,1.116C562.527,456.071,561.64,455.698,560.923,454.952z"/>
		</g>
		<g class="st7">
			<path id="vecmap_1_" class="st2" d="M482.392,435.406c0.648-1.484,1.451-2.759,2.412-3.813c0.959-1.058,2.207-2.255,3.744-3.603
				c2.063-1.82,3.588-3.42,4.569-4.788c0.983-1.365,1.479-3.033,1.479-5.001c0-2.642-1.033-4.766-3.097-6.372
				c-2.064-1.608-4.896-2.412-8.495-2.412c-5.952,0-10.537,1.941-13.753,5.832l-3.815-2.88c4.079-4.991,10.055-7.488,17.928-7.488
				c5.04,0,9.063,1.128,12.063,3.384c3,2.257,4.5,5.305,4.5,9.146c0,1.969-0.324,3.705-0.975,5.22
				c-0.646,1.512-1.438,2.797-2.376,3.852c-0.936,1.056-2.172,2.28-3.708,3.672c-2.063,1.872-3.6,3.541-4.605,5.004
				c-1.009,1.465-1.515,3.276-1.515,5.438h-5.326C481.423,438.621,481.744,436.896,482.392,435.406z M481.423,454.952
				c-0.723-0.741-1.08-1.617-1.08-2.628c0-1.056,0.357-1.932,1.08-2.628c0.72-0.692,1.605-1.044,2.661-1.044
				c1.104,0,2.019,0.352,2.736,1.044c0.721,0.697,1.08,1.573,1.08,2.628c0,1.011-0.372,1.887-1.116,2.628
				c-0.745,0.745-1.645,1.116-2.7,1.116C483.029,456.07,482.14,455.698,481.423,454.952z"/>
		</g>
		<g class="st7">
			<path class="st2" d="M592.431,454.919c-0.744-0.77-1.115-1.703-1.115-2.811c0-1.104,0.371-2.024,1.115-2.771
				c0.744-0.744,1.645-1.116,2.7-1.116c1.055,0,1.968,0.372,2.733,1.116c0.77,0.744,1.151,1.668,1.151,2.771
				c0,1.105-0.385,2.041-1.151,2.811c-0.769,0.769-1.681,1.149-2.733,1.149C594.076,456.071,593.177,455.688,592.431,454.919z"/>
		</g>
		<g class="st7">
			<path class="st2" d="M613.279,453.62c-2.951-1.631-5.268-3.924-6.947-6.876c-1.681-2.949-2.52-6.272-2.52-9.972
				c0-3.696,0.839-7.008,2.52-9.936c1.683-2.93,3.996-5.208,6.947-6.84c2.953-1.631,6.301-2.448,10.045-2.448
				c3.267,0,6.183,0.637,8.748,1.908c2.566,1.271,4.596,3.132,6.084,5.577l-3.813,2.595c-1.248-1.872-2.832-3.276-4.752-4.215
				c-1.923-0.936-4.011-1.401-6.267-1.401c-2.733,0-5.197,0.61-7.381,1.836c-2.184,1.224-3.887,2.964-5.111,5.22
				c-1.225,2.257-1.836,4.824-1.836,7.704c0,2.928,0.611,5.508,1.836,7.74c1.228,2.229,2.931,3.96,5.111,5.184
				c2.186,1.227,4.646,1.836,7.381,1.836c2.256,0,4.344-0.456,6.267-1.368c1.92-0.908,3.504-2.304,4.752-4.176l3.813,2.592
				c-1.488,2.448-3.525,4.312-6.12,5.58c-2.593,1.272-5.497,1.908-8.712,1.908C619.58,456.071,616.232,455.256,613.279,453.62z"/>
		</g>
		<g class="st7">
			<path class="st2" d="M656.279,453.62c-2.951-1.631-5.268-3.924-6.947-6.876c-1.681-2.949-2.52-6.272-2.52-9.972
				c0-3.696,0.839-7.008,2.52-9.936c1.683-2.93,3.996-5.208,6.947-6.84c2.953-1.631,6.301-2.448,10.045-2.448
				c3.267,0,6.183,0.637,8.748,1.908c2.566,1.271,4.596,3.132,6.084,5.577l-3.813,2.595c-1.248-1.872-2.832-3.276-4.752-4.215
				c-1.923-0.936-4.011-1.401-6.267-1.401c-2.733,0-5.197,0.61-7.381,1.836c-2.184,1.224-3.887,2.964-5.111,5.22
				c-1.225,2.257-1.836,4.824-1.836,7.704c0,2.928,0.611,5.508,1.836,7.74c1.228,2.229,2.931,3.96,5.111,5.184
				c2.186,1.227,4.646,1.836,7.381,1.836c2.256,0,4.344-0.456,6.267-1.368c1.92-0.908,3.504-2.304,4.752-4.176l3.813,2.592
				c-1.488,2.448-3.525,4.312-6.12,5.58c-2.593,1.272-5.497,1.908-8.712,1.908C662.58,456.071,659.232,455.256,656.279,453.62z"/>
		</g>
		<g class="st7">
			<path class="st2" d="M698.279,453.62c-2.951-1.631-5.268-3.924-6.947-6.876c-1.681-2.949-2.52-6.272-2.52-9.972
				c0-3.696,0.839-7.008,2.52-9.936c1.683-2.93,3.996-5.208,6.947-6.84c2.953-1.631,6.301-2.448,10.045-2.448
				c3.267,0,6.183,0.637,8.748,1.908c2.566,1.271,4.596,3.132,6.084,5.577l-3.813,2.595c-1.248-1.872-2.832-3.276-4.752-4.215
				c-1.923-0.936-4.011-1.401-6.267-1.401c-2.733,0-5.197,0.61-7.381,1.836c-2.184,1.224-3.887,2.964-5.111,5.22
				c-1.225,2.257-1.836,4.824-1.836,7.704c0,2.928,0.611,5.508,1.836,7.74c1.228,2.229,2.931,3.96,5.111,5.184
				c2.186,1.227,4.646,1.836,7.381,1.836c2.256,0,4.344-0.456,6.267-1.368c1.92-0.908,3.504-2.304,4.752-4.176l3.813,2.592
				c-1.488,2.448-3.525,4.312-6.12,5.58c-2.593,1.272-5.497,1.908-8.712,1.908C704.58,456.071,701.232,455.256,698.279,453.62z"/>
		</g>
	</g>
	<g class="st2">
		<path d="M250.5,396.779h4.752v67.394H250.5V396.779z"/>
	</g>
	<div  class="typewriter">
		
			<text  transform="matrix(1 0 0 1 264.0769 578.5002)" font-family="&apos;Montserrat-Regular&apos;" font-size="72" startOffset="0">
			www.???.com</text>
	</div>
</g>
<g id="Layer_2">
	<g>
		<path class="st4" d="M475.769,419.01c1.624-0.233,3.299-0.395,5.076-0.395c1.643,0,3.193,0.142,4.695,0.345
			c0.702-0.1,1.414-0.166,2.143-0.216c-9.864-11.001-21.809-19.28-35.887-24.768c-14.363-5.595-33.193-11.265-56.483-17.012
			c-19.661-4.837-35.315-9.302-46.957-13.384c-11.643-4.083-21.322-9.98-29.032-17.693c-7.717-7.713-11.567-17.922-11.567-30.623
			c0-16.937,7.026-30.772,21.094-41.515c14.065-10.731,35-16.104,62.839-16.104c14.509,0,29.327,2.197,44.458,6.578
			c15.118,4.387,29.334,10.965,42.644,19.734l11.341-26.768c-12.7-8.769-27.75-15.65-45.141-20.643
			c-17.391-4.989-35.162-7.485-53.302-7.485c-26.017,0-47.8,3.936-65.338,11.796c-17.537,7.867-30.545,18.374-39.014,31.529
			c-8.467,13.157-12.704,27.752-12.704,43.782c0,19.664,5.062,35.237,15.202,46.729c10.129,11.498,22.302,20.039,36.516,25.635
			c14.214,5.598,33.271,11.42,57.165,17.466c19.963,4.843,35.544,9.303,46.729,13.384c6.707,2.441,12.577,5.724,17.993,9.464
			c5.076-6.116,12.785-10.232,23.153-10.232C472.939,418.615,474.343,418.824,475.769,419.01z"/>
	</g>
	<text transform="matrix(1 0 0 1 316.4998 471.5002)" class="st0 st3 st5">D</text>
	<g>
		<path class="st4" d="M404.438,389.315h129.296c33.573,0,63.215,6.734,88.925,20.189c25.702,13.461,45.664,32.211,59.892,56.258
			c14.208,24.041,21.313,51.492,21.313,82.341c0,30.846-7.105,58.295-21.313,82.342c-14.228,24.045-34.188,42.799-59.892,56.256
			c-25.71,13.463-55.352,20.191-88.925,20.191H404.438V389.315z M531.927,677.862c27.818,0,52.169-5.521,73.041-16.565
			c20.872-11.039,37.043-26.314,48.538-45.818c11.495-19.506,17.242-41.969,17.242-67.373c0-25.41-5.747-47.865-17.242-67.377
			c-11.495-19.506-27.666-34.771-48.538-45.816c-20.872-11.04-45.223-16.561-73.041-16.561h-93.914v259.512L531.927,677.862
			L531.927,677.862z"/>
	</g>
	<path class="st4" d="M398.927,387.645"/>
</g>
</svg>
