<?xml version="1.0" encoding="utf-8"?>
<!-- Generator: Adobe Illustrator 16.0.0, SVG Export Plug-In . SVG Version: 6.00 Build 0)  -->
<!DOCTYPE svg PUBLIC "-//W3C//DTD SVG 1.1//EN" "http://www.w3.org/Graphics/SVG/1.1/DTD/svg11.dtd">
<svg version="1.1" id="Layer_1" xmlns="http://www.w3.org/2000/svg" xmlns:xlink="http://www.w3.org/1999/xlink" x="0px" y="0px"
	 width="118.875px" height="132.337px" viewBox="0 0 118.875 132.337" style="enable-background:new 0 0 118.875 132.337;"
	 xml:space="preserve">
<style type="text/css">
<![CDATA[
	.st0{display:none;fill:#010101;enable-background:new    ;}
	.st1{fill:none;}
	.st2{font-family:'ArialMT';}
	.st3{fill:#010101;}
	.st4{font-size:12;}
]]>
</style>
<g id="Layer_2">
	<g>
		<line class="st1" x1="36.663" y1="51.002" x2="36.663" y2="50.298"/>
		<path class="st3" d="M59.005,52.533c-2.73-3.049-6.04-5.34-9.94-6.86c-3.977-1.548-9.191-3.121-15.643-4.711
			c-5.444-1.339-9.78-2.576-13.004-3.707c-3.225-1.131-5.905-2.765-8.041-4.901c-2.138-2.135-3.204-4.963-3.204-8.48
			c0-4.689,1.945-8.521,5.842-11.497c3.896-2.974,9.693-4.461,17.404-4.461c4.02,0,8.122,0.608,12.313,1.82
			c4.188,1.217,8.125,3.038,11.811,5.468l3.143-7.415c-3.519-2.429-7.688-4.333-12.503-5.718C42.365,0.688,37.443,0,32.419,0
			c-7.207,0-13.237,1.089-18.097,3.265c-4.856,2.18-8.459,5.09-10.805,8.733C1.172,15.641,0,19.685,0,24.123
			c0,5.444,1.4,9.76,4.209,12.94c2.806,3.186,6.177,5.551,10.112,7.1c3.938,1.551,9.216,3.164,15.832,4.837
			c5.53,1.342,9.844,2.577,12.943,3.708c0.754,0.273,1.47,0.588,2.155,0.933"/>
		<path class="st3" d="M58.411,52.592c0.115-0.016,0.231-0.029,0.349-0.04"/>
		<path class="st3" d="M56.687,52.507"/>
		<path class="st3" d="M55.704,52.604c0.121-0.018,0.243-0.034,0.367-0.047"/>
		<path class="st3" d="M54.492,52.496c0.109,0,0.215,0.004,0.321,0.01"/>
	</g>
	<text transform="matrix(1 0 0 1 11.5952 67.1445)" class="st0 st2 st4">D</text>
	<g>
		<path class="st3" d="M45.475,44.382h26.284c9.298,0,17.508,1.865,24.629,5.592c7.116,3.729,12.646,8.921,16.586,15.58
			c3.936,6.659,5.901,14.263,5.901,22.806c0,8.542-1.967,16.146-5.901,22.806c-3.938,6.659-9.47,11.854-16.586,15.58
			c-7.121,3.729-15.331,5.592-24.629,5.592h-35.81V51.514 M71.258,124.296c7.705,0,14.447-1.527,20.229-4.586
			c5.779-3.06,10.26-7.29,13.44-12.69c3.186-5.401,4.776-11.623,4.776-18.659s-1.592-13.257-4.776-18.66
			c-3.182-5.401-7.661-9.631-13.44-12.688c-5.782-3.059-12.524-4.586-20.229-4.586H45.249V124.3L71.258,124.296L71.258,124.296z"/>
		<line class="st1" x1="35.95" y1="51.512" x2="35.95" y2="50.491"/>
		<path class="st3" d="M45.475,44.382"/>
	</g>
	<path class="st3" d="M34.423,43.92"/>
</g>
</svg>
