<?xml version="1.0" encoding="utf-8"?>
<!-- Generator: Adobe Illustrator 16.0.0, SVG Export Plug-In . SVG Version: 6.00 Build 0)  -->
<!DOCTYPE svg PUBLIC "-//W3C//DTD SVG 1.1//EN" "http://www.w3.org/Graphics/SVG/1.1/DTD/svg11.dtd">
<svg version="1.1" id="Layer_1" xmlns="http://www.w3.org/2000/svg" xmlns:xlink="http://www.w3.org/1999/xlink" x="0px" y="0px"
	 width="560px" height="424px" viewBox="-657.5 116.5 560 424" enable-background="new -657.5 116.5 560 424" xml:space="preserve">
<script  xlink:href="https://cdnjs.cloudflare.com/ajax/libs/snap.svg/0.4.1/snap.svg.js" id="script4044"></script>
<g id="Layer_1_2_">
	<g id="Layer_1_1_" display="none">
		
			<image display="inline" overflow="visible" enable-background="new    " width="640" height="960" xlink:href="191d9288881ae1f0de71547d503a0112.jpg"  transform="matrix(0.72 0 0 0.72 -585.0002 154.0002)">
		</image>
	</g>
	<g id="Layer_2" display="none">
		<path display="inline" fill="none" stroke="#FFFFFF" stroke-miterlimit="10" d="M-279,408c-82.5-124-154,0-154,0"/>
		<path display="inline" fill="none" stroke="#FFFFFF" stroke-miterlimit="10" d="M-279,499.6c0,0,106-35.6,0-98.6"/>
	</g>
	<g id="Layer_4">
		
			<ellipse display="none" fill="none" stroke="#FFFFFF" stroke-width="6" stroke-miterlimit="10" cx="-320" cy="494" rx="35" ry="28.637"/>
		<path fill="none" stroke="#FFFFFF" stroke-width="6" stroke-miterlimit="10" d="M-307.75,411.75
			c9.945-32.619,40.277-56.353,76.15-56.353c35.295,0,65.225,22.975,75.654,54.78"/>
		<path fill="none" stroke="#FFFFFF" stroke-width="6" stroke-miterlimit="10" d="M-268.267,448.131"/>
		<path fill="none" stroke="#FFFFFF" stroke-width="6" stroke-miterlimit="10" d="M-307.273,409.251
			c-1.553-0.166-3.13-0.251-4.729-0.251c-24.301,0-44,19.696-44,44c0,24.301,19.699,44,44,44c4.863,0,9.545-0.789,13.916-2.245"/>
		<path fill="none" stroke="#FFFFFF" stroke-width="6" stroke-miterlimit="10" d="M-157.486,409.35
			c1.825-0.229,3.686-0.35,5.573-0.35c24.301,0,44,19.696,44,44c0,24.301-19.699,44-44,44c-4.863,0-9.542-0.789-13.915-2.245"/>
		<path fill="none" stroke="#FFFFFF" stroke-width="6" stroke-miterlimit="10" d="M-162,494"/>
		<path fill="none" stroke="#FFFFFF" stroke-width="6" stroke-miterlimit="10" d="M-162.224,490.744"/>
		<path fill="none" stroke="#FFFFFF" stroke-width="6" stroke-miterlimit="10" d="M-197,465.364"/>
		<path fill="none" stroke="#FFFFFF" stroke-width="6" stroke-miterlimit="10" d="M-162,494c0,15.813-15.669,28.637-35,28.637
			c-19.328,0-35-12.822-35-28.637"/>
		<path fill="none" stroke="#FFFFFF" stroke-width="6" stroke-miterlimit="10" d="M-233,494c0,15.813-15.669,28.637-35,28.637
			c-19.328,0-35-12.822-35-28.637"/>
		<path fill="none" stroke="#FFFFFF" stroke-width="6" stroke-miterlimit="10" d="M-620.271,154.314
			c5.268-17.272,21.332-29.843,40.33-29.843c18.689,0,34.543,12.166,40.067,29.012"/>
		<path fill="none" stroke="#FFFFFF" stroke-width="6" stroke-miterlimit="10" d="M-599.359,173.583"/>
		<path fill="none" stroke="#FFFFFF" stroke-width="6" stroke-miterlimit="10" d="M-620.018,152.99
			c-0.822-0.088-1.658-0.133-2.503-0.133c-12.87,0-23.306,10.436-23.306,23.305c0,12.867,10.436,23.303,23.306,23.303
			c2.576,0,5.054-0.417,7.37-1.189"/>
		<path fill="none" stroke="#FFFFFF" stroke-width="6" stroke-miterlimit="10" d="M-540.689,153.043
			c0.967-0.122,1.952-0.188,2.952-0.188c12.87,0,23.303,10.436,23.303,23.305c0,12.867-10.433,23.303-23.303,23.303
			c-2.576,0-5.055-0.417-7.37-1.189"/>
		<path fill="none" stroke="#FFFFFF" stroke-width="6" stroke-miterlimit="10" d="M-543.077,197.875"/>
		<path fill="none" stroke="#FFFFFF" stroke-width="6" stroke-miterlimit="10" d="M-543.198,196.152"/>
		<path fill="none" stroke="#FFFFFF" stroke-width="6" stroke-miterlimit="10" d="M-561.617,182.709"/>
		<path fill="none" stroke="#FFFFFF" stroke-width="6" stroke-miterlimit="10" d="M-543.077,197.875
			c0,8.376-8.301,15.166-18.54,15.166c-10.234,0-18.533-6.79-18.533-15.166"/>
		<path fill="none" stroke="#FFFFFF" stroke-width="6" stroke-miterlimit="10" d="M-580.682,197.875
			c0,8.376-8.298,15.166-18.537,15.166c-10.237,0-18.536-6.79-18.536-15.166"/>
	</g>
	<g id="Layer_3" display="none">
	</g>
</g>
<script  type="text/javascript" id="script4196">
	<![CDATA[

	var s = Snap("#rocket");
	//var s2 = Snap("#eli2");
	var animating = false;
	//var matrix = s2.transform().localMatrix;
	console.log(s.attr(""))
	console.log(s)
//console.log(s2)
	//console.log(matrix)
	//console.log(matrix.toTransformString())
	//var tMatrix = matrix.toTransformString()
	/*s.attr({
    fill: "#fc0",
    stroke: "#000",
    strokeWidth: 8, // CamelCase...
    "fill-opacity": 0.5, // or dash-separated names
    width: "*=2" // prefixed values
});*/

var anim1 = function() {
    
	s2.animate({transform:"t293.2798,62.8417, r94.905,0,0"}, 200,anim3)
	
}
var anim3 = function(){
s.animate({ transform: 't0,-500' }, 2000)
//s.scale(2)
//s2.animate({cx: 1}, 200,anim2)
console.log("HERE")
}

var anim2 = function() {
    s.animate({ry: 6.268}, 200,function(){
	
	setTimeout(function(){
	anim3()
	},5000)

	})


}

if(animating == false){
anim3()
console.log(s.attr("rx"))
}


;


		
			
		
		]]>
</script>
</svg>
