<?xml version="1.0" encoding="utf-8"?>
<!-- Generator: Adobe Illustrator 16.0.0, SVG Export Plug-In . SVG Version: 6.00 Build 0)  -->
<!DOCTYPE svg PUBLIC "-//W3C//DTD SVG 1.1//EN" "http://www.w3.org/Graphics/SVG/1.1/DTD/svg11.dtd">
<svg version="1.1" xmlns="http://www.w3.org/2000/svg" xmlns:xlink="http://www.w3.org/1999/xlink" x="0px" y="0px" viewBox="0 0 1000 1000" enable-background="new 0 0 1000 1000" xml:space="preserve">
<g id="loop" display="none">
	<g>
		<g id="Desktop">
			<g display="inline">
				<path fill="none" stroke="#000000" stroke-width="4" stroke-miterlimit="10" d="M369.5,591c0,5.5-4.5,10-10,10h-88
					c-5.5,0-10-4.5-10-10V251c0-5.5,4.5-10,10-10h88c5.5,0,10,4.5,10,10V591z"/>
			</g>
			
				<line display="inline" fill="none" stroke="#000000" stroke-width="4" stroke-miterlimit="10" x1="380.5" y1="239" x2="380.5" y2="599"/>
			<g display="inline">
				<path fill="none" stroke="#000000" stroke-width="4" stroke-miterlimit="10" d="M380.5,599h350c5.5,0,10-4.5,10-10V249
					c0-5.5-4.5-10-10-10h-350"/>
			</g>
			
				<line display="inline" fill="none" stroke="#000000" stroke-width="4" stroke-miterlimit="10" x1="389.5" y1="275" x2="722.5" y2="275"/>
			<polyline display="inline" fill="none" stroke="#000000" stroke-width="4" stroke-miterlimit="10" points="398.5,266 389.5,257 
				398.5,248 			"/>
			
				<rect x="497.5" y="248" display="inline" fill="none" stroke="#000000" stroke-width="4" stroke-miterlimit="10" width="18" height="18"/>
			
				<line display="inline" fill="none" stroke="#000000" stroke-width="4" stroke-miterlimit="10" x1="524.5" y1="257" x2="605.5" y2="257"/>
			<polyline display="inline" fill="none" stroke="#000000" stroke-width="4" stroke-miterlimit="10" points="407.5,311 407.5,383 
				515.5,383 			"/>
			<polyline display="inline" fill="none" stroke="#000000" stroke-width="4" stroke-miterlimit="10" points="407.5,401 407.5,473 
				515.5,473 			"/>
			<polyline display="inline" fill="none" stroke="#000000" stroke-width="4" stroke-miterlimit="10" points="407.5,491 407.5,563 
				515.5,563 			"/>
			<polyline display="inline" fill="none" stroke="#000000" stroke-width="4" stroke-miterlimit="10" points="587.5,311 587.5,383 
				695.5,383 			"/>
			<polyline display="inline" fill="none" stroke="#000000" stroke-width="4" stroke-miterlimit="10" points="587.5,401 587.5,473 
				695.5,473 			"/>
			<polyline display="inline" fill="none" stroke="#000000" stroke-width="4" stroke-miterlimit="10" points="587.5,491 587.5,563 
				695.5,563 			"/>
			
				<line display="inline" fill="none" stroke="#000000" stroke-width="4" stroke-miterlimit="10" x1="272.5" y1="275" x2="362.5" y2="275"/>
			<circle display="inline" fill="none" stroke="#000000" stroke-width="4" stroke-miterlimit="10" cx="317.5" cy="257" r="9"/>
			
				<line display="inline" fill="none" stroke="#000000" stroke-width="4" stroke-miterlimit="10" x1="272.5" y1="554" x2="362.5" y2="554"/>
			
				<line display="inline" fill="none" stroke="#000000" stroke-width="4" stroke-miterlimit="10" x1="371.5" y1="248" x2="380.5" y2="248"/>
			<polygon display="inline" fill="none" stroke="#000000" stroke-width="4" stroke-miterlimit="10" points="281.5,338.5 272.5,352 
				286,352 290.5,352 			"/>
			<polygon display="inline" fill="none" stroke="#000000" stroke-width="4" stroke-miterlimit="10" points="281.5,387.5 272.5,401 
				286,401 290.5,401 			"/>
			<polygon display="inline" fill="none" stroke="#000000" stroke-width="4" stroke-miterlimit="10" points="281.5,432.5 272.5,446 
				286,446 290.5,446 			"/>
			
				<line display="inline" fill="none" stroke="#000000" stroke-width="4" stroke-miterlimit="10" x1="299.5" y1="356" x2="335.5" y2="356"/>
			
				<line display="inline" fill="none" stroke="#000000" stroke-width="4" stroke-miterlimit="10" x1="299.5" y1="401" x2="335.5" y2="401"/>
			
				<line display="inline" fill="none" stroke="#000000" stroke-width="4" stroke-miterlimit="10" x1="299.5" y1="446" x2="335.5" y2="446"/>
			
				<line display="inline" fill="none" stroke="#000000" stroke-width="4" stroke-miterlimit="10" x1="371.5" y1="590" x2="380.5" y2="590"/>
			<g display="inline">
				<path d="M436.783,292.559V302h-1.219v-9.441H436.783z"/>
				<path d="M438.911,302v-9.441h1.331l3.025,4.776c0.699,1.105,1.247,2.101,1.694,3.067l0.028-0.014
					c-0.112-1.261-0.14-2.409-0.14-3.88v-3.95h1.147V302h-1.231l-2.998-4.791c-0.659-1.051-1.289-2.129-1.766-3.152l-0.042,0.014
					c0.07,1.19,0.099,2.325,0.099,3.895V302H438.911z"/>
				<path d="M454.72,301.692c-0.448,0.225-1.346,0.448-2.493,0.448c-2.662,0-4.665-1.681-4.665-4.777
					c0-2.956,2.003-4.958,4.931-4.958c1.176,0,1.919,0.252,2.241,0.421l-0.294,0.993c-0.462-0.224-1.121-0.392-1.905-0.392
					c-2.213,0-3.684,1.415-3.684,3.894c0,2.313,1.331,3.797,3.628,3.797c0.742,0,1.499-0.154,1.989-0.394L454.72,301.692z"/>
				<path d="M464.017,297.182c0,3.25-1.976,4.973-4.385,4.973c-2.492,0-4.243-1.933-4.243-4.791c0-2.998,1.862-4.958,4.384-4.958
					C462.35,292.405,464.017,294.38,464.017,297.182z M456.691,297.335c0,2.017,1.092,3.824,3.011,3.824
					c1.934,0,3.026-1.779,3.026-3.923c0-1.877-0.98-3.838-3.013-3.838C457.699,293.399,456.691,295.262,456.691,297.335z"/>
				<path d="M473.551,297.854c-0.069-1.315-0.153-2.898-0.14-4.076h-0.042c-0.322,1.107-0.714,2.283-1.19,3.586l-1.667,4.581h-0.926
					l-1.526-4.496c-0.448-1.33-0.826-2.55-1.093-3.67h-0.027c-0.028,1.178-0.099,2.761-0.183,4.175L466.505,302h-1.163l0.658-9.441
					h1.556l1.61,4.566c0.393,1.163,0.714,2.198,0.952,3.18h0.042c0.238-0.953,0.575-1.989,0.995-3.18l1.681-4.566h1.556l0.588,9.441
					h-1.191L473.551,297.854z"/>
				<path d="M478.069,292.559V302h-1.219v-9.441H478.069z"/>
				<path d="M480.196,302v-9.441h1.331l3.025,4.776c0.699,1.105,1.246,2.101,1.694,3.067l0.028-0.014
					c-0.112-1.261-0.14-2.409-0.14-3.88v-3.95h1.147V302h-1.231l-2.998-4.791c-0.659-1.051-1.289-2.129-1.766-3.152l-0.042,0.014
					c0.07,1.19,0.099,2.325,0.099,3.895V302H480.196z"/>
				<path d="M496.594,301.58c-0.547,0.195-1.625,0.519-2.899,0.519c-1.429,0-2.605-0.364-3.53-1.247
					c-0.813-0.785-1.315-2.045-1.315-3.516c0.014-2.815,1.946-4.875,5.112-4.875c1.093,0,1.947,0.237,2.354,0.434l-0.294,0.995
					c-0.504-0.224-1.135-0.406-2.087-0.406c-2.297,0-3.796,1.43-3.796,3.796c0,2.396,1.442,3.811,3.642,3.811
					c0.798,0,1.345-0.112,1.625-0.252v-2.815h-1.919v-0.979h3.11v4.537H496.594z"/>
			</g>
			<g display="inline">
				<path d="M623.634,297.182c0,3.25-1.976,4.973-4.384,4.973c-2.493,0-4.244-1.933-4.244-4.791c0-2.998,1.862-4.958,4.384-4.958
					C621.967,292.405,623.634,294.38,623.634,297.182z M616.307,297.335c0,2.017,1.092,3.824,3.011,3.824
					c1.934,0,3.026-1.779,3.026-3.923c0-1.877-0.98-3.838-3.013-3.838C617.315,293.399,616.307,295.262,616.307,297.335z"/>
				<path d="M626.429,292.559v5.589c0,2.115,0.938,3.013,2.199,3.013c1.4,0,2.297-0.926,2.297-3.013v-5.589h1.231v5.505
					c0,2.899-1.526,4.09-3.571,4.09c-1.934,0-3.391-1.106-3.391-4.033v-5.562H626.429z"/>
				<path d="M636.061,293.596h-2.872v-1.037h6.99v1.037h-2.885V302h-1.233V293.596L636.061,293.596z"/>
				<path d="M648.034,301.58c-0.546,0.195-1.625,0.519-2.898,0.519c-1.429,0-2.605-0.364-3.53-1.247
					c-0.813-0.785-1.316-2.045-1.316-3.516c0.015-2.815,1.947-4.875,5.113-4.875c1.092,0,1.947,0.237,2.354,0.434l-0.294,0.995
					c-0.505-0.224-1.136-0.406-2.087-0.406c-2.298,0-3.797,1.43-3.797,3.796c0,2.396,1.443,3.811,3.643,3.811
					c0.798,0,1.345-0.112,1.625-0.252v-2.815h-1.919v-0.979h3.109v4.537H648.034z"/>
				<path d="M657.961,297.182c0,3.25-1.976,4.973-4.385,4.973c-2.492,0-4.244-1.933-4.244-4.791c0-2.998,1.863-4.958,4.385-4.958
					C656.293,292.405,657.961,294.38,657.961,297.182z M650.635,297.335c0,2.017,1.092,3.824,3.012,3.824
					c1.933,0,3.025-1.779,3.025-3.923c0-1.877-0.98-3.838-3.013-3.838C651.643,293.399,650.635,295.262,650.635,297.335z"/>
				<path d="M660.758,292.559V302h-1.22v-9.441H660.758z"/>
				<path d="M662.885,302v-9.441h1.331l3.024,4.776c0.7,1.105,1.247,2.101,1.695,3.067l0.028-0.014
					c-0.112-1.261-0.141-2.409-0.141-3.88v-3.95h1.148V302h-1.232l-2.998-4.791c-0.659-1.051-1.289-2.129-1.765-3.152l-0.042,0.014
					c0.07,1.19,0.098,2.325,0.098,3.895V302H662.885z"/>
				<path d="M679.282,301.58c-0.546,0.195-1.625,0.519-2.898,0.519c-1.43,0-2.605-0.364-3.53-1.247
					c-0.813-0.785-1.316-2.045-1.316-3.516c0.015-2.815,1.947-4.875,5.113-4.875c1.092,0,1.947,0.237,2.354,0.434l-0.295,0.995
					c-0.504-0.224-1.135-0.406-2.087-0.406c-2.297,0-3.796,1.43-3.796,3.796c0,2.396,1.443,3.811,3.643,3.811
					c0.798,0,1.345-0.112,1.625-0.252v-2.815h-1.919v-0.979h3.109v4.537H679.282z"/>
			</g>
		</g>
		<g id="Mobile">
			<path display="inline" fill="none" stroke="#000000" stroke-width="4" stroke-miterlimit="10" d="M1127.5,588
				c0,6.627-5.373,12-12,12h-201c-6.627,0-12-5.373-12-12V252c0-6.627,5.373-12,12-12h201c6.627,0,12,5.373,12,12V588z"/>
			
				<line display="inline" fill="none" stroke="#000000" stroke-width="4" stroke-miterlimit="10" x1="920.5" y1="293" x2="1100.5" y2="293"/>
			<circle display="inline" fill="none" stroke="#000000" stroke-width="4" stroke-miterlimit="10" cx="1010.5" cy="266" r="18"/>
			
				<line display="inline" fill="none" stroke="#000000" stroke-width="4" stroke-miterlimit="10" x1="921.5" y1="563" x2="1101.5" y2="563"/>
			<polyline display="inline" fill="none" stroke="#000000" stroke-width="4" stroke-miterlimit="10" points="966.5,329 966.5,401 
				1074.5,401 			"/>
			<polyline display="inline" fill="none" stroke="#000000" stroke-width="4" stroke-miterlimit="10" points="966.5,455 966.5,527 
				1074.5,527 			"/>
			<g display="inline">
				<path d="M984.719,302.154v9.441h-1.22v-9.441H984.719z"/>
				<path d="M986.846,311.595v-9.441h1.332l3.024,4.776c0.699,1.106,1.246,2.101,1.694,3.068l0.028-0.015
					c-0.112-1.261-0.142-2.408-0.142-3.88v-3.95h1.148v9.441H992.7l-2.997-4.791c-0.658-1.051-1.289-2.129-1.765-3.152l-0.043,0.015
					c0.07,1.189,0.099,2.325,0.099,3.894v4.034L986.846,311.595L986.846,311.595z"/>
				<path d="M1002.655,311.287c-0.448,0.224-1.345,0.447-2.493,0.447c-2.661,0-4.664-1.681-4.664-4.776
					c0-2.956,2.003-4.958,4.931-4.958c1.177,0,1.92,0.252,2.242,0.42l-0.295,0.994c-0.462-0.225-1.121-0.393-1.904-0.393
					c-2.214,0-3.686,1.415-3.686,3.895c0,2.312,1.331,3.796,3.628,3.796c0.742,0,1.5-0.154,1.989-0.394L1002.655,311.287z"/>
				<path d="M1011.952,306.777c0,3.25-1.976,4.974-4.384,4.974c-2.494,0-4.244-1.934-4.244-4.791c0-2.998,1.862-4.958,4.385-4.958
					C1010.285,302,1011.952,303.975,1011.952,306.777z M1004.628,306.931c0,2.017,1.092,3.824,3.011,3.824
					c1.933,0,3.025-1.779,3.025-3.922c0-1.877-0.979-3.838-3.012-3.838C1005.635,302.995,1004.628,304.857,1004.628,306.931z"/>
				<path d="M1021.486,307.448c-0.07-1.315-0.154-2.898-0.141-4.075h-0.041c-0.322,1.106-0.715,2.282-1.191,3.586l-1.666,4.581
					h-0.926l-1.526-4.496c-0.447-1.331-0.825-2.55-1.093-3.67h-0.027c-0.027,1.177-0.099,2.76-0.183,4.174l-0.252,4.048h-1.163
					l0.658-9.441h1.556l1.61,4.566c0.393,1.163,0.715,2.199,0.953,3.18h0.041c0.238-0.953,0.575-1.988,0.995-3.18l1.681-4.566h1.555
					l0.59,9.441h-1.19L1021.486,307.448z"/>
				<path d="M1026.005,302.154v9.441h-1.22v-9.441H1026.005z"/>
				<path d="M1028.132,311.595v-9.441h1.331l3.025,4.776c0.699,1.106,1.246,2.101,1.694,3.068l0.028-0.015
					c-0.112-1.261-0.142-2.408-0.142-3.88v-3.95h1.148v9.441h-1.232l-2.997-4.791c-0.659-1.051-1.289-2.129-1.765-3.152
					l-0.043,0.015c0.069,1.189,0.099,2.325,0.099,3.894v4.034L1028.132,311.595L1028.132,311.595z"/>
				<path d="M1044.529,311.175c-0.547,0.196-1.625,0.519-2.898,0.519c-1.43,0-2.605-0.363-3.53-1.247
					c-0.813-0.784-1.316-2.045-1.316-3.516c0.015-2.815,1.947-4.875,5.113-4.875c1.092,0,1.946,0.238,2.353,0.434l-0.293,0.995
					c-0.505-0.224-1.136-0.405-2.089-0.405c-2.297,0-3.795,1.429-3.795,3.796c0,2.396,1.442,3.81,3.643,3.81
					c0.798,0,1.345-0.112,1.625-0.252v-2.814h-1.919v-0.98h3.108L1044.529,311.175L1044.529,311.175z"/>
			</g>
			<g display="inline">
				<path d="M991.852,450.027c0,3.25-1.976,4.974-4.385,4.974c-2.493,0-4.244-1.934-4.244-4.791c0-2.998,1.862-4.958,4.385-4.958
					C990.184,445.25,991.852,447.226,991.852,450.027z M984.525,450.181c0,2.017,1.092,3.824,3.012,3.824
					c1.934,0,3.025-1.779,3.025-3.923c0-1.877-0.979-3.838-3.012-3.838C985.533,446.244,984.525,448.108,984.525,450.181z"/>
				<path d="M994.647,445.405v5.589c0,2.115,0.938,3.013,2.199,3.013c1.4,0,2.298-0.926,2.298-3.013v-5.589h1.231v5.505
					c0,2.899-1.526,4.091-3.571,4.091c-1.935,0-3.391-1.107-3.391-4.034v-5.562H994.647z"/>
				<path d="M1004.279,446.441h-2.871v-1.037h6.989v1.037h-2.886v8.404h-1.232V446.441L1004.279,446.441z"/>
				<path d="M1016.253,454.425c-0.547,0.195-1.625,0.519-2.898,0.519c-1.43,0-2.604-0.364-3.531-1.247
					c-0.813-0.785-1.315-2.045-1.315-3.516c0.014-2.815,1.946-4.875,5.112-4.875c1.093,0,1.947,0.238,2.354,0.434l-0.295,0.995
					c-0.504-0.224-1.135-0.406-2.087-0.406c-2.297,0-3.796,1.43-3.796,3.797c0,2.396,1.442,3.81,3.643,3.81
					c0.798,0,1.344-0.112,1.625-0.252v-2.815h-1.92v-0.979h3.109L1016.253,454.425L1016.253,454.425z"/>
				<path d="M1026.179,450.027c0,3.25-1.977,4.974-4.384,4.974c-2.494,0-4.244-1.934-4.244-4.791c0-2.998,1.861-4.958,4.384-4.958
					C1024.512,445.25,1026.179,447.226,1026.179,450.027z M1018.854,450.181c0,2.017,1.092,3.824,3.012,3.824
					c1.933,0,3.025-1.779,3.025-3.923c0-1.877-0.98-3.838-3.012-3.838C1019.861,446.244,1018.854,448.108,1018.854,450.181z"/>
				<path d="M1028.975,445.405v9.441h-1.219v-9.441H1028.975z"/>
				<path d="M1031.103,454.846v-9.441h1.331l3.024,4.776c0.7,1.105,1.246,2.101,1.695,3.067l0.027-0.014
					c-0.111-1.261-0.141-2.409-0.141-3.88v-3.95h1.148v9.441h-1.232l-2.996-4.791c-0.659-1.051-1.289-2.129-1.767-3.152
					l-0.042,0.014c0.069,1.19,0.1,2.325,0.1,3.895v4.034L1031.103,454.846L1031.103,454.846z"/>
				<path d="M1047.5,454.425c-0.547,0.195-1.625,0.519-2.898,0.519c-1.429,0-2.605-0.364-3.53-1.247
					c-0.813-0.785-1.315-2.045-1.315-3.516c0.014-2.815,1.946-4.875,5.112-4.875c1.093,0,1.946,0.238,2.354,0.434l-0.294,0.995
					c-0.504-0.224-1.135-0.406-2.088-0.406c-2.297,0-3.795,1.43-3.795,3.797c0,2.396,1.441,3.81,3.642,3.81
					c0.798,0,1.345-0.112,1.624-0.252v-2.815h-1.918v-0.979h3.107V454.425z"/>
			</g>
			
				<line display="inline" fill="none" stroke="#000000" stroke-width="4" stroke-miterlimit="10" x1="1082.5" y1="258" x2="1109.5" y2="258"/>
			
				<line display="inline" fill="none" stroke="#000000" stroke-width="4" stroke-miterlimit="10" x1="1082.5" y1="266" x2="1109.5" y2="266"/>
			
				<line display="inline" fill="none" stroke="#000000" stroke-width="4" stroke-miterlimit="10" x1="1082.5" y1="275" x2="1109.5" y2="275"/>
		</g>
		<polyline display="inline" fill="none" stroke="#FFFFFF" stroke-width="4" stroke-miterlimit="10" points="416.5,320 416.5,374 
			497.5,374 		"/>
		<polyline display="inline" fill="none" stroke="#FFFFFF" stroke-width="4" stroke-miterlimit="10" points="416.5,410 416.5,464 
			497.5,464 		"/>
		<polyline display="inline" fill="none" stroke="#FFFFFF" stroke-width="4" stroke-miterlimit="10" points="416.5,500 416.5,554 
			497.5,554 		"/>
		<polyline display="inline" fill="none" stroke="#FFFFFF" stroke-width="4" stroke-miterlimit="10" points="596.5,320 596.5,374 
			677.5,374 		"/>
		<polyline display="inline" fill="none" stroke="#FFFFFF" stroke-width="4" stroke-miterlimit="10" points="596.5,410 596.5,464 
			677.5,464 		"/>
		<polyline display="inline" fill="none" stroke="#FFFFFF" stroke-width="4" stroke-miterlimit="10" points="596.5,500 596.5,554 
			677.5,554 		"/>
		<polyline display="inline" fill="none" stroke="#FFFFFF" stroke-width="4" stroke-miterlimit="10" points="596.5,320 596.5,374 
			677.5,374 		"/>
		<polyline display="inline" fill="none" stroke="#FFFFFF" stroke-width="4" stroke-miterlimit="10" points="974.5,338 974.5,392 
			1055.5,392 		"/>
		<polyline display="inline" fill="none" stroke="#FFFFFF" stroke-width="4" stroke-miterlimit="10" points="974.5,464 974.5,518 
			1055.5,518 		"/>
	</g>
	<path display="inline" fill="none" stroke="#000000" stroke-width="7" stroke-miterlimit="10" d="M792.5,619.5
		c0,6.627-5.373,12-12,12h-552c-6.627,0-12-5.373-12-12v-408c0-6.627,5.373-12,12-12h552c6.627,0,12,5.373,12,12V619.5z"/>
	<path display="inline" fill="none" stroke="#000000" stroke-width="7" stroke-miterlimit="10" d="M216.5,631.5v216c0,0,0,18,18,18
		h540c18,0,18-18,18-18v-216"/>
	<polygon display="inline" fill="none" stroke="#000000" stroke-width="7" stroke-miterlimit="10" points="558.5,703.5 558.5,721.5 
		666.5,721.5 684.5,739.5 738.5,739.5 738.5,703.5 	"/>
	<rect x="234.5" y="298.5" fill="none" stroke="#000000" stroke-width="7" stroke-miterlimit="10" width="540" height="396"/>
	<g display="inline">
		<path d="M319.969,783.817c0.058-1.338,0.048-2.65-0.038-3.922c-0.307-5.7-1.887-9.455-3.228-11.664v-11.49
			c0-0.613-0.498-1.11-1.11-1.11h-7.688c-0.572,0-1.049,0.435-1.105,1.004l-0.888,9.249c-1.676,1.771-3.15,4.403-4.842,7.426
			c-0.518,0.927-1.055,1.884-1.618,2.854c-0.003,0.006-0.006,0.011-0.009,0.017c-4.228,7.577-8.86,13.671-14.166,18.633
			c-5.283,4.986-11.653,9.23-19.473,12.976c-0.553,0.265-0.787,0.928-0.522,1.48c0.191,0.398,0.588,0.631,1.002,0.631
			c0.161,0,0.324-0.035,0.479-0.109c8.031-3.846,14.586-8.217,20.035-13.36c5.47-5.115,10.239-11.383,14.58-19.16
			c0.57-0.982,1.109-1.945,1.63-2.877c1.553-2.774,2.914-5.202,4.331-6.781l7.54,1.899c1.611,2.717,2.616,6.424,2.837,10.518
			c0.614,9.145-2.771,23.539-14.337,34.015c-0.01,0.01-0.019,0.019-0.029,0.028c-9.528,9.286-21.529,12.461-30.503,12.461
			c-1.55,0-3.011-0.096-4.352-0.27c-4.618-0.538-10.449-2.391-12.966-5.975c-0.632-0.899-0.896-1.754-0.744-2.404
			c0.003-0.015,0.007-0.029,0.009-0.045c0.428-2.239,3.612-3.97,7.119-5.691c0.55-0.27,0.778-0.936,0.507-1.485
			c-0.27-0.551-0.935-0.777-1.485-0.508c-4.177,2.05-7.685,4.01-8.317,7.246c-0.293,1.288,0.084,2.728,1.094,4.164
			c1.138,1.62,2.985,3.105,5.341,4.292c2.639,1.33,5.729,2.209,9.17,2.61c1.506,0.195,3.074,0.292,4.679,0.292
			c4.27,0,8.807-0.685,13.162-2.012c7.091-2.159,13.599-5.987,18.821-11.072c5.398-4.895,9.624-11.151,12.22-18.095
			c1.681-4.495,2.66-9.233,2.861-13.691C319.968,783.865,319.969,783.84,319.969,783.817z M308.915,757.85h5.568v9.271l-6.307-1.588
			L308.915,757.85z"/>
		<path d="M297.304,807.718c-5.996,5.505-13.498,9.591-22.297,12.144c-0.589,0.17-0.928,0.787-0.757,1.375
			c0.141,0.485,0.584,0.801,1.066,0.801c0.103,0,0.207-0.014,0.31-0.044c9.13-2.649,16.928-6.901,23.18-12.64
			c4.915-4.512,8.865-9.922,11.741-16.08c0.259-0.555,0.019-1.216-0.536-1.475c-0.556-0.26-1.216-0.02-1.476,0.536
			C305.783,798.229,302.004,803.405,297.304,807.718z"/>
		<path d="M311.01,789.373c0.124,0.044,0.25,0.065,0.375,0.065c0.455,0,0.882-0.282,1.045-0.735
			c0.787-2.189,1.432-4.428,1.916-6.651c0.13-0.599-0.25-1.19-0.849-1.321c-0.598-0.13-1.19,0.25-1.32,0.849
			c-0.464,2.13-1.082,4.274-1.836,6.373C310.133,788.531,310.433,789.165,311.01,789.373z"/>
		<path d="M302.74,779.683c0.539,0.839,1.879,0.52,2.021-0.452c0.144-0.981-1.031-1.65-1.802-1.021
			C302.523,778.565,302.425,779.218,302.74,779.683z"/>
		<path d="M307.266,778.677c0.172,0.408,0.579,0.686,1.025,0.686c0.494-0.001,0.938-0.338,1.069-0.813
			c0.119-0.433-0.038-0.91-0.399-1.181c-0.373-0.28-0.888-0.297-1.278-0.043C307.239,777.615,307.071,778.189,307.266,778.677z"/>
		<path d="M306.955,780.79c-0.642-0.642-1.771-0.249-1.886,0.647c-0.06,0.473,0.203,0.946,0.636,1.145
			c0.435,0.199,0.966,0.094,1.287-0.262C307.384,781.888,307.368,781.203,306.955,780.79z"/>
		<path d="M262.759,816.885c0.714,0.714,1.977,0.131,1.892-0.877c-0.04-0.468-0.38-0.867-0.834-0.983
			c-0.446-0.114-0.93,0.069-1.189,0.45C262.332,815.908,262.387,816.512,262.759,816.885z"/>
		<path d="M266.252,812.281c-0.502,0.104-0.881,0.544-0.892,1.06c-0.01,0.453,0.264,0.881,0.685,1.054
			c0.915,0.374,1.848-0.594,1.431-1.492C267.263,812.445,266.747,812.18,266.252,812.281z"/>
		<path d="M266.977,815.847c-0.912,0.365-0.883,1.712,0.025,2.06c0.447,0.171,0.975,0.031,1.271-0.348
			c0.28-0.36,0.315-0.863,0.082-1.256C268.079,815.838,267.478,815.636,266.977,815.847z"/>
	</g>
	<path display="inline" fill="none" stroke="#000000" stroke-width="3" stroke-miterlimit="10" d="M324.5,817.5
		c0,6.627-5.373,12-12,12h-48c-6.627,0-12-5.373-12-12v-48c0-6.627,5.373-12,12-12h48c6.627,0,12,5.373,12,12V817.5z"/>
	<g display="inline">
		<path fill="none" stroke="#000000" stroke-width="7" stroke-miterlimit="10" d="M216.5,199.5l206.299-51.575
			c5.335-1.334,14.201-2.425,19.701-2.425h412c5.5,0,10,4.5,10,10v628c0,5.5-3.182,13.182-7.071,17.071L792.5,865.5"/>
	</g>
	
		<line display="inline" fill="none" stroke="#000000" stroke-width="7" stroke-miterlimit="10" x1="792.5" y1="199.5" x2="864.5" y2="145.5"/>
	<path display="inline" fill="none" stroke="#000000" stroke-width="7" stroke-miterlimit="10" d="M720.5,574.5
		c0,6.627-5.373,12-12,12h-426c-6.627,0-12-5.373-12-12v-318c0-6.627,5.373-12,12-12h426c6.627,0,12,5.373,12,12V574.5z"/>
	
		<rect x="270.5" y="415.5" display="inline" fill="none" stroke="#000000" stroke-width="3" stroke-miterlimit="10" width="450" height="72"/>
	<g id="belt" display="inline">
		<line fill="none" stroke="#000000" stroke-width="3" stroke-miterlimit="10" x1="351.5" y1="424.5" x2="315.5" y2="469.5"/>
		<line fill="none" stroke="#000000" stroke-width="3" stroke-miterlimit="10" x1="378.5" y1="424.5" x2="342.5" y2="469.5"/>
		<line fill="none" stroke="#000000" stroke-width="3" stroke-miterlimit="10" x1="405.5" y1="424.5" x2="369.5" y2="469.5"/>
		<line fill="none" stroke="#000000" stroke-width="3" stroke-miterlimit="10" x1="432.5" y1="424.5" x2="396.5" y2="469.5"/>
		<line fill="none" stroke="#000000" stroke-width="3" stroke-miterlimit="10" x1="459.5" y1="424.5" x2="423.5" y2="469.5"/>
		<line fill="none" stroke="#000000" stroke-width="3" stroke-miterlimit="10" x1="486.5" y1="424.5" x2="450.5" y2="469.5"/>
		<line fill="none" stroke="#000000" stroke-width="3" stroke-miterlimit="10" x1="513.5" y1="424.5" x2="477.5" y2="469.5"/>
		<line fill="none" stroke="#000000" stroke-width="3" stroke-miterlimit="10" x1="540.5" y1="424.5" x2="504.5" y2="469.5"/>
		<line fill="none" stroke="#000000" stroke-width="3" stroke-miterlimit="10" x1="567.5" y1="424.5" x2="531.5" y2="469.5"/>
		<line fill="none" stroke="#000000" stroke-width="3" stroke-miterlimit="10" x1="594.5" y1="424.5" x2="558.5" y2="469.5"/>
		<line fill="none" stroke="#000000" stroke-width="3" stroke-miterlimit="10" x1="621.5" y1="424.5" x2="585.5" y2="469.5"/>
		<line fill="none" stroke="#000000" stroke-width="3" stroke-miterlimit="10" x1="648.5" y1="424.5" x2="612.5" y2="469.5"/>
		<line fill="none" stroke="#000000" stroke-width="3" stroke-miterlimit="10" x1="675.5" y1="424.5" x2="639.5" y2="469.5"/>
		<line fill="none" stroke="#000000" stroke-width="3" stroke-miterlimit="10" x1="702.5" y1="424.5" x2="666.5" y2="469.5"/>
		<line fill="none" stroke="#000000" stroke-width="3" stroke-miterlimit="10" x1="324.5" y1="424.5" x2="288.5" y2="469.5"/>
		<line fill="none" stroke="#000000" stroke-width="3" stroke-miterlimit="10" x1="297.5" y1="424.5" x2="270.5" y2="460.5"/>
		<line fill="none" stroke="#000000" stroke-width="3" stroke-miterlimit="10" x1="720.5" y1="433.5" x2="693.5" y2="469.5"/>
	</g>
	
		<rect x="576.5" y="388.5" display="inline" fill="#FFFFFF" stroke="#000000" stroke-width="3" stroke-miterlimit="10" width="72" height="72"/>
	
		<rect x="468.5" y="388.5" display="inline" fill="#FFFFFF" stroke="#000000" stroke-width="3" stroke-miterlimit="10" width="72" height="72"/>
	
		<rect x="360.5" y="388.5" display="inline" fill="#FFFFFF" stroke="#000000" stroke-width="3" stroke-miterlimit="10" width="72" height="72"/>
	<circle display="inline" fill="#FFFFFF" stroke="#000000" stroke-width="3" stroke-miterlimit="10" cx="288.5" cy="496.5" r="9"/>
	<circle display="inline" fill="#FFFFFF" stroke="#000000" stroke-width="3" stroke-miterlimit="10" cx="702.5" cy="496.5" r="9"/>
	
		<line display="inline" fill="#FFFFFF" stroke="#000000" stroke-width="3" stroke-miterlimit="10" x1="270.5" y1="505.5" x2="720.5" y2="505.5"/>
	
		<line display="inline" fill="none" stroke="#000000" stroke-width="5" stroke-miterlimit="10" x1="0.5" y1="883.5" x2="1000" y2="883.5"/>
	
		<line display="inline" fill="none" stroke="#000000" stroke-width="5" stroke-miterlimit="10" x1="0" y1="640.5" x2="216.5" y2="640.5"/>
	
		<line display="inline" fill="none" stroke="#000000" stroke-width="5" stroke-miterlimit="10" x1="864.5" y1="640.5" x2="1081" y2="640.5"/>
	<path display="inline" fill="none" stroke="#000000" stroke-width="5" stroke-miterlimit="10" d="M-575.5,460.5"/>
	<g display="inline">
		<path fill="none" stroke="#000000" stroke-width="5" stroke-miterlimit="10" d="M162.5,774.5c0,5.5-4.5,10-10,10h-70
			c-5.5,0-10-4.5-10-10v-70c0-5.5,4.5-10,10-10h70c5.5,0,10,4.5,10,10V774.5z"/>
	</g>
	<g display="inline">
		<path fill="none" stroke="#000000" stroke-width="5" stroke-miterlimit="10" d="M72.5,712.5h-17c-5.5,0-10,4.5-10,10v34
			c0,5.5,4.5,10,10,10h17"/>
	</g>
	
		<line display="inline" fill="#FFFFFF" stroke="#FFFFFF" stroke-width="5" stroke-miterlimit="10" x1="144.5" y1="712.5" x2="144.5" y2="766.5"/>
	<g display="inline">
		<path fill="none" stroke="#000000" stroke-width="5" stroke-miterlimit="10" d="M81.5,676.5c0,0,4.05-4.05,9-9
			s2.56-12.22-5.311-16.155l-7.378-3.689c-7.871-3.936-9.22-12.246-2.998-18.469L99.5,604.5"/>
	</g>
	<g display="inline">
		<path fill="none" stroke="#000000" stroke-width="5" stroke-miterlimit="10" d="M108.5,676.5c0,0,4.05-4.05,9-9
			s2.56-12.22-5.311-16.155l-7.378-3.689c-7.871-3.936-9.22-12.246-2.998-18.469L126.5,604.5"/>
	</g>
	<g display="inline">
		<path fill="none" stroke="#000000" stroke-width="5" stroke-miterlimit="10" d="M135.5,676.5c0,0,4.05-4.05,9-9
			s2.56-12.22-5.311-16.155l-7.378-3.689c-7.871-3.936-9.22-12.246-2.998-18.469L153.5,604.5"/>
	</g>
</g>
<g id="Layer_2">
	<circle fill="#FFFFFF" stroke="#000000" stroke-width="41" stroke-miterlimit="10" cx="504.5" cy="505.5" r="333.004"/>
	<g display="none">
		<path display="inline" fill="none" stroke="#000000" stroke-width="5" stroke-miterlimit="10" d="M144.5,280.5l-60.687,60.687
			c-6.222,6.222-6.222,16.405,0,22.627l49.373,49.373c6.222,6.222,16.405,16.405,22.627,22.627l49.373,49.373
			c6.222,6.222,16.405,6.222,22.627,0L288.5,424.5"/>
	</g>
	
		<line fill="none" stroke="#000000" stroke-width="18" stroke-miterlimit="10" x1="303.44" y1="693.993" x2="705.559" y2="693.993"/>
	<g>
		<path fill="none" stroke="#000000" stroke-width="18" stroke-miterlimit="10" d="M303.44,492.934l189.019,165.391
			c6.623,5.795,17.46,5.795,24.082,0l189.019-165.391"/>
	</g>
	<line fill="none" stroke="#000000" stroke-width="18" stroke-miterlimit="10" x1="504.5" y1="593.463" x2="504.5" y2="298.157"/>
	<path fill="none" stroke="#000000" stroke-width="41" stroke-miterlimit="10" d="M245.831,715.221L763.168,295.78L245.831,715.221z
		"/>
</g>
<g id="Layer_3">
	<path display="none" fill="none" stroke="#000000" stroke-width="18" stroke-miterlimit="10" d="M72.5,280.5c0,0,99-162,216,0"/>
	<path fill="none" stroke="#000000" stroke-width="18" stroke-miterlimit="10" d="M234.5,280.5"/>
	<path display="none" fill="none" stroke="#000000" stroke-width="18" stroke-miterlimit="10" d="M216.5,280.5c0,0,81-153,180-36"/>
</g>
</svg>
