<?xml version="1.0" encoding="utf-8"?>
<!-- Generator: Adobe Illustrator 23.1.0, SVG Export Plug-In . SVG Version: 6.00 Build 0)  -->
<svg version="1.1" id="Layer_1" xmlns="http://www.w3.org/2000/svg" xmlns:xlink="http://www.w3.org/1999/xlink" x="0px" y="0px"
	 viewBox="0 0 136.6 274.7" style="enable-background:new 0 0 136.6 274.7;" xml:space="preserve">
<style type="text/css">
	.st0{fill:#FFFFFF;}
</style>
<g>
	<g>
		<path class="st0" d="M70.7,1.2c4.1,1.4,3.9,13-0.7,35c0.3,6.4,3.7,10.6,10.1,12.7l4.1,2c9.4,3.1,20.2-0.1,32.3-9.7l1.4-2.2
			l0.4-1.2l1.4-16.5c0.7-2,1.9-3,3.7-2.9c5.8,1.9,7.8,11.2,5.8,27.7c-1.5,4.6-8.1,9-19.9,13.1C98,61.5,89,61.9,82.4,60.5L81,64.8
			c-5.8,17.6-25.6,26.3-59.3,25.9l-8.2-2C7.9,85,5.9,80.9,7.3,76.6l0.4-1.2c2.3-6.9,10.5-14.8,24.8-23.7l1.4-2.2l0.2-0.6l0.8-6.5
			c1-3.1,10-6.3,26.8-9.4l0.2-0.6c-0.5-5.2,0.2-14.3,2.1-27.1C66.4,1.8,68.6,0.5,70.7,1.2z M20.2,72L19,75.7
			c0.1,1.8,1.3,3.1,3.5,3.9l2.4,0.8c9.5,2.4,23.4,0,41.7-7.3c2.8-1.8,5.3-5.9,7.5-12.5c0.8-2.4-2.5-7.6-9.8-15.4
			c0.1-0.9-0.6-2-2.3-3.5c-12.1-0.3-19.2,2.8-21.3,9.3c-1.6,4.8-7.6,10.8-18.1,17.8L20.2,72z"/>
	</g>
	<g>
		<path class="st0" d="M63.1,83.7c10.8,3,15.5,7,14.1,12c5.2,6.7,7.7,14.1,7.7,21.9c0,8.7-3.4,16.2-10.2,22.6
			c-6.3,4.3-11.7,6.6-16.2,6.9c-3.3,33.5-8.1,50.2-14.4,50.2c-1.8-0.7-2.5-1.9-2.1-3.5c2.4-8.2,4.7-23.2,7.1-45.1v-1.5
			c-3.2-1.3-7.2-4.1-12-8.5c-4.7-5.5-7.1-11.4-7.1-17.7c0-9.8,6.6-20.4,19.8-31.7C53.3,86.1,57.8,84.2,63.1,83.7z M39,121.1
			c0,7.3,4.5,12.7,13.4,16.2h5.7c8.6,0.2,14.4-6,17.3-18.6c0.3-12.1-0.6-19.2-2.9-21.5c-1.2-0.2-2.4-0.8-3.7-1.8
			c-1.2-1-3.9-1.4-7.9-1.2C46.4,103.9,39,112.8,39,121.1z"/>
	</g>
	<g>
		<path class="st0" d="M54.2,168.8c32.7,5.7,49,13.1,49,22.1v3.2c0,13.1,3.7,25.7,11,37.9v0.8c0,5.6-4.5,10.6-13.4,15
			c-14.7,9.5-22.1,16.9-22.1,22.1l-3.2,2.4h-0.8l-3.2-3.2v-3.2c0-5.8,11.3-16.4,33.9-31.6l0.8-3.9l-9.5-22.1H84.8
			c-11.6,0-17.4,3.4-17.4,10.2c-3.4,16.8-9,25.3-16.6,25.3c-2.2,0-5.1,6.6-8.7,19.7c-4.1,2.8-6.4,1.7-7-3.2l3.1-18.2
			c0-2.7-4.7-12.5-14.2-29.2l-1.6-9.5C35.9,180.4,46.4,168.8,54.2,168.8z M32.8,206.7c7.9,19.5,13,29.2,15,29.2h2.4
			c4.6,0,7.8-6.3,9.5-18.9c1.8-10.5,7-15.8,15.8-15.8c13.7,0,20.5-0.5,20.5-1.5l0.8-3.9c0-7.3-10.5-12.3-31.6-15l-4-1.6h-7.1
			c-6.3,0-13.4,8.4-21.3,25.3C32.8,204.5,32.8,206.7,32.8,206.7z"/>
	</g>
</g>
</svg>
