<?xml version="1.0" encoding="utf-8"?>
<!-- Generator: Adobe Illustrator 16.0.0, SVG Export Plug-In . SVG Version: 6.00 Build 0)  -->
<!DOCTYPE svg PUBLIC "-//W3C//DTD SVG 1.1//EN" "http://www.w3.org/Graphics/SVG/1.1/DTD/svg11.dtd">
<svg version="1.1" id="Layer_1" xmlns="http://www.w3.org/2000/svg" xmlns:xlink="http://www.w3.org/1999/xlink" x="0px" y="0px"
	  viewBox="0 0 1000 1000" style="enable-background:new 0 0 1000 1000;" xml:space="preserve">
<style type="text/css">
<![CDATA[
	.st0{fill:none;stroke:#000000;stroke-width:5;stroke-miterlimit:10;}
	.st1{display:none;fill:none;stroke:#000000;stroke-miterlimit:10;}
	.st2{fill:none;stroke:#000000;stroke-width:8;stroke-miterlimit:10;}
	.st3{display:inline;fill:none;stroke:#000000;stroke-width:6;stroke-miterlimit:10;}
	.st4{display:none;}
	.st5{fill:none;stroke:#000000;stroke-width:6;stroke-miterlimit:10;}
]]>
</style>
<circle class="st2" cx="487.238" cy="501.77" r="206.8"/>
<path class="st2" d="M628.827,358.804l-47.426,47.426l-95.473,95.473l63.923,63.922l63.234,63.234
	C613.086,628.859,727.734,513.042,628.827,358.804z"/>
<circle class="st1" cx="503.5" cy="504.5" r="215.5"/>
<path class="st2" d="M581.401,406.23c0,0,75.31,83.214,0.22,189.923l-95.291-94.852L581.401,406.23z"/>
<g>
	<line class="st5" x1="630" y1="506" x2="778" y2="506"/>
	<line class="st5" x1="807" y1="506" x2="862" y2="506"/>
</g>
<g transform="translate(0.000000,1280.000000) scale(0.100000,-0.100000)" class="st4">
	<path class="st3" d="M2987.656,7578.349c-5.127-1.367-16.245-6.328-24.795-11.113c-27.012-14.873-42.573-22.061-51.465-23.604
		c-13.335-2.559-22.402-6.836-33.516-15.723c-12.48-9.922-23.594-24.111-30.435-38.477c-9.063-18.984-27.871-31.465-64.121-42.578
		c-31.46-9.746-48.735-16.25-57.793-21.543c-11.631-7.012-48.223-38.125-86.182-73.008c-42.749-39.502-44.629-43.096-56.255-101.23
		c-10.771-54.551-16.929-70.625-34.712-91.484c-12.31-14.18-18.979-26.152-24.453-43.594c-3.247-10.781-3.931-16.426-3.931-35.918
		c0.171-26.152,3.076-40,13.853-63.086c12.993-27.695,27.871-68.066,38.301-103.789c7.524-25.82,11.113-33.516,25.991-55.586
		c16.24-24.434,54.883-72.148,62.578-77.441c12.656-8.73,25.649-11.465,53.179-11.465c13.511,0,27.017,0.508,30.093,1.191
		c8.208,1.543,27.017-3.75,49.59-13.672c29.58-13.164,31.973-13.848,52.153-13.672c13.335,0,25.303,1.523,46.68,5.801l28.726,5.645
		l8.892-3.594c22.056-9.063,33.345-10.078,65.83-6.152l9.063,1.191l7.524-8.027c4.448-4.961,11.455-16.25,17.783-29.063
		c16.587-33.359,29.58-43.438,60.015-45.488c18.472-1.367,26.68-4.609,38.647-15.742c4.102-3.75,9.575-11.27,12.139-16.582
		c4.106-8.203,4.785-11.445,4.619-23.242c-0.342-19.336-4.106-31.816-19.497-64.297c-17.266-36.25-19.492-44.297-19.492-64.805
		c0-23.262,3.252-31.973,22.573-60.371c28.213-41.543,42.573-75.391,46.338-109.258c4.785-42.227,10.771-151.328,8.892-158.164
		c-4.272-14.883-14.023-28.73-46.167-65.488c-20.176-23.262-26.162-34.883-30.264-59.844c-6.841-41.719-0.688-74.043,29.238-153.047
		c6.836-17.773,13.335-36.758,14.531-41.875c1.372-5.82,2.563-31.309,3.423-67.559c1.538-67.871,0.854-64.805,21.885-113.691
		c22.915-53.008,29.409-80.039,25.82-106.016c-1.025-7.012-1.367-16.582-0.854-21.387c2.222-19.824,19.492-42.227,36.592-47.52
		c5.127-1.719,19.321-2.91,39.497-3.594c42.065-1.543,55.571-3.594,59.165-9.063c6.152-9.238,9.575-9.59,70.786-6.68
		c30.61,1.543,69.937,2.578,87.378,2.402c28.037-0.352,33.34,0.176,46.68,3.594c35.225,9.063,72.842,29.063,118.32,62.91
		c29.932,22.246,50.615,43.945,62.412,65.332c11.807,21.367,22.578,30.078,51.299,41.211c26.68,10.254,40.01,20.332,46.172,34.707
		c3.242,7.52,3.936,13.34,4.951,42.051c1.543,38.477,3.086,44.121,15.732,56.426c19.15,18.652,42.236,30.098,96.445,48.066
		c46.504,15.371,53.35,18.281,63.096,27.344c17.949,16.582,26.504,44.121,33.682,108.574c1.533,14.707,1.533,26.504,0,53.008
		c-4.619,81.563-1.025,124.316,14.023,160.918c8.203,20.332,24.453,39.668,45.654,54.531c5.127,3.77,32.148,23.613,59.844,44.297
		s62.07,44.805,76.094,53.691c54.541,34.199,78.135,53.008,98.145,78.145c16.758,20.859,60.02,92.852,76.602,127.383
		c8.379,17.617,9.404,20.508,8.555,27.695c-2.734,22.578-25.654,42.402-46.855,40.195c-4.443-0.352-15.557-2.227-24.453-3.77
		c-9.746-1.875-24.453-3.086-36.758-3.086c-17.441,0-22.568,0.684-34.199,4.453c-16.416,5.293-28.213,13.34-35.908,24.102
		c-6.67,9.59-9.063,15.566-18.125,47.207c-10.605,37.617-12.656,41.035-39.844,66.504c-20.684,19.336-39.15,52.676-49.922,90.801
		c-2.91,10.098-9.404,25.313-17.1,40.176c-14.707,28.398-19.492,42.246-19.492,56.27c0,25.469-8.896,54.531-28.389,93.691
		c-13.848,27.695-22.227,48.047-26.338,63.613c-1.709,6.66-10.43,31.797-19.316,55.742c-17.441,47.012-33.682,94.727-36.934,108.75
		c-5.303,22.568-28.389,34.199-73.701,37.441c-31.973,2.227-69.59,18.477-138.496,59.336l-33.516,19.844l-66.172,7.344
		c-62.07,7.012-66.348,7.354-70.615,4.785l-4.619-2.91l-10.771,12.324c-20.176,23.076-40.352,36.582-60.537,40.352
		c-12.822,2.393-21.709,7.178-31.113,16.406c-17.1,16.758-20.352,32.5-11.802,57.285c9.233,26.504,9.063,38.135-0.171,48.564
		c-5.127,5.986-5.303,5.986-19.15,5.986c-25.137,0-41.211,2.734-109.604,18.809c-41.895,9.922-67.881,12.139-93.188,8.027
		c-12.144-2.051-15.903-1.699-70.107,5.996c-31.46,4.443-60.361,8.027-64.292,8.027c-9.404,0.176-21.03-3.926-38.643-13.848
		l-14.707-8.203l-11.455,2.559c-15.049,3.594-26.162,7.871-36.25,14.023C3010.4,7580.058,2999.97,7581.601,2987.656,7578.349z"/>
	<path class="st3" d="M2642.431,7362.382c-1.372-1.016-1.543-1.875-0.518-2.559c1.03-0.508,2.397-0.176,2.91,0.859
		C2646.362,7363.066,2645.166,7364.101,2642.431,7362.382z"/>
	<path class="st3" d="M4198.261,5888.105c-21.201-0.684-45.137-1.523-53.516-1.875c-8.203-0.332-14.873,0.176-14.873,0.859
		c0,2.91-3.076,0.176-15.391-14.199c-29.922-34.707-49.414-51.797-70.615-61.719c-10.264-4.785-13.174-5.313-28.906-5.469
		c-15.557-0.352-18.809-0.859-27.529-5.137c-12.822-6.328-24.961-18.477-31.113-30.957c-3.936-8.027-5.137-13.32-5.986-26.66
		c-1.885-26.855-7.52-38.828-33.34-70.977c-26.846-33.34-32.49-45.645-32.49-70.957c0-13.672,0.684-17.598,3.936-24.453
		c5.811-11.621,17.432-22.559,28.555-26.66c12.139-4.629,15.898-4.453,28.721,0.508l10.605,4.277l56.426-2.227l56.426-2.227
		l8.379,4.277c9.912,5.469,18.467,15.039,36.758,42.227c7.695,11.289,23.086,33.184,34.541,48.73
		c27.188,37.109,72.842,106.016,90.117,135.605c17.266,29.59,18.291,33.848,16.758,70.625c-0.518,15.039-1.543,29.746-2.051,32.832
		c-1.035,5.293-1.377,5.469-9.063,5.117C4240.332,5889.648,4219.472,5888.789,4198.261,5888.105z"/>
</g>
<line class="st5" x1="621.059" y1="431.208" x2="818.432" y2="371.856"/>
<line class="st5" x1="621.708" y1="558.377" x2="863.244" y2="688.235"/>
<path class="st2" d="M392.386,312.067c0,0-205.512-150.182-75.091,67.187c0,0,309.944,411.106,403.958,324.118
	c0,0,14.97-31.658-48.264-102.797"/>
<path class="st0" d="M144,144"/>
<g>
	<path class="st5" d="M436.5,423.001c-2.475,4.95-10.546,2.954-17.935-4.435l-18.13-18.13c-7.389-7.389-9.385-17.485-4.435-22.435
		s4.95-15.075,0-22.5s-4.95-15.525,0-18s12.824,3.147,17.497,12.494l1.006,2.012c4.673,9.347,6.472,21.044,3.997,25.994
		s1.546,15.046,8.935,22.435l0.13,0.13C434.954,407.955,438.975,418.05,436.5,423.001z"/>
</g>
<g>
	<path class="st5" d="M450,324.001c4.95-4.95,15.046-2.954,22.435,4.435l36.13,36.13c7.389,7.389,9.385,17.485,4.435,22.435
		s-2.954,15.046,4.436,22.435l18.129,18.13c7.39,7.389,9.386,17.26,4.436,21.935s-15.088,2.497-22.528-4.841l-44.943-44.318
		c-7.441-7.337-9.479-17.391-4.529-22.341s2.954-15.046-4.435-22.435l-9.13-9.13C447.046,339.047,445.05,328.951,450,324.001z"/>
</g>
<path class="st5" d="M864,324.001"/>
<g>
	<path class="st5" d="M327.419,518.38c-6.831-7.909-8.369-18.43-3.419-23.38c4.95-4.95,14.588-2.529,21.419,5.38l146.162,169.24
		c6.831,7.909,8.369,18.43,3.419,23.38s-14.588,2.529-21.419-5.38L327.419,518.38z"/>
</g>
<g>
	<g>
		<path d="M144,151.5c9.673,0,9.673-15,0-15S134.327,151.5,144,151.5L144,151.5z"/>
	</g>
</g>
<g>
	<g>
		<path d="M792,218.501c3.225,0,3.225-5,0-5S788.775,218.501,792,218.501L792,218.501z"/>
	</g>
</g>
</svg>
