<?xml version="1.0" encoding="utf-8"?>
<!-- Generator: Adobe Illustrator 16.0.0, SVG Export Plug-In . SVG Version: 6.00 Build 0)  -->
<!DOCTYPE svg PUBLIC "-//W3C//DTD SVG 1.1//EN" "http://www.w3.org/Graphics/SVG/1.1/DTD/svg11.dtd">
<svg version="1.1" id="Layer_1" xmlns="http://www.w3.org/2000/svg" xmlns:xlink="http://www.w3.org/1999/xlink" x="0px" y="0px"
	  viewBox="0 154.285 1000 687.069" enable-background="new 0 154.285 1000 687.069"
	 xml:space="preserve">
<g id="Computer1_2_" opacity="0.6">
	<path fill="#FFFFFF" stroke="#010101" stroke-width="4" stroke-miterlimit="10" d="M112.06,425.351h289.192
		c0,0,28.921,0.804,28.921-28.116l-29.722-57.838V194.798c0-28.92-28.117-28.116-28.117-28.116H83.14
		c0,0-28.919-1.605-28.919,27.314v144.598l-28.92,57.839c0,0-14.459,28.921,28.92,28.921L112.06,425.351z"/>
	<polygon fill="none" stroke="#010101" stroke-width="3" stroke-miterlimit="10" points="372.335,340.199 83.14,340.199 
		54.221,410.893 401.255,410.893 	"/>
	<g>
		<line fill="none" stroke="#010101" stroke-width="3" stroke-miterlimit="10" x1="83.14" y1="354.659" x2="97.6" y2="354.659"/>
		<line fill="none" stroke="#010101" stroke-width="3" stroke-miterlimit="10" x1="112.06" y1="354.659" x2="126.52" y2="354.659"/>
		
			<line fill="none" stroke="#010101" stroke-width="3" stroke-miterlimit="10" x1="140.979" y1="354.659" x2="155.439" y2="354.659"/>
		
			<line fill="none" stroke="#010101" stroke-width="3" stroke-miterlimit="10" x1="169.898" y1="354.659" x2="184.359" y2="354.659"/>
		
			<line fill="none" stroke="#010101" stroke-width="3" stroke-miterlimit="10" x1="198.817" y1="354.659" x2="213.277" y2="354.659"/>
		
			<line fill="none" stroke="#010101" stroke-width="3" stroke-miterlimit="10" x1="227.737" y1="354.659" x2="242.198" y2="354.659"/>
		
			<line fill="none" stroke="#010101" stroke-width="3" stroke-miterlimit="10" x1="256.658" y1="354.659" x2="271.116" y2="354.659"/>
		
			<line fill="none" stroke="#010101" stroke-width="3" stroke-miterlimit="10" x1="285.576" y1="354.659" x2="300.036" y2="354.659"/>
		
			<line fill="none" stroke="#010101" stroke-width="3" stroke-miterlimit="10" x1="314.496" y1="354.659" x2="328.956" y2="354.659"/>
		
			<line fill="none" stroke="#010101" stroke-width="3" stroke-miterlimit="10" x1="343.417" y1="354.659" x2="357.877" y2="354.659"/>
	</g>
	<g>
		<line fill="none" stroke="#010101" stroke-width="3" stroke-miterlimit="10" x1="83.14" y1="375.545" x2="97.6" y2="375.545"/>
		<line fill="none" stroke="#010101" stroke-width="3" stroke-miterlimit="10" x1="112.06" y1="375.545" x2="126.52" y2="375.545"/>
		
			<line fill="none" stroke="#010101" stroke-width="3" stroke-miterlimit="10" x1="140.979" y1="375.545" x2="155.439" y2="375.545"/>
		
			<line fill="none" stroke="#010101" stroke-width="3" stroke-miterlimit="10" x1="169.898" y1="375.545" x2="184.359" y2="375.545"/>
		
			<line fill="none" stroke="#010101" stroke-width="3" stroke-miterlimit="10" x1="198.817" y1="375.545" x2="213.277" y2="375.545"/>
		
			<line fill="none" stroke="#010101" stroke-width="3" stroke-miterlimit="10" x1="227.737" y1="375.545" x2="242.198" y2="375.545"/>
		
			<line fill="none" stroke="#010101" stroke-width="3" stroke-miterlimit="10" x1="256.658" y1="375.545" x2="271.116" y2="375.545"/>
		
			<line fill="none" stroke="#010101" stroke-width="3" stroke-miterlimit="10" x1="285.576" y1="375.545" x2="300.036" y2="375.545"/>
		
			<line fill="none" stroke="#010101" stroke-width="3" stroke-miterlimit="10" x1="314.496" y1="375.545" x2="328.956" y2="375.545"/>
		
			<line fill="none" stroke="#010101" stroke-width="3" stroke-miterlimit="10" x1="343.417" y1="375.545" x2="357.877" y2="375.545"/>
	</g>
	<g>
		<line fill="none" stroke="#010101" stroke-width="3" stroke-miterlimit="10" x1="81.534" y1="398.038" x2="95.994" y2="398.038"/>
		
			<line fill="none" stroke="#010101" stroke-width="3" stroke-miterlimit="10" x1="110.452" y1="398.038" x2="124.913" y2="398.038"/>
		
			<line fill="none" stroke="#010101" stroke-width="3" stroke-miterlimit="10" x1="139.373" y1="398.038" x2="153.832" y2="398.038"/>
		
			<line fill="none" stroke="#010101" stroke-width="3" stroke-miterlimit="10" x1="168.291" y1="398.038" x2="182.753" y2="398.038"/>
		
			<line fill="none" stroke="#010101" stroke-width="3" stroke-miterlimit="10" x1="197.212" y1="398.038" x2="211.672" y2="398.038"/>
		
			<line fill="none" stroke="#010101" stroke-width="3" stroke-miterlimit="10" x1="226.132" y1="398.038" x2="240.592" y2="398.038"/>
		<line fill="none" stroke="#010101" stroke-width="3" stroke-miterlimit="10" x1="255.05" y1="398.038" x2="269.51" y2="398.038"/>
		
			<line fill="none" stroke="#010101" stroke-width="3" stroke-miterlimit="10" x1="283.969" y1="398.038" x2="298.429" y2="398.038"/>
		
			<line fill="none" stroke="#010101" stroke-width="3" stroke-miterlimit="10" x1="312.889" y1="398.038" x2="327.349" y2="398.038"/>
		
			<line fill="none" stroke="#010101" stroke-width="3" stroke-miterlimit="10" x1="341.81" y1="398.038" x2="356.269" y2="398.038"/>
	</g>
	<g>
		<g>
			<path fill="#010101" d="M83.14,184.357c5.184,0,5.184-8.033,0-8.033C77.959,176.323,77.959,184.357,83.14,184.357L83.14,184.357z
				"/>
		</g>
	</g>
	<g>
		<g>
			<path fill="#010101" d="M97.6,184.357c5.184,0,5.184-8.033,0-8.033C92.419,176.323,92.419,184.357,97.6,184.357L97.6,184.357z"/>
		</g>
	</g>
	<g>
		<g>
			<path fill="#010101" d="M112.06,184.357c5.184,0,5.184-8.033,0-8.033C106.879,176.323,106.879,184.357,112.06,184.357
				L112.06,184.357z"/>
		</g>
	</g>
	<line fill="none" stroke="#010101" stroke-width="3" stroke-miterlimit="10" x1="126.52" y1="181.143" x2="372.335" y2="181.143"/>
	
		<rect x="83.14" y="193.996" fill="none" stroke="#010101" stroke-width="3" stroke-miterlimit="10" width="28.921" height="130.137"/>
	
		<rect x="126.52" y="193.996" fill="#FFFFFF" stroke="#010101" stroke-width="3" stroke-miterlimit="10" width="245.814" height="130.137"/>
	<line fill="none" stroke="#010101" stroke-width="3" stroke-miterlimit="10" x1="83.14" y1="222.915" x2="112.06" y2="222.915"/>
	<line fill="none" stroke="#010101" stroke-width="3" stroke-miterlimit="10" x1="126.52" y1="222.915" x2="372.335" y2="222.915"/>
	
		<rect x="140.979" y="237.375" fill="none" stroke="#FFFFFF" stroke-width="3" stroke-miterlimit="10" width="43.38" height="72.299"/>
	
		<rect x="300.036" y="237.375" fill="none" stroke="#FFFFFF" stroke-width="3" stroke-miterlimit="10" width="43.381" height="72.299"/>
	<circle fill="none" stroke="#000000" stroke-width="4" stroke-miterlimit="10" cx="242.197" cy="266.297" r="28.919"/>
	<polyline fill="none" stroke="#000000" stroke-width="4" stroke-miterlimit="10" points="140.979,251.836 213.277,251.836 
		242.198,266.296 271.116,251.836 357.877,251.836 	"/>
	<polyline fill="none" stroke="#000000" stroke-width="4" stroke-miterlimit="10" points="140.979,280.755 213.277,280.755 
		242.198,266.296 271.116,280.755 357.877,280.755 	"/>
</g>
<g id="Computer1_3_" opacity="0.6">
	<path fill="#FFFFFF" stroke="#010101" stroke-width="4" stroke-miterlimit="10" d="M110.221,828.262h289.194
		c0,0,28.92,0.803,28.92-28.116l-29.723-57.84V597.708c0-28.918-28.117-28.114-28.117-28.114H81.302c0,0-28.92-1.605-28.92,27.315
		v144.596l-28.918,57.84c0,0-14.46,28.921,28.918,28.921L110.221,828.262z"/>
	<polygon fill="none" stroke="#010101" stroke-width="3" stroke-miterlimit="10" points="370.496,743.11 81.302,743.11 
		52.384,813.804 399.416,813.804 	"/>
	<g>
		<line fill="none" stroke="#010101" stroke-width="3" stroke-miterlimit="10" x1="81.302" y1="757.571" x2="95.761" y2="757.571"/>
		
			<line fill="none" stroke="#010101" stroke-width="3" stroke-miterlimit="10" x1="110.221" y1="757.571" x2="124.68" y2="757.571"/>
		<line fill="none" stroke="#010101" stroke-width="3" stroke-miterlimit="10" x1="139.141" y1="757.571" x2="153.6" y2="757.571"/>
		<line fill="none" stroke="#010101" stroke-width="3" stroke-miterlimit="10" x1="168.06" y1="757.571" x2="182.52" y2="757.571"/>
		
			<line fill="none" stroke="#010101" stroke-width="3" stroke-miterlimit="10" x1="196.978" y1="757.571" x2="211.439" y2="757.571"/>
		
			<line fill="none" stroke="#010101" stroke-width="3" stroke-miterlimit="10" x1="225.899" y1="757.571" x2="240.359" y2="757.571"/>
		
			<line fill="none" stroke="#010101" stroke-width="3" stroke-miterlimit="10" x1="254.819" y1="757.571" x2="269.278" y2="757.571"/>
		
			<line fill="none" stroke="#010101" stroke-width="3" stroke-miterlimit="10" x1="283.738" y1="757.571" x2="298.197" y2="757.571"/>
		
			<line fill="none" stroke="#010101" stroke-width="3" stroke-miterlimit="10" x1="312.658" y1="757.571" x2="327.118" y2="757.571"/>
		
			<line fill="none" stroke="#010101" stroke-width="3" stroke-miterlimit="10" x1="341.578" y1="757.571" x2="356.037" y2="757.571"/>
	</g>
	<g>
		<line fill="none" stroke="#010101" stroke-width="3" stroke-miterlimit="10" x1="81.302" y1="778.455" x2="95.761" y2="778.455"/>
		
			<line fill="none" stroke="#010101" stroke-width="3" stroke-miterlimit="10" x1="110.221" y1="778.455" x2="124.68" y2="778.455"/>
		<line fill="none" stroke="#010101" stroke-width="3" stroke-miterlimit="10" x1="139.141" y1="778.455" x2="153.6" y2="778.455"/>
		<line fill="none" stroke="#010101" stroke-width="3" stroke-miterlimit="10" x1="168.06" y1="778.455" x2="182.52" y2="778.455"/>
		
			<line fill="none" stroke="#010101" stroke-width="3" stroke-miterlimit="10" x1="196.978" y1="778.455" x2="211.439" y2="778.455"/>
		
			<line fill="none" stroke="#010101" stroke-width="3" stroke-miterlimit="10" x1="225.899" y1="778.455" x2="240.359" y2="778.455"/>
		
			<line fill="none" stroke="#010101" stroke-width="3" stroke-miterlimit="10" x1="254.819" y1="778.455" x2="269.278" y2="778.455"/>
		
			<line fill="none" stroke="#010101" stroke-width="3" stroke-miterlimit="10" x1="283.738" y1="778.455" x2="298.197" y2="778.455"/>
		
			<line fill="none" stroke="#010101" stroke-width="3" stroke-miterlimit="10" x1="312.658" y1="778.455" x2="327.118" y2="778.455"/>
		
			<line fill="none" stroke="#010101" stroke-width="3" stroke-miterlimit="10" x1="341.578" y1="778.455" x2="356.037" y2="778.455"/>
	</g>
	<g>
		<line fill="none" stroke="#010101" stroke-width="3" stroke-miterlimit="10" x1="79.695" y1="800.949" x2="94.155" y2="800.949"/>
		
			<line fill="none" stroke="#010101" stroke-width="3" stroke-miterlimit="10" x1="108.613" y1="800.949" x2="123.074" y2="800.949"/>
		
			<line fill="none" stroke="#010101" stroke-width="3" stroke-miterlimit="10" x1="137.534" y1="800.949" x2="151.994" y2="800.949"/>
		
			<line fill="none" stroke="#010101" stroke-width="3" stroke-miterlimit="10" x1="166.454" y1="800.949" x2="180.913" y2="800.949"/>
		
			<line fill="none" stroke="#010101" stroke-width="3" stroke-miterlimit="10" x1="195.374" y1="800.949" x2="209.833" y2="800.949"/>
		
			<line fill="none" stroke="#010101" stroke-width="3" stroke-miterlimit="10" x1="224.293" y1="800.949" x2="238.753" y2="800.949"/>
		
			<line fill="none" stroke="#010101" stroke-width="3" stroke-miterlimit="10" x1="253.212" y1="800.949" x2="267.672" y2="800.949"/>
		
			<line fill="none" stroke="#010101" stroke-width="3" stroke-miterlimit="10" x1="282.131" y1="800.949" x2="296.59" y2="800.949"/>
		
			<line fill="none" stroke="#010101" stroke-width="3" stroke-miterlimit="10" x1="311.052" y1="800.949" x2="325.511" y2="800.949"/>
		<line fill="none" stroke="#010101" stroke-width="3" stroke-miterlimit="10" x1="339.97" y1="800.949" x2="354.43" y2="800.949"/>
	</g>
	<g>
		<g>
			<path fill="#010101" d="M81.302,587.267c5.184,0,5.184-8.033,0-8.033C76.122,579.234,76.122,587.267,81.302,587.267
				L81.302,587.267z"/>
		</g>
	</g>
	<g>
		<g>
			<path fill="#010101" d="M95.761,587.267c5.183,0,5.183-8.033,0-8.033C90.58,579.234,90.58,587.267,95.761,587.267L95.761,587.267
				z"/>
		</g>
	</g>
	<g>
		<g>
			<path fill="#010101" d="M110.221,587.267c5.184,0,5.184-8.033,0-8.033C105.041,579.234,105.041,587.267,110.221,587.267
				L110.221,587.267z"/>
		</g>
	</g>
	<line fill="none" stroke="#010101" stroke-width="3" stroke-miterlimit="10" x1="124.68" y1="584.052" x2="370.496" y2="584.052"/>
	
		<rect x="81.302" y="596.909" fill="none" stroke="#010101" stroke-width="3" stroke-miterlimit="10" width="28.92" height="130.137"/>
	
		<rect x="124.68" y="596.909" fill="#FFFFFF" stroke="#010101" stroke-width="3" stroke-miterlimit="10" width="245.815" height="130.137"/>
	<line fill="none" stroke="#010101" stroke-width="3" stroke-miterlimit="10" x1="81.302" y1="625.826" x2="110.221" y2="625.826"/>
	<line fill="none" stroke="#010101" stroke-width="3" stroke-miterlimit="10" x1="124.68" y1="625.826" x2="370.496" y2="625.826"/>
	
		<rect x="139.141" y="640.287" fill="none" stroke="#FFFFFF" stroke-width="3" stroke-miterlimit="10" width="43.379" height="72.299"/>
	
		<rect x="298.197" y="640.287" fill="none" stroke="#FFFFFF" stroke-width="3" stroke-miterlimit="10" width="43.379" height="72.299"/>
	<circle fill="none" stroke="#000000" stroke-width="4" stroke-miterlimit="10" cx="240.359" cy="669.205" r="28.92"/>
	<polyline fill="none" stroke="#000000" stroke-width="4" stroke-miterlimit="10" points="139.141,654.745 211.439,654.745 
		240.359,669.205 269.278,654.745 356.037,654.745 	"/>
	<polyline fill="none" stroke="#000000" stroke-width="4" stroke-miterlimit="10" points="139.141,683.666 211.439,683.666 
		240.359,669.205 269.278,683.666 356.037,683.666 	"/>
</g>
<g id="Computer1_4_" opacity="0.6">
	<path fill="#FFFFFF" stroke="#010101" stroke-width="4" stroke-miterlimit="10" d="M670.392,828.262h289.193
		c0,0,28.92,0.803,28.92-28.116l-29.721-57.84V597.708c0-28.918-28.118-28.114-28.118-28.114H641.471c0,0-28.92-1.605-28.92,27.315
		v144.596l-28.919,57.84c0,0-14.459,28.921,28.919,28.921L670.392,828.262z"/>
	<polygon fill="none" stroke="#010101" stroke-width="3" stroke-miterlimit="10" points="930.667,743.11 641.471,743.11 
		612.553,813.804 959.586,813.804 	"/>
	<g>
		
			<line fill="none" stroke="#010101" stroke-width="3" stroke-miterlimit="10" x1="641.471" y1="757.571" x2="655.932" y2="757.571"/>
		
			<line fill="none" stroke="#010101" stroke-width="3" stroke-miterlimit="10" x1="670.392" y1="757.571" x2="684.852" y2="757.571"/>
		
			<line fill="none" stroke="#010101" stroke-width="3" stroke-miterlimit="10" x1="699.312" y1="757.571" x2="713.771" y2="757.571"/>
		<line fill="none" stroke="#010101" stroke-width="3" stroke-miterlimit="10" x1="728.23" y1="757.571" x2="742.69" y2="757.571"/>
		
			<line fill="none" stroke="#010101" stroke-width="3" stroke-miterlimit="10" x1="757.15" y1="757.571" x2="771.609" y2="757.571"/>
		
			<line fill="none" stroke="#010101" stroke-width="3" stroke-miterlimit="10" x1="786.069" y1="757.571" x2="800.529" y2="757.571"/>
		
			<line fill="none" stroke="#010101" stroke-width="3" stroke-miterlimit="10" x1="814.99" y1="757.571" x2="829.449" y2="757.571"/>
		
			<line fill="none" stroke="#010101" stroke-width="3" stroke-miterlimit="10" x1="843.908" y1="757.571" x2="858.368" y2="757.571"/>
		
			<line fill="none" stroke="#010101" stroke-width="3" stroke-miterlimit="10" x1="872.828" y1="757.571" x2="887.288" y2="757.571"/>
		
			<line fill="none" stroke="#010101" stroke-width="3" stroke-miterlimit="10" x1="901.748" y1="757.571" x2="916.209" y2="757.571"/>
	</g>
	<g>
		
			<line fill="none" stroke="#010101" stroke-width="3" stroke-miterlimit="10" x1="641.471" y1="778.455" x2="655.932" y2="778.455"/>
		
			<line fill="none" stroke="#010101" stroke-width="3" stroke-miterlimit="10" x1="670.392" y1="778.455" x2="684.852" y2="778.455"/>
		
			<line fill="none" stroke="#010101" stroke-width="3" stroke-miterlimit="10" x1="699.312" y1="778.455" x2="713.771" y2="778.455"/>
		<line fill="none" stroke="#010101" stroke-width="3" stroke-miterlimit="10" x1="728.23" y1="778.455" x2="742.69" y2="778.455"/>
		
			<line fill="none" stroke="#010101" stroke-width="3" stroke-miterlimit="10" x1="757.15" y1="778.455" x2="771.609" y2="778.455"/>
		
			<line fill="none" stroke="#010101" stroke-width="3" stroke-miterlimit="10" x1="786.069" y1="778.455" x2="800.529" y2="778.455"/>
		
			<line fill="none" stroke="#010101" stroke-width="3" stroke-miterlimit="10" x1="814.99" y1="778.455" x2="829.449" y2="778.455"/>
		
			<line fill="none" stroke="#010101" stroke-width="3" stroke-miterlimit="10" x1="843.908" y1="778.455" x2="858.368" y2="778.455"/>
		
			<line fill="none" stroke="#010101" stroke-width="3" stroke-miterlimit="10" x1="872.828" y1="778.455" x2="887.288" y2="778.455"/>
		
			<line fill="none" stroke="#010101" stroke-width="3" stroke-miterlimit="10" x1="901.748" y1="778.455" x2="916.209" y2="778.455"/>
	</g>
	<g>
		
			<line fill="none" stroke="#010101" stroke-width="3" stroke-miterlimit="10" x1="639.866" y1="800.949" x2="654.326" y2="800.949"/>
		
			<line fill="none" stroke="#010101" stroke-width="3" stroke-miterlimit="10" x1="668.785" y1="800.949" x2="683.244" y2="800.949"/>
		
			<line fill="none" stroke="#010101" stroke-width="3" stroke-miterlimit="10" x1="697.705" y1="800.949" x2="712.164" y2="800.949"/>
		
			<line fill="none" stroke="#010101" stroke-width="3" stroke-miterlimit="10" x1="726.624" y1="800.949" x2="741.085" y2="800.949"/>
		
			<line fill="none" stroke="#010101" stroke-width="3" stroke-miterlimit="10" x1="755.545" y1="800.949" x2="770.004" y2="800.949"/>
		
			<line fill="none" stroke="#010101" stroke-width="3" stroke-miterlimit="10" x1="784.463" y1="800.949" x2="798.924" y2="800.949"/>
		
			<line fill="none" stroke="#010101" stroke-width="3" stroke-miterlimit="10" x1="813.383" y1="800.949" x2="827.842" y2="800.949"/>
		
			<line fill="none" stroke="#010101" stroke-width="3" stroke-miterlimit="10" x1="842.301" y1="800.949" x2="856.761" y2="800.949"/>
		
			<line fill="none" stroke="#010101" stroke-width="3" stroke-miterlimit="10" x1="871.221" y1="800.949" x2="885.681" y2="800.949"/>
		
			<line fill="none" stroke="#010101" stroke-width="3" stroke-miterlimit="10" x1="900.142" y1="800.949" x2="914.601" y2="800.949"/>
	</g>
	<g>
		<g>
			<path fill="#010101" d="M641.471,587.267c5.184,0,5.184-8.033,0-8.033C636.292,579.234,636.292,587.267,641.471,587.267
				L641.471,587.267z"/>
		</g>
	</g>
	<g>
		<g>
			<path fill="#010101" d="M655.932,587.267c5.185,0,5.185-8.033,0-8.033C650.751,579.234,650.751,587.267,655.932,587.267
				L655.932,587.267z"/>
		</g>
	</g>
	<g>
		<g>
			<path fill="#010101" d="M670.392,587.267c5.184,0,5.184-8.033,0-8.033C665.21,579.234,665.21,587.267,670.392,587.267
				L670.392,587.267z"/>
		</g>
	</g>
	
		<line fill="none" stroke="#010101" stroke-width="3" stroke-miterlimit="10" x1="684.852" y1="584.052" x2="930.667" y2="584.052"/>
	
		<rect x="641.471" y="596.909" fill="none" stroke="#010101" stroke-width="3" stroke-miterlimit="10" width="28.921" height="130.137"/>
	
		<rect x="684.852" y="596.909" fill="#FFFFFF" stroke="#010101" stroke-width="3" stroke-miterlimit="10" width="245.814" height="130.137"/>
	
		<line fill="none" stroke="#010101" stroke-width="3" stroke-miterlimit="10" x1="641.471" y1="625.826" x2="670.392" y2="625.826"/>
	
		<line fill="none" stroke="#010101" stroke-width="3" stroke-miterlimit="10" x1="684.852" y1="625.826" x2="930.667" y2="625.826"/>
	
		<rect x="699.312" y="640.287" fill="none" stroke="#FFFFFF" stroke-width="3" stroke-miterlimit="10" width="43.379" height="72.299"/>
	
		<rect x="858.368" y="640.287" fill="none" stroke="#FFFFFF" stroke-width="3" stroke-miterlimit="10" width="43.381" height="72.299"/>
	<circle fill="none" stroke="#000000" stroke-width="4" stroke-miterlimit="10" cx="800.529" cy="669.205" r="28.92"/>
	<polyline fill="none" stroke="#000000" stroke-width="4" stroke-miterlimit="10" points="699.312,654.745 771.609,654.745 
		800.529,669.205 829.449,654.745 916.209,654.745 	"/>
	<polyline fill="none" stroke="#000000" stroke-width="4" stroke-miterlimit="10" points="699.312,683.666 771.609,683.666 
		800.529,669.205 829.449,683.666 916.209,683.666 	"/>
</g>
<g id="Computer1_1_" opacity="0.6">
	<path fill="#FFFFFF" stroke="#010101" stroke-width="4" stroke-miterlimit="10" d="M670.392,429.023h289.193
		c0,0,28.92,0.804,28.92-28.116l-29.721-57.839V198.471c0-28.919-28.118-28.116-28.118-28.116H641.471c0,0-28.92-1.605-28.92,27.314
		v144.598l-28.919,57.839c0,0-14.459,28.921,28.919,28.921L670.392,429.023z"/>
	<polygon fill="none" stroke="#010101" stroke-width="3" stroke-miterlimit="10" points="930.667,343.871 641.471,343.871 
		612.553,414.566 959.586,414.566 	"/>
	<g>
		
			<line fill="none" stroke="#010101" stroke-width="3" stroke-miterlimit="10" x1="641.471" y1="358.332" x2="655.932" y2="358.332"/>
		
			<line fill="none" stroke="#010101" stroke-width="3" stroke-miterlimit="10" x1="670.392" y1="358.332" x2="684.852" y2="358.332"/>
		
			<line fill="none" stroke="#010101" stroke-width="3" stroke-miterlimit="10" x1="699.312" y1="358.332" x2="713.771" y2="358.332"/>
		<line fill="none" stroke="#010101" stroke-width="3" stroke-miterlimit="10" x1="728.23" y1="358.332" x2="742.69" y2="358.332"/>
		
			<line fill="none" stroke="#010101" stroke-width="3" stroke-miterlimit="10" x1="757.15" y1="358.332" x2="771.609" y2="358.332"/>
		
			<line fill="none" stroke="#010101" stroke-width="3" stroke-miterlimit="10" x1="786.069" y1="358.332" x2="800.529" y2="358.332"/>
		
			<line fill="none" stroke="#010101" stroke-width="3" stroke-miterlimit="10" x1="814.99" y1="358.332" x2="829.449" y2="358.332"/>
		
			<line fill="none" stroke="#010101" stroke-width="3" stroke-miterlimit="10" x1="843.908" y1="358.332" x2="858.368" y2="358.332"/>
		
			<line fill="none" stroke="#010101" stroke-width="3" stroke-miterlimit="10" x1="872.828" y1="358.332" x2="887.288" y2="358.332"/>
		
			<line fill="none" stroke="#010101" stroke-width="3" stroke-miterlimit="10" x1="901.748" y1="358.332" x2="916.209" y2="358.332"/>
	</g>
	<g>
		
			<line fill="none" stroke="#010101" stroke-width="3" stroke-miterlimit="10" x1="641.471" y1="379.217" x2="655.932" y2="379.217"/>
		
			<line fill="none" stroke="#010101" stroke-width="3" stroke-miterlimit="10" x1="670.392" y1="379.217" x2="684.852" y2="379.217"/>
		
			<line fill="none" stroke="#010101" stroke-width="3" stroke-miterlimit="10" x1="699.312" y1="379.217" x2="713.771" y2="379.217"/>
		<line fill="none" stroke="#010101" stroke-width="3" stroke-miterlimit="10" x1="728.23" y1="379.217" x2="742.69" y2="379.217"/>
		
			<line fill="none" stroke="#010101" stroke-width="3" stroke-miterlimit="10" x1="757.15" y1="379.217" x2="771.609" y2="379.217"/>
		
			<line fill="none" stroke="#010101" stroke-width="3" stroke-miterlimit="10" x1="786.069" y1="379.217" x2="800.529" y2="379.217"/>
		
			<line fill="none" stroke="#010101" stroke-width="3" stroke-miterlimit="10" x1="814.99" y1="379.217" x2="829.449" y2="379.217"/>
		
			<line fill="none" stroke="#010101" stroke-width="3" stroke-miterlimit="10" x1="843.908" y1="379.217" x2="858.368" y2="379.217"/>
		
			<line fill="none" stroke="#010101" stroke-width="3" stroke-miterlimit="10" x1="872.828" y1="379.217" x2="887.288" y2="379.217"/>
		
			<line fill="none" stroke="#010101" stroke-width="3" stroke-miterlimit="10" x1="901.748" y1="379.217" x2="916.209" y2="379.217"/>
	</g>
	<g>
		
			<line fill="none" stroke="#010101" stroke-width="3" stroke-miterlimit="10" x1="639.866" y1="401.711" x2="654.326" y2="401.711"/>
		
			<line fill="none" stroke="#010101" stroke-width="3" stroke-miterlimit="10" x1="668.785" y1="401.711" x2="683.244" y2="401.711"/>
		
			<line fill="none" stroke="#010101" stroke-width="3" stroke-miterlimit="10" x1="697.705" y1="401.711" x2="712.164" y2="401.711"/>
		
			<line fill="none" stroke="#010101" stroke-width="3" stroke-miterlimit="10" x1="726.624" y1="401.711" x2="741.085" y2="401.711"/>
		
			<line fill="none" stroke="#010101" stroke-width="3" stroke-miterlimit="10" x1="755.545" y1="401.711" x2="770.004" y2="401.711"/>
		
			<line fill="none" stroke="#010101" stroke-width="3" stroke-miterlimit="10" x1="784.463" y1="401.711" x2="798.924" y2="401.711"/>
		
			<line fill="none" stroke="#010101" stroke-width="3" stroke-miterlimit="10" x1="813.383" y1="401.711" x2="827.842" y2="401.711"/>
		
			<line fill="none" stroke="#010101" stroke-width="3" stroke-miterlimit="10" x1="842.301" y1="401.711" x2="856.761" y2="401.711"/>
		
			<line fill="none" stroke="#010101" stroke-width="3" stroke-miterlimit="10" x1="871.221" y1="401.711" x2="885.681" y2="401.711"/>
		
			<line fill="none" stroke="#010101" stroke-width="3" stroke-miterlimit="10" x1="900.142" y1="401.711" x2="914.601" y2="401.711"/>
	</g>
	<g>
		<g>
			<path fill="#010101" d="M641.471,188.028c5.184,0,5.184-8.033,0-8.033C636.292,179.994,636.292,188.028,641.471,188.028
				L641.471,188.028z"/>
		</g>
	</g>
	<g>
		<g>
			<path fill="#010101" d="M655.932,188.028c5.185,0,5.185-8.033,0-8.033C650.751,179.994,650.751,188.028,655.932,188.028
				L655.932,188.028z"/>
		</g>
	</g>
	<g>
		<g>
			<path fill="#010101" d="M670.392,188.028c5.184,0,5.184-8.033,0-8.033C665.21,179.994,665.21,188.028,670.392,188.028
				L670.392,188.028z"/>
		</g>
	</g>
	
		<line fill="none" stroke="#010101" stroke-width="3" stroke-miterlimit="10" x1="684.852" y1="184.815" x2="930.667" y2="184.815"/>
	
		<rect x="641.471" y="197.669" fill="none" stroke="#010101" stroke-width="3" stroke-miterlimit="10" width="28.921" height="130.137"/>
	
		<rect x="684.852" y="197.669" fill="#FFFFFF" stroke="#010101" stroke-width="3" stroke-miterlimit="10" width="245.814" height="130.137"/>
	
		<line fill="none" stroke="#010101" stroke-width="3" stroke-miterlimit="10" x1="641.471" y1="226.589" x2="670.392" y2="226.589"/>
	
		<line fill="none" stroke="#010101" stroke-width="3" stroke-miterlimit="10" x1="684.852" y1="226.589" x2="930.667" y2="226.589"/>
	
		<rect x="699.312" y="241.048" fill="none" stroke="#FFFFFF" stroke-width="3" stroke-miterlimit="10" width="43.379" height="72.299"/>
	
		<rect x="858.368" y="241.048" fill="none" stroke="#FFFFFF" stroke-width="3" stroke-miterlimit="10" width="43.381" height="72.299"/>
	<circle fill="none" stroke="#000000" stroke-width="4" stroke-miterlimit="10" cx="800.529" cy="269.968" r="28.92"/>
	<polyline fill="none" stroke="#000000" stroke-width="4" stroke-miterlimit="10" points="699.312,255.508 771.609,255.508 
		800.529,269.968 829.449,255.508 916.209,255.508 	"/>
	<polyline fill="none" stroke="#000000" stroke-width="4" stroke-miterlimit="10" points="699.312,284.428 771.609,284.428 
		800.529,269.968 829.449,284.428 916.209,284.428 	"/>
</g>
<g id="Computer1">
	<path fill="#FFFFFF" stroke="#010101" stroke-width="4" stroke-miterlimit="10" d="M345.546,628.913H689.72
		c0,0,34.418,0.956,34.418-33.462l-35.373-68.834V354.53c0-34.417-33.463-33.461-33.463-33.461H311.128
		c0,0-34.416-1.91-34.416,32.508v172.088l-34.418,68.834c0,0-17.208,34.417,34.418,34.417L345.546,628.913z"/>
	<polygon fill="none" stroke="#010101" stroke-width="3" stroke-miterlimit="10" points="655.302,527.573 311.128,527.573 
		276.712,611.707 689.72,611.707 	"/>
	<g>
		
			<line fill="none" stroke="#010101" stroke-width="3" stroke-miterlimit="10" x1="311.128" y1="544.781" x2="328.338" y2="544.781"/>
		
			<line fill="none" stroke="#010101" stroke-width="3" stroke-miterlimit="10" x1="345.546" y1="544.781" x2="362.755" y2="544.781"/>
		
			<line fill="none" stroke="#010101" stroke-width="3" stroke-miterlimit="10" x1="379.964" y1="544.781" x2="397.172" y2="544.781"/>
		
			<line fill="none" stroke="#010101" stroke-width="3" stroke-miterlimit="10" x1="414.381" y1="544.781" x2="431.591" y2="544.781"/>
		
			<line fill="none" stroke="#010101" stroke-width="3" stroke-miterlimit="10" x1="448.799" y1="544.781" x2="466.007" y2="544.781"/>
		
			<line fill="none" stroke="#010101" stroke-width="3" stroke-miterlimit="10" x1="483.217" y1="544.781" x2="500.425" y2="544.781"/>
		
			<line fill="none" stroke="#010101" stroke-width="3" stroke-miterlimit="10" x1="517.634" y1="544.781" x2="534.842" y2="544.781"/>
		
			<line fill="none" stroke="#010101" stroke-width="3" stroke-miterlimit="10" x1="552.052" y1="544.781" x2="569.259" y2="544.781"/>
		
			<line fill="none" stroke="#010101" stroke-width="3" stroke-miterlimit="10" x1="586.468" y1="544.781" x2="603.677" y2="544.781"/>
		
			<line fill="none" stroke="#010101" stroke-width="3" stroke-miterlimit="10" x1="620.885" y1="544.781" x2="638.094" y2="544.781"/>
	</g>
	<g>
		
			<line fill="none" stroke="#010101" stroke-width="3" stroke-miterlimit="10" x1="311.128" y1="569.638" x2="328.338" y2="569.638"/>
		
			<line fill="none" stroke="#010101" stroke-width="3" stroke-miterlimit="10" x1="345.546" y1="569.638" x2="362.755" y2="569.638"/>
		
			<line fill="none" stroke="#010101" stroke-width="3" stroke-miterlimit="10" x1="379.964" y1="569.638" x2="397.172" y2="569.638"/>
		
			<line fill="none" stroke="#010101" stroke-width="3" stroke-miterlimit="10" x1="414.381" y1="569.638" x2="431.591" y2="569.638"/>
		
			<line fill="none" stroke="#010101" stroke-width="3" stroke-miterlimit="10" x1="448.799" y1="569.638" x2="466.007" y2="569.638"/>
		
			<line fill="none" stroke="#010101" stroke-width="3" stroke-miterlimit="10" x1="483.217" y1="569.638" x2="500.425" y2="569.638"/>
		
			<line fill="none" stroke="#010101" stroke-width="3" stroke-miterlimit="10" x1="517.634" y1="569.638" x2="534.842" y2="569.638"/>
		
			<line fill="none" stroke="#010101" stroke-width="3" stroke-miterlimit="10" x1="552.052" y1="569.638" x2="569.259" y2="569.638"/>
		
			<line fill="none" stroke="#010101" stroke-width="3" stroke-miterlimit="10" x1="586.468" y1="569.638" x2="603.677" y2="569.638"/>
		
			<line fill="none" stroke="#010101" stroke-width="3" stroke-miterlimit="10" x1="620.885" y1="569.638" x2="638.094" y2="569.638"/>
	</g>
	<g>
		
			<line fill="none" stroke="#010101" stroke-width="3" stroke-miterlimit="10" x1="309.217" y1="596.408" x2="326.426" y2="596.408"/>
		
			<line fill="none" stroke="#010101" stroke-width="3" stroke-miterlimit="10" x1="343.634" y1="596.408" x2="360.844" y2="596.408"/>
		
			<line fill="none" stroke="#010101" stroke-width="3" stroke-miterlimit="10" x1="378.052" y1="596.408" x2="395.26" y2="596.408"/>
		
			<line fill="none" stroke="#010101" stroke-width="3" stroke-miterlimit="10" x1="412.469" y1="596.408" x2="429.678" y2="596.408"/>
		
			<line fill="none" stroke="#010101" stroke-width="3" stroke-miterlimit="10" x1="446.886" y1="596.408" x2="464.094" y2="596.408"/>
		
			<line fill="none" stroke="#010101" stroke-width="3" stroke-miterlimit="10" x1="481.302" y1="596.408" x2="498.512" y2="596.408"/>
		
			<line fill="none" stroke="#010101" stroke-width="3" stroke-miterlimit="10" x1="515.721" y1="596.408" x2="532.93" y2="596.408"/>
		
			<line fill="none" stroke="#010101" stroke-width="3" stroke-miterlimit="10" x1="550.138" y1="596.408" x2="567.346" y2="596.408"/>
		
			<line fill="none" stroke="#010101" stroke-width="3" stroke-miterlimit="10" x1="584.555" y1="596.408" x2="601.765" y2="596.408"/>
		
			<line fill="none" stroke="#010101" stroke-width="3" stroke-miterlimit="10" x1="618.973" y1="596.408" x2="636.183" y2="596.408"/>
	</g>
	<g>
		<g>
			<path fill="#010101" d="M311.128,342.102c6.17,0,6.17-9.561,0-9.561C304.964,332.541,304.964,342.102,311.128,342.102
				L311.128,342.102z"/>
		</g>
	</g>
	<g>
		<g>
			<path fill="#010101" d="M328.338,342.102c6.17,0,6.17-9.561,0-9.561C322.172,332.541,322.172,342.102,328.338,342.102
				L328.338,342.102z"/>
		</g>
	</g>
	<g>
		<g>
			<path fill="#010101" d="M345.546,342.102c6.17,0,6.17-9.561,0-9.561C339.38,332.541,339.38,342.102,345.546,342.102
				L345.546,342.102z"/>
		</g>
	</g>
	
		<line fill="none" stroke="#010101" stroke-width="3" stroke-miterlimit="10" x1="362.755" y1="338.278" x2="655.302" y2="338.278"/>
	
		<rect x="311.128" y="353.576" fill="none" stroke="#010101" stroke-width="3" stroke-miterlimit="10" width="34.418" height="154.878"/>
	
		<rect x="362.755" y="353.576" fill="#FFFFFF" stroke="#010101" stroke-width="3" stroke-miterlimit="10" width="292.548" height="154.878"/>
	
		<line fill="none" stroke="#010101" stroke-width="3" stroke-miterlimit="10" x1="311.128" y1="387.993" x2="345.546" y2="387.993"/>
	
		<line fill="none" stroke="#010101" stroke-width="3" stroke-miterlimit="10" x1="362.755" y1="387.993" x2="655.302" y2="387.993"/>
	
		<rect x="379.964" y="405.201" fill="none" stroke="#FFFFFF" stroke-width="3" stroke-miterlimit="10" width="51.625" height="86.044"/>
	
		<rect x="569.259" y="405.201" fill="none" stroke="#FFFFFF" stroke-width="3" stroke-miterlimit="10" width="51.627" height="86.044"/>
	<circle fill="none" stroke="#000000" stroke-width="4" stroke-miterlimit="10" cx="500.425" cy="439.621" r="34.417"/>
	<polyline fill="none" stroke="#000000" stroke-width="4" stroke-miterlimit="10" points="379.964,422.411 466.007,422.411 
		500.425,439.62 534.842,422.411 638.094,422.411 	"/>
	<polyline fill="none" stroke="#000000" stroke-width="4" stroke-miterlimit="10" points="379.964,456.827 466.007,456.827 
		500.425,439.62 534.842,456.827 638.094,456.827 	"/>
</g>
<line opacity="0.5" fill="none" stroke="#010101" stroke-width="4" stroke-miterlimit="10" enable-background="new    " x1="218.39" y1="431.034" x2="218.39" y2="568.965"/>
<line opacity="0.7" fill="none" stroke="#010101" stroke-width="4" stroke-miterlimit="10" enable-background="new    " x1="218.39" y1="500" x2="275.862" y2="500"/>
<line opacity="0.5" fill="none" stroke="#010101" stroke-width="4" stroke-miterlimit="10" enable-background="new    " x1="747.127" y1="431.034" x2="747.127" y2="568.965"/>
<line opacity="0.7" fill="none" stroke="#010101" stroke-width="4" stroke-miterlimit="10" enable-background="new    " x1="747.127" y1="500" x2="689.655" y2="500"/>
</svg>
