<?xml version="1.0" encoding="utf-8"?>
<!-- Generator: Adobe Illustrator 16.0.0, SVG Export Plug-In . SVG Version: 6.00 Build 0)  -->
<!DOCTYPE svg PUBLIC "-//W3C//DTD SVG 1.1//EN" "http://www.w3.org/Graphics/SVG/1.1/DTD/svg11.dtd">
<svg version="1.1" id="Layer_1" xmlns="http://www.w3.org/2000/svg" xmlns:xlink="http://www.w3.org/1999/xlink" x="0px" y="0px"
	 width="395.025px" height="332px" viewBox="302.5 302.5 395.025 332" style="enable-background:new 302.5 302.5 395.025 332;"
	 xml:space="preserve">
<style type="text/css">
<![CDATA[
	.st0{display:none;fill:none;stroke:#FF8080;stroke-width:4;stroke-miterlimit:10;}
	.st1{display:none;fill:none;stroke:#FF8080;stroke-miterlimit:10;}
	.st2{display:none;fill:#FFFFFF;stroke:#000000;stroke-width:3;stroke-miterlimit:10;}
	.st3{fill:none;stroke:#000000;stroke-width:9;stroke-miterlimit:10;}
	.st4{display:inline;fill:none;stroke:#000000;stroke-width:4;stroke-miterlimit:10;}
	.st5{display:inline;fill:#FFFFFF;stroke:#000000;stroke-width:5;stroke-miterlimit:10;}
	.st6{fill:none;stroke:#FFFFFF;stroke-width:10;stroke-miterlimit:10;}
	.st7{display:inline;fill:#FF8080;}
	.st8{display:inline;fill:none;stroke:#000000;stroke-width:3;stroke-miterlimit:10;}
	.st9{fill:none;stroke:#000000;stroke-width:3;stroke-miterlimit:10;}
	.st10{display:inline;}
	.st11{fill:#DDDDDD;stroke:#000000;stroke-miterlimit:10;}
	.st12{fill:#FFFFFF;stroke:#000000;stroke-width:4;stroke-miterlimit:10;}
	.st13{display:inline;fill:none;stroke:#FFFFFF;stroke-width:10;stroke-miterlimit:10;}
	.st14{display:none;fill:none;stroke:#8383FC;stroke-miterlimit:10;}
	.st15{fill:none;stroke:#231F20;stroke-width:9;stroke-miterlimit:10;}
	.st16{display:none;}
	.st17{fill:#FFFFFF;stroke:#000000;stroke-width:3;stroke-miterlimit:10;}
]]>
</style>
<g id="Layer_1_1_" class="st16">
	<g class="st10">
		<g id="Layer_3">
			<path class="st11" d="M500,153.169c167.094,0,302.543,135.452,302.543,302.542c0,29.066-4.101,57.182-11.754,83.789
				c-4.146,14.41-9.335,28.387-15.479,41.827C727.601,685.718,622.271,758.252,500,758.253
				c-129.085,0-239.288-80.848-282.741-194.661c-3.007-7.877-5.691-15.912-8.047-24.089c-7.65-26.608-11.754-54.726-11.754-83.792
				C197.458,288.621,332.911,153.169,500,153.169z"/>
		</g>
		<g class="st16">
			<line class="st8" x1="770.5" y1="578.5" x2="223.421" y2="578.5"/>
		</g>
		<g class="st16">
			<line class="st8" x1="802.51" y1="459.527" x2="197.49" y2="459.527"/>
		</g>
		<g>
			<path d="M455.942,417.769l-14.328,37.872h-4.824l-11.948-31.032l-11.952,31.032h-4.824l-14.256-37.872h4.896l11.883,32.184
				l12.168-32.184h4.393l12.096,32.184l12.024-32.184H455.942z"/>
		</g>
		<g>
			<path d="M391.216,417.839l-14.328,37.872h-4.824l-11.952-31.032l-11.952,31.032h-4.821l-14.259-37.872h4.896l11.88,32.184
				l12.168-32.184h4.393l12.099,32.184l12.021-32.184H391.216z"/>
		</g>
		<g>
			<path d="M326.216,417.839l-14.328,37.872h-4.824l-11.952-31.032l-11.952,31.032h-4.824l-14.256-37.872h4.896l11.88,32.184
				l12.168-32.184h4.392l12.1,32.184l12.021-32.184H326.216z"/>
		</g>
		<g>
			<path d="M456.432,454.919c-0.745-0.771-1.116-1.703-1.116-2.812c0-1.104,0.371-2.023,1.116-2.771
				c0.744-0.744,1.644-1.116,2.7-1.116c1.055,0,1.968,0.372,2.732,1.116c0.771,0.743,1.152,1.668,1.152,2.771
				c0,1.105-0.385,2.041-1.152,2.812c-0.769,0.769-1.681,1.148-2.732,1.148C458.075,456.071,457.177,455.688,456.432,454.919z"/>
		</g>
		<g>
			<path d="M520.392,435.406c0.646-1.483,1.451-2.759,2.412-3.813c0.959-1.059,2.207-2.255,3.743-3.604
				c2.063-1.819,3.588-3.42,4.568-4.788c0.983-1.364,1.479-3.032,1.479-5c0-2.643-1.032-4.767-3.099-6.372
				c-2.063-1.608-4.896-2.412-8.493-2.412c-5.952,0-10.537,1.94-13.753,5.832l-3.815-2.88c4.08-4.991,10.056-7.488,17.928-7.488
				c5.041,0,9.063,1.128,12.063,3.384c3,2.257,4.5,5.305,4.5,9.146c0,1.969-0.324,3.704-0.976,5.22
				c-0.646,1.512-1.438,2.797-2.376,3.852c-0.936,1.056-2.172,2.28-3.708,3.672c-2.063,1.872-3.601,3.541-4.604,5.004
				c-1.008,1.465-1.516,3.276-1.516,5.438h-5.324C519.424,438.62,519.744,436.896,520.392,435.406z M519.424,454.951
				c-0.724-0.74-1.08-1.616-1.08-2.628c0-1.056,0.356-1.932,1.08-2.628c0.721-0.691,1.604-1.044,2.663-1.044
				c1.104,0,2.017,0.353,2.733,1.044c0.721,0.697,1.08,1.573,1.08,2.628c0,1.012-0.373,1.888-1.116,2.628
				c-0.745,0.745-1.646,1.116-2.697,1.116C521.027,456.071,520.14,455.698,519.424,454.951z"/>
		</g>
		<g>
			<path d="M561.892,435.406c0.646-1.483,1.451-2.759,2.412-3.813c0.959-1.059,2.207-2.255,3.743-3.604
				c2.063-1.819,3.588-3.42,4.568-4.788c0.983-1.364,1.479-3.032,1.479-5c0-2.643-1.032-4.767-3.099-6.372
				c-2.063-1.608-4.896-2.412-8.493-2.412c-5.952,0-10.537,1.94-13.753,5.832l-3.815-2.88c4.08-4.991,10.056-7.488,17.928-7.488
				c5.041,0,9.063,1.128,12.063,3.384c3,2.257,4.5,5.305,4.5,9.146c0,1.969-0.324,3.704-0.976,5.22
				c-0.646,1.512-1.438,2.797-2.376,3.852c-0.936,1.056-2.172,2.28-3.708,3.672c-2.063,1.872-3.601,3.541-4.604,5.004
				c-1.008,1.465-1.516,3.276-1.516,5.438h-5.324C560.924,438.62,561.244,436.896,561.892,435.406z M560.924,454.951
				c-0.724-0.74-1.08-1.616-1.08-2.628c0-1.056,0.356-1.932,1.08-2.628c0.721-0.691,1.604-1.044,2.663-1.044
				c1.104,0,2.017,0.353,2.733,1.044c0.721,0.697,1.08,1.573,1.08,2.628c0,1.012-0.373,1.888-1.116,2.628
				c-0.745,0.745-1.646,1.116-2.697,1.116C562.527,456.071,561.64,455.698,560.924,454.951z"/>
		</g>
		<g>
			<path d="M482.392,435.406c0.648-1.483,1.451-2.759,2.412-3.813c0.959-1.059,2.207-2.255,3.744-3.604
				c2.063-1.819,3.588-3.42,4.568-4.788c0.983-1.364,1.479-3.032,1.479-5c0-2.643-1.033-4.767-3.097-6.372
				c-2.064-1.608-4.896-2.412-8.495-2.412c-5.952,0-10.537,1.94-13.753,5.832l-3.815-2.88c4.079-4.991,10.055-7.488,17.928-7.488
				c5.04,0,9.063,1.128,12.063,3.384c3,2.257,4.5,5.305,4.5,9.146c0,1.969-0.324,3.704-0.976,5.22
				c-0.646,1.512-1.438,2.797-2.376,3.852c-0.936,1.056-2.172,2.28-3.708,3.672c-2.063,1.872-3.6,3.541-4.604,5.004
				c-1.009,1.465-1.516,3.276-1.516,5.438h-5.325C481.424,438.62,481.744,436.896,482.392,435.406z M481.424,454.951
				c-0.724-0.74-1.08-1.616-1.08-2.628c0-1.056,0.356-1.932,1.08-2.628c0.72-0.691,1.604-1.044,2.66-1.044
				c1.104,0,2.02,0.353,2.736,1.044c0.721,0.697,1.08,1.573,1.08,2.628c0,1.012-0.372,1.888-1.116,2.628
				c-0.745,0.745-1.645,1.116-2.7,1.116C483.029,456.07,482.14,455.698,481.424,454.951z"/>
		</g>
		<g>
			<path d="M592.431,454.919c-0.744-0.771-1.115-1.703-1.115-2.812c0-1.104,0.371-2.023,1.115-2.771
				c0.744-0.744,1.645-1.116,2.7-1.116c1.055,0,1.968,0.372,2.732,1.116c0.771,0.743,1.151,1.668,1.151,2.771
				c0,1.105-0.385,2.041-1.151,2.812c-0.769,0.769-1.681,1.148-2.732,1.148C594.076,456.071,593.177,455.688,592.431,454.919z"/>
		</g>
		<g>
			<path d="M613.279,453.619c-2.951-1.631-5.268-3.924-6.947-6.876c-1.681-2.948-2.52-6.271-2.52-9.972
				c0-3.696,0.839-7.008,2.52-9.936c1.684-2.931,3.996-5.208,6.947-6.84c2.953-1.632,6.301-2.448,10.045-2.448
				c3.268,0,6.184,0.637,8.748,1.908c2.566,1.271,4.596,3.132,6.084,5.576l-3.813,2.596c-1.248-1.872-2.832-3.276-4.752-4.216
				c-1.924-0.936-4.012-1.4-6.268-1.4c-2.732,0-5.197,0.609-7.381,1.836c-2.184,1.224-3.887,2.964-5.111,5.22
				c-1.225,2.257-1.836,4.824-1.836,7.704c0,2.928,0.611,5.508,1.836,7.74c1.229,2.229,2.932,3.96,5.111,5.184
				c2.186,1.228,4.646,1.836,7.381,1.836c2.256,0,4.344-0.456,6.268-1.368c1.92-0.907,3.504-2.304,4.752-4.176l3.813,2.592
				c-1.488,2.448-3.524,4.313-6.12,5.58c-2.593,1.272-5.497,1.908-8.712,1.908C619.58,456.071,616.232,455.256,613.279,453.619z"/>
		</g>
		<g>
			<path d="M656.279,453.619c-2.951-1.631-5.268-3.924-6.947-6.876c-1.681-2.948-2.52-6.271-2.52-9.972
				c0-3.696,0.839-7.008,2.52-9.936c1.684-2.931,3.996-5.208,6.947-6.84c2.953-1.632,6.301-2.448,10.045-2.448
				c3.268,0,6.184,0.637,8.748,1.908c2.566,1.271,4.596,3.132,6.084,5.576l-3.813,2.596c-1.248-1.872-2.832-3.276-4.752-4.216
				c-1.924-0.936-4.012-1.4-6.268-1.4c-2.732,0-5.197,0.609-7.381,1.836c-2.184,1.224-3.887,2.964-5.111,5.22
				c-1.225,2.257-1.836,4.824-1.836,7.704c0,2.928,0.611,5.508,1.836,7.74c1.229,2.229,2.932,3.96,5.111,5.184
				c2.186,1.228,4.646,1.836,7.381,1.836c2.256,0,4.344-0.456,6.268-1.368c1.92-0.907,3.504-2.304,4.752-4.176l3.813,2.592
				c-1.488,2.448-3.524,4.313-6.12,5.58c-2.593,1.272-5.497,1.908-8.712,1.908C662.58,456.071,659.232,455.256,656.279,453.619z"/>
		</g>
		<g>
			<path d="M698.279,453.619c-2.951-1.631-5.268-3.924-6.947-6.876c-1.681-2.948-2.52-6.271-2.52-9.972
				c0-3.696,0.839-7.008,2.52-9.936c1.684-2.931,3.996-5.208,6.947-6.84c2.953-1.632,6.301-2.448,10.045-2.448
				c3.268,0,6.184,0.637,8.748,1.908c2.566,1.271,4.596,3.132,6.084,5.576l-3.813,2.596c-1.248-1.872-2.832-3.276-4.752-4.216
				c-1.924-0.936-4.012-1.4-6.268-1.4c-2.732,0-5.197,0.609-7.381,1.836c-2.184,1.224-3.887,2.964-5.111,5.22
				c-1.225,2.257-1.836,4.824-1.836,7.704c0,2.928,0.611,5.508,1.836,7.74c1.229,2.229,2.932,3.96,5.111,5.184
				c2.186,1.228,4.646,1.836,7.381,1.836c2.256,0,4.344-0.456,6.268-1.368c1.92-0.907,3.504-2.304,4.752-4.176l3.813,2.592
				c-1.488,2.448-3.524,4.313-6.12,5.58c-2.593,1.272-5.497,1.908-8.712,1.908C704.58,456.071,701.232,455.256,698.279,453.619z"/>
		</g>
	</g>
	<g class="st10">
		<path d="M250.5,396.779h4.752v67.395H250.5V396.779z"/>
	</g>
	<div  class="typewriter">
		
			<text  transform="matrix(1 0 0 1 264.0769 578.5002)" startOffset="0" font-size="72" font-family="&apos;Montserrat-Regular&apos;">
			www.???.com</text>
	</div>
</g>
<g id="Layer_2">
	<line class="st0" x1="369.481" y1="541.851" x2="559.519" y2="543.192"/>
	<line class="st0" x1="403.5" y1="452.5" x2="403.5" y2="514.5"/>
	<line class="st0" x1="534.5" y1="514.021" x2="534.5" y2="453.5"/>
	<path class="st0" d="M424.18,495.165c0-12.896,13.865-23.331,31-23.331"/>
	<path class="st0" d="M486.18,495.165c0-12.896-13.865-23.331-31-23.331"/>
	<line class="st0" x1="424.18" y1="495.165" x2="424.18" y2="529.834"/>
	<line class="st0" x1="486.18" y1="495.165" x2="486.18" y2="529.834"/>
	<line class="st0" x1="254.5" y1="430" x2="369.5" y2="430"/>
	<line class="st0" x1="139.5" y1="430" x2="254.5" y2="430"/>
	<path class="st0" d="M462.096,443.602c0,0-5.157-33.081-30.551-32.075"/>
	<line class="st0" x1="404.811" y1="446.845" x2="404.811" y2="473.5"/>
	<line class="st0" x1="462.096" y1="443.602" x2="462.096" y2="473.5"/>
	<line class="st0" x1="469.5" y1="450.778" x2="469.5" y2="495"/>
	
		<image style="display:none;overflow:visible;enable-background:new    ;" width="114" height="16" xlink:href="43B902AC.jpg"  transform="matrix(0.9999 0 0 0.9374 197.5066 537.0002)">
	</image>
	<path class="st1" d="M233.25,532.497c-17.5,11.75-34.743,4.003-34.743,4.003v-5.75"/>
	<path class="st1" d="M299.509,505.75v5.75c0,0,17.241,7.746,34.741-4.003"/>
	<path class="st1" d="M198.507,531.25c0,0,18.493,5.875,34.743-3.5"/>
	<line class="st14" x1="232.475" y1="519.24" x2="232.763" y2="525.473"/>
	<line class="st14" x1="232.416" y1="517.973" x2="232.475" y2="519.24"/>
</g>
<g id="Layer_x5F_1" class="st16">
	<path class="st12" d="M451.602,574.534c0,5.479-4.443,9.925-9.923,9.925H357.81c-5.48,0-9.924-4.445-9.924-9.925V371.53
		c0-5.48,4.442-9.923,9.924-9.923h83.87c5.479,0,9.923,4.442,9.923,9.923L451.602,574.534L451.602,574.534z"/>
	<path class="st12" d="M626.856,574.534c0,5.479-4.442,9.925-9.923,9.925h-83.871c-5.481,0-9.924-4.445-9.924-9.925V371.53
		c0-5.48,4.441-9.923,9.924-9.923h83.871c5.479,0,9.923,4.442,9.923,9.923V574.534L626.856,574.534z"/>
	<path class="st12" d="M555.319,509.418c0,5.479-4.442,9.923-9.924,9.923h-83.87c-5.48,0-9.923-4.444-9.923-9.923V306.412
		c0-5.48,4.442-9.924,9.923-9.924h83.87c5.479,0,9.924,4.443,9.924,9.924V509.418z"/>
	<path class="st5" d="M682.485,513.875c0,10.963-8.886,19.846-19.847,19.846H332.313c-10.96,0-19.846-8.883-19.846-19.846V346.134
		c0-10.96,8.885-19.846,19.846-19.846h330.323c10.963,0,19.847,8.886,19.847,19.846v167.741H682.485z"/>
	<path id="vecmap" class="st3" d="M371.824,436.633c0,26.34,16.926,47.655,37.844,47.655"/>
	<path id="vecmap_1_" class="st4" d="M567.332,537.028c0,37.188,32.6,67.276,72.883,67.276"/>
	<path id="vecmap_2_" class="st4" d="M425.209,533.721c0,37.186-32.598,67.274-72.881,67.274"/>
</g>
<g id="paw1" class="st16">
	<ellipse class="st15" cx="320.487" cy="434.004" rx="4.056" ry="4.75"/>
	<circle class="st7" cx="594.03" cy="520.914" r="103.495"/>
	<path class="st15" d="M595.029,379.754c0,0-89.996-135.165-199.49-3.502c0,0-16.498,62.337-31.498,59.502
		c-15-2.836-43.496-4.494-47.996,18.834c-4.5,23.326,15,83.334,85.494,59.33c70.496-24.004,172.49,85.693,88.495,87.844"/>
	
		<ellipse transform="matrix(-0.9708 0.2401 -0.2401 -0.9708 1132.3801 719.4933)" class="st15" cx="522.365" cy="428.722" rx="38.016" ry="56.479"/>
	<line class="st13" x1="533.369" y1="520.912" x2="654.691" y2="520.912"/>
	<line class="st6" x1="594.85" y1="581.573" x2="594.384" y2="460.254"/>
</g>
<g id="paw4">
</g>
<g id="paw3">
</g>
<g id="paw2">
</g>
<g>
	<path class="st2" d="M651.427,482.899c0,10.964-8.887,19.846-19.848,19.846H360.12c-10.96,0-19.846-8.882-19.846-19.846V372.625
		c0-10.959,8.886-19.848,19.846-19.848h271.46c10.961,0,19.848,8.888,19.848,19.848V482.899z"/>
	<g>
		<line id="vecmap_3_" class="st9" x1="346.484" y1="377.865" x2="645.021" y2="377.865"/>
	</g>
	<g>
		<line id="vecmap_4_" class="st9" x1="388.769" y1="384.874" x2="388.769" y2="494.196"/>
	</g>
	<g>
		<line id="vecmap_5_" class="st9" x1="611.354" y1="384.874" x2="611.354" y2="494.196"/>
	</g>
	<g>
		<rect id="vecmaprec" x="346.484" y="401.58" class="st17" width="293.73" height="66.154"/>
	</g>
	<g>
		<line class="st9" x1="346.484" y1="467.735" x2="640.214" y2="467.735"/>
	</g>
</g>
</svg>
