<?xml version="1.0" encoding="utf-8"?>
<!-- Generator: Adobe Illustrator 16.0.0, SVG Export Plug-In . SVG Version: 6.00 Build 0)  -->
<!DOCTYPE svg PUBLIC "-//W3C//DTD SVG 1.1//EN" "http://www.w3.org/Graphics/SVG/1.1/DTD/svg11.dtd">
<svg version="1.1" id="Layer_2" xmlns="http://www.w3.org/2000/svg" xmlns:xlink="http://www.w3.org/1999/xlink" x="0px" y="0px"
	 width="200px" height="200px" viewBox="0 0 1000 1000" style="enable-background:new 0 0 1000 1000;" xml:space="preserve">
<style type="text/css">
<![CDATA[
	.st0{fill:#FFFFFF;stroke:#7F9E3D;stroke-width:4;stroke-miterlimit:10;}
	.st1{fill:#FFFFFF;stroke:#7F9E3D;stroke-width:8;stroke-miterlimit:10;enable-background:new    ;}
	.st2{fill:#FFFFFF;stroke:#7F9E3D;stroke-width:3;stroke-miterlimit:10;}
	.st3{display:none;fill:none;stroke:#7F9E3D;stroke-width:9;stroke-miterlimit:10;}
	.st4{fill:none;stroke:#7F9E3D;stroke-width:4;stroke-miterlimit:10;}
	.st5{fill:#FFFFFF;stroke:#7F9E3D;stroke-width:5;stroke-miterlimit:10;}
]]>
</style>
<circle class="st1" cx="500" cy="455.711" r="302.542"/>
<g id="Layer_1">
	<path class="st0" d="M444.525,594.475c0,6.627-5.373,12-12,12H331.102c-6.627,0-12-5.373-12-12V348.983c0-6.627,5.373-12,12-12
		h101.424c6.627,0,12,5.373,12,12L444.525,594.475L444.525,594.475z"/>
	<path class="st0" d="M695.373,594.475c0,6.627-5.373,12-12,12H581.949c-6.627,0-12-5.373-12-12V348.983c0-6.627,5.373-12,12-12
		h101.424c6.627,0,12,5.373,12,12V594.475z"/>
	<path class="st0" d="M569.949,515.729c0,6.627-5.373,12-12,12H456.525c-6.627,0-12-5.373-12-12V270.237c0-6.627,5.373-12,12-12
		h101.424c6.627,0,12,5.373,12,12V515.729z"/>
	<path class="st5" d="M617.544,569.135c0,6.629-5.372,12-12,12h-199.73c-6.627,0-12-5.371-12-12V467.711c0-6.627,5.373-12,12-12
		h199.729c6.628,0,12,5.373,12,12L617.544,569.135L617.544,569.135z"/>
	<path class="st2" d="M598.763,550.406c0,6.629-5.372,12-12,12H422.629c-6.629,0-12-5.371-12-12v-66.677c0-6.627,5.371-12,12-12
		h164.136c6.628,0,12,5.373,12,12L598.763,550.406L598.763,550.406z"/>
	<path class="st3" d="M348.052,427.712c0,31.853,20.468,57.628,45.763,57.628"/>
	<path class="st4" d="M547.916,583.135c0,22.482,19.712,40.678,44.067,40.678"/>
	<path class="st4" d="M461.982,581.135c0,22.482-19.71,40.678-44.067,40.678"/>
</g>
</svg>
