<?xml version="1.0" encoding="utf-8"?>
<!-- Generator: Adobe Illustrator 23.1.0, SVG Export Plug-In . SVG Version: 6.00 Build 0)  -->
<svg version="1.1" id="Layer_1" xmlns="http://www.w3.org/2000/svg" xmlns:xlink="http://www.w3.org/1999/xlink" x="0px" y="0px"
	 viewBox="0 0 265.1 325" style="enable-background:new 0 0 265.1 325;" xml:space="preserve">
	 	 	 <script  id="script4044" xlink:href="https://cdnjs.cloudflare.com/ajax/libs/snap.svg/0.4.1/snap.svg.js"></script>

<style type="text/css">
	.st0{display:none;fill:#FFFFFF;}
	.st1{display:none;fill:#FFFFFF;stroke:#000000;stroke-miterlimit:1.137;}
	.st2{display:none;}
	.st3{display:inline;fill:none;stroke:#000000;stroke-width:3;stroke-miterlimit:1.137;}
	.st4{display:inline;}
	.st5{fill:#FFFFFF;}
	.st6{display:inline;fill:none;stroke:#000000;stroke-width:2;stroke-miterlimit:1.137;}
	.st7{fill:#FFFFFF;stroke:#000000;stroke-width:2;stroke-miterlimit:1.137;}
	.st8{fill:none;stroke:#000000;stroke-width:2;stroke-miterlimit:1.137;}
	.st9{display:none;fill:none;}
	.st10{display:none;fill:none;stroke:#000000;stroke-width:1.2507;stroke-miterlimit:1.137;}
	.st11{display:none;fill:none;stroke:#DDDDDD;stroke-width:1.2507;stroke-miterlimit:1.137;}
	.st12{fill:none;stroke:#000000;stroke-width:1.0233;stroke-miterlimit:1.137;}
	.st13{display:inline;fill:none;stroke:#000000;stroke-width:1.2507;stroke-miterlimit:1.137;}
	.st14{fill:none;stroke:#000000;stroke-width:3;stroke-miterlimit:1.137;}
	.st15{display:inline;fill:#FFFFFF;}
	.st16{fill:none;}
	.st17{fill:#FFFFFF;stroke:#000000;stroke-width:3;stroke-miterlimit:1.137;}
	.st18{fill:#FFFFFF;stroke:#FFFFFF;stroke-width:4;stroke-miterlimit:1.137;}
	.st19{stroke:#000000;stroke-width:0.6822;stroke-miterlimit:1.137;}
	.st20{fill:#FFFFFF;stroke:#000000;stroke-width:0.6822;stroke-miterlimit:1.137;}
	.st21{display:inline;stroke:#000000;stroke-width:0.6822;stroke-miterlimit:1.137;}
	.st22{display:none;fill:#FFFFFF;stroke:#000000;stroke-width:0.5685;stroke-miterlimit:1.137;}
	.st23{fill:none;stroke:#000000;stroke-width:0.6822;stroke-miterlimit:1.137;}
	.st24{fill:#A7A9AC;}
	.st25{fill:#FFFFFF;stroke:#010101;stroke-width:2;stroke-miterlimit:1.137;}
	.st26{fill:none;stroke:#010101;stroke-width:2;stroke-miterlimit:1.137;}
	.st27{display:none;fill:#FFFFFF;stroke:#000000;stroke-width:0.6822;stroke-miterlimit:1.137;}
	.st28{display:none;fill:none;stroke:#000000;stroke-width:0.7959;stroke-miterlimit:1.137;}
	.st29{fill:none;stroke:#000000;stroke-width:2;stroke-miterlimit:10;}
	.st30{fill:none;stroke:#000000;stroke-width:0.7959;stroke-miterlimit:1.137;}
	.st31{display:none;opacity:0;}
	.st32{display:inline;fill:none;stroke:#000000;stroke-width:2.0466;stroke-miterlimit:1.137;}
	.st33{display:inline;fill:none;stroke:#000000;stroke-width:5;stroke-miterlimit:1.137;}
	.st34{opacity:0;}
	.st35{fill:none;stroke:#000000;stroke-width:2.0466;stroke-miterlimit:1.137;}
	.st36{display:none;fill:none;stroke:#000000;stroke-width:2.0466;stroke-miterlimit:1.137;}
	.st37{fill:#A7A9AC;stroke:#000000;stroke-width:3;stroke-miterlimit:1.137;}
	.st38{fill:none;stroke:#000000;stroke-miterlimit:1.137;}
	.st39{display:none;fill:none;stroke:#000000;stroke-width:3;stroke-miterlimit:1.137;}
	.st40{fill:#FFFFFF;stroke:#000000;stroke-width:1.8;stroke-miterlimit:1.137;}
	.st41{fill:#FFFFFF;stroke:#000000;stroke-width:1.7;stroke-miterlimit:1.137;}
	.st42{fill:none;stroke:#000000;stroke-width:1.5;stroke-miterlimit:1.137;}
	.st43{fill:#FFFFFF;stroke:#000000;stroke-miterlimit:1.137;}
	.st44{fill:#FFFFFF;stroke:#010101;stroke-miterlimit:1.137;}
	.st45{fill:none;stroke:#010101;stroke-miterlimit:1.137;}
	.st46{fill:none;stroke:#000000;stroke-miterlimit:10;}
	.st47{fill:#A7A9AC;stroke:#000000;stroke-width:2;stroke-miterlimit:1.137;}
	.st48{fill:#FFFFFF;stroke:#FFFFFF;stroke-width:0.75;stroke-miterlimit:1.137;}
	.st49{display:none;fill:#FFFFFF;stroke:#000000;stroke-width:4;stroke-miterlimit:1.137;}
	.st50{fill:#FFFFFF;stroke:#000000;stroke-width:4;stroke-miterlimit:1.137;}
	.st51{fill:#070707;stroke:#000000;stroke-miterlimit:1.137;}
</style>
<script  id="script4044"></script>
<script  id="script4044"></script>
<script  id="script4044"></script>
<rect class="st0" width="265.1" height="302.9"/>
<rect y="284.7" class="st1" width="265.1" height="40.3"/>
<script  id="script4044"></script>
<g id="sSmileCloud2" class="st2">
	<path class="st3" d="M167,16.9"/>
	<g class="st4">
		<path class="st5" d="M117.2,19.7c0,0,2.7,6.7,9.6,8.1c0,0,19.4,17.9,23.4-15c0,0-10.7-15.2-25.6,0
			C124.6,12.7,118.2,12.2,117.2,19.7z"/>
		<path class="st5" d="M151,12.7c0,0,18,8.2-7.9,18.2C143.1,30.9,147.3,10.2,151,12.7z"/>
	</g>
	<path class="st6" d="M149.3,16.9c0-6.5-5.3-11.8-11.8-11.8c-6.4,0-11.8,5.3-11.8,11.8"/>
	<path class="st6" d="M126.5,11.3c-5.2,0.1-9.4,3.8-9.3,8.4c0.1,4.5,4.3,8.1,9.6,8.1"/>
	<path class="st6" d="M148.2,11.3c5.3,0.1,9.5,3.8,9.4,8.4c-0.1,4.5-4.4,8.1-9.7,8.1"/>
	<path class="st6" d="M148.6,27.2c0,3.2-5,5.8-11.2,5.8s-11.2-2.6-11.2-5.8"/>
	<path class="st6" d="M145.4,22.1c0,0-5,4.7-8.4,0"/>
	<path class="st6" d="M138,14c0,0-1.9-2.9-3.4,0"/>
	<path class="st6" d="M143.1,14c0,0,1.9-2.9,3.4,0"/>
</g>
<g id="mountains">
	<path class="st7" d="M196.9,54.3l15.9-40.6c0,0,7.9-15.4,15.9,0L247,54.3H196.9z"/>
	<path class="st7" d="M178.2,69.6l15.9-37.1c0,0,7.9-14.1,15.9,0l18.3,37.1H178.2z"/>
	<path class="st7" d="M215.9,69.6l15.9-37.1c0,0,7.9-14.1,15.9,0L266,69.6H215.9z"/>
	<g>
		<path class="st8" d="M210.7,18.2l2.7,2.8c1.3,1.3,3.3,1.3,4.5,0l1.1-1.2c1.2-1.3,3.3-1.4,4.5,0l1.3,1.3c1.3,1.3,3,1.1,4-0.3
			c0.9-1.5,1.7-2.7,1.7-2.7"/>
	</g>
	<g>
		<path class="st8" d="M191.6,37.4l2.7,2.8c1.3,1.3,3.3,1.3,4.5,0l1.1-1.2c1.2-1.3,3.3-1.4,4.5,0l1.3,1.3c1.3,1.3,3,1.1,4-0.3
			s1.7-2.7,1.7-2.7"/>
	</g>
	<g>
		<path class="st8" d="M230.6,36.6l4.3,5.1c1.2,1.4,3,1.3,4-0.1l1.6-2.2c1.1-1.5,2.8-1.5,3.8,0l2.5,3.5c1.1,1.5,2.3,1.4,2.8-0.2
			c0.5-1.6,0.9-2.9,0.9-2.9"/>
	</g>
</g>
<g id="ror1">
	<line class="st9" x1="5.2" y1="300.9" x2="26.8" y2="300.9"/>
	<line class="st10" x1="5.2" y1="300.9" x2="26.8" y2="300.9"/>
	<line class="st10" x1="5.2" y1="300.9" x2="26.8" y2="300.9"/>
	<line class="st10" x1="5.2" y1="300.9" x2="26.8" y2="300.9"/>
	<line class="st10" x1="5.2" y1="300.9" x2="26.8" y2="300.9"/>
	<line class="st10" x1="5.2" y1="300.9" x2="26.8" y2="300.9"/>
	<line class="st10" x1="5.2" y1="300.9" x2="26.8" y2="300.9"/>
	<line class="st10" x1="5.2" y1="300.9" x2="26.8" y2="300.9"/>
	<line class="st10" x1="98.8" y1="300.9" x2="120.4" y2="300.9"/>
	<line class="st10" x1="131.7" y1="300.9" x2="153.2" y2="300.9"/>
	<line class="st11" x1="163.5" y1="300.9" x2="185" y2="300.9"/>
	<line id="road3_10_" class="st10" x1="196.1" y1="223.3" x2="217.6" y2="223.3"/>
</g>
<g id="rowofroad2" class="st2">
	<g id="bush" class="st4">
		<path class="st12" d="M5.2,283.3c0,0,0.8-12.6,15.1-11c0,0,9.2-12.2,17.2-0.1c0,0,11.9-1.7,10.7,11.2h-43
			C5.2,283.4,5.2,283.3,5.2,283.3z"/>
		<path class="st12" d="M209.7,238.3c0,0,1.6-16.4,12.3-10.7c0,0,8.3-22.4,19.1-1.2c0,0,12.7-1,11.1,11.9H209.7z"/>
	</g>
	<g id="bush_1_" class="st4">
		<path class="st7" d="M5.2,283.3c0,0,0.8-12.6,15.1-11c0,0,9.2-12.2,17.2-0.1c0,0,11.9-1.7,10.7,11.2h-43
			C5.2,283.4,5.2,283.3,5.2,283.3z"/>
		<path class="st7" d="M209.7,238.3c0,0,1.6-16.4,12.3-10.7c0,0,8.3-22.4,19.1-1.2c0,0,12.7-1,11.1,11.9H209.7z"/>
	</g>
	<line class="st13" x1="5.2" y1="300.9" x2="26.8" y2="300.9"/>
	<line class="st13" x1="5.2" y1="300.9" x2="26.8" y2="300.9"/>
	<line class="st13" x1="5.2" y1="300.9" x2="26.8" y2="300.9"/>
	<line class="st13" x1="5.2" y1="300.9" x2="26.8" y2="300.9"/>
	<line class="st13" x1="5.2" y1="300.9" x2="26.8" y2="300.9"/>
	<line class="st13" x1="5.2" y1="300.9" x2="26.8" y2="300.9"/>
	<line class="st13" x1="5.2" y1="300.9" x2="26.8" y2="300.9"/>
	<line class="st13" x1="98.8" y1="300.9" x2="120.4" y2="300.9"/>
	<line class="st13" x1="131.7" y1="300.9" x2="153.2" y2="300.9"/>
	<line class="st13" x1="163.5" y1="300.9" x2="185" y2="300.9"/>
	<g id="RowOfRoad" class="st4">
		<line id="road3_21_" class="st8" x1="4.6" y1="300.9" x2="26.2" y2="300.9"/>
		<line id="road3_20_" class="st8" x1="36.4" y1="300.7" x2="58" y2="300.7"/>
		<line id="road3_19_" class="st8" x1="68.2" y1="300.5" x2="89.8" y2="300.5"/>
		<line id="road3_18_" class="st8" x1="100" y1="300.3" x2="121.6" y2="300.3"/>
		<line id="road3_17_" class="st8" x1="131.8" y1="300.1" x2="153.4" y2="300.1"/>
		<line id="road3_16_" class="st8" x1="163.6" y1="299.9" x2="185.2" y2="299.9"/>
		<line id="road3_15_" class="st8" x1="195.4" y1="299.7" x2="217" y2="299.7"/>
		<line id="road3_14_" class="st8" x1="227.2" y1="299.5" x2="248.8" y2="299.5"/>
	</g>
</g>
<g id="road" class="st2">
	<line class="st6" x1="0" y1="284.7" x2="265.1" y2="284.7"/>
	<line class="st3" x1="0" y1="204.7" x2="265.1" y2="204.7"/>
</g>
<rect x="186.2" y="34.2" class="st0" width="38.1" height="19.6"/>
<g id="sSmileCloud">
	<g>
		<path class="st5" d="M174.7-32.2c0,0,4.2,10.2,14.8,12.4c0,0,30,27.4,36.2-23c0,0-16.5-23.3-39.6,0
			C186.1-42.9,176.2-43.7,174.7-32.2z"/>
		<path class="st5" d="M227-42.9c0,0,27.8,12.6-12.2,27.9C214.8-15,221.2-46.8,227-42.9z"/>
	</g>
	<path class="st14" d="M160.3-37"/>
	<path class="st14" d="M187.3-37c0-9.9,8.1-18,18-18s18,8.1,18,18"/>
	<path class="st14" d="M222.2-45.5c7.9,0.1,14.3,5.8,14.2,12.8c-0.1,6.9-6.6,12.5-14.6,12.3"/>
	<path class="st14" d="M189.1-45.5c-8.1,0.1-14.5,5.8-14.4,12.8s6.7,12.5,14.8,12.3"/>
	<path class="st14" d="M188.4-21.3c0,4.9,7.6,8.9,17.1,8.9s17.1-4,17.1-8.9"/>
	<path class="st8" d="M193.3-29c0,0,7.6,7.1,12.9,0"/>
	<path class="st8" d="M204.5-41.5c0,0,2.9-4.4,5.2,0"/>
	<path class="st8" d="M196.7-41.5c0,0-2.9-4.4-5.2,0"/>
</g>
<g class="st2">
	<path class="st15" d="M185.2,96.3c-3.8,0-7,2.1-7,4.8c0,2.6,3.2,4.8,7,4.8h58c3.9,0,7-2.1,7-4.8c0-2.6-3.1-4.8-7-4.8H185.2z"/>
	<path class="st6" d="M185.2,96.3c-3.8,0-7,2.1-7,4.8c0,2.6,3.2,4.8,7,4.8h58c3.9,0,7-2.1,7-4.8c0-2.6-3.1-4.8-7-4.8H185.2z"/>
</g>
<path class="st16" d="M17.7,96c0,0.1,0,0.3,0.1,0.4c0.5,0.3,1.1,0.5,1.7,0.6c-0.1,0-0.3,0-0.4,0"/>
<polygon class="st17" points="71.5,162.5 81.3,153.7 117.6,153.7 108.3,162.5 "/>
<polygon class="st17" points="71.5,178.5 81.3,169.7 117.6,169.7 108.3,178.5 "/>
<polygon class="st17" points="71.5,195.5 81.3,186.7 117.6,186.7 108.3,195.5 "/>
<polygon class="st17" points="71.5,212.5 81.3,203.7 117.6,203.7 108.3,212.5 "/>
<g>
	<path class="st5" d="M143.8,135.2l0.9,87.3c0,0.5-0.4,1.2-0.9,1.4l-33.6,14.5c-0.5,0.2-0.9-0.1-0.9-0.6l1-72.3"/>
	<path class="st14" d="M143.8,135.2l0.9,87.3c0,0.5-0.4,1.2-0.9,1.4l-33.6,14.5c-0.5,0.2-0.9-0.1-0.9-0.6l1-72.3"/>
</g>
<line class="st8" x1="109.9" y1="239.1" x2="382.1" y2="242.6"/>
<polygon class="st18" points="111.9,138.2 139.1,88.5 140,168.8 111.5,168.8 "/>
<g id="Truck_close">
	<g id="Tires_1_">
		<ellipse class="st19" cx="223.4" cy="254.1" rx="16.3" ry="15.3"/>
		<ellipse class="st19" cx="144.9" cy="254.1" rx="16.6" ry="15.3"/>
		<g>
			<circle class="st20" cx="223.4" cy="253.9" r="8"/>
			<circle class="st20" cx="144.9" cy="254.1" r="8"/>
		</g>
	</g>
	<g id="truck">
		<path class="st17" d="M91.5,229.3v-24.9v-20.7c0,0,0-16,21.9-13l59.8,0.3v58.3L91.5,229.3L91.5,229.3z"/>
		<path class="st7" d="M177.6,200.6c0,0,0.4-4,4.5,0V232h-4.5V200.6z"/>
		<path class="st7" d="M242.5,200.6c0,0-0.4-4-4.5,0V232h4.5V200.6z"/>
		<g id="Tires" class="st2">
			<ellipse class="st21" cx="223.4" cy="254.1" rx="16.3" ry="15.3"/>
			<ellipse class="st21" cx="144.9" cy="254.1" rx="16.6" ry="15.3"/>
		</g>
		<path class="st22" d="M240.5,157.7c0,0,8.8-1.1,11,2.6v13.1H236c0,0,1.9-7.8-2.5-13.1c0,0-15.2-15.4-33.2,0c0,0-5.8,5.9,0,12.6
			l-40,0.5c0,0,0-10.5-4.5-13.1s-14.8-14.9-33.2,0c0,0-7.2,11-2.2,13.1h-16.7c0,0-3.1-25.9,2.7-21.8l131.9-0.4L240.5,157.7z"/>
		<path class="st23" d="M242.5,232"/>
		<path class="st24" d="M252,236.6v22.2h-5.8c0,0,1-4.4-0.8-4.7L252,236.6z"/>
		<polygon class="st7" points="154.9,170.5 154.9,145 161.6,141.5 161.6,170.5 		"/>
		<g id="rocket">
			<path class="st25" d="M209.7,164c0,0-27.8,37.5-10.4,48.6h10.4"/>
			<path class="st25" d="M209.2,164c0,0,27.8,37.5,10.4,48.6h-10.4"/>
			<g id="Layer_3_1_">
				<circle class="st25" cx="209.4" cy="194.9" r="6.8"/>
				<polyline class="st25" points="206.3,213.2 202.3,218.2 209.4,218.2 				"/>
				<polyline class="st25" points="212.6,213.2 216.5,218.2 209.5,218.2 				"/>
				<line class="st26" x1="202.6" y1="220.9" x2="202.6" y2="226.9"/>
				<line class="st26" x1="209.7" y1="223.9" x2="209.7" y2="235.5"/>
				<line class="st26" x1="216.6" y1="220.9" x2="216.6" y2="226.9"/>
			</g>
		</g>
		<line class="st23" x1="182.1" y1="209.4" x2="239.7" y2="209.4"/>
		<line class="st23" x1="182.1" y1="221.6" x2="239.7" y2="221.6"/>
		<path class="st27" d="M94.6,119.7V104c0,0,3.6-7.6,8.5-5.8h12.1v21.6L94.6,119.7L94.6,119.7z"/>
		<line class="st28" x1="38" y1="257.9" x2="318.5" y2="257.9"/>
		<path class="st29" d="M105.8,186.2c0,0,3.3-5.3,6.2-5.3h16.2v18.7h-22.4L105.8,186.2L105.8,186.2z"/>
		<line class="st23" x1="120" y1="203.5" x2="124.5" y2="203.5"/>
		<rect x="105.8" y="199.6" class="st8" width="22.4" height="18.8"/>
		<path class="st8" d="M91.8,181.5h4c0,0,2.4,2,1.9,4.1l0.1,18.6c0,0-1.9,3.2-3,3.2h-3C91.8,207.4,91.8,181.5,91.8,181.5z"/>
		<line class="st23" x1="151.7" y1="177.4" x2="164.7" y2="177.4"/>
		<line class="st23" x1="151.7" y1="180.1" x2="164.7" y2="180.1"/>
		<line class="st23" x1="151.7" y1="183" x2="164.7" y2="183"/>
		<line class="st30" x1="91.8" y1="184.3" x2="94.7" y2="191.2"/>
		<g id="sbubble2" class="st31">
			<path class="st32" d="M152.9,129.3c0,0,2.4-2.9,4.8,0"/>
			<path class="st32" d="M157.5,129.2c0,0,3,2.3,0.1,4.8"/>
			<path class="st32" d="M157.8,133.8c0,0-3.1,3.4-5.1-0.7"/>
			<path class="st32" d="M152.9,133.6c0,0-2.8-2.4,0.3-4.3"/>
			<path class="st32" d="M154.7,133.5c0,0,1.1,1.6,2.5,0"/>
			<path class="st33" d="M148.8,131.2c0,0-6.2,2.7-3.9-2.5c0,0,4,4.9,7.6,1.3c0,0,1.1-1.6,2.5,0"/>
		</g>
		<g id="sbubble3" class="st31">
			<path class="st32" d="M198.7,111.3c0,0,2.4-2.9,4.8,0"/>
			<path class="st32" d="M203.4,111.2c0,0,3,2.3,0.1,4.8"/>
			<path class="st32" d="M203.6,115.8c0,0-3.1,3.4-5.1-0.7"/>
			<path class="st32" d="M198.7,115.6c0,0-2.8-2.4,0.3-4.3"/>
			<path class="st32" d="M200.5,115.6c0,0,1.1,1.6,2.5,0"/>
			<path class="st32" d="M198.4,112c0,0,1.1-1.6,2.5,0"/>
		</g>
		<g id="sbubble4" class="st31">
			<path class="st32" d="M186,89.7c0,0,2.4-2.9,4.8,0"/>
			<path class="st32" d="M190.6,89.6c0,0,3,2.3,0.1,4.8"/>
			<path class="st32" d="M190.9,94.2c0,0-3.1,3.4-5.1-0.7"/>
			<path class="st32" d="M186,94c0,0-2.8-2.4,0.3-4.3"/>
			<path class="st32" d="M187.8,93.9c0,0,1.1,1.6,2.5,0"/>
			<path class="st32" d="M185.7,90.4c0,0,1.1-1.6,2.5,0"/>
		</g>
		<g id="sbubble5" class="st34">
			<path class="st35" d="M202.3,65.5c0,0,2.4-2.9,4.8,0"/>
			<path class="st35" d="M206.9,65.4c0,0,3,2.3,0.1,4.8"/>
			<path class="st35" d="M207.2,70c0,0-3.1,3.4-5.1-0.7"/>
			<path class="st35" d="M202.3,69.8c0,0-2.8-2.4,0.3-4.3"/>
			<path class="st35" d="M204.1,69.7c0,0,1.1,1.6,2.5,0"/>
			<path class="st35" d="M202,66.2c0,0,1.1-1.6,2.5,0"/>
		</g>
		<polyline class="st36" points="144.9,156 38,156 71.9,76.6 		"/>
		<path class="st37" d="M253.5,232.2v28.1H245h8.5V232.2H245h-4.5h-62.7l-4.6-2.1H94.3c-6.7,0-3.1,28.3-3.1,28.3h3.1h14.9l14-0.6
			c0-12.1,9.8-21.9,21.9-21.9s21.9,9.8,21.9,21.9v0.5h34.1v-0.5c0-12.1,9.8-21.9,21.9-21.9c12.1,0,21.9,9.8,21.9,21.9"/>
	</g>
	<g id="SmokeBubbles">
		<g id="SBubble1">
			<path id="SmokeBubble1" class="st7" d="M160.8,120.6c-8.8-6-11.7,0-11.7,0s-10,4.5,0,11.9c0,0,5.5,7.9,11.7,0
				C160.8,132.5,169.9,126.8,160.8,120.6z"/>
			<path class="st38" d="M150.2,126.3c0,0,0,4.5,6.3,4.5"/>
		</g>
		<g id="SBubble2">
			<path id="SmokeBubble2" class="st7" d="M178.1,111.8c-5.6-3.9-7.5,0-7.5,0s-6.4,2.9,0,7.6c0,0,3.5,5.1,7.5,0
				C178.1,119.4,183.9,115.8,178.1,111.8z"/>
			<path class="st38" d="M171.6,116.4c0,0,1.7,2.4,5.1-0.1"/>
		</g>
		<g id="SBubble3">
			<path id="SmokeBubble3" class="st7" d="M192.6,121.3c-4.5-3.1-6,0-6,0s-5.1,2.3,0,6.1c0,0,2.8,4.1,6,0
				C192.6,127.4,197.3,124.5,192.6,121.3z"/>
			<path class="st38" d="M188.8,125.4c0,0,2.8-0.1,2.7-2.2"/>
		</g>
	</g>
</g>
<g>
	<path class="st5" d="M194,17.1c0,0.8,0,2.1,0,2.9c0,0.8,0.8,1.5,1.7,1.5h16.4c0.9,0,1.7,0.6,1.7,1.3c0,0.7,0.8,1.3,1.7,1.3
		l35.7,0.1c0.9,0,1.7-1.3,1.7-2.9v-0.1c0-1.6-0.8-2.9-1.7-2.9h-36.1c-0.9,0-1.7-0.7-1.7-1.5c0-0.8-0.8-1.5-1.7-1.5h-16
		C194.7,15.6,194,16.3,194,17.1z"/>
	<path class="st8" d="M194,17.1c0,0.8,0,2.1,0,2.9c0,0.8,0.8,1.5,1.7,1.5h16.4c0.9,0,1.7,0.6,1.7,1.3c0,0.7,0.8,1.3,1.7,1.3
		l35.7,0.1c0.9,0,1.7-1.3,1.7-2.9v-0.1c0-1.6-0.8-2.9-1.7-2.9h-36.1c-0.9,0-1.7-0.7-1.7-1.5c0-0.8-0.8-1.5-1.7-1.5h-16
		C194.7,15.6,194,16.3,194,17.1z"/>
</g>
<path class="st17" d="M143.8,135"/>
<g>
	<path class="st14" d="M-1,316l62.2-46.1c0.4-0.3,0.8-1,0.8-1.6V140.8c0-0.6,0.4-1.1,0.9-1.3l45.2-15.6c0.5-0.2,0.9,0.1,0.9,0.7
		l0.1,42"/>
</g>
<line class="st39" x1="71.5" y1="230" x2="71.5" y2="144.9"/>
<g>
	<path class="st5" d="M92.9,154.1c0,0.6-0.4,1-1,1h-7c-0.6,0-1-0.4-1-1v-7c0-0.5,0.4-1,1-1h7c0.6,0,1,0.5,1,1V154.1z"/>
	<path class="st8" d="M92.9,154.1c0,0.6-0.4,1-1,1h-7c-0.6,0-1-0.4-1-1v-7c0-0.5,0.4-1,1-1h7c0.6,0,1,0.5,1,1V154.1z"/>
</g>
<g>
	<path class="st5" d="M89.9,157.1c0,0.6-0.4,1-1,1h-7c-0.6,0-1-0.4-1-1v-7c0-0.5,0.4-1,1-1h7c0.6,0,1,0.5,1,1V157.1z"/>
	<path class="st8" d="M89.9,157.1c0,0.6-0.4,1-1,1h-7c-0.6,0-1-0.4-1-1v-7c0-0.5,0.4-1,1-1h7c0.6,0,1,0.5,1,1V157.1z"/>
</g>
<g>
	<line class="st16" x1="80.9" y1="149.1" x2="83.9" y2="146.1"/>
	<line class="st8" x1="80.9" y1="149.1" x2="83.9" y2="146.1"/>
</g>
<g>
	<line class="st16" x1="89.9" y1="149.1" x2="92.9" y2="146.1"/>
	<line class="st8" x1="89.9" y1="149.1" x2="92.9" y2="146.1"/>
</g>
<g>
	<line class="st16" x1="89.9" y1="158.1" x2="92.9" y2="155.1"/>
	<line class="st8" x1="89.9" y1="158.1" x2="92.9" y2="155.1"/>
</g>
<circle class="st40" cx="90.1" cy="157.6" r="0.4"/>
<circle class="st41" cx="92.6" cy="155" r="0.4"/>
<circle class="st41" cx="84.1" cy="146.4" r="0.4"/>
<circle class="st41" cx="81.4" cy="149.1" r="0.4"/>
<g>
	<path class="st5" d="M98.1,143.2c0,0.6-0.4,1-1,1h-7c-0.5,0-1-0.4-1-1v-7c0-0.6,0.5-1,1-1h7c0.6,0,1,0.4,1,1V143.2z"/>
	<path class="st8" d="M98.1,143.2c0,0.6-0.4,1-1,1h-7c-0.5,0-1-0.4-1-1v-7c0-0.6,0.5-1,1-1h7c0.6,0,1,0.4,1,1V143.2z"/>
</g>
<g>
	<path class="st5" d="M95.1,146.2c0,0.6-0.4,1-1,1h-7c-0.5,0-1-0.4-1-1v-7c0-0.6,0.5-1,1-1h7c0.6,0,1,0.4,1,1V146.2z"/>
	<path class="st8" d="M95.1,146.2c0,0.6-0.4,1-1,1h-7c-0.5,0-1-0.4-1-1v-7c0-0.6,0.5-1,1-1h7c0.6,0,1,0.4,1,1V146.2z"/>
</g>
<g>
	<line class="st16" x1="86.1" y1="138.2" x2="89.1" y2="135.2"/>
	<line class="st8" x1="86.1" y1="138.2" x2="89.1" y2="135.2"/>
</g>
<g>
	<line class="st16" x1="95.1" y1="138.2" x2="98.1" y2="135.2"/>
	<line class="st8" x1="95.1" y1="138.2" x2="98.1" y2="135.2"/>
</g>
<g>
	<line class="st16" x1="95.1" y1="147.2" x2="98.1" y2="144.2"/>
	<line class="st8" x1="95.1" y1="147.2" x2="98.1" y2="144.2"/>
</g>
<circle class="st40" cx="95.3" cy="146.6" r="0.4"/>
<circle class="st41" cx="97.8" cy="144.1" r="0.4"/>
<circle class="st41" cx="89.3" cy="135.4" r="0.4"/>
<circle class="st41" cx="86.6" cy="138.2" r="0.4"/>
<g>
	<path class="st5" d="M105.1,154.2c0,0.6-0.4,1-1,1h-7c-0.5,0-1-0.4-1-1v-7c0-0.6,0.5-1,1-1h7c0.6,0,1,0.4,1,1V154.2z"/>
	<path class="st8" d="M105.1,154.2c0,0.6-0.4,1-1,1h-7c-0.5,0-1-0.4-1-1v-7c0-0.6,0.5-1,1-1h7c0.6,0,1,0.4,1,1V154.2z"/>
</g>
<g>
	<path class="st5" d="M102.1,157.2c0,0.6-0.4,1-1,1h-7c-0.5,0-1-0.4-1-1v-7c0-0.6,0.5-1,1-1h7c0.6,0,1,0.4,1,1V157.2z"/>
	<path class="st8" d="M102.1,157.2c0,0.6-0.4,1-1,1h-7c-0.5,0-1-0.4-1-1v-7c0-0.6,0.5-1,1-1h7c0.6,0,1,0.4,1,1V157.2z"/>
</g>
<g>
	<line class="st16" x1="93.1" y1="149.2" x2="96.1" y2="146.2"/>
	<line class="st8" x1="93.1" y1="149.2" x2="96.1" y2="146.2"/>
</g>
<g>
	<line class="st16" x1="102.1" y1="149.2" x2="105.1" y2="146.2"/>
	<line class="st8" x1="102.1" y1="149.2" x2="105.1" y2="146.2"/>
	<g>
		<path class="st5" d="M143.8,135V49.5c0-0.5-0.4-0.9-1-0.8L64,64c-0.5,0.1-1.4,0.3-2,0.4L-5.6,77.9"/>
		<path class="st17" d="M143.8,135V49.5c0-0.5-0.4-0.9-1-0.8L64,64c-0.5,0.1-1.4,0.3-2,0.4L-5.6,77.9V46.5l148.4,2L-1,46.5"/>
	</g>
</g>
<g>
	<line class="st16" x1="102.1" y1="158.2" x2="105.1" y2="155.2"/>
	<line class="st8" x1="102.1" y1="158.2" x2="105.1" y2="155.2"/>
</g>
<circle class="st40" cx="102.3" cy="157.6" r="0.4"/>
<circle class="st41" cx="104.8" cy="155.1" r="0.4"/>
<circle class="st41" cx="96.3" cy="146.4" r="0.4"/>
<circle class="st41" cx="93.6" cy="149.2" r="0.4"/>
<line class="st42" x1="144.9" y1="80.3" x2="265.1" y2="81.7"/>
<line class="st42" x1="144.9" y1="69.3" x2="265.1" y2="70.7"/>
<g id="TruckFar">
	<g id="Tires_3_">
		<ellipse class="st19" cx="173.5" cy="74" rx="6.5" ry="6.1"/>
		<ellipse class="st19" cx="204.7" cy="74" rx="6.6" ry="6.1"/>
		<g>
			<circle class="st20" cx="173.5" cy="73.9" r="3.2"/>
			<circle class="st20" cx="204.7" cy="74" r="3.2"/>
		</g>
	</g>
	<g id="truck_1_">
		<path class="st7" d="M226,63.1h-32.6V39.8l23.8-0.1c8.7-1.2,8.7,5.2,8.7,5.2v8.2v10H226z"/>
		<path class="st43" d="M191.7,64.2h-1.8V51.6c1.6-1.6,1.8,0,1.8,0V64.2z"/>
		<path class="st43" d="M165.9,64.2h1.8V51.6c-1.6-1.6-1.8,0-1.8,0V64.2z"/>
		<g id="Tires_2_" class="st2">
			<ellipse class="st21" cx="173.5" cy="73" rx="6.5" ry="6.1"/>
			<ellipse class="st21" cx="204.7" cy="73" rx="6.6" ry="6.1"/>
		</g>
		<path class="st22" d="M167.5,32l52.6,0.2c2.3-1.6,1.1,8.7,1.1,8.7h-6.7c2-0.8-0.9-5.2-0.9-5.2c-7.3-5.9-11.4-1-13.2,0
			s-1.8,5.2-1.8,5.2l-15.9-0.2c2.3-2.7,0-5,0-5c-7.2-6.1-13.2,0-13.2,0c-1.8,2.1-1,5.2-1,5.2h-6.2v-5.2c0.9-1.5,4.4-1,4.4-1
			L167.5,32z"/>
		<path class="st23" d="M165.9,64.2"/>
		<path class="st24" d="M164.7,73c-0.7,0.1-0.3,1.9-0.3,1.9h-2.3V66L164.7,73z"/>
		<polygon class="st43" points="198.1,39.6 198.1,28.1 200.8,29.5 200.8,39.6 		"/>
		<g id="rocket_2_">
			<path class="st44" d="M178.9,56.4h4.1c6.9-4.4-4.1-19.4-4.1-19.4"/>
			<path class="st44" d="M179.1,56.4H175c-6.9-4.4,4.1-19.4,4.1-19.4"/>
			<g id="Layer_3_3_">
				<circle class="st44" cx="179" cy="49.4" r="2.7"/>
				<polyline class="st44" points="179,58.7 181.9,58.7 180.3,56.7 				"/>
				<polyline class="st44" points="179,58.7 176.2,58.7 177.8,56.7 				"/>
				<line class="st45" x1="181.8" y1="62.1" x2="181.8" y2="59.7"/>
				<line class="st45" x1="178.9" y1="65.5" x2="178.9" y2="60.9"/>
				<line class="st45" x1="176.2" y1="62.1" x2="176.2" y2="59.7"/>
			</g>
		</g>
		<line class="st23" x1="167" y1="55.1" x2="189.9" y2="55.1"/>
		<line class="st23" x1="167" y1="60" x2="189.9" y2="60"/>
		<path class="st27" d="M224.8,19.4h-8.2v-8.6h4.8c2-0.7,3.4,2.3,3.4,2.3V19.4L224.8,19.4z"/>
		<line class="st28" x1="135.6" y1="74.5" x2="247.3" y2="74.5"/>
		<path class="st46" d="M220.3,45.9v5.3h-8.9v-7.5h6.5C219,43.8,220.3,45.9,220.3,45.9L220.3,45.9z"/>
		<line class="st23" x1="212.9" y1="52.8" x2="214.7" y2="52.8"/>
		<rect x="211.4" y="51.2" class="st38" width="8.9" height="7.5"/>
		<path class="st38" d="M225.9,54.4h-1.2c-0.4,0-1.2-1.3-1.2-1.3v-7.4c-0.2-0.8,0.8-1.6,0.8-1.6h1.6C225.9,44,225.9,54.4,225.9,54.4
			z"/>
		<line class="st23" x1="196.9" y1="42.4" x2="202" y2="42.4"/>
		<line class="st23" x1="196.9" y1="43.5" x2="202" y2="43.5"/>
		<line class="st23" x1="196.9" y1="44.6" x2="202" y2="44.6"/>
		<line class="st30" x1="224.7" y1="47.9" x2="225.9" y2="45.1"/>
		<g id="sbubble2_1_" class="st31">
			<path class="st32" d="M199.6,23.2c1-1.2,1.9,0,1.9,0"/>
			<path class="st32" d="M199.7,25.1c-1.2-1,0-1.9,0-1.9"/>
			<path class="st32" d="M201.6,24.7c-0.8,1.6-2,0.3-2,0.3"/>
			<path class="st32" d="M201.4,23.2c1.2,0.8,0.1,1.7,0.1,1.7"/>
			<path class="st32" d="M199.8,24.9c0.6,0.6,1,0,1,0"/>
			<path class="st33" d="M200.7,23.5c0.6-0.6,1,0,1,0c1.4,1.4,3-0.5,3-0.5c0.9,2.1-1.6,1-1.6,1"/>
		</g>
		<g id="sbubble3_1_" class="st31">
			<path class="st32" d="M181.4,16.1c1-1.2,1.9,0,1.9,0"/>
			<path class="st32" d="M181.4,17.9c-1.2-1,0-1.9,0-1.9"/>
			<path class="st32" d="M183.4,17.6c-0.8,1.6-2,0.3-2,0.3"/>
			<path class="st32" d="M183.2,16.1c1.2,0.8,0.1,1.7,0.1,1.7"/>
			<path class="st32" d="M181.6,17.8c0.6,0.6,1,0,1,0"/>
			<path class="st32" d="M182.4,16.3c0.6-0.6,1,0,1,0"/>
		</g>
		<g id="sbubble4_1_" class="st31">
			<path class="st32" d="M186.5,7.5c1-1.2,1.9,0,1.9,0"/>
			<path class="st32" d="M186.5,9.3c-1.2-1,0-1.9,0-1.9"/>
			<path class="st32" d="M188.4,9c-0.8,1.6-2,0.3-2,0.3"/>
			<path class="st32" d="M188.2,7.5c1.2,0.8,0.1,1.7,0.1,1.7"/>
			<path class="st32" d="M186.7,9.1c0.6,0.6,1,0,1,0"/>
			<path class="st32" d="M187.5,7.7c0.6-0.6,1,0,1,0"/>
		</g>
		<g id="sbubble5_1_" class="st34">
			<path class="st35" d="M180-2.2c1-1.2,1.9,0,1.9,0"/>
			<path class="st35" d="M180-0.3c-1.2-1,0-1.9,0-1.9"/>
			<path class="st35" d="M181.9-0.7c-0.8,1.6-2,0.3-2,0.3"/>
			<path class="st35" d="M181.8-2.2c1.2,0.8,0.1,1.7,0.1,1.7"/>
			<path class="st35" d="M180.2-0.5c0.6,0.6,1,0,1,0"/>
			<path class="st35" d="M181-1.9c0.6-0.6,1,0,1,0"/>
		</g>
		<polyline class="st36" points="233.8,2.2 247.3,33.9 204.7,33.9 		"/>
		<path class="st47" d="M164.9,74.4c0-4.8,3.9-8.7,8.7-8.7s8.7,3.9,8.7,8.7v0.2h13.6v-0.2c0-4.8,3.9-8.7,8.7-8.7s8.7,3.9,8.7,8.7
			l5.6,0.2h5.9h1.2c0,0,1.4-11.3-1.2-11.3h-31.4l-1.8,0.8h-25h-1.8h-3.4v11.2h3.4h-3.4V64.2"/>
	</g>
</g>
<polyline class="st48" points="-1,308.5 -1,313 59.7,267.6 59.7,252 59.7,137.8 44.9,154.7 "/>
<line class="st8" x1="62.9" y1="270.1" x2="335.1" y2="273.6"/>
<polyline class="st49" points="134.1,117.9 128.7,82.5 -43.4,80.9 -43.4,316 -13.1,316 54.8,267.1 54.8,138.4 111.5,118.7 
	111.6,121.7 "/>
<path class="st50" d="M134.1,117.9"/>

<polygon class="st49" points="-43.4,80.9 -43.4,316 -13.1,316 54.8,267.1 54.8,138.4 111.5,118.7 112.9,167 140.1,157.7 128.7,82.5 
	"/>
<rect x="25.4" y="49.2" transform="matrix(0.3643 0.9313 -0.9313 0.3643 141.9997 31.6251)" class="st48" width="44.9" height="141.2"/>
<path class="st8" d="M37.5,97.4L39,97l7.9-2.2c0,0,10.1,7.4,12.9-2.8l42.8-9.3l2.6,20.4l-9.9,2.1c0,0-9.1-7.9-14.5,2.9l-39.9,9.2
	L37.5,97.4z"/>
<path class="st7" d="M40.5,97.4L42,97l7.9-2.2c0,0,10.1,7.4,12.9-2.8l42.8-9.3l2.6,20.4l-9.9,2.1c0,0-9.1-7.9-14.5,2.9l-39.9,9.2
	L40.5,97.4z"/>
<polygon class="st51" points="54.1,100 56,102 50,105.8 "/>
<polygon class="st51" points="46.9,112.6 48.6,114.8 53.1,109.3 "/>
<polygon class="st51" points="52.1,110.7 54.5,109.4 50,103.9 "/>
<polygon class="st51" points="59.7,109.7 61.6,109.1 59.1,104.7 "/>
<polygon class="st51" points="55.4,104 55.9,105.6 63,104 62.6,102.3 "/>
<polygon class="st51" points="64.5,98.5 72.6,96.6 73,98.5 64.9,100.3 "/>
<polygon class="st51" points="66.5,105.5 74.6,103.6 75,105.5 66.9,107.3 "/>
<polygon class="st51" points="67.9,107.7 65.8,99.7 67.7,99.2 69.7,107.3 "/>
<polygon class="st51" points="72.9,106.7 70.8,98.7 72.7,98.2 74.7,106.3 "/>
<polygon class="st51" points="74,94.7 79,92.3 79.6,93.5 74.6,95.8 "/>
<polygon class="st51" points="76.4,98.9 81.3,96.6 81.9,97.7 76.9,100.1 "/>
<polygon class="st51" points="77.6,100.2 75.1,95.3 76.2,94.7 78.7,99.6 "/>
<polygon class="st51" points="80.7,98.8 78.2,93.9 79.3,93.3 81.8,98.3 "/>
<polygon class="st51" points="83.6,101.1 84.3,99.2 78.8,99.7 "/>
<polygon class="st51" points="77.7,104 79.8,103.7 76.7,99.1 "/>
<polygon class="st51" points="82.7,95.8 84.3,97.1 85.6,91.7 "/>
<polygon class="st51" points="88.6,95.8 87.1,97.1 85.7,91.7 "/>
<polygon class="st51" points="87.9,91.4 92.9,88.4 93.4,89.9 88.4,92.8 "/>
<polygon class="st51" points="90.2,96.6 95.2,93.7 95.7,95.1 90.7,98 "/>
<polygon class="st51" points="94.5,96.5 92,90.4 93.1,89.7 95.6,95.8 "/>
<polygon class="st51" points="90.5,97.6 91.3,97.5 90.9,94.1 90.1,94.2 "/>
<polygon class="st51" points="90.2,93.5 90.2,94.1 91.7,93.6 91.7,93 "/>
<polygon class="st51" points="96.6,95 100.5,93.9 100.7,95 96.8,96.1 "/>
<polygon class="st51" points="97.5,99.3 101.4,98.1 101.6,99.3 97.7,100.4 "/>
<polygon class="st51" points="98.2,100.6 97.2,95.7 98.1,95.4 99.1,100.4 "/>
<polygon class="st51" points="100,96.5 100.1,97.4 97.8,97.3 "/>
<line class="st7" x1="37.5" y1="97.4" x2="40.5" y2="97.4"/>
<line class="st7" x1="40.9" y1="117.3" x2="43.9" y2="117.3"/>
<line class="st8" x1="46.9" y1="94.8" x2="49.9" y2="94.8"/>
<line class="st8" x1="100.7" y1="83.1" x2="105.6" y2="82.7"/>
<line class="st8" x1="95.3" y1="105.2" x2="98.3" y2="105.2"/>
<polyline class="st48" points="60.4,121.3 60.4,116.3 -1,167.2 -1,184.8 -1,313 14,294.1 "/>
<rect y="80.3" class="st48" width="34.7" height="104"/>
<polygon class="st5" points="-4,47.9 -4,76.1 128.7,49.9 "/>
<script  id="script4196" type="text/javascript">
    <![CDATA[

    var s = Snap("#Truck_close");
    var sbody = Snap("#truck");
    var scloud1 = Snap("#sSmileCloud");
    var scloud2 = Snap("#sSmileCloud2");
    var sbubble3 = Snap("#SBubble3")
    var sbubble2 = Snap("#SBubble2")
    var sbubble1 = Snap("#SBubble1")
    var tires       = Snap("#Tires_1_")
    var truckfar    = Snap("#TruckFar")
    var bush        = Snap("#bush_1_")
    var s2 = Snap("#mountains");
    

    sbubble3.attr({ opacity:'1' })
    sbubble2.attr({ opacity:'1' })
    sbubble1.attr({ opacity:'1' })

        var firstStepTruckBody = function(){

            sbody.animate({ transform:'t0,0' },200, secondStepTruckBody)

        }
        var secondStepTruckBody = function(){

            sbody.animate({ transform:'t0,-5' },200, firstStepTruckBody)

        }
    	var firstStepTires = function(){

            tires.animate({ transform:'t0,-5' },200, secondStepTires)

        }
        var secondStepTires = function(){

            tires.animate({ transform:'t0,0' },200, firstStepTires)

        }

        var firstStepBody = function(){

            s.animate(
                { transform:'t800,-5' },0, secondStepBody
            )

        }
        var secondStepBody = function(){

            s.animate(
                { transform:'t-400,0' },4000, firstStepBody
            )

        }
		var firstStepBody2 = function(){

            truckfar.animate(
                { transform:'t400,0' },4000, secondStepBody2
            )

        }
        var secondStepBody2 = function(){

            truckfar.animate(
                { transform:'t0,0' },0, firstStepBody2
            )

        }
        var firstStepBush = function(){

            bush.animate({ transform: 't400,0'},5000, secondStepBush)

        }

        var secondStepBush = function(){

            bush.attr({ transform:'translate(-400, 0)'})

            firstStepBush()         

        }
        var bubbleFadeOut1 = function(){
            
            sbubble1.animate( { opacity: '0' }, 500 ,bubbleFadeIn1)


        }
        var bubbleFadeIn1 = function(){
            
            sbubble1.animate( { opacity: '1' }, 500 , bubbleFadeOut1)

        }
        var bubbleFadeOut2 = function(){
            
            sbubble2.animate( { opacity: '0' }, 1000 ,bubbleFadeIn2)

        }
        var bubbleFadeIn2 = function(){
            
            sbubble2.animate( { opacity: '1' }, 1000 , bubbleFadeOut2)

        }
        var bubbleFadeOut3 = function(){
            
            sbubble3.animate( { opacity: '0' }, 2000 ,bubbleFadeIn3)

        }
        var bubbleFadeIn3 = function(){
            
            sbubble3.animate( { opacity: '1' }, 2000 , bubbleFadeOut3)

        }

        bubbleFadeOut2()
        bubbleFadeOut3()
        bubbleFadeOut1()
        firstStepTruckBody()
        firstStepBody()
        firstStepTires()
        firstStepBush()
        firstStepBody2()
        
        var mountainMovement = function(){
            
            s2.animate({ transform: 't240,0'},12000, mountainMovementMove)

        }
            var mountainMovementMove = function(){

            
s2.attr({ transform:'translate(-200, 0)'})
                  mountainMovement()
            }
        
                setInterval(function(){
scloud1.animate({ transform:'t0,-20'},300,function(){
scloud1.animate({ transform:'t0,0'},300)
})
        },600)
                        setInterval(function(){
scloud2.animate({ transform:'t0,-20'},300,function(){
scloud2.animate({ transform:'t0,0'},300)
})
        },600)
    


        



 //mountainMovement()
    
                
        
        ]]>
</script>
</svg>
