<?xml version="1.0" encoding="utf-8"?>
<!-- Generator: Adobe Illustrator 23.1.0, SVG Export Plug-In . SVG Version: 6.00 Build 0)  -->
<svg version="1.1" id="Layer_1"
	xmlns="http://www.w3.org/2000/svg"
	xmlns:xlink="http://www.w3.org/1999/xlink" x="0px" y="0px" viewBox="0 0 265.1 325" style="enable-background:new 0 0 265.1 325;" xml:space="preserve">
	<script id="script4044" xlink:href="https://cdnjs.cloudflare.com/ajax/libs/snap.svg/0.4.1/snap.svg.js"></script>

	<style type="text/css">
	.st0{display:none;fill:#FFFFFF;}
	.st1{display:none;fill:#FFFFFF;stroke:#000000;stroke-miterlimit:1.137;}
	.st2{fill:none;stroke:#000000;stroke-width:3;stroke-miterlimit:1.137;}
	.st3{fill:#FFFFFF;}
	.st4{fill:none;stroke:#000000;stroke-width:2;stroke-miterlimit:1.137;}
	.st5{fill:#FFFFFF;stroke:#000000;stroke-width:3;stroke-miterlimit:1.137;}
	.st6{display:none;fill:none;}
	.st7{display:none;fill:none;stroke:#000000;stroke-width:1.2507;stroke-miterlimit:1.137;}
	.st8{display:none;fill:none;stroke:#DDDDDD;stroke-width:1.2507;stroke-miterlimit:1.137;}
	.st9{display:none;}
	.st10{display:inline;fill:none;stroke:#000000;stroke-width:1.0233;stroke-miterlimit:1.137;}
	.st11{fill:#FFFFFF;stroke:#000000;stroke-width:2;stroke-miterlimit:1.137;}
	.st12{stroke:#000000;stroke-width:0.6822;stroke-miterlimit:1.137;}
	.st13{fill:#FFFFFF;stroke:#000000;stroke-width:0.6822;stroke-miterlimit:1.137;}
	.st14{display:inline;stroke:#000000;stroke-width:0.6822;stroke-miterlimit:1.137;}
	.st15{display:none;fill:#FFFFFF;stroke:#000000;stroke-width:0.5685;stroke-miterlimit:1.137;}
	.st16{fill:none;stroke:#000000;stroke-width:0.6822;stroke-miterlimit:1.137;}
	.st17{fill:#A7A9AC;}
	.st18{fill:#FFFFFF;stroke:#010101;stroke-width:2;stroke-miterlimit:1.137;}
	.st19{fill:none;stroke:#010101;stroke-width:2;stroke-miterlimit:1.137;}
	.st20{display:none;fill:#FFFFFF;stroke:#000000;stroke-width:0.6822;stroke-miterlimit:1.137;}
	.st21{display:none;fill:none;stroke:#000000;stroke-width:0.7959;stroke-miterlimit:1.137;}
	.st22{fill:none;stroke:#000000;stroke-width:2;stroke-miterlimit:10;}
	.st23{fill:none;stroke:#000000;stroke-width:0.7959;stroke-miterlimit:1.137;}
	.st24{display:none;opacity:0;}
	.st25{display:inline;fill:none;stroke:#000000;stroke-width:2.0466;stroke-miterlimit:1.137;}
	.st26{display:inline;fill:none;stroke:#000000;stroke-width:5;stroke-miterlimit:1.137;}
	.st27{opacity:0;}
	.st28{fill:none;stroke:#000000;stroke-width:2.0466;stroke-miterlimit:1.137;}
	.st29{display:none;fill:none;stroke:#000000;stroke-width:2.0466;stroke-miterlimit:1.137;}
	.st30{fill:#A7A9AC;stroke:#000000;stroke-width:3;stroke-miterlimit:1.137;}
	.st31{fill:none;stroke:#000000;stroke-miterlimit:1.137;}
	.st32{fill:none;}
	</style>
	<script id="script4044"></script>
	<rect class="st0" width="265.1" height="302.9"/>
	<rect y="284.7" class="st1" width="265.1" height="40.3"/>
	<script id="script4044"></script>
	<g id="sSmileCloud2">
		<path class="st2" d="M77,104.9"/>
		<g>
			<path class="st3" d="M6.7,108.8c0,0,3.8,9.4,13.5,11.4c0,0,27.4,25.2,33-21.2c0,0-15.1-21.5-36.1,0C17.1,99,8.1,98.2,6.7,108.8z" />
			<path class="st3" d="M54.4,99c0,0,25.4,11.6-11.1,25.7C43.3,124.7,49.2,95.4,54.4,99z"/>
		</g>
		<path class="st2" d="M52,104.9c0-9.2-7.5-16.6-16.6-16.6s-16.6,7.5-16.6,16.6"/>
		<path class="st2" d="M19.8,97c-7.3,0.1-13.2,5.4-13.1,11.8c0.1,6.4,6.1,11.5,13.5,11.4"/>
		<path class="st2" d="M50.4,97c7.5,0.1,13.4,5.4,13.3,11.8c-0.1,6.4-6.2,11.5-13.7,11.4"/>
		<path class="st2" d="M51,119.4c0,4.5-7.1,8.2-15.8,8.2s-15.8-3.7-15.8-8.2"/>
		<path class="st4" d="M46.5,112.3c0,0-7,6.6-11.9,0"/>
		<path class="st4" d="M36.1,100.8c0,0-2.7-4.1-4.8,0"/>
		<path class="st4" d="M43.3,100.8c0,0,2.7-4.1,4.8,0"/>
	</g>
	<g>
		<path class="st3" d="M9.4,72.1c0,2,0,5.2,0,7.2s3.1,3.7,7,3.7h67.1c3.8,0,7,1.5,7,3.2s3.1,3.2,7,3.3l145.7,0.3c3.8,0,7-3.1,7-7
		v-0.2c0-3.8-3.1-7-7-7H95.6c-3.8,0-7-1.6-7-3.6s-3.1-3.6-7-3.6H16.4C12.5,68.5,9.4,70.1,9.4,72.1z"/>
		<path class="st4" d="M9.4,72.1c0,2,0,5.2,0,7.2s3.1,3.7,7,3.7h67.1c3.8,0,7,1.5,7,3.2s3.1,3.2,7,3.3l145.7,0.3c3.8,0,7-3.1,7-7
		v-0.2c0-3.8-3.1-7-7-7H95.6c-3.8,0-7-1.6-7-3.6s-3.1-3.6-7-3.6H16.4C12.5,68.5,9.4,70.1,9.4,72.1z"/>
	</g>
	<g id="mountains">
		<path class="st5" d="M74.5,171.9l33.9-86.7c0,0,16.9-33,33.9,0l39.1,86.7H74.5z"/>
		<path class="st5" d="M34.5,204.7l33.9-79.3c0,0,16.9-30.2,33.9,0l39.1,79.3H34.5z"/>
		<path class="st5" d="M115.1,204.7l33.9-79.3c0,0,16.9-30.2,33.9,0l39.1,79.3H115.1z"/>
		<g>
			<path class="st2" d="M103.9,94.8l5.8,6c2.7,2.8,7,2.7,9.6-0.1l2.4-2.6c2.6-2.8,7-2.9,9.7-0.1l2.8,2.8c2.7,2.8,6.5,2.4,8.5-0.7
			c2-3.2,3.7-5.8,3.7-5.8"/>
		</g>
		<g>
			<path class="st2" d="M63,135.8l5.8,6c2.7,2.8,7,2.7,9.6-0.1l2.4-2.6c2.6-2.8,7-2.9,9.7-0.1l2.8,2.8c2.7,2.8,6.5,2.4,8.5-0.7
			s3.7-5.8,3.7-5.8"/>
		</g>
		<g>
			<path class="st2" d="M146.4,134.1l9.2,10.8c2.5,2.9,6.4,2.8,8.6-0.3l3.5-4.8c2.3-3.1,6-3.1,8.2,0l5.4,7.4c2.3,3.1,5,2.9,6-0.5
			c1.1-3.4,1.9-6.2,1.9-6.2"/>
		</g>
	</g>
	<g id="ror1">
		<line class="st6" x1="5.2" y1="300.9" x2="26.8" y2="300.9"/>
		<line class="st7" x1="5.2" y1="300.9" x2="26.8" y2="300.9"/>
		<line class="st7" x1="5.2" y1="300.9" x2="26.8" y2="300.9"/>
		<line class="st7" x1="5.2" y1="300.9" x2="26.8" y2="300.9"/>
		<line class="st7" x1="5.2" y1="300.9" x2="26.8" y2="300.9"/>
		<line class="st7" x1="5.2" y1="300.9" x2="26.8" y2="300.9"/>
		<line class="st7" x1="5.2" y1="300.9" x2="26.8" y2="300.9"/>
		<line class="st7" x1="5.2" y1="300.9" x2="26.8" y2="300.9"/>
		<line class="st7" x1="98.8" y1="300.9" x2="120.4" y2="300.9"/>
		<line class="st7" x1="131.7" y1="300.9" x2="153.2" y2="300.9"/>
		<line class="st8" x1="163.5" y1="300.9" x2="185" y2="300.9"/>
		<line id="road3_10_" class="st7" x1="196.1" y1="223.3" x2="217.6" y2="223.3"/>
	</g>
	<g id="rowofroad2">
		<g id="bush" class="st9">
			<path class="st10" d="M5.2,283.3c0,0,0.8-12.6,15.1-11c0,0,9.2-12.2,17.2-0.1c0,0,11.9-1.7,10.7,11.2h-43V283.3z"/>
			<path class="st10" d="M209.7,238.3c0,0,1.6-16.4,12.3-10.7c0,0,8.3-22.4,19.1-1.2c0,0,12.7-1,11.1,11.9H209.7z"/>
		</g>
		<g id="bush_1_">
			<path class="st11" d="M5.2,283.3c0,0,0.8-12.6,15.1-11c0,0,9.2-12.2,17.2-0.1c0,0,11.9-1.7,10.7,11.2h-43V283.3z"/>
			<path class="st11" d="M209.7,238.3c0,0,1.6-16.4,12.3-10.7c0,0,8.3-22.4,19.1-1.2c0,0,12.7-1,11.1,11.9H209.7z"/>
		</g>
		<line class="st7" x1="5.2" y1="300.9" x2="26.8" y2="300.9"/>
		<line class="st7" x1="5.2" y1="300.9" x2="26.8" y2="300.9"/>
		<line class="st7" x1="5.2" y1="300.9" x2="26.8" y2="300.9"/>
		<line class="st7" x1="5.2" y1="300.9" x2="26.8" y2="300.9"/>
		<line class="st7" x1="5.2" y1="300.9" x2="26.8" y2="300.9"/>
		<line class="st7" x1="5.2" y1="300.9" x2="26.8" y2="300.9"/>
		<line class="st7" x1="5.2" y1="300.9" x2="26.8" y2="300.9"/>
		<line class="st7" x1="98.8" y1="300.9" x2="120.4" y2="300.9"/>
		<line class="st7" x1="131.7" y1="300.9" x2="153.2" y2="300.9"/>
		<line class="st7" x1="163.5" y1="300.9" x2="185" y2="300.9"/>
		<g id="RowOfRoad">
			<line id="road3_21_" class="st4" x1="4.6" y1="300.9" x2="26.2" y2="300.9"/>
			<line id="road3_20_" class="st4" x1="36.4" y1="300.7" x2="58" y2="300.7"/>
			<line id="road3_19_" class="st4" x1="68.2" y1="300.5" x2="89.8" y2="300.5"/>
			<line id="road3_18_" class="st4" x1="100" y1="300.3" x2="121.6" y2="300.3"/>
			<line id="road3_17_" class="st4" x1="131.8" y1="300.1" x2="153.4" y2="300.1"/>
			<line id="road3_16_" class="st4" x1="163.6" y1="299.9" x2="185.2" y2="299.9"/>
			<line id="road3_15_" class="st4" x1="195.4" y1="299.7" x2="217" y2="299.7"/>
			<line id="road3_14_" class="st4" x1="227.2" y1="299.5" x2="248.8" y2="299.5"/>
		</g>
	</g>
	<g id="Tires_1_">
		<ellipse class="st12" cx="185.4" cy="308.1" rx="16.3" ry="15.3"/>
		<ellipse class="st12" cx="106.9" cy="308.1" rx="16.6" ry="15.3"/>
		<g>
			<circle class="st13" cx="185.4" cy="307.9" r="8"/>
			<circle class="st13" cx="106.9" cy="308.1" r="8"/>
		</g>
	</g>
	<g id="road">
		<line class="st4" x1="0" y1="284.7" x2="265.1" y2="284.7"/>
		<line class="st2" x1="0" y1="204.7" x2="265.1" y2="204.7"/>
	</g>
	<g id="truck">
		<path class="st5" d="M53.5,283.3v-24.9v-20.7c0,0,0-16,21.9-13l59.8,0.3v58.3H53.5L53.5,283.3z"/>
		<path class="st11" d="M139.6,254.6c0,0,0.4-4,4.5,0V286h-4.5V254.6z"/>
		<path class="st11" d="M204.5,254.6c0,0-0.4-4-4.5,0V286h4.5V254.6z"/>
		<g id="Tires" class="st9">
			<ellipse class="st14" cx="185.4" cy="308.1" rx="16.3" ry="15.3"/>
			<ellipse class="st14" cx="106.9" cy="308.1" rx="16.6" ry="15.3"/>
		</g>
		<path class="st15" d="M202.5,211.7c0,0,8.8-1.1,11,2.6v13.1H198c0,0,1.9-7.8-2.5-13.1c0,0-15.2-15.4-33.2,0c0,0-5.8,5.9,0,12.6
		l-40,0.5c0,0,0-10.5-4.5-13.1s-14.8-14.9-33.2,0c0,0-7.2,11-2.2,13.1H65.7c0,0-3.1-25.9,2.7-21.8l131.9-0.4L202.5,211.7z"/>
		<path class="st16" d="M204.5,286"/>
		<path class="st17" d="M214,290.6v22.2h-5.8c0,0,1-4.4-0.8-4.7L214,290.6z"/>
		<polygon class="st11" points="116.9,224.5 116.9,199 123.6,195.5 123.6,224.5 	"/>
		<g id="rocket">
			<path class="st18" d="M171.7,218c0,0-27.8,37.5-10.4,48.6h10.4"/>
			<path class="st18" d="M171.2,218c0,0,27.8,37.5,10.4,48.6h-10.4"/>
			<g id="Layer_3_1_">
				<circle class="st18" cx="171.4" cy="248.9" r="6.8"/>
				<polyline class="st18" points="168.3,267.2 164.3,272.2 171.4,272.2 			"/>
				<polyline class="st18" points="174.6,267.2 178.5,272.2 171.5,272.2 			"/>
				<line class="st19" x1="164.6" y1="274.9" x2="164.6" y2="280.9"/>
				<line class="st19" x1="171.7" y1="277.9" x2="171.7" y2="289.5"/>
				<line class="st19" x1="178.6" y1="274.9" x2="178.6" y2="280.9"/>
			</g>
		</g>
		<line class="st16" x1="144.1" y1="263.4" x2="201.7" y2="263.4"/>
		<line class="st16" x1="144.1" y1="275.6" x2="201.7" y2="275.6"/>
		<path class="st20" d="M56.6,173.7V158c0,0,3.6-7.6,8.5-5.8h12.1v21.6H56.6V173.7z"/>
		<line class="st21" x1="0" y1="311.9" x2="280.5" y2="311.9"/>
		<path class="st22" d="M67.8,240.2c0,0,3.3-5.3,6.2-5.3h16.2v18.7H67.8V240.2L67.8,240.2z"/>
		<line class="st16" x1="82" y1="257.5" x2="86.5" y2="257.5"/>
		<rect x="67.8" y="253.6" class="st4" width="22.4" height="18.8"/>
		<path class="st4" d="M53.8,235.5h4c0,0,2.4,2,1.9,4.1l0.1,18.6c0,0-1.9,3.2-3,3.2h-3C53.8,261.4,53.8,235.5,53.8,235.5z"/>
		<line class="st16" x1="113.7" y1="231.4" x2="126.7" y2="231.4"/>
		<line class="st16" x1="113.7" y1="234.1" x2="126.7" y2="234.1"/>
		<line class="st16" x1="113.7" y1="237" x2="126.7" y2="237"/>
		<line class="st23" x1="53.8" y1="238.3" x2="56.7" y2="245.2"/>
		<g id="sbubble2" class="st24">
			<path class="st25" d="M114.9,183.3c0,0,2.4-2.9,4.8,0"/>
			<path class="st25" d="M119.5,183.2c0,0,3,2.3,0.1,4.8"/>
			<path class="st25" d="M119.8,187.8c0,0-3.1,3.4-5.1-0.7"/>
			<path class="st25" d="M114.9,187.6c0,0-2.8-2.4,0.3-4.3"/>
			<path class="st25" d="M116.7,187.5c0,0,1.1,1.6,2.5,0"/>
			<path class="st26" d="M110.8,185.2c0,0-6.2,2.7-3.9-2.5c0,0,4,4.9,7.6,1.3c0,0,1.1-1.6,2.5,0"/>
		</g>
		<g id="sbubble3" class="st24">
			<path class="st25" d="M160.7,165.3c0,0,2.4-2.9,4.8,0"/>
			<path class="st25" d="M165.4,165.2c0,0,3,2.3,0.1,4.8"/>
			<path class="st25" d="M165.6,169.8c0,0-3.1,3.4-5.1-0.7"/>
			<path class="st25" d="M160.7,169.6c0,0-2.8-2.4,0.3-4.3"/>
			<path class="st25" d="M162.5,169.6c0,0,1.1,1.6,2.5,0"/>
			<path class="st25" d="M160.4,166c0,0,1.1-1.6,2.5,0"/>
		</g>
		<g id="sbubble4" class="st24">
			<path class="st25" d="M148,143.7c0,0,2.4-2.9,4.8,0"/>
			<path class="st25" d="M152.6,143.6c0,0,3,2.3,0.1,4.8"/>
			<path class="st25" d="M152.9,148.2c0,0-3.1,3.4-5.1-0.7"/>
			<path class="st25" d="M148,148c0,0-2.8-2.4,0.3-4.3"/>
			<path class="st25" d="M149.8,147.9c0,0,1.1,1.6,2.5,0"/>
			<path class="st25" d="M147.7,144.4c0,0,1.1-1.6,2.5,0"/>
		</g>
		<g id="sbubble5" class="st27">
			<path class="st28" d="M164.3,119.5c0,0,2.4-2.9,4.8,0"/>
			<path class="st28" d="M168.9,119.4c0,0,3,2.3,0.1,4.8"/>
			<path class="st28" d="M169.2,124c0,0-3.1,3.4-5.1-0.7"/>
			<path class="st28" d="M164.3,123.8c0,0-2.8-2.4,0.3-4.3"/>
			<path class="st28" d="M166.1,123.7c0,0,1.1,1.6,2.5,0"/>
			<path class="st28" d="M164,120.2c0,0,1.1-1.6,2.5,0"/>
		</g>
		<polyline class="st29" points="106.9,210 0,210 33.9,130.6 	"/>
		<path class="st30" d="M215.5,286.2v28.1H207h8.5V286.2H207h-4.5h-62.7l-4.6-2.1H56.3c-6.7,0-3.1,28.3-3.1,28.3h3.1h14.9l14-0.6
		c0-12.1,9.8-21.9,21.9-21.9s21.9,9.8,21.9,21.9v0.5h34.1v-0.5c0-12.1,9.8-21.9,21.9-21.9c12.1,0,21.9,9.8,21.9,21.9"/>
	</g>
	<g id="SmokeBubbles">
		<g id="SBubble1">
			<path id="SmokeBubble1" class="st11" d="M122.8,174.6c-8.8-6-11.7,0-11.7,0s-10,4.5,0,11.9c0,0,5.5,7.9,11.7,0
			C122.8,186.5,131.9,180.8,122.8,174.6z"/>
			<path class="st31" d="M112.2,180.3c0,0,0,4.5,6.3,4.5"/>
		</g>
		<g id="SBubble2">
			<path id="SmokeBubble2" class="st11" d="M140.1,165.8c-5.6-3.9-7.5,0-7.5,0s-6.4,2.9,0,7.6c0,0,3.5,5.1,7.5,0
			C140.1,173.4,145.9,169.8,140.1,165.8z"/>
			<path class="st31" d="M133.6,170.4c0,0,1.7,2.4,5.1-0.1"/>
		</g>
		<g id="SBubble3">
			<path id="SmokeBubble3" class="st11" d="M154.6,175.3c-4.5-3.1-6,0-6,0s-5.1,2.3,0,6.1c0,0,2.8,4.1,6,0
			C154.6,181.4,159.3,178.5,154.6,175.3z"/>
			<path class="st31" d="M150.8,179.4c0,0,2.8-0.1,2.7-2.2"/>
		</g>
	</g>
	<rect x="186.2" y="34.2" class="st0" width="38.1" height="19.6"/>
	<g id="sSmileCloud">
		<g>
			<path class="st3" d="M174.7,44.8c0,0,4.2,10.2,14.8,12.4c0,0,30,27.4,36.2-23c0,0-16.5-23.3-39.6,0
			C186.1,34.1,176.2,33.3,174.7,44.8z"/>
			<path class="st3" d="M227,34.1c0,0,27.8,12.6-12.2,27.9C214.8,62,221.2,30.2,227,34.1z"/>
		</g>
		<path class="st2" d="M160.3,40"/>
		<path class="st2" d="M187.3,40c0-9.9,8.1-18,18-18s18,8.1,18,18"/>
		<path class="st2" d="M222.2,31.5c7.9,0.1,14.3,5.8,14.2,12.8c-0.1,6.9-6.6,12.5-14.6,12.3"/>
		<path class="st2" d="M189.1,31.5c-8.1,0.1-14.5,5.8-14.4,12.8s6.7,12.5,14.8,12.3"/>
		<path class="st2" d="M188.4,55.7c0,4.9,7.6,8.9,17.1,8.9s17.1-4,17.1-8.9"/>
		<path class="st4" d="M193.3,48c0,0,7.6,7.1,12.9,0"/>
		<path class="st4" d="M204.5,35.5c0,0,2.9-4.4,5.2,0"/>
		<path class="st4" d="M196.7,35.5c0,0-2.9-4.4-5.2,0"/>
	</g>
	<g>
		<path class="st3" d="M185.2,96.3c-3.8,0-7,2.1-7,4.8c0,2.6,3.2,4.8,7,4.8h58c3.9,0,7-2.1,7-4.8c0-2.6-3.1-4.8-7-4.8H185.2z"/>
		<path class="st4" d="M185.2,96.3c-3.8,0-7,2.1-7,4.8c0,2.6,3.2,4.8,7,4.8h58c3.9,0,7-2.1,7-4.8c0-2.6-3.1-4.8-7-4.8H185.2z"/>
	</g>

	<path class="st32" d="M17.7,96c0,0.1,0,0.3,0.1,0.4c0.5,0.3,1.1,0.5,1.7,0.6c-0.1,0-0.3,0-0.4,0"/>
	<script id="script4196" type="text/javascript">
		<![CDATA[

			var s 			= Snap("#truck");
			var scloud1 	= Snap("#sSmileCloud");
			var scloud2 	= Snap("#sSmileCloud2");
			var sbubble3 	= Snap("#SBubble3")
			var sbubble2 	= Snap("#SBubble2")
			var sbubble1 	= Snap("#SBubble1")
			var tires		= Snap("#Tires_1_")
			var bush		= Snap("#bush_1_")
			var s2 			= Snap("#mountains");
	

			sbubble3.attr({ opacity:'1' })
			sbubble2.attr({ opacity:'1' })
			sbubble1.attr({ opacity:'1' })

			var firstStepTires = function(){

				tires.animate({ transform:'t0,0' },300, secondStepTires)

			}
			var secondStepTires = function(){

				tires.animate({ transform:'t0,-5' },300, firstStepTires)

			}

			var firstStepBody = function(){

				s.animate(
					{ transform:'t0,-5' },300, secondStepBody
				)

			}
			var secondStepBody = function(){

				s.animate(
					{ transform:'t0,0' },300, firstStepBody
				)

			}

			var firstStepBush = function(){

				bush.animate({ transform: 't400,0'},5000, secondStepBush)

			}

			var secondStepBush = function(){

				bush.attr({ transform:'translate(-400, 0)'})

				firstStepBush()			

			}
				var bubbleFadeOut1 = function(){
				
				sbubble1.animate( { opacity: '0' }, 500 ,bubbleFadeIn1)


			}
			var bubbleFadeIn1 = function(){
				
				sbubble1.animate( { opacity: '1' }, 500 , bubbleFadeOut1)


			}
			var bubbleFadeOut2 = function(){
				
				sbubble2.animate( { opacity: '0' }, 1000 ,bubbleFadeIn2)


			}
			var bubbleFadeIn2 = function(){
				
				sbubble2.animate( { opacity: '1' }, 1000 , bubbleFadeOut2)


			}
			var bubbleFadeOut3 = function(){
				
				sbubble3.animate( { opacity: '0' }, 2000 ,bubbleFadeIn3)


			}
			var bubbleFadeIn3 = function(){
				
				sbubble3.animate( { opacity: '1' }, 2000 , bubbleFadeOut3)


			}
			var mountainMovement = function(){
				
				s2.animate({ transform: 't240,0'},12000, mountainMovementMove)

			}
			var mountainMovementMove = function(){

				
			s2.attr({ transform:'translate(-200, 0)'})

					mountainMovement()
			}

			bubbleFadeOut2()
			bubbleFadeOut3()
			bubbleFadeOut1()
			firstStepBody()
			firstStepTires()
			firstStepBush()
			mountainMovement()

		
		setInterval(function(){

			scloud1.animate({ transform:'t0,-20'},300,function(){
			scloud1.animate({ transform:'t0,0'},300)
		})},600)
						
		setInterval(function(){
			scloud2.animate({ transform:'t0,-20'},300,function(){
scloud2.animate({ transform:'t0,0'},300)
})
		},600)
	

	
				
		]]>
	</script>
</svg>
