<?xml version="1.0" encoding="utf-8"?>
<!-- Generator: Adobe Illustrator 16.0.0, SVG Export Plug-In . SVG Version: 6.00 Build 0)  -->
<!DOCTYPE svg PUBLIC "-//W3C//DTD SVG 1.1//EN" "http://www.w3.org/Graphics/SVG/1.1/DTD/svg11.dtd">
<svg version="1.1" xmlns="http://www.w3.org/2000/svg" xmlns:xlink="http://www.w3.org/1999/xlink" x="0px" y="0px"  viewBox="0 0 1000 1000" enable-background="new 0 0 1000 1000" xml:space="preserve">
<g id="Layer_2">
	<g id="Layer_x5F_1">
		<path display="none" fill="#FFFFFF" stroke="#010101" stroke-width="4" stroke-miterlimit="10" d="M410.869,569.386
			c0,11.754-9.53,21.284-21.284,21.284H209.691c-11.754,0-21.284-9.53-21.284-21.284V133.957c0-11.754,9.53-21.285,21.284-21.285
			h179.896c11.754,0,21.285,9.53,21.285,21.285v435.429H410.869z"/>
		<path display="none" fill="#FFFFFF" stroke="#010101" stroke-width="4" stroke-miterlimit="10" d="M786.775,569.386
			c0,11.754-9.529,21.284-21.284,21.284H585.594c-11.754,0-21.284-9.53-21.284-21.284V133.957c0-11.754,9.53-21.285,21.284-21.285
			h179.897c11.755,0,21.284,9.53,21.284,21.285V569.386z"/>
		<path display="none" fill="#FFFFFF" stroke="#010101" stroke-width="4" stroke-miterlimit="10" d="M633.333,429.714
			c0,11.754-9.529,21.284-21.284,21.284H432.154c-11.754,0-21.285-9.53-21.285-21.284V-5.716c0-11.754,9.53-21.284,21.285-21.284
			h179.895c11.755,0,21.284,9.53,21.284,21.284V429.714z"/>
		<path fill="none" stroke="#010101" stroke-width="7" stroke-miterlimit="10" d="M906.094,439.273
			c0,23.517-19.057,42.569-42.569,42.569H155.006c-23.51,0-42.568-19.052-42.568-42.569V79.484
			c0-23.508,19.059-42.569,42.568-42.569h708.518c23.512,0,42.568,19.061,42.568,42.569v359.789H906.094z"/>
		<path fill="none" stroke="#010101" stroke-width="6" stroke-miterlimit="10" d="M839.476,372.836
			c0,23.517-19.057,42.569-42.568,42.569H214.65c-23.51,0-42.569-19.052-42.569-42.569V136.307
			c0-23.508,19.059-42.568,42.569-42.568h582.257c23.512,0,42.568,19.06,42.568,42.568V372.836z"/>
		<g id="Sun">
			<path fill="none" stroke="#010101" stroke-width="6" stroke-miterlimit="10" d="M171,296.341c0,0,304.481-131.214,672.889,0"/>
			<g>
				<path fill="none" stroke="#010101" stroke-width="6" stroke-miterlimit="10" d="M214.177,186.436c0,0-48.224,39.253,0,37.009
					c0,0,37.268,6.59,0,29.158"/>
				<path fill="none" stroke="#010101" stroke-width="6" stroke-miterlimit="10" d="M280.63,195.404c0,0-31.674,23.289,0,21.957
					c0,0,24.479,3.913,0,17.301"/>
			</g>
			<g>
				<path fill="none" stroke="#010101" stroke-width="6" stroke-miterlimit="10" d="M342.136,161.202c0,0-48.224,39.252,0,37.011
					c0,0,37.267,6.59,0,29.158"/>
				<path fill="none" stroke="#010101" stroke-width="6" stroke-miterlimit="10" d="M408.589,170.172c0,0-31.674,23.287,0,21.956
					c0,0,24.479,3.911,0,17.299"/>
			</g>
			<g>
				<path fill="none" stroke="#010101" stroke-width="6" stroke-miterlimit="10" d="M635.285,168.199
					c0,0-57.68,23.225-10.949,35.352c0,0,33.647,17.325-8.63,27.853"/>
				<path fill="none" stroke="#010101" stroke-width="6" stroke-miterlimit="10" d="M696.107,196.43c0,0-37.146,12.871-6.496,20.973
					c0,0,22.225,10.978-5.118,16.525"/>
			</g>
			<g>
				<path fill="none" stroke="#010101" stroke-width="6" stroke-miterlimit="10" d="M761.803,184.983
					c0,0-59.578,17.796-14.172,34.19c0,0,31.904,20.356-11.162,26.936"/>
				<path fill="none" stroke="#010101" stroke-width="6" stroke-miterlimit="10" d="M819.757,218.713c0,0-38.177,9.386-8.407,20.284
					c0,0,21.116,12.985-6.623,15.981"/>
			</g>
		</g>
		<path id="vecmap" display="none" fill="none" stroke="#010101" stroke-width="9" stroke-miterlimit="10" d="M239.754,273.599
			c0,56.497,36.304,102.215,81.169,102.215"/>
		<path id="vecmap_1_" display="none" fill="none" stroke="#010101" stroke-width="4" stroke-miterlimit="10" d="M659.103,488.937
			c0,79.763,69.919,144.3,156.324,144.3"/>
		<path id="vecmap_2_" display="none" fill="none" stroke="#010101" stroke-width="4" stroke-miterlimit="10" d="M354.26,481.842
			c0,79.763-69.919,144.3-156.325,144.3"/>
		<g display="none">
			
				<line id="vecmap_3_" display="inline" fill="none" stroke="#010101" stroke-width="3" stroke-miterlimit="10" x1="185.4" y1="147.547" x2="825.736" y2="147.547"/>
		</g>
		<g display="none">
			
				<line id="vecmap_4_" display="inline" fill="none" stroke="#010101" stroke-width="3" stroke-miterlimit="10" x1="276.099" y1="162.578" x2="276.099" y2="397.065"/>
		</g>
		<g display="none">
			
				<line id="vecmap_5_" display="inline" fill="none" stroke="#010101" stroke-width="3" stroke-miterlimit="10" x1="753.525" y1="162.578" x2="753.525" y2="397.065"/>
		</g>
		<g display="none">
			
				<rect id="vecmaprec" x="185.4" y="198.412" display="inline" fill="#FFFFFF" stroke="#010101" stroke-width="3" stroke-miterlimit="10" width="630.027" height="141.896"/>
		</g>
		<g display="none">
			
				<line display="inline" fill="none" stroke="#010101" stroke-width="3" stroke-miterlimit="10" x1="185.4" y1="340.308" x2="815.425" y2="340.308"/>
		</g>
	</g>
	<polyline fill="none" stroke="#010101" stroke-width="6" stroke-miterlimit="10" points="0,750.764 144,751.764 162,769.764 
		180,751.764 648,751.764 630,769.764 648,787.764 684,769.764 684,751.764 1000,752.764 	"/>
	<polyline fill="none" stroke="#010101" stroke-width="6" stroke-miterlimit="10" points="162,769.764 144,787.764 162,805.764 
		180,823.764 126,859.764 	"/>
	<line fill="none" stroke="#010101" stroke-width="6" stroke-miterlimit="10" x1="162" y1="841.764" x2="180" y2="859.764"/>
	<polyline fill="none" stroke="#010101" stroke-width="6" stroke-miterlimit="10" points="801,648 810,658 810,728 801,738 	"/>
	<line display="none" fill="none" stroke="#010101" stroke-width="6" stroke-miterlimit="10" x1="864" y1="648" x2="864" y2="738"/>
	<polyline fill="none" stroke="#010101" stroke-width="6" stroke-miterlimit="10" points="927,648 918,658 918,728 927,738 	"/>
	<polygon fill="none" stroke="#010101" stroke-width="6" stroke-miterlimit="10" points="864,648 846,657 846,729 864,738 882,729 
		882,657 	"/>
</g>
<g id="Layer_3">
	<g>
		
			<line fill="none" stroke="#010101" stroke-width="7" stroke-miterlimit="10" x1="90.671" y1="583.856" x2="640.161" y2="583.856"/>
		
			<line fill="none" stroke="#010101" stroke-width="7" stroke-miterlimit="10" x1="755.293" y1="583.856" x2="954.155" y2="583.856"/>
	</g>
	<line fill="none" stroke="#010101" stroke-width="4" stroke-miterlimit="10" x1="177.02" y1="586.474" x2="177.02" y2="492.275"/>
	
		<line fill="none" stroke="#010101" stroke-width="7" stroke-miterlimit="10" x1="841.641" y1="586.474" x2="841.641" y2="492.275"/>
	<path display="none" fill="none" stroke="#000000" stroke-width="4" stroke-miterlimit="10" d="M476.108,441l371.758,3.259
		c0,0,51.634-1.476,51.634-54.584V127.083c0-53.108-51.634-54.583-51.634-54.583H476.108L414,72c0,0-54,0-54,54v270c0,0,9,54,54,45
		H476.108z"/>
	<path display="none" fill="none" stroke="#000000" stroke-width="3" stroke-miterlimit="10" d="M423,125.608h371.759h26.554
		c0,0,26.554,0,26.554,26.554"/>
	<path display="none" fill="none" stroke="#000000" stroke-width="3" stroke-miterlimit="10" d="M423,388.2h371.759h26.554
		c0,0,26.554,0,26.554-26.554"/>
</g>
<g id="Layer_1">
	<g id="mobile" display="none">
		<path display="inline" fill="none" stroke="#010101" stroke-width="4" stroke-miterlimit="10" d="M874.004,700.53
			c0,6.627-5.373,12-12,12h-201c-6.627,0-12-5.373-12-12v-336c0-6.627,5.373-12,12-12h201c6.627,0,12,5.373,12,12V700.53z"/>
		
			<line display="inline" fill="none" stroke="#010101" stroke-width="4" stroke-miterlimit="10" x1="667.004" y1="405.53" x2="847.004" y2="405.53"/>
		
			<circle display="inline" fill="none" stroke="#010101" stroke-width="4" stroke-miterlimit="10" cx="757.004" cy="378.53" r="18"/>
		
			<line display="inline" fill="none" stroke="#010101" stroke-width="4" stroke-miterlimit="10" x1="668.004" y1="675.53" x2="848.004" y2="675.53"/>
		<polyline display="inline" fill="none" stroke="#010101" stroke-width="4" stroke-miterlimit="10" points="713.004,441.53 
			713.004,513.53 821.004,513.53 		"/>
		<polyline display="inline" fill="none" stroke="#010101" stroke-width="4" stroke-miterlimit="10" points="713.004,567.53 
			713.004,639.53 821.004,639.53 		"/>
		<g display="inline">
			<path fill="#010101" d="M731.225,414.684v9.441h-1.221v-9.441H731.225z"/>
			<path fill="#010101" d="M733.352,424.125v-9.441h1.332l3.023,4.776c0.699,1.106,1.246,2.101,1.695,3.068l0.027-0.015
				c-0.111-1.261-0.141-2.408-0.141-3.88v-3.95h1.148v9.441h-1.232l-2.998-4.791c-0.658-1.051-1.289-2.129-1.764-3.152l-0.043,0.015
				c0.07,1.189,0.098,2.325,0.098,3.894v4.034L733.352,424.125L733.352,424.125z"/>
			<path fill="#010101" d="M749.16,423.817c-0.449,0.224-1.346,0.447-2.494,0.447c-2.66,0-4.664-1.681-4.664-4.776
				c0-2.956,2.004-4.958,4.932-4.958c1.176,0,1.92,0.252,2.242,0.42l-0.295,0.994c-0.463-0.225-1.121-0.393-1.904-0.393
				c-2.215,0-3.686,1.415-3.686,3.895c0,2.312,1.33,3.796,3.627,3.796c0.742,0,1.5-0.154,1.99-0.394L749.16,423.817z"/>
			<path fill="#010101" d="M758.457,419.307c0,3.25-1.977,4.974-4.385,4.974c-2.494,0-4.244-1.934-4.244-4.791
				c0-2.998,1.863-4.958,4.385-4.958C756.789,414.53,758.457,416.505,758.457,419.307z M751.133,419.461
				c0,2.017,1.092,3.824,3.01,3.824c1.934,0,3.025-1.779,3.025-3.922c0-1.877-0.979-3.838-3.012-3.838
				C752.141,415.525,751.133,417.387,751.133,419.461z"/>
			<path fill="#010101" d="M767.99,419.979c-0.07-1.315-0.154-2.898-0.141-4.075h-0.041c-0.322,1.106-0.715,2.282-1.191,3.586
				l-1.666,4.581h-0.926l-1.525-4.496c-0.447-1.331-0.826-2.55-1.094-3.67h-0.027c-0.027,1.177-0.098,2.76-0.182,4.174l-0.252,4.048
				h-1.164l0.658-9.441h1.557l1.609,4.566c0.393,1.163,0.715,2.199,0.953,3.18h0.041c0.238-0.953,0.576-1.988,0.996-3.18l1.68-4.566
				h1.555l0.59,9.441h-1.189L767.99,419.979z"/>
			<path fill="#010101" d="M772.51,414.684v9.441h-1.221v-9.441H772.51z"/>
			<path fill="#010101" d="M774.637,424.125v-9.441h1.33l3.025,4.776c0.699,1.106,1.246,2.101,1.695,3.068l0.027-0.015
				c-0.111-1.261-0.141-2.408-0.141-3.88v-3.95h1.148v9.441h-1.232l-2.998-4.791c-0.658-1.051-1.289-2.129-1.764-3.152l-0.043,0.015
				c0.068,1.189,0.098,2.325,0.098,3.894v4.034L774.637,424.125L774.637,424.125z"/>
			<path fill="#010101" d="M791.033,423.705c-0.547,0.196-1.625,0.519-2.898,0.519c-1.43,0-2.605-0.363-3.529-1.247
				c-0.814-0.784-1.316-2.045-1.316-3.516c0.014-2.815,1.947-4.875,5.113-4.875c1.092,0,1.945,0.238,2.352,0.434l-0.293,0.995
				c-0.504-0.224-1.135-0.405-2.088-0.405c-2.297,0-3.795,1.429-3.795,3.796c0,2.396,1.441,3.81,3.643,3.81
				c0.797,0,1.344-0.112,1.625-0.252v-2.814h-1.92v-0.98h3.109v4.537H791.033z"/>
		</g>
		<g display="inline">
			<path fill="#010101" d="M738.357,562.557c0,3.25-1.977,4.974-4.385,4.974c-2.494,0-4.244-1.934-4.244-4.791
				c0-2.998,1.861-4.958,4.385-4.958C736.689,557.78,738.357,559.756,738.357,562.557z M731.029,562.711
				c0,2.017,1.092,3.824,3.012,3.824c1.934,0,3.025-1.779,3.025-3.923c0-1.877-0.979-3.838-3.012-3.838
				C732.037,558.774,731.029,560.638,731.029,562.711z"/>
			<path fill="#010101" d="M741.152,557.935v5.589c0,2.115,0.938,3.013,2.199,3.013c1.4,0,2.297-0.926,2.297-3.013v-5.589h1.232
				v5.505c0,2.899-1.527,4.091-3.572,4.091c-1.934,0-3.391-1.107-3.391-4.034v-5.562H741.152z"/>
			<path fill="#010101" d="M750.783,558.971h-2.871v-1.037h6.99v1.037h-2.887v8.404h-1.232V558.971L750.783,558.971z"/>
			<path fill="#010101" d="M762.758,566.955c-0.547,0.195-1.625,0.519-2.898,0.519c-1.43,0-2.605-0.364-3.531-1.247
				c-0.813-0.785-1.316-2.045-1.316-3.516c0.014-2.815,1.947-4.875,5.113-4.875c1.092,0,1.947,0.238,2.354,0.434l-0.295,0.995
				c-0.504-0.224-1.135-0.406-2.086-0.406c-2.297,0-3.797,1.43-3.797,3.797c0,2.396,1.443,3.81,3.643,3.81
				c0.799,0,1.344-0.112,1.625-0.252v-2.815h-1.92v-0.979h3.109V566.955L762.758,566.955z"/>
			<path fill="#010101" d="M772.684,562.557c0,3.25-1.977,4.974-4.383,4.974c-2.494,0-4.244-1.934-4.244-4.791
				c0-2.998,1.861-4.958,4.383-4.958C771.018,557.78,772.684,559.756,772.684,562.557z M765.359,562.711
				c0,2.017,1.092,3.824,3.012,3.824c1.932,0,3.025-1.779,3.025-3.923c0-1.877-0.98-3.838-3.012-3.838
				C766.365,558.774,765.359,560.638,765.359,562.711z"/>
			<path fill="#010101" d="M775.48,557.935v9.441h-1.219v-9.441H775.48z"/>
			<path fill="#010101" d="M777.607,567.376v-9.441h1.332l3.023,4.776c0.701,1.105,1.246,2.101,1.695,3.067l0.027-0.014
				c-0.111-1.261-0.141-2.409-0.141-3.88v-3.95h1.148v9.441h-1.232l-2.996-4.791c-0.658-1.051-1.289-2.129-1.766-3.152l-0.043,0.014
				c0.07,1.19,0.1,2.325,0.1,3.895v4.034L777.607,567.376L777.607,567.376z"/>
			<path fill="#010101" d="M794.004,566.955c-0.547,0.195-1.625,0.519-2.898,0.519c-1.428,0-2.605-0.364-3.529-1.247
				c-0.813-0.785-1.316-2.045-1.316-3.516c0.014-2.815,1.947-4.875,5.113-4.875c1.092,0,1.945,0.238,2.354,0.434l-0.295,0.995
				c-0.504-0.224-1.135-0.406-2.088-0.406c-2.297,0-3.795,1.43-3.795,3.797c0,2.396,1.441,3.81,3.643,3.81
				c0.797,0,1.344-0.112,1.623-0.252v-2.815h-1.918v-0.979h3.107V566.955z"/>
		</g>
		
			<line display="inline" fill="none" stroke="#010101" stroke-width="4" stroke-miterlimit="10" x1="829.004" y1="370.53" x2="856.004" y2="370.53"/>
		
			<line display="inline" fill="none" stroke="#010101" stroke-width="4" stroke-miterlimit="10" x1="829.004" y1="378.53" x2="856.004" y2="378.53"/>
		
			<line display="inline" fill="none" stroke="#010101" stroke-width="4" stroke-miterlimit="10" x1="829.004" y1="387.53" x2="856.004" y2="387.53"/>
	</g>
	<circle fill="#FFFFFF" stroke="#000000" stroke-width="7" stroke-miterlimit="10" cx="285.043" cy="553.795" r="94.577"/>
	<g id="Head">
		<circle fill="#FFFFFF" stroke="#000000" stroke-width="8" stroke-miterlimit="10" cx="289.15" cy="371.52" r="123.729"/>
		<circle fill="#FFFFFF" stroke="#000000" stroke-width="7" stroke-miterlimit="10" cx="245.694" cy="371.556" r="25.423"/>
		<path fill="#FFFFFF" stroke="#000000" stroke-miterlimit="10" d="M248.375,293.068"/>
		<path fill="#FFFFFF" stroke="#000000" stroke-width="8" stroke-miterlimit="10" d="M351.492,264.645
			c-52.211,16.855-88.769,60.651-87.083,110.745c1.583,47.035,36.428,86.264,84.735,101.896"/>
		<path fill="#FFFFFF" stroke="#000000" stroke-width="7" stroke-miterlimit="10" d="M363.834,291.517
			c0,0,37.57,38.833,18.872,88.394"/>
		<path fill="#FFFFFF" stroke="#000000" stroke-width="7" stroke-miterlimit="10" d="M379.618,386.193
			c0,0-4.143,9.502-16.234,14.889"/>
	</g>
	<path display="none" fill="none" stroke="#000000" stroke-width="7" stroke-miterlimit="10" d="M248.366,565.176
		c-59.134-68.1-162.278-75.368-230.378-16.233C-36.491,596.25-42.305,678.766,5.002,733.243
		c37.846,43.586,103.857,48.236,147.442,10.391c34.866-30.277,38.588-83.087,8.312-117.954c-24.222-27.893-66.47-30.87-94.364-6.649
		c-22.315,19.378-24.696,53.177-5.319,75.491c15.501,17.852,42.54,19.759,60.392,4.255c14.283-12.4,15.806-34.031,3.404-48.313
		c-9.92-11.425-27.225-12.644-38.65-2.723c-9.141,7.937-10.116,21.78-2.179,30.92"/>
	<path fill="#FFFFFF" stroke="#000000" stroke-width="7" stroke-miterlimit="10" d="M116.656,696.088
		c1.676,6.412,8.233,10.251,14.645,8.575l101.406-26.511c6.412-1.677,10.25-8.233,8.574-14.646L162.726,363.03
		c-1.676-6.413-8.233-10.251-14.645-8.575L46.676,380.966c-6.413,1.676-10.251,8.233-8.575,14.645L116.656,696.088z"/>
	<g display="none">
		<path display="inline" fill="#FFFFFF" d="M315.479,752.378L439.208,639.53C439.208,639.53,273.106,593.056,315.479,752.378z"/>
		<path display="inline" fill="none" stroke="#000000" stroke-width="7" stroke-miterlimit="10" d="M315.479,752.378L439.208,639.53
			C439.208,639.53,273.106,593.056,315.479,752.378z"/>
	</g>
	<g>
		<g>
			<path fill="#FFFFFF" d="M361.029,712.277c-4.515,3.142-5.638,9.405-2.496,13.92l1.458,2.096c3.142,4.515,9.406,5.638,13.92,2.495
				l13.167-9.164c4.514-3.143,6.758-7.796,4.986-10.341s0.472-7.198,4.987-10.34l0.349-0.242c4.515-3.142,9.658-3.63,11.429-1.084
				c1.771,2.545,6.914,2.057,11.428-1.086l13.166-9.162c4.515-3.143,6.759-7.795,4.988-10.34c-1.771-2.546,0.108-6.944,4.176-9.775
				c4.068-2.831,8.845-3.064,10.616-0.52s6.914,2.058,11.428-1.084l6.263-4.359c4.515-3.142,6.758-7.795,4.987-10.34
				s-0.523-6.505,2.774-8.8s7.445-2.09,9.217,0.455s6.915,2.057,11.429-1.085l9.764-6.796c4.515-3.142,5.638-9.405,2.496-13.92
				l-1.459-2.096c-3.142-4.515-9.405-5.638-13.92-2.495L361.029,712.277z"/>
			<path fill="none" stroke="#000000" stroke-width="7" stroke-miterlimit="10" d="M361.029,712.277
				c-4.515,3.142-5.638,9.405-2.496,13.92l1.458,2.096c3.142,4.515,9.406,5.638,13.92,2.495l13.167-9.164
				c4.514-3.143,6.758-7.796,4.986-10.341s0.472-7.198,4.987-10.34l0.349-0.242c4.515-3.142,9.658-3.63,11.429-1.084
				c1.771,2.545,6.914,2.057,11.428-1.086l13.166-9.162c4.515-3.143,6.759-7.795,4.988-10.34c-1.771-2.546,0.108-6.944,4.176-9.775
				c4.068-2.831,8.845-3.064,10.616-0.52s6.914,2.058,11.428-1.084l6.263-4.359c4.515-3.142,6.758-7.795,4.987-10.34
				s-0.523-6.505,2.774-8.8s7.445-2.09,9.217,0.455s6.915,2.057,11.429-1.085l9.764-6.796c4.515-3.142,5.638-9.405,2.496-13.92
				l-1.459-2.096c-3.142-4.515-9.405-5.638-13.92-2.495L361.029,712.277z"/>
		</g>
		<g>
			<path fill="#FFFFFF" d="M480.567,623.395c4.513-3.145,5.632-9.409,2.487-13.921l-13.722-19.692
				c-3.145-4.512-9.409-5.631-13.922-2.487l-42.306,29.481c-4.513,3.145-10.777,2.024-13.921-2.488l-4.574-6.563
				c-3.144-4.513-9.409-5.632-13.921-2.488l-59.35,41.358c-4.513,3.145-5.632,9.409-2.487,13.921l29.729,42.664
				c3.145,4.512,9.409,5.632,13.922,2.487L480.567,623.395z"/>
			<path fill="none" stroke="#000000" stroke-width="7" stroke-miterlimit="10" d="M480.567,623.395
				c4.513-3.145,5.632-9.409,2.487-13.921l-13.722-19.692c-3.145-4.512-9.409-5.631-13.922-2.487l-42.306,29.481
				c-4.513,3.145-10.777,2.024-13.921-2.488l-4.574-6.563c-3.144-4.513-9.409-5.632-13.921-2.488l-59.35,41.358
				c-4.513,3.145-5.632,9.409-2.487,13.921l29.729,42.664c3.145,4.512,9.409,5.632,13.922,2.487L480.567,623.395z"/>
		</g>
	</g>
	<g>
		<path fill="#FFFFFF" d="M242.972,729.627c-5.491,0.32-9.721,5.074-9.401,10.565l0.148,2.549c0.32,5.491,5.074,9.722,10.565,9.401
			l16.015-0.935c5.491-0.32,9.835-3.115,9.654-6.211c-0.181-3.096,4.164-5.891,9.654-6.21l0.424-0.025
			c5.491-0.319,10.131,1.951,10.311,5.046c0.181,3.095,4.821,5.365,10.312,5.046l16.014-0.934c5.491-0.319,9.835-3.113,9.654-6.209
			s3.72-5.864,8.667-6.152c4.948-0.289,9.144,2.008,9.324,5.104s4.82,5.367,10.311,5.047l7.618-0.444
			c5.491-0.32,9.835-3.115,9.655-6.211s2.953-5.819,6.963-6.054c4.011-0.232,7.44,2.108,7.621,5.203
			c0.181,3.096,4.821,5.366,10.312,5.046l11.876-0.691c5.491-0.32,9.721-5.074,9.401-10.565l-0.148-2.548
			c-0.32-5.491-5.074-9.722-10.565-9.401L242.972,729.627z"/>
		<path fill="none" stroke="#000000" stroke-width="7" stroke-miterlimit="10" d="M242.972,729.627
			c-5.491,0.32-9.721,5.074-9.401,10.565l0.148,2.549c0.32,5.491,5.074,9.722,10.565,9.401l16.015-0.935
			c5.491-0.32,9.835-3.115,9.654-6.211c-0.181-3.096,4.164-5.891,9.654-6.21l0.424-0.025c5.491-0.319,10.131,1.951,10.311,5.046
			c0.181,3.095,4.821,5.365,10.312,5.046l16.014-0.934c5.491-0.319,9.835-3.113,9.654-6.209s3.72-5.864,8.667-6.152
			c4.948-0.289,9.144,2.008,9.324,5.104s4.82,5.367,10.311,5.047l7.618-0.444c5.491-0.32,9.835-3.115,9.655-6.211
			s2.953-5.819,6.963-6.054c4.011-0.232,7.44,2.108,7.621,5.203c0.181,3.096,4.821,5.366,10.312,5.046l11.876-0.691
			c5.491-0.32,9.721-5.074,9.401-10.565l-0.148-2.548c-0.32-5.491-5.074-9.722-10.565-9.401L242.972,729.627z"/>
	</g>
	<g>
		<path fill="#FFFFFF" d="M391.335,716.301c5.491-0.323,9.718-5.08,9.395-10.57l-1.411-23.959c-0.323-5.49-5.08-9.718-10.571-9.395
			l-51.475,3.031c-5.491,0.323-10.248-3.904-10.571-9.395l-0.471-7.986c-0.323-5.49-5.08-9.718-10.571-9.395l-72.212,4.251
			c-5.491,0.323-9.718,5.08-9.395,10.57l3.056,51.911c0.323,5.49,5.08,9.718,10.571,9.395L391.335,716.301z"/>
		<path fill="none" stroke="#000000" stroke-width="7" stroke-miterlimit="10" d="M391.335,716.301
			c5.491-0.323,9.718-5.08,9.395-10.57l-1.411-23.959c-0.323-5.49-5.08-9.718-10.571-9.395l-51.475,3.031
			c-5.491,0.323-10.248-3.904-10.571-9.395l-0.471-7.986c-0.323-5.49-5.08-9.718-10.571-9.395l-72.212,4.251
			c-5.491,0.323-9.718,5.08-9.395,10.57l3.056,51.911c0.323,5.49,5.08,9.718,10.571,9.395L391.335,716.301z"/>
	</g>
	<circle fill="#FFFFFF" stroke="#000000" stroke-width="7" stroke-miterlimit="10" cx="401.534" cy="492.096" r="36.123"/>
	<circle fill="none" stroke="#000000" stroke-width="7" stroke-miterlimit="10" cx="295.039" cy="550.059" r="36.123"/>
	<path fill="#FFFFFF" stroke="#000000" stroke-width="7" stroke-miterlimit="10" d="M89.225,496.599"/>
	
		<line fill="#FFFFFF" stroke="#000000" stroke-width="7" stroke-miterlimit="10" x1="46.708" y1="377.965" x2="17.617" y2="342.714"/>
	<circle fill="#FFFFFF" stroke="#000000" stroke-width="7" stroke-miterlimit="10" cx="17.617" cy="342.714" r="19.387"/>
	<path fill="none" stroke="#010101" stroke-width="5" stroke-miterlimit="10" d="M936,739.764c0,6.627-5.373,12-12,12H804
		c-6.627,0-12-5.373-12-12v-111c0-6.627,5.373-12,12-12h120c6.627,0,12,5.373,12,12V739.764z"/>
	<ellipse fill="none" stroke="#010101" stroke-width="5" stroke-miterlimit="10" cx="864" cy="625.764" rx="72" ry="9"/>
</g>
</svg>
